<svg id="Layer_1" data-name="Layer 1" xmlns="http://www.w3.org/2000/svg" viewBox="0 0 710 710"><title>Inter Miami CF logo - Brandlogos.net</title><circle cx="355" cy="355" r="348.66" style="fill:#231f20"/><path d="M384,739C188.25,739,29,579.75,29,384S188.25,29,384,29,739,188.25,739,384,579.75,739,384,739Zm0-697.32C195.25,41.68,41.68,195.25,41.68,384S195.25,726.32,384,726.32,726.32,572.75,726.32,384,572.75,41.68,384,41.68Z" transform="translate(-29 -29)" style="fill:#f7b5cd"/><polygon points="540.12 586.94 536.1 568.8 532.1 586.95 513.9 590.95 532.11 594.93 536.13 613.07 540.12 594.93 558.33 590.92 540.12 586.94" style="fill:#f7b5cd"/><polygon points="177.89 586.94 173.87 568.8 169.88 586.95 151.68 590.95 169.88 594.93 173.9 613.07 177.9 594.93 196.1 590.92 177.89 586.94" style="fill:#f7b5cd"/><circle cx="355" cy="355" r="250.74" style="fill:#231f20"/><path d="M384,637.91C244,637.91,130.09,524,130.09,384S244,130.09,384,130.09,637.91,244,637.91,384,524,637.91,384,637.91Zm0-501.48c-136.51,0-247.57,111.06-247.57,247.57S247.49,631.57,384,631.57,631.57,520.51,631.57,384,520.51,136.43,384,136.43Z" transform="translate(-29 -29)" style="fill:#f7b5cd"/><path d="M204.62,175.57V380.09A296.35,296.35,0,0,0,374,647.86l10.39,4.92,11-5.28a296.32,296.32,0,0,0,168-267.11V175.57Z" transform="translate(-29 -29)" style="fill:#231f20"/><path d="M508.68,532.45a285.15,285.15,0,0,0,43.83-152v-194h-337v193.7a285.5,285.5,0,0,0,163.19,258l5.67,2.69,6.3-3A285.12,285.12,0,0,0,508.68,532.45ZM387.9,632.08l-3.56,1.71-2.94-1.39A279.13,279.13,0,0,1,221.84,380.15V192.83H546.16V380.45A279.15,279.15,0,0,1,387.9,632.08Z" transform="translate(-29 -29)" style="fill:#f7b5cd"/><path d="M384,351.51c-9.64,0-18-4.27-22-10.47a22,22,0,1,0,44,0C402,347.24,393.64,351.51,384,351.51Z" transform="translate(-29 -29)" style="fill:#f7b5cd"/><path d="M428.18,341l-22-9.08,15.65-13.86-21.29,5.56,5.58-21-16.26,15.13L384,296.84l-5.86,20.92-16.26-15.13,5.58,21-21.29-5.56L361.82,332l-22,9.08H362a22,22,0,0,1,44,0h0Z" transform="translate(-29 -29)" style="fill:#f7b5cd"/><path d="M479.32,334.73a22,22,0,0,0-15.64-6.48H454a6.59,6.59,0,0,1-6.65-6,6.45,6.45,0,0,1,6-6.87h59l-45.9-8.3a6.66,6.66,0,0,0-6.26-4.38H421.68l18.85,5.3a19.1,19.1,0,0,0-5.92,14,19.39,19.39,0,0,0,19.53,19h9.54a9.12,9.12,0,0,1,4.35,1,9.46,9.46,0,0,1-3.9,17.84H434.25a47.29,47.29,0,0,0-40.57,22.94,44.3,44.3,0,0,0-6.19,22.89h0l33-33h10l-43,43v15.26l58.28-58.27h10l-68.24,68.24v17.22l86.16-86.15,5.86-6h0a22.1,22.1,0,0,0-.18-31.11Zm-27.07-27.79h7.64v4.23h-7.64Z" transform="translate(-29 -29)" style="fill:#fff"/><path d="M282.19,350.39a22,22,0,0,0,6.31,15.45h0l5.86,6L380.52,458v-17.2L312.27,372.6h10l58.28,58.27V415.61l-43-43h10l33,33h0a44.3,44.3,0,0,0-6.19-22.89,47.29,47.29,0,0,0-40.57-22.94h-30A9.46,9.46,0,0,1,300,342a9.12,9.12,0,0,1,4.35-1h9.54a19.39,19.39,0,0,0,19.5-19,19.1,19.1,0,0,0-5.92-14l18.85-5.3H307.89a6.66,6.66,0,0,0-6.26,4.38l-45.9,8.3h58.54a6.45,6.45,0,0,1,6.43,6.47q0,.21,0,.41a6.59,6.59,0,0,1-6.65,6h-9.72a22.14,22.14,0,0,0-22.13,22.14Zm33.56-39.22h-7.64v-4.23h7.64Z" transform="translate(-29 -29)" style="fill:#fff"/><path d="M447.78,436.08V407.5l-6.34,6.35v19.6l-13,13v-19.6l-6.34,6.34V452.8l-38.06,38-38-38.07V433.32L339.66,427v19.45l-13-13V414l-6.35-6.35v28.43l19.33,19.32V556.25H320.22v6.34H346V461.75l33.57,33.57-16.76,16.77,21.26,21.23,21.24-21.23-16.77-16.77,33.58-33.57V562.59h25.66v-6.34H428.46V455.4Zm-51.44,76-12.27,12.27-12.29-12.28,12.28-12.28Z" transform="translate(-29 -29)" style="fill:#f7b5cd"/><rect x="302.37" y="199.48" width="12.86" height="44.55" style="fill:#f7b5cd"/><polygon points="277.88 199.48 277.88 199.5 277.86 199.48 260.02 217.32 242.2 199.5 242.2 199.48 242.19 199.48 242.18 199.48 242.18 199.48 229.33 199.48 229.33 244.04 242.2 244.04 242.2 216.88 260.02 234.7 277.88 216.84 277.88 244.04 290.74 244.04 290.74 199.48 277.88 199.48" style="fill:#f7b5cd"/><path d="M393.14,228.48H374.86L352.92,273H366.6l6-12.1L384,272.37l11.43-11.43,6,12.1h13.68ZM384,257.77l-6.62-6.62L384,237.7l6.62,13.45Z" transform="translate(-29 -29)" style="fill:#f7b5cd"/><rect x="467.8" y="199.48" width="12.86" height="44.55" style="fill:#f7b5cd"/><polygon points="443.31 199.48 443.31 199.5 443.29 199.48 425.45 217.32 407.63 199.5 407.63 199.48 407.62 199.48 407.61 199.48 407.61 199.48 394.76 199.48 394.76 244.04 407.63 244.04 407.63 216.88 425.45 234.7 443.31 216.84 443.31 244.04 456.17 244.04 456.17 199.48 443.31 199.48" style="fill:#f7b5cd"/><path d="M140.59,556.54a20,20,0,0,1-27.69-27l7.43,4.23a11.43,11.43,0,1,0,8.84-5.5l-.5-8.54a20,20,0,0,1,11.92,36.77Z" transform="translate(-29 -29)" style="fill:#fff"/><path d="M94.18,512.72,91,504.8l27.78-11.24-5.92-14.64,7.57-3.06,9.13,22.55Z" transform="translate(-29 -29)" style="fill:#fff"/><path d="M101.78,467.5l-22.41,5.34-2-8.31,22.52-5.36c4.44-1.06,6.48-4.52,5.5-8.65s-4.37-6.3-8.81-5.24l-22.52,5.36-2-8.31L94.52,437c9.24-2.2,16.82,2.73,18.94,11.61S111,465.3,101.78,467.5Z" transform="translate(-29 -29)" style="fill:#fff"/><path d="M68.44,415.48l-.82-14.31a11.33,11.33,0,0,1,10.66-12,9,9,0,0,1,6.7,2.36,9.93,9.93,0,0,1,8.69-5.93,11.27,11.27,0,0,1,11.85,10.66q0,.14,0,.28l1,16.72Zm14.62-14.22a3.83,3.83,0,0,0-3.91-3.75h-.09a3.88,3.88,0,0,0-3.65,4.1v.09l.28,4.82,7.61-.44Zm14.69-3.53a3.82,3.82,0,1,0-7.61.49l.42,7.45,7.61-.44Z" transform="translate(-29 -29)" style="fill:#fff"/><path d="M71.39,331.89l1.5-8.41,37.54,6.74-1.51,8.4Z" transform="translate(-29 -29)" style="fill:#fff"/><path d="M124,282.93l-28.36,9.78,22.25,7.76-2.81,8.06L79.07,296l2.42-7,28.3-9.75-22.2-7.74,2.83-8.11,36,12.55Z" transform="translate(-29 -29)" style="fill:#fff"/><path d="M112.71,236.55,107.94,245l-7.1-4,13.8-24.51,7.1,4-4.81,8.56,26.1,14.7-4.22,7.48Z" transform="translate(-29 -29)" style="fill:#fff"/><path d="M127.58,197.51l14.9-19,6.42,5-9.64,12.29,5.37,4.21,7.65-9.76,6.42,5L151,205l5.37,4.21L166.05,197l6.42,5-14.9,19Z" transform="translate(-29 -29)" style="fill:#fff"/><path d="M162.43,157.1l11.2-10c5.36-4.8,12.24-4,16.46.68,3.3,3.68,3.45,7.8,1,12.3l21.24,3.53-7.63,6.84-19.94-3.27-1,.93,10.49,11.72-6.36,5.7ZM183,159c1.88-1.68,2.27-4,.8-5.62s-3.79-1.5-5.67.18L174,157.24l4.87,5.45Z" transform="translate(-29 -29)" style="fill:#fff"/><path d="M248.92,139.92l-28.07-10.6L233,149.51l-7.31,4.4L206,121.26l6.3-3.79,28,10.58-12.14-20.14,7.36-4.44,19.67,32.65Z" transform="translate(-29 -29)" style="fill:#fff"/><path d="M273.6,86.9l7.28-2.61,28.22,30.38-8.39,3-5.9-6.44L280,116.56l-.47,8.72-8.39,3Zm15.78,18.41L281,96.11l-.62,12.42Z" transform="translate(-29 -29)" style="fill:#fff"/><path d="M320.82,92.36a20,20,0,0,1,35.7-14.82l-6.81,5.16A11.44,11.44,0,1,0,351.27,93l8,2.9a20,20,0,0,1-38.49-3.54Z" transform="translate(-29 -29)" style="fill:#fff"/><path d="M380,67.15h8.53v38.12H380Z" transform="translate(-29 -29)" style="fill:#fff"/><path d="M409.26,86.63A19.7,19.7,0,1,1,425.86,109h0A19.71,19.71,0,0,1,409.26,86.63Zm30.42,4.58A11.09,11.09,0,1,0,427,100.87a11.3,11.3,0,0,0,12.68-9.66Z" transform="translate(-29 -29)" style="fill:#fff"/><path d="M486.88,124.68l-9.61-28.44-7.9,22.21-8-2.86,12.79-35.93L481,82.13l9.57,28.37,7.89-22.16,8.09,2.88-12.78,35.92Z" transform="translate(-29 -29)" style="fill:#fff"/><path d="M542.43,109.53l6.64,3.95-5.45,41.1L536,150l1.21-8.65-13.56-8.06-7,5.19L508.93,134Zm-4.15,23.89L540,121.1l-10,7.44Z" transform="translate(-29 -29)" style="fill:#fff"/><path d="M581.67,136.11l6.49,5.55-19.48,22.77,12,10.27-5.31,6.2-18.49-15.82Z" transform="translate(-29 -29)" style="fill:#fff"/><path d="M633.8,188.51l7.52,10.59a19.06,19.06,0,1,1-30.75,22.53l-.34-.48-7.51-10.6Zm-17.17,28.11c3.72,5.25,10.39,5.85,15.39,2.31s6.63-10,2.91-15.29L632.35,200,614,213Z" transform="translate(-29 -29)" style="fill:#fff"/><path d="M663.89,234.92l10.61,21.71-7.34,3.58-6.86-14-6.13,3,5.45,11.14-7.33,3.59-5.45-11.15-6.13,3,6.86,14-7.33,3.59-10.62-21.71Z" transform="translate(-29 -29)" style="fill:#fff"/><path d="M691.07,304.85l5.07,22.92-8,1.76L684.94,315l-6.71,1.49,2.52,11.38-8,1.76-2.52-11.38-14.57,3.23-1.85-8.34Z" transform="translate(-29 -29)" style="fill:#fff"/><path d="M676.3,350l23-1.42.53,8.52-23.1,1.43c-4.56.28-7.17,3.35-6.91,7.58s3.23,7,7.78,6.67l23.11-1.42.52,8.52-23,1.42c-9.48.59-16.11-5.57-16.67-14.68S666.81,350.59,676.3,350ZM712,364.7l.55,8.89-8.83-6.17-.37-6Z" transform="translate(-29 -29)" style="fill:#fff"/><path d="M691.68,409.31l.92-9.68,8.12.77-2.66,28-8.12-.78.93-9.78L661,415l.81-8.55Z" transform="translate(-29 -29)" style="fill:#fff"/><path d="M694.18,450.14,690.63,464a11.33,11.33,0,0,1-13.78,8.17,9,9,0,0,1-5.66-4.28,10,10,0,0,1-10.08,3A11.25,11.25,0,0,1,653,457.18l.08-.29,4.15-16.23Zm-33.31,8.06a3.83,3.83,0,0,0,2.59,4.76l.12,0a3.88,3.88,0,0,0,4.67-2.89l0-.11,1.85-7.23-7.39-1.89Zm15.07,1.08a3.83,3.83,0,0,0,2.59,4.76l.07,0a3.88,3.88,0,0,0,4.71-2.81l0-.08,1.19-4.69-7.38-1.88Z" transform="translate(-29 -29)" style="fill:#fff"/><path d="M662.79,490.7a19.7,19.7,0,1,1-26.14,9.63h0A19.7,19.7,0,0,1,662.79,490.7ZM649.9,518.63a11.09,11.09,0,1,0-5.75-14.84A11.31,11.31,0,0,0,649.9,518.63Z" transform="translate(-29 -29)" style="fill:#fff"/><path d="M651.53,554.16l-4.83,7L622,544.26l-8.93,13-6.72-4.61L620.1,532.6Z" transform="translate(-29 -29)" style="fill:#fff"/><path d="M292.09,663.25l-6.46,23.1-8.11-2.77,10.36-36.9,7.53,2.52,6.94,18.8,15.71-12.45,7.74,1.77-10.37,37-8.36-2,6.48-23.13L298.68,681.1Z" transform="translate(-29 -29)" style="fill:#fff"/><path d="M350.19,675.59l-1.68,24L340,698.44l2.7-38.28,7.85,1,10.62,17.06,13-15.5,7.85.14-2.69,38.37-8.6-.1,1.68-24-12.16,14.59Z" transform="translate(-29 -29)" style="fill:#fff"/><path d="M417.11,686l-8.38,14.36-9.63.63,12.13-21-15.7-17.42,10.19-.72,9.83,11,7-12.89,10.14-1.67L421.4,678.82,438,696.55l-9.46,1.57Z" transform="translate(-29 -29)" style="fill:#fff"/><path d="M468.09,675.65l-5.83,15.6-9.38,2.29,8.39-22.83-18.5-14.53,9.94-2.43,11.59,9.18,4.77-14,9.66-3.37-7.62,22.23,19.37,14.68-9.13,3.12Z" transform="translate(-29 -29)" style="fill:#fff"/></svg>