<svg id="Layer_1" data-name="Layer 1" xmlns="http://www.w3.org/2000/svg" width="400.2" height="395.77" viewBox="0 0 400.2 395.77"><title>SL Benfica logo - Brandlogos.net</title><path d="M429.8,283.69c-.2,1.8-1.7,3-2.4,4.5-1,2.3-.8,5.3-2.6,7.5l-2.1.2a18.26,18.26,0,0,1-3.5,9.3c2.3,1.2,4.8,1.6,6.9,2.7a34.58,34.58,0,0,1,2.6,2.3c9.2,4.3,18.1,7.3,26.9,12.2l2.5.4,3.8,1.1,3.7,1,3.9,1.2,3.8,1.3.5.2,1.1.4,6,2.3,7.6,3.1,7.3,3.4,7,3.4,6.8,3.5,6.2,3.4,5.7,3.2,5,3,4.4,2.6,6.2,3.9L550,368l-1.2.1-17.8,1.6-10.4.9,2.9,23.2h0c-2.3-1.6-6.3-3.9-10.3-6.5a138.86,138.86,0,0,1,11.5,55.4c0,76.9-62.5,139.2-139.3,139.2a139.2,139.2,0,0,1-127.7-194.6c-4,2.7-7.4,5-9.7,6.6l.1-.5-.6.4,3-23.1-28.3-2.4-1.7-.3,13.3-8.4,6.2-3.9,4.5-2.7,5-3,5.7-3.2,6.4-3.5,6.8-3.5,7-3.5,7.6-3.4,7.5-3.1,7.8-3,3.9-1.3,3.9-1.1,3.8-1,3.8-1.1,2.6-.6a138.06,138.06,0,0,1,40.2-15.3,9,9,0,0,0,2.3-3.2l-.3-.6c-6.1-2.3-5.1-8.4-5-14.1-.2,4.7-1.3,2.9-2.7,1.1a23.4,23.4,0,0,1-.3-3.8l-1.8-.4a31.28,31.28,0,0,1-.4-6.1c-3.8,2.4-7.7,3.3-12.1,1.3-4.4.7-5.4,3.1-10.8,2l-1.5-1.4c-2.2.9-4.8-.7-6.8-1-5.1-.6-24-1.1-25.2-8.6-1.6-.5-5.8-3.4-5.8-5.2-7.4-1.8-17.3-3-23.1-8.2-8.4-.2-18.2-5.4-24.6-10.4-1.8-1.4-3.2-4.1-4.8-5.2-3.4-2.3-7.6-3.4-11.1-6-1.8-1.3-3.5-4-5.2-5.1-2.6-1.7-5.8-2.4-8.4-4.4-1.6-1.3-3-3.6-4.5-4.7-4.7-3.1-9.9-3.2-14.5-7.4-4-3.8-6-6.3-6-12.2,4.8-4.6,47.3-2.5,51.8-2.5,23.3-.2,64.5-3.8,86.7,3.8a33.19,33.19,0,0,1,18.9,16c10.8,3.4,8.6,8.6,15.5,14.2a24.82,24.82,0,0,1,.6-5.4l1.6-1.2c-1.6-1.3-3.1-3.4-2.8-5.5l-3.4-6.9c-2.6-1.8-13.6-5.8-11.9-10.8l-2.3,1.1c-11.9-10.6,6-23.8,18.9-18.1a15.62,15.62,0,0,1,7.1-.8l1.8.3c5.9,1.2,11,5.1,16.9,6.2,5.6,1,3.7-3.2,11.5,1.4l-.5,2.9a17.82,17.82,0,0,1,5.7,3.2v2.9c1,.3,2.7,2.2,3.4,3v1.7c4.1,1.2,13,9.3,9.9,14.1,2.7,3,4.3,6.3,3.3,10.4l.5.8h.8c2.9-4.7,6.3-14.3,13.1-15.3,15-26.3,71-18.7,94.6-19.2,12.5-.2,24.9.1,37.3.1,4.1,0,11.7-1.5,15.9-.4a25.69,25.69,0,0,1,5.3,2.5c-1.6,7.9-5.3,11.9-12.8,15.1l-5,1.9c-4.4,3.1-11,11.1-15.1,14.9-3.4,3.1-8,4.5-11.2,7.1-1.4,1.2-2.5,3.1-3.9,4.4-6.7,6.2-16.6,10.2-25.5,11.8-5.4,6.3-13.2,8.2-21,8.4a28.63,28.63,0,0,1-4.2,2.4c-.2.8-1.9,3.2-2.7,3.3-.4,3.2-4.9,7.5-8.1,7-1.7,1.9-15.6,3.2-17.8,1.9a10.65,10.65,0,0,1-7.3,2.1c-4.5,3.7-10.9.5-12.4,1C434.3,283.29,432.9,284.09,429.8,283.69Z" transform="translate(-183.9 -186.11)" style="fill:#fff"/><path d="M320.5,353.79a110.5,110.5,0,0,0,38,195.7A287.83,287.83,0,0,0,383.1,573a130.34,130.34,0,0,1-106.8-201.6c16-9.6,34.8-19.3,43.3-17.9Zm176,88.8a110.37,110.37,0,0,0-45.1-89.1c8.7-1.3,27.3,8.3,43.2,17.9a130.38,130.38,0,0,1-105.3,201.4,287.17,287.17,0,0,0,24.7-23.4,110.23,110.23,0,0,0,82.5-106.8ZM385.3,312.29a129.61,129.61,0,0,1,57.4,13.3l-1.6.4c-11.6,2.9-23,6-34.7,8.1a109.32,109.32,0,0,0-41.5.2c-7.3-1.3-14.3-2.9-20.5-4.4-2-.5-10.3-2.9-16.5-4.2A129,129,0,0,1,385.3,312.29Z" transform="translate(-183.9 -186.11)" style="fill:#b5b5b5"/><path d="M419.6,457.09l1.1-1.1.4.4.4.4.4.4.4.4.3.4.4.5.4.5-1.2.9-.3-.4-.4-.4-.4-.5-.4-.4-.3-.4-.4-.4Z" transform="translate(-183.9 -186.11)" style="fill:#0f0f10"/><polygon points="211 294.77 209.7 294.57 189.5 314.77 190.6 315.77 210.8 295.57 209.5 295.38 211 294.77 210.6 293.57 209.7 294.57 211 294.77" style="fill:#0f0f10"/><polygon points="198.4 260.07 198.4 260.18 198.5 260.27 200 259.77 199.9 259.68 200 259.68 198.4 260.07" style="fill:#0f0f10"/><polygon points="159.5 299.48 160.8 299.68 161.6 298.88 160.5 297.68 159.7 298.57 160.9 298.88 159.5 299.48 159.9 300.57 160.8 299.68 159.5 299.48" style="fill:#0f0f10"/><polygon points="243.1 262.18 242 262.18 235 269.18 236.1 270.27 243.1 263.18 242 263.18 243.1 262.18 242.6 261.48 242 262.18 243.1 262.18" style="fill:#0f0f10"/><polygon points="235 269.18 235 270.27 235 270.27 235 270.38 235 270.38 235.1 270.38 235.1 270.38 235.1 270.48 235.1 270.48 235.3 270.57 235.3 270.68 235.4 270.68 235.4 270.77 235.5 270.77 235.5 270.77 235.6 270.77 235.6 270.77 235.6 270.88 235.7 270.88 235.7 270.88 235.7 270.98 235.7 270.98 236.8 269.88 236.8 269.88 236.7 269.77 236.7 269.77 236.7 269.77 236.6 269.68 236.6 269.68 236.6 269.68 236.5 269.57 236.4 269.57 236.4 269.48 236.3 269.48 236.3 269.48 236.2 269.38 236.1 269.27 236.1 269.27 236.1 269.18 236.1 269.18 236.1 269.18 236 269.18 236.1 269.18 236.1 270.27 235 269.18 234.4 269.77 235 270.27 235 269.18" style="fill:#0f0f10"/><polygon points="229.3 274.88 229.3 274.88 223.5 280.57 224.6 281.77 230.3 275.98 230.3 275.98 229.3 274.88" style="fill:#0f0f10"/><polygon points="235.9 269.07 235 269.18 229.3 274.88 230.3 275.98 236.1 270.27 235.1 270.38 235.9 269.07 235.4 268.77 235 269.18 235.9 269.07" style="fill:#0f0f10"/><polygon points="224.6 280.68 223.5 280.57 209.7 294.57 210.8 295.57 224.6 281.77 223.5 281.68 224.6 280.68 224.1 279.98 223.5 280.57 224.6 280.68" style="fill:#0f0f10"/><polygon points="190.1 314.48 189.5 314.77 181.8 322.38 182.9 323.48 190.6 315.77 190.1 315.98 190.1 314.48" style="fill:#0f0f10"/><polygon points="168.2 292.18 168 292.48 161.6 298.88 160.5 297.68 167.1 291.07 174.6 283.57 198.7 259.57 218.3 239.88 219.4 240.97 199.8 260.68 198.9 261.48 175.3 285.18 174.4 286.07 168.2 292.18" style="fill:#0f0f10"/><path d="M425.6,462.39" transform="translate(-183.9 -186.11)" style="fill:#0f0f10"/><polygon points="202.9 177.68 198 177.38 192.9 176.78 181.9 175.18 170.8 173.28 160.2 171.28 143.2 167.57 136.4 165.97 134.7 165.88 132.9 165.88 130.9 166.18 128.8 166.47 126.6 167.18 124.1 167.88 119 169.88 113.5 172.28 107.9 175.07 102.2 178.07 96.6 181.28 86.1 187.57 77.3 193.18 69.1 198.68 71.4 180.57 49.8 178.68 52.1 177.18 58.2 173.28 62.7 170.68 67.7 167.68 73.3 164.47 79.7 160.97 86.4 157.57 93.4 154.18 100.8 150.78 108.2 147.68 115.8 144.78 119.6 143.47 123.4 142.38 127.2 141.28 130.9 140.28 134.5 139.47 138.2 138.88 139.3 138.88 141 139.18 146 140.28 152.9 141.97 161.1 144.18 170.6 146.38 175.8 147.47 181.1 148.57 186.4 149.47 191.9 150.18 197.4 150.68 202.9 151.18 202.9 177.68" style="fill:#12814b"/><polygon points="202.2 177.88 206.9 177.47 212.1 176.88 222.9 175.38 233.8 173.47 244.3 171.47 261 167.88 267.7 166.38 269.4 166.18 271.2 166.18 273.1 166.47 275.2 166.88 277.5 167.47 279.9 168.18 284.9 170.18 290.3 172.57 295.8 175.18 301.3 178.28 306.9 181.38 317.3 187.57 325.9 192.97 334 198.47 331.8 180.68 352.9 178.68 350.8 177.38 344.7 173.47 340.4 170.88 335.4 167.97 329.7 164.78 323.6 161.47 317 157.97 310 154.68 302.9 151.28 295.5 148.28 288 145.47 284.3 144.18 280.5 143.07 276.8 141.97 273.2 140.97 269.5 140.28 266 139.57 264.9 139.57 263.2 139.88 258.2 140.97 251.6 142.68 243.4 144.88 234 146.97 229 148.18 223.8 149.07 218.5 149.97 213.1 150.68 207.6 151.28 202.2 151.68 202.2 177.88" style="fill:#e83030"/><path d="M380.4,346.59l1.6-.1.3,4.7a1.76,1.76,0,0,0,.8,1.5,2.56,2.56,0,0,0,1.9.4,3.29,3.29,0,0,0,1.9-.6,1.66,1.66,0,0,0,.6-1.6l-.3-4.6,1.6-.1.3,4.8a2.81,2.81,0,0,1-.9,2.3,5,5,0,0,1-3.2.9,6.28,6.28,0,0,1-3.3-.6,2.44,2.44,0,0,1-1-2.2Zm-12,6.2.9-7.6,2.6.4a4.15,4.15,0,0,1,1.6.3,3.55,3.55,0,0,1,.9.4,2.34,2.34,0,0,1,.7.7,3.4,3.4,0,0,1,.1,1,1.05,1.05,0,0,1-.5.9,1.5,1.5,0,0,1-1.1.4,3.92,3.92,0,0,1,1.4.8,1.74,1.74,0,0,1,.3,1.4,1.14,1.14,0,0,1-.3.8,4.35,4.35,0,0,1-.7.6,2.1,2.1,0,0,1-1.1.4c-.4,0-1.1-.1-2.1-.1Zm2.2-4.1h.6a4.85,4.85,0,0,0,1.7,0,.76.76,0,0,0,.6-.8,1,1,0,0,0-.3-1,4.71,4.71,0,0,0-1.7-.4l-.7-.1Zm-.5,3.3.6.1c.5.1.9.1,1.4.2.3,0,.5-.1.7-.1a2.18,2.18,0,0,0,.5-.4c.1-.2.2-.3.1-.5a.88.88,0,0,0-.1-.7.66.66,0,0,0-.5-.4.73.73,0,0,0-.6-.2,1.45,1.45,0,0,0-.7-.2l-.6-.1-.5-.1Zm-10-.5,1.4-7.5,1.6.3-1.4,7.5Zm-9.8-5.6-.8,3.4-1.6-.4,1.7-7.4,2.3.5c.7.2,1.2.3,1.5.4l.9.6a1.46,1.46,0,0,1,.6.9,1.7,1.7,0,0,1,0,1,2,2,0,0,1-.9,1.3,3.13,3.13,0,0,1-1.9.2l2.7,4.2-1.9-.4-2.6-4.1v-.2Zm.4-1,.2.1a11.27,11.27,0,0,0,1.8.3,1,1,0,0,0,.6-.8.91.91,0,0,0-.3-1,2.45,2.45,0,0,0-1.6-.6l-.3-.1Zm-15.6-7,1.6.4-1,4.5a2,2,0,0,0,.2,1.7,3.1,3.1,0,0,0,1.8.9,3,3,0,0,0,2.1-.1,1.42,1.42,0,0,0,.9-1.3l1-4.6,1.6.4-1.1,4.6a2.82,2.82,0,0,1-1.5,2,6.16,6.16,0,0,1-3.3,0,4.56,4.56,0,0,1-2.9-1.5,3.12,3.12,0,0,1-.5-2.5Zm-23,1.2.4,3.4-1.5.3-.8-7.6,2.5-.2a8.6,8.6,0,0,1,1.6-.1,3.55,3.55,0,0,1,1,.2,1.56,1.56,0,0,1,.8.6,1.28,1.28,0,0,1,.4,1,1.23,1.23,0,0,1-.2,1,5.49,5.49,0,0,1-.7.9,7.93,7.93,0,0,1-.9.4,5.08,5.08,0,0,1-1.7.3h-.3Zm0-1h.4a11.63,11.63,0,0,0,1.8-.4.68.68,0,0,0,.4-.8.87.87,0,0,0-.6-.8,3.67,3.67,0,0,0-1.8-.1h-.4Zm158.3,4.6v-.5a.9.9,0,0,0,.1-.5c-.1.1-.2.3-.3.4l-.4.4-3.7,3.2-1.5-4.7-.2-.6c-.1-.3-.1-.3-.1-.4-.1.1-.1.3-.2.4a1.38,1.38,0,0,1-.3.4l-2,3.2-1.4-.4,4.4-7,1.7,5.4v.4a1.88,1.88,0,0,1,.2.8,2.34,2.34,0,0,1,.7-.7c.1-.1.1-.2.2-.3l4.1-3.8.3,8.3-1.4-.5Zm-24.7-7.1,1.7-.1.5,4.5a1.8,1.8,0,0,0,.7,1.5,3.73,3.73,0,0,0,2.1.3,3.29,3.29,0,0,0,1.9-.6,1.94,1.94,0,0,0,.5-1.6l-.5-4.6,1.7-.1.4,4.6a2.45,2.45,0,0,1-.9,2.5,5.71,5.71,0,0,1-3.1,1,5.38,5.38,0,0,1-3.3-.5,2.61,2.61,0,0,1-1.3-2.2ZM431,346.79l-1.8-7.8,7.5,3.1.6.3c.2.1.5.2.7.3l-1.1-5.2,1.5-.4,1.8,7.7-7.6-3.1c-.2-.1-.4-.1-.6-.3s-.4-.3-.6-.4l1.2,5.1Zm-16.4-4.1,1.5-.4,1,4.5a2.07,2.07,0,0,0,1,1.4,3.38,3.38,0,0,0,2,.1,3.25,3.25,0,0,0,1.8-1,1.89,1.89,0,0,0,.3-1.6l-1.1-4.5,1.7-.4,1,4.6a2.71,2.71,0,0,1-.5,2.6,6.06,6.06,0,0,1-2.9,1.4,6.16,6.16,0,0,1-3.3,0,3.44,3.44,0,0,1-1.6-2.1ZM395.1,352l1.3-.6a2.34,2.34,0,0,0,.7.7,2.2,2.2,0,0,0,1.4.1,1.61,1.61,0,0,0,1.1-.5.91.91,0,0,0,.4-.8,1.78,1.78,0,0,0-1.6-1,.6.6,0,0,1-.4-.1,5.42,5.42,0,0,1-2.4-.9,1.36,1.36,0,0,1-.7-1.1,1.49,1.49,0,0,1,.7-1.5,4.12,4.12,0,0,1,2.1-1,6.8,6.8,0,0,1,2,.2,2,2,0,0,1,1.2.8l-1.3.7a3,3,0,0,0-.7-.5H398a1.28,1.28,0,0,0-1,.4.91.91,0,0,0-.4.8c.1.4.7.7,2,1a7.28,7.28,0,0,1,2.4.7,1.52,1.52,0,0,1,.7,1.2,1.78,1.78,0,0,1-.7,1.8,4.29,4.29,0,0,1-2.4,1,4.59,4.59,0,0,1-2.3-.3A2.54,2.54,0,0,1,395.1,352Zm-72.3-9,1.5-7.5,1.6.3-1.2,6.4,3.7.7-.3,1.1Zm-31.5,5.6-2.6-7.2,5.4-2,.4,1-3.9,1.4.7,1.8,4-1.4.3,1-3.8,1.5.8,2.3,3.9-1.4.4,1Z" transform="translate(-183.9 -186.11)" style="fill:#0f0f10"/><path d="M384.5,354.59a5.92,5.92,0,0,1-2.9-.7,2.79,2.79,0,0,1-1.2-2.5l-.4-5.1,2.3-.1.3,5a1.61,1.61,0,0,0,.6,1.3,3.29,3.29,0,0,0,1.7.4,3.37,3.37,0,0,0,1.7-.5,1.87,1.87,0,0,0,.5-1.4l-.2-5,2.3-.2.4,5.1a3.07,3.07,0,0,1-1,2.6,5.89,5.89,0,0,1-3.4,1,2,2,0,0,0-.7.1Zm-3.7-7.7.3,4.5a2,2,0,0,0,.9,2,6.55,6.55,0,0,0,3.1.5,4.55,4.55,0,0,0,3-.8,2.35,2.35,0,0,0,.8-2.1l-.3-4.4-1,.1.3,4.2a2.28,2.28,0,0,1-.7,1.9,5.22,5.22,0,0,1-2.1.7h0a3.14,3.14,0,0,1-2.1-.5,2.14,2.14,0,0,1-.9-1.8l-.3-4.3Zm17.8,6.8h0a5,5,0,0,1-2.4-.3,2.54,2.54,0,0,1-1.4-1.3l-.1-.3,1.9-.9.1.4a1,1,0,0,0,.6.5,2,2,0,0,0,1.1,0,1.09,1.09,0,0,0,.9-.4.55.55,0,0,0,.3-.5,1.6,1.6,0,0,0-1.4-.8.76.76,0,0,1-.5-.2,6.81,6.81,0,0,1-2.4-.8,1.6,1.6,0,0,1-.8-1.4,1.84,1.84,0,0,1,.8-1.8,5.23,5.23,0,0,1,2.3-1,5,5,0,0,1,2.1.2,3,3,0,0,1,1.3.9l.3.3-1.9,1-.2-.1a2.09,2.09,0,0,0-.6-.4h-.8a1.14,1.14,0,0,0-.8.3.37.37,0,0,0-.2.5,3.63,3.63,0,0,0,1.7.7,8.65,8.65,0,0,1,2.3.6l.2.1a1.6,1.6,0,0,1,.8,1.4,2.35,2.35,0,0,1-.8,2.1,3.29,3.29,0,0,1-2.4,1.2Zm-3-1.6a1.46,1.46,0,0,0,.9.6,5,5,0,0,0,2.1.2,4.31,4.31,0,0,0,2.2-.9,1.5,1.5,0,0,0,.6-1.5,1.1,1.1,0,0,0-.6-1,9,9,0,0,0-2.2-.6c-1.4-.4-2.1-.7-2.3-1.3a1.27,1.27,0,0,1,.5-1.1,1.85,1.85,0,0,1,1.2-.5h.9a2,2,0,0,1,.8.4l.6-.3a2.51,2.51,0,0,0-.7-.4,5.46,5.46,0,0,0-1.8-.1,3.38,3.38,0,0,0-1.9.9,1.61,1.61,0,0,0-.6,1.3,1.05,1.05,0,0,0,.5.9,6.31,6.31,0,0,0,2.3.8l.3.1a2.05,2.05,0,0,1,1.9,1.3,1,1,0,0,1-.5,1.1,1.61,1.61,0,0,1-1.3.6,2.57,2.57,0,0,1-1.5-.1,1.79,1.79,0,0,1-.7-.5l-.7.1Zm-22.4,1.6h0a9.89,9.89,0,0,1-1.5-.1l-3.6-.4,1-8.2,3,.4a5.08,5.08,0,0,1,1.7.3,3.55,3.55,0,0,1,.9.4,6.47,6.47,0,0,1,.9.8l.1.2a3.4,3.4,0,0,1,.1,1,2,2,0,0,1-.6,1.1.52.52,0,0,1-.4.2c.2.1.4.3.6.4a2.09,2.09,0,0,1,.4,1.7,1.28,1.28,0,0,1-.4,1,1.34,1.34,0,0,1-.7.6,5,5,0,0,1-1.3.5h-.2Zm-4.4-1.2,2.9.4a8.17,8.17,0,0,0,1.4.1,1.78,1.78,0,0,0,1-.4,2.65,2.65,0,0,0,.6-.5,1.42,1.42,0,0,0,.2-.6,1.72,1.72,0,0,0-.2-1.2,7.46,7.46,0,0,0-1.2-.7V349a2.39,2.39,0,0,0,.9-.3,1.23,1.23,0,0,0,.4-.8,1.1,1.1,0,0,0,0-.8l-.6-.6a2,2,0,0,0-.8-.4,8.81,8.81,0,0,0-1.7-.2l-2.4-.3-.5,6.9Zm3.3,0c-.3,0-.6-.1-.9-.1l-1.5-.2.4-3.1,1.5.2.3.1a.6.6,0,0,1,.4.1,1.45,1.45,0,0,1,.7.2.9.9,0,0,1,.6.6,1.18,1.18,0,0,1,.1,1,1.42,1.42,0,0,1-.2.6,2.65,2.65,0,0,1-.6.5l-.4.1Zm-1.6-.9.8.1a2,2,0,0,0,1.1,0h.3a1.38,1.38,0,0,0,.3-.4.37.37,0,0,0,.1-.3.75.75,0,0,0-.1-.5c-.1-.1-.2-.2-.3-.2l-.2-.2h-.3l-.2-.1a.75.75,0,0,1-.5-.1l-.8-.1-.2,1.8Zm-8.4.5-2.3-.4,1.6-8.1,2.3.4-1.6,8.1Zm-1.5-.9,1,.1,1.3-6.8-1-.2-1.3,6.9Zm-4.9-.3-2.9-.8-2.3-3.6-.7,3.1-2.2-.6,1.9-8,2.7.6a6.21,6.21,0,0,1,1,.3l.5.1a3.59,3.59,0,0,1,1,.7,1.56,1.56,0,0,1,.6.8l.1.2a2,2,0,0,1,0,1.1,2.09,2.09,0,0,1-1.1,1.5,3.19,3.19,0,0,1-1.4.3l2.8,4.3Zm-2.4-1.2,1,.2-2.6-4,.7.1a3.21,3.21,0,0,0,1.7-.2,1.23,1.23,0,0,0,.7-1.1.85.85,0,0,0,0-.7,1.79,1.79,0,0,0-.5-.7,5.55,5.55,0,0,0-.8-.6l-.5-.1c-.3-.1-.6-.2-1-.3l-2-.4-1.6,6.7.9.3.8-3.3h.5l.3.1,2.4,4Zm65.5.1a7.77,7.77,0,0,1-1.6-.2,3.79,3.79,0,0,1-1.8-2.3l-1.1-5,2.2-.5,1.1,4.8a2.15,2.15,0,0,0,.9,1.2,2.48,2.48,0,0,0,1.7,0,3,3,0,0,0,1.6-.8,1.74,1.74,0,0,0,.3-1.4l-1.2-4.7,2.4-.6,1.1,4.9a3.34,3.34,0,0,1-.6,2.9,7.67,7.67,0,0,1-3.1,1.6,11.48,11.48,0,0,1-1.9.1Zm-3.7-7,1,4.3a2.89,2.89,0,0,0,1.3,1.9,5.45,5.45,0,0,0,3.1,0,6.19,6.19,0,0,0,2.8-1.4,2.41,2.41,0,0,0,.4-2.3l-.9-4.2-1.1.3,1,4.1a2.47,2.47,0,0,1-.4,1.9,3.6,3.6,0,0,1-2,1.1,3.33,3.33,0,0,1-2.2-.1,2.2,2.2,0,0,1-1.2-1.6l-.9-4.2-.9.2Zm-42.8,6.3h-2.1l.4-2.9,1,.1a4.49,4.49,0,0,1,1.9.5,1.48,1.48,0,0,1,.4,1.3,1.06,1.06,0,0,1-.9,1Zm-1.4-.8h.2a4.3,4.3,0,0,0,1.6,0,.43.43,0,0,0,.4-.4,1.88,1.88,0,0,0-.2-.8c-.2,0-.8-.2-1.5-.3H371l-.1,1.5Zm-79.8.7-2.8-7.9,6-2.2.7,1.7-4,1.4.4,1.2,4-1.4.6,1.6-3.8,1.5.5,1.7,3.9-1.4.7,1.6-6.2,2.2Zm-2-7.4,2.4,6.6,4.9-1.8-.2-.4-3.9,1.4-1-2.9,3.8-1.5-.1-.3-3.9,1.3-.9-2.4,3.9-1.4-.2-.4-4.8,1.8Zm183.4,5.8-2.1-.8-.2-4.1h0l-4.1,3.6-1.7-5.2-.1-.1-2.2,3.6-2.1-.5,5-8.1,1.9,6.1a.9.9,0,0,1,.1.5h0l.3-.2a.35.35,0,0,1,.1-.2l4.7-4.3.4,9.7Zm-1.5-1.2.8.3-.3-7.1-3.6,3.3c0,.1-.1.2-.2.3s-.5.4-.6.6l-.6.9v-1.1a1.27,1.27,0,0,0-.1-.6l.2-.5-.3.1-.1-.3-1.5-4.6-3.7,6,.8.2,1.9-3.1.1-.2.2-.3a.76.76,0,0,1,.2-.4l.6-.6v.8a.6.6,0,0,1,.1.4v.2a.37.37,0,0,0,.1.3l1.4,4.3,3.7-3.4.1-.2.6-.9.1.9a1.27,1.27,0,0,1-.1.6l.2,4.1Zm-131.7.9a6.93,6.93,0,0,1-2-.3,5.07,5.07,0,0,1-3.1-1.5,3.47,3.47,0,0,1-.6-2.8l1.2-5,2.3.6-1.1,4.8a2,2,0,0,0,.2,1.5,2.33,2.33,0,0,0,1.5.7,2.12,2.12,0,0,0,1.9,0,1.55,1.55,0,0,0,.8-1.1l1.1-4.9,2.3.6-1.1,5a3.09,3.09,0,0,1-1.8,2.2,8.75,8.75,0,0,1-1.6.2Zm-4-8.8-1,4.3a2.47,2.47,0,0,0,.5,2.2,5.41,5.41,0,0,0,2.7,1.4,5.8,5.8,0,0,0,3.2,0,2.6,2.6,0,0,0,1.4-1.8l1-4.3-1-.3-1,4.2a1.72,1.72,0,0,1-1.2,1.5,3,3,0,0,1-2.3.1,3,3,0,0,1-2-1,3.4,3.4,0,0,1-.3-2l1-4.1-1-.2Zm95.5,8.7-2-8.7,8.1,3.4.6.3h.1l-1-4.8,2.1-.5,2,8.6-8.3-3.3c-.2-.1-.4-.1-.6-.2l1.1,4.7-2.1.5Zm-1-7.6,1.6,6.8.8-.2-1.3-5.4.6.2a.55.55,0,0,1,.5.3,2.12,2.12,0,0,0,.7.3l7.1,2.8-1.6-6.7-.8.2,1.2,5.3-.6-.2-.3-.1c-.1,0-.2-.1-.3-.1l-.2-.1c-.1-.1-.2-.2-.3-.2l-7.1-2.9Zm-77.3,6.1a5.08,5.08,0,0,1-1.7-.3l-.6-.2.7-2.7.6.2a3.12,3.12,0,0,1,1.8.7,1.25,1.25,0,0,1,.4,1.3,1.59,1.59,0,0,1-.8,1Zm-1.4-.9a4.68,4.68,0,0,0,1.7.2,2.19,2.19,0,0,0,.3-.5.66.66,0,0,0-.1-.6,2,2,0,0,0-1.5-.5l-.4,1.4Zm-22.7-.2-6-1.2,1.6-8.1,2.3.5-1.2,6.4,3.7.7-.4,1.7Zm-5.2-1.7,4.7.9.1-.5-3.7-.7,1.2-6.4-1-.2-1.3,6.9Zm126.7.6a4,4,0,0,1-2.6-.6,3.18,3.18,0,0,1-1.5-2.5l-.5-5.1,2.4-.1.4,5a1.66,1.66,0,0,0,.5,1.2,3.06,3.06,0,0,0,1.9.2,3.37,3.37,0,0,0,1.7-.5,2.3,2.3,0,0,0,.4-1.4l-.5-5,2.4-.1.5,5a3,3,0,0,1-1,2.8,5.46,5.46,0,0,1-3.3,1.1Zm-3.7-7.5.4,4.4a2.31,2.31,0,0,0,1.1,2,4.68,4.68,0,0,0,3.1.5,4.84,4.84,0,0,0,2.9-1,2.24,2.24,0,0,0,.7-2.2l-.4-4.3-1,.1.5,4.3a3.29,3.29,0,0,1-.6,1.9,3.44,3.44,0,0,1-2.1.8,4.09,4.09,0,0,1-2.2-.3,2.14,2.14,0,0,1-.9-1.8l-.4-4.3-1.1-.1ZM310.7,343l-.8-8.4,3.2-.2a3.3,3.3,0,0,1,1.4,0,2.77,2.77,0,0,1,.9.1,2.1,2.1,0,0,1,1.1.8,1.85,1.85,0,0,1,.5,1.2,1.13,1.13,0,0,1-.3,1.1,2.36,2.36,0,0,1-.8.9l-.3.2a1.42,1.42,0,0,1-.6.2l-.3.1a7.72,7.72,0,0,1-1.5.2h-.6l.3,3.4-2.2.4Zm-.1-7.7.7,7,.9-.2-.3-3.4,1.3-.1a5.07,5.07,0,0,0,1.3-.2l.3-.1a.52.52,0,0,0,.4-.2c.1-.1.2-.1.4-.2a1.79,1.79,0,0,0,.5-.7,1.85,1.85,0,0,0,.2-.7,1.49,1.49,0,0,0-.4-.9,1,1,0,0,0-.6-.5,3.55,3.55,0,0,0-1-.2,2.44,2.44,0,0,0-1.2,0l-2.5.4Zm1.6,3h-.3l-.2-2.7.8-.1a4.44,4.44,0,0,1,2,.1,1.17,1.17,0,0,1,.8,1.1,1,1,0,0,1-.6,1.1,4.19,4.19,0,0,1-1.6.4l-.9.1Zm.3-.7.4-.1a2.84,2.84,0,0,0,1.3-.4.49.49,0,0,0,.3-.6.66.66,0,0,0-.4-.5,3.22,3.22,0,0,0-1.7-.1h-.1l.2,1.7Z" transform="translate(-183.9 -186.11)" style="fill:#0f0f10"/><polygon points="129.8 203.07 137.1 205.28 145.2 207.47 155.4 209.97 161 211.28 167 212.57 173 213.78 179.2 214.78 185.3 215.68 191.3 216.38 197.1 216.88 202 216.97 202 376.88 198.3 373.68 198 373.57 194.2 369.98 190.1 366.07 186.2 362.18 182.5 358.38 178.9 354.57 175.5 350.68 172.2 346.77 169.1 342.98 166.1 339.07 163.2 335.18 160.6 331.38 157.9 327.48 155.5 323.68 153.2 319.88 151.1 316.07 147 308.68 145.2 304.88 143.5 301.18 140.4 293.88 138.9 290.27 137.6 286.68 135.3 279.68 133.4 272.98 131.7 266.38 130.4 259.88 129.4 253.78 128.5 247.78 128 242.18 127.7 236.88 127.4 231.88 127.4 227.28 127.5 222.97 127.8 218.97 128.4 212.28 129.1 207.28 129.6 204.07 129.8 203.07" style="fill:#e83030"/><polygon points="148.4 310.98 248.2 211.18 249.2 210.88 259.2 208.38 267.3 206.28 274.6 203.97 274.8 205.07 275.4 208.18 276.1 213.07 276.4 216.18 276.7 219.57 276.9 223.47 276.9 227.78 276.9 228.38 166.4 338.88 165.6 337.77 162.8 333.98 160.1 330.18 157.5 326.48 155.1 322.68 152.8 318.98 150.6 315.18 148.4 310.98" style="fill:#1074bc"/><path d="M356.4,507.49l1.3-3.5a4.77,4.77,0,0,0,3.1.7,5.22,5.22,0,0,0,2.9-1.6,3.93,3.93,0,0,0,1.3-2.9,3.22,3.22,0,0,0-1.2-2.6q-1.65-1.5-5.4-.3c-.4.2-.7.3-.9.4a19,19,0,0,1-6.6,1.3,5.71,5.71,0,0,1-3.9-1.8,7,7,0,0,1-2.1-5.2,7.52,7.52,0,0,1,2.6-5.3,8.49,8.49,0,0,1,4-2.5,5.8,5.8,0,0,1,4.1.3l-1.1,3.5a9.66,9.66,0,0,0-2.4-.1,4.53,4.53,0,0,0-1.9,1.1,3.82,3.82,0,0,0-1.3,2.5,2.8,2.8,0,0,0,1,2.4c1,1,3.2,1,6.1-.1a1.42,1.42,0,0,1,.6-.2,15.31,15.31,0,0,1,6-1.2,5.82,5.82,0,0,1,3.9,1.9A7.72,7.72,0,0,1,369,500a8.7,8.7,0,0,1-2.8,6,9.55,9.55,0,0,1-4.9,2.7,7.09,7.09,0,0,1-4.9-1.2Z" transform="translate(-183.9 -186.11)" style="fill:#ffd432"/><path d="M380.5,487.79a2.71,2.71,0,0,1,0-3.4,1.66,1.66,0,0,1,1.6-.6,2.93,2.93,0,0,1,1.6.7,2.33,2.33,0,0,1,.7,1.5,2.14,2.14,0,0,1-.8,1.7,2.2,2.2,0,0,1-1.5.6,2,2,0,0,1-1.6-.5Z" transform="translate(-183.9 -186.11)" style="fill:#ffd432"/><polygon points="212.8 288.18 194.8 270.07 197.7 267.18 213.1 282.57 219.7 276.07 222.3 278.68 212.8 288.18" style="fill:#ffd432"/><path d="M415.2,453.09a2.72,2.72,0,0,1-.6-1.7,2.27,2.27,0,0,1,.6-1.6,2.84,2.84,0,0,1,1.7-.7,2.57,2.57,0,0,1,1.6.7,2.29,2.29,0,0,1,0,3.3,2.27,2.27,0,0,1-1.6.6,2.72,2.72,0,0,1-1.7-.6Z" transform="translate(-183.9 -186.11)" style="fill:#ffd432"/><path d="M426.8,422.89l.3-.5.3-.8.1-.8-.2-.7-.4-.7-.1-.1V414l.9.4,1.3,1,.7.7.4.8.3.9.3.8.1.9-.1.8-.3.9-.3.8.9-.5.9-.4,1-.2,1,.1,1,.3,1,.4,1,.7,1,.9,1,1.1.7,1.3.4,1.4.2,1.5-.1.6-.1.8-.7,1.5-.5.8-.7,1-2.2,2.2-4.6,4.5-4.6-4.6v-5.8l5.1,5.1.9-1,1.4-1.4.8-1,.6-.9.3-.8.1-.9-.3-.9-.3-.9-.7-.7-1-.8-1-.4-.9-.1-1.1.1-.6.2-.6.5-1.5,1.2-.9.9-.3.3v-4.9h0Zm-2.9,3.4,1.1-1.2,1-1,.8-1,.1-.3v4.9l-.7.7.7.7v5.8l-13.5-13.5L418,417l1.8-1.6,1.3-.9,1.1-.6,1.1-.3.8-.1h.8l1.4.4.6.3v5.3l-.4-.6-.8-.6-.7-.4-.7-.3h-.8l-.8.3-.8.5-1,.7-1.1,1-1.1,1.1,5.2,5.1Z" transform="translate(-183.9 -186.11)" style="fill:#ffd432"/><path d="M451.4,416.79a2,2,0,0,1-.7-1.6,2.13,2.13,0,0,1,.7-1.5,2,2,0,0,1,1.6-.7,1.68,1.68,0,0,1,1.5.7,2.13,2.13,0,0,1,.7,1.5,2,2,0,0,1-.7,1.6,2.13,2.13,0,0,1-1.5.7,2.83,2.83,0,0,1-1.6-.7Z" transform="translate(-183.9 -186.11)" style="fill:#ffd432"/><path d="M388.4,512.69l-.5.2-2.1.3-1.5.3h-1.4l-2.6-.3-4.3-.7-1.6-.4-1.6-.5-2.9-1-3.6-1.5,7.7-7.8,20.2-20.2,13.7-13.9,5.8-5.8,5.7-5.7,7.1-7.1.8,1.7,1,2.6.7,2,.2.6.2.6.3,1,.3.9.2.7.4,2.7.3,2.3.2,1.6.1,4.6-.4,3.4-.1,1.5-.3,1.1-.4.8-.5.7v1.7l-.2,1.8-.4,1.9-.3,1.3-.8,1.8-.8,1.8-.9,1.8-.6,1.1-1.1,1.9-.9,1.3-.9,1.2-1,1.2-1,1.1-2.2,1.8-2.1,1.5-2,1.2-1.3,1.7-1.7,1.7-2.4,1.8-2.4,1.5-1.8.9-2,.8-2.7,1-2.8.8-2.2.5-2.1.3-2.2.1-1.1-.1Zm-23.2-82.3c8.1-9.8,26.9-7.8,37.6-3.9-19.5,19.7-39.2,39.1-58.7,58.8-7.8-18.1-1.4-38.4,12.7-51.3,1.9-1.7,7.7-6.1,10.4-5.8C366.6,429,365.8,429.59,365.2,430.39Z" transform="translate(-183.9 -186.11)" style="fill:#ffd432"/><path d="M410.2,332.49l.1-1,.2-1,.1-.6-.1-.5-.1-.4-.4-.4-1-1-.8-1.3-.6-1.3-.5-1.4-.7-2.8-.5-3-1.5-.7-1.4-.6-.8-.5-.6-.6-1.2-1.4-2.8.4-1.5.2-1.4-.2h-.6l-.6.4-.6.5-.5.6-.6.4-.4.2-.4-.3-.4-.9v-.5l.1-.4.4-.9.2-.6a6.58,6.58,0,0,0-2.8-.4l-.5.7-1.4,2.2h-.5l-1.9-2.9h-2.9l.5.4.3.4.4.6.2.5.2,1.4V317l-.3.5-.9-.3-.5-.4-.5-.4-.5-.4-1.2-.7-.7-.2-.7.2-.8.4-.9.3h-.8l-1-.2-.9-.1-1,.1-1.1.3-1.1.8-.5.2-.5.1h-1.3l-1.6-.3-.4.9-.2.7-.4,1.8-1,2.2-1,2-.8,1.9-.3.9-.1.9-.3,1-.2,1,.1.4.2.5.3.4.6.5a133.72,133.72,0,0,1,23.6-2.2A129.75,129.75,0,0,1,410.2,332.49Zm-102.1,46.7-1.1-.4c-5.1,19.2-4.8,42.8-1.8,62.2,8.5,53.5,39.8,97.6,80.8,131.7,48.1-39.8,82.5-93.6,83-157.4.1-12.1-.8-24.8-4-36.5l-1.1.3c-22.7,7.1-54.6,15-77.9,15S330.8,386.19,308.1,379.19Zm36.8,154.5-.8,1.7c1.1.5,2.2,1,3.4,1.5A40.32,40.32,0,0,1,344.9,533.69Zm-9.6-13-4.9,7.3a101.23,101.23,0,0,0,11.6,6.5l1.3-2.8c-2.8-3.6-5.4-7.2-8-11Zm-8.8-14.1-10,10.4a101.77,101.77,0,0,0,12,9.7l5.4-8.1c-2.6-3.9-5.1-7.9-7.4-12Zm-8.7-17-15.7,10.5a97.52,97.52,0,0,0,12.7,15.2l10.5-10.9c-2.7-4.8-5.2-9.7-7.5-14.8Zm-6.1-14.9-19.2,8a105.09,105.09,0,0,0,8.3,15.5l16.1-10.7a118.25,118.25,0,0,1-5.2-12.8Zm-4.4-14.1L286.7,465a108,108,0,0,0,4.8,15.6l19.4-8c-1.3-4-2.6-7.9-3.6-12Zm-3.7-16.8H284.3a109.23,109.23,0,0,0,2,18.9l20.5-4.4a117,117,0,0,1-3.2-14.5ZM301.5,427l-15.6-3.1a102.72,102.72,0,0,0-1.7,17.5h18.9C302.4,436.69,301.9,431.89,301.5,427Zm-.5-18.3-9.5-4a99.69,99.69,0,0,0-5.1,16.9l14.9,3c-.2-3.1-.3-6.1-.3-9.3v-6.6Zm1.8-20.4-2-1.4a108.54,108.54,0,0,0-8.3,15.4l8.6,3.6a171.85,171.85,0,0,1,1.7-17.6Zm1.2-6a24.76,24.76,0,0,0-1.9,2.6l1.2.8c.2-1.1.4-2.2.7-3.4Zm19.2-1-9.9-9.9c-1.7,1.8-3.4,3.6-5,5.5l.6.2c4.3,1.4,9.2,2.8,14.3,4.2Zm24.7,6-19.3-28.9a115.22,115.22,0,0,0-13.8,11.3l12.8,12.8c6.6,1.8,13.4,3.4,20.3,4.8Zm93.4-3.9,14.5-15.1a101.77,101.77,0,0,0-12-9.7l-19.2,28.7c5.5-1.2,11.2-2.4,16.7-3.9Zm22.6-6.4a86.75,86.75,0,0,0-6.5-7.1l-11.9,12.4c6.3-1.7,12.4-3.4,17.9-5.2Zm5,9,1.3-.8c-.6-.9-1.3-1.9-2-2.8C468.5,383.59,468.7,384.79,468.9,386Zm2.3,20.2,8.5-3.5a100.29,100.29,0,0,0-8.3-15.5l-2.1,1.4a129.73,129.73,0,0,1,1.9,17.6Zm-.2,17.1,14.4-3.1a108,108,0,0,0-4.8-15.6l-9.3,3.9a121.47,121.47,0,0,1-.3,14.8Zm-2,18.2h18.8a100.24,100.24,0,0,0-2-18.9l-15,3.2a119.82,119.82,0,0,1-1.8,15.7Zm-3.1,15.7,20.3,4a93.5,93.5,0,0,0,1.7-17.5H468.8C468,448.29,467,452.79,465.9,457.19Zm-4.5,15.4,19.2,8a112.46,112.46,0,0,0,5.2-17.1l-20.4-4c-1.1,4.1-2.3,8.2-3.6,12.2Zm-5.9,15.1,15.9,10.6a117.21,117.21,0,0,0,8.4-15.6L460.6,475c-1.6,4.3-3.3,8.6-5.1,12.7Zm-7.5,15.2,10.9,10.9a102.11,102.11,0,0,0,11.1-13.5l-15.5-10.4c-2,4.4-4.2,8.8-6.5,13Zm-9.7,16,5.2,7.9a115.22,115.22,0,0,0,13.8-11.3L446.8,505a151.87,151.87,0,0,1-8.5,13.9Zm-12.4,16.9.3.6a100.29,100.29,0,0,0,15.5-8.3l-4.8-7.1C433.5,526.09,429.8,531,425.9,535.79Zm-97.2-180.1c-2.9-.6-5.6-1.3-8.2-1.9a110.5,110.5,0,0,0,38,195.7q-4.2-4.5-8.1-9A104.05,104.05,0,0,1,288.3,407a107.52,107.52,0,0,1,17.1-30.2l.2-.7A109.79,109.79,0,0,1,328.7,355.69Zm22.1,4.5c-6.5-1.2-12.9-2.5-18.9-3.8l-1.3.8L351.1,388c4.1.8,8.1,1.5,12.1,2.1Zm18.4,3.1c-5-.7-10.4-1.6-15.8-2.6l12.3,29.8c3.1.4,6.1.7,9,1Zm15.7,1.8c-3.9-.3-8.4-.8-13.3-1.5l5.6,28.1q4,.3,7.8.3v-26.9Zm15.8-1.7c-4.9.7-9.5,1.3-13.5,1.6v27.1c2.5-.1,5.2-.2,7.9-.4Zm22.8-3.8c-6.9,1.3-13.9,2.6-20.4,3.5l-5.7,28.5c3.8-.4,7.8-.8,11.8-1.5Zm16.4-3.4c-4.4,1-8.9,1.9-13.6,2.8L412,389.69c3.1-.5,6.1-1.1,9.2-1.7l20.5-30.6Zm11.5-2.6c-2.8.7-5.5,1.3-8.4,1.9a102.09,102.09,0,0,1,23.2,20.8l.7.7a104.15,104.15,0,0,1-15.1,146.5,105.3,105.3,0,0,1-29.7,16.9c-2.6,3.1-5.4,6.1-8.1,9.1a110.43,110.43,0,0,0,37.4-195.9Zm43.1,17.9c-13.9-8.4-29.9-16.8-39.5-17.9a112.8,112.8,0,0,1-44,199q-10.35,10.65-21.9,20.4a130.25,130.25,0,0,0,126.4-134.2,128.7,128.7,0,0,0-21-67.3Zm-85-38c10.6-2.1,21-4.8,31.5-7.5l1.6-.4a129.78,129.78,0,0,0-12.8-5.5l-.1.7-.8.2-.6-.1-.4-.4-.4-.5-.6-.9c-2.4-.8-4.9-1.6-7.4-2.3l-.8-.1-.8.1.4.5.4.6,1.4,1.1,1.2,1.2.4.6.2.6.7.2.4.2.5.4.3.4.4,1.1.4,1.3.1.9-.1.9-.3.7-.3.7-.6.2h-.5l-.5-.3-.5-.3-.2-.9-.4-.8-.7-.7-.7-.6-1.7-.6-1.7-.9-1.4-1.1-1.4-1.3-.2,1.3V325l-.2,1.4.4.6.1,1.1-.1,1.3-.3,1.2-.9,1.6-.3.4-.5.4Zm-44.6.7a174.6,174.6,0,0,0,20.4,2.4,168.11,168.11,0,0,0,21.2-2.6,111.9,111.9,0,0,0-41.6.2Zm-14.4-2.9c2.8.6,5.8,1.3,8.8,1.9l1.9-.4-1.4-.4-.4-.3-.4-.4-.3-.4-.3-.5-.4-.8v-2.7l-.1-1.8-.2-.7-.3-.9-.8.6-.4.4-1.1.7-1,.6-.5.3-.4.5-.9,1.1-.8,1.2-.6,1.2Zm-22.6-5.7c6.2,1.4,14.5,3.8,16.5,4.2l4.4,1.1-.2-.8-.1-1.2-.1-1.2.2-1.2.2-1.2.4-1.1.6-.9,1-.9.4-1.6.7-1.4-.8-.2-.8.1-1.5.2h-1l-.9-.2h-.5l-.4.1-.8.6-.6.3-.5.5-.7,1.2-.4.5-.5.3-.5.1-.6-.4v-1.9l.1-.7c-4.7,1.7-9.2,3.6-13.6,5.7Zm-56.2,48.5c-8.5,5.3-15.8,10.2-19.7,12.9l2.5-19.3-23.2-2s15.1-10.2,32.2-19.3,38.9-18.9,57.9-22a13.2,13.2,0,0,1,2.8.2,131.15,131.15,0,0,1,18.1-7.7l.8-.8.9-.5.7-.4.8-.4,1.4-.9,1.4-.8.8-.3.9-.2,4.7-1.1,2.2-.7,2.2-.9.7-.8.8-.9,1.4-1.7,1-1.9.9-2.1-.6-.8-.5-1-.6-2.1-.4.2-.7.9-.6.3h-.4l-1-1.3-.3-1.2-.4-2.6-.2-3.3v-3.3l-.4-.1-.6.4-.7.1-.7-.6-.5-.6-.1-.8v-1l.2-1.7.4-1.6.3-1.2v-.5l-.1-.6-.6.4-.7.5-.7.3h-.9l-.1-.8v-.9l.4-1.6.5-1.6.4-1.6h-4.2l-1.3-.2-.6-.4-.4-.2-.6.2-1.1,1.1-.3.4-.4.2-.9.5-.9.3-1,.3-.9.2-1-.1-1-.2-.9-.3-.8-.6-.5-.4-.2-.4-.7-1.1-.5.2-.3.5-.7,1.1-1.6,1.3-.8.5-.9.4-.9.3-.9.2h-1l-1.1-.2-.5-.4-.9-1.3-.6-.4-.4.1-.6.3-.8.3-.8.2h-.7l-.9-.1-1.5-.4-1.5-.5-.7-.6-.7.1-.7.4-.4.2-1.3.2h-.8l-1.6-.2-1.5-.6-1.1-.7-.6-.5-.8.3-.8.1h-1.8l-1-.3-.8-.3-.7-.5-.6-.5-1,.1h-.9l-.8-.3-.9-.3-.8-.4-.7-.5-.8-.7-.6-.7-.3-.8-.2-.9-.1-.4-.4-.6-.4-.2h-.7l-.7-.2-1.1-.5-1.1-.8-.9-1.1-.3-.8-.3-.9-.4-.6-.8-.2-1.4-.4-1.3-.4-2.5-1-2.6-.3-2.6-.4-2.4-.5-2.4-.8-2.5-.7-2.3-1-2.1-1.4-2-1.5-2.3-.2-2.7-.5-2.3-.5-1.2-.3-2.9-1-2.8-1.4-3.2-1.6-3.1-2-2.9-2.1-1.3-1.2-1.3-1.3-.8-1.2-1-1.1-.4-.4-.6-.4-.6-.3-.8-.2-1.9-.8-1.9-.9-1.8-1-1.8-1.4-1.8-1.2-1.7-1.5-1.5-1.3-1.4-1.6-.2-.5-.9-.4-.5-.2-3.8-1.7-1.9-1-1.8-1.2-1.3-1.1-1.2-1.3-1.1-1.4-.9-1.4-3.8-1.2-3.6-1.3-1.7-.8-1.7-1-1.6-1.1-1.4-1.3-1.5-1.5-1.4-1.5-.7-.8-.6-.9-.3-1-.1-1.1.5-.3.5.1.6.2.6-.1,5.8-.3,2.5-.1h6.8l4,.1,9,.2h16.9l7.7-.3,7.8-.5,11.9-.1,11.8-.1,11.7.4,5.8.3,5.8.5,6.6.6,6.6.6,3.2.5,3.2.7,3.1.9,2.9,1.1,2.9,1.6,2.8,1.9,2.6,2.2,1.3,1.2,1.2,1.3.6.7.3.8.6.8.4.8.9,1.8.6.9.6.7.8.5,1,.2,1.6.3,1.4.6,1.2.6,1.1,1,1,.9.9,1,1.6,2.4,1.6,2.5,1.7,2.3,1,1,1,.9,1.2.9,1.4.7,1.2.3h1.2l1.1-.3,1.1-.4,1-.6,1-.8,1.7-1.6.9-1.4.7-1.3-.4-.4-1.4.2h-1.4l-.8-.1-.6-.2-.6-.3-.6-.4-.1-.8.1-.6.5-.4.6-.5,1.2-.7.5-.5.4-.6.7-1,.6-1.1.3-.5.3-.6v-.6l-.2-.6-1.4.2-1.3-.2-1.3-.1-1.4-.2-.4-.6-.1-.8.5-.2.5-.4.4-.5.2-.5.4-1.2.3-1.1-.4-.1-.5.1-1,.4-.7.1-.8.2-.7.1-.7-.3v-1l-.1-1.1-.2-1-.4-.9-.4-.9-.6-.8-.8-.8-.9-.7-1.4-.6-1.4-.6L350,210l-1.4-.7-1.3-1-1.2-1-.4-.5-.6-.7-.3-.7-.3-.8.1-3.1.5-.3h.4l.7.5.6.7.3.4,1.4.7,1.1.5h1.3l.6.1.5-.2.6-.2.4-.6.4-.6.1-.6-.1-.8-.2-.6-.3-.5-.3-.5-.5-.3-1.1-.7-1.2-.5-1.5-.4h-1.4l-1.3.3-1.3.4-2.5.9-2.4,1.1-.4-.5-.1-.6.2-1.2.4-1.2.6-1.2.8-1,.9-1.1,1-.9,1.1-.8,1.2-.6,1.2-.4,2.8-.3h1.4l1.5.1,1.4.1,1.4.4,1.3.5,1.1.7,1.6-.6,1.6-.5,1.8-.2,1.9.1,1.4.3,1.5.3,2.8,1.1,2.8,1.2,2.8,1.2,2.8,1.2,1.4.5,1.4.3,1.4.4,1.5.1h1.6l1.6-.1.7-.1.7-.5.6-.2.7.3-.1.5-.1.4-.5.9-.7.7-.6.8,1.9.5,2.1.4,1.9.7,1,.4.9.6v1l-2.2.2-1,.2-.9.5,2,.8,2.1.6,1,.3.9.5.9.5.6.7v.7h-2.3l-1.1.4-.5.3-.4.5,1.1.5,1.2.3,2.5.7,2.4.7,1.1.4,1.1.6,1.3,1,1.1,1,1.1,1.2,1.1,1.5.3.7.3.7.1.7-.3.8h-1l-1.1-.2-.8.1-.4.3.8.8,1,.8,1,.8.9,1.1,1.6,2,1.3,2.2.1.7.3.6v.7l-.1.5-.8.2-.5-.2-.8-.5H410l-.6-.1h-.5l-.4.4,1.9,1.5,1.9,1.8,1.6,2,1.4,2,1,.1,1.1-.1.9-.2,1-.3,1-.3.9-.6.8-.7.8-.8.1-1.2.3-1.1.8-2.2,1.2-2.1,1.5-1.9,1.6-1.6,1.9-1.5,2-1.2,1-.3.9-.4,1.4-2.3,1.7-2.3,1.7-2.1,2-2.4,2.2-1.7,2.3-1.4,2.6-1.1,1.2-.4,1.4-.3,2.6-1,2.5-.8,5.3-1.4,2.3-.3,2.4-.4,4.8-.4,4.8-.2h5.1l6.3-.2h6.4l12.9.1h13.1l6.5-.1,6.4-.2,5.1-.1,5.1.1,10.3.1,10.3.2,10.5-.2,1.5-.3,1.5-.2h.7l.7.1.7.2.7.4-.2.8-.3.9-.5.7-.6.7-1.4,1.3-1.3,1.1-1.2,1-1.4.9-1.4.8-1.4.7-2.8,1.1-2.9,1-2.4,2.7-2.5,2.7-1.4,1.2-1.4,1-1.5,1-1.6.6-.6,1.2-.7,1.1-1.7,2.1-1.8,1.9-2.1,1.6-2.1,1.5-2.2,1.4-2.3,1.2-2.3,1-2,2.5-2.2,2.2-2.3,1.9-2.5,1.7-2.6,1.6-2.6,1.3-2.6,1.2-2.8,1-4.7,1.3-2.5.6-2.5.5-1,1.4-1.2,1.2-1.4,1.1-1.3.8-1.6.8-1.6.7-3.1,1.2-2.1.3-2.3.3-4.5.3-1.4,1.1-1.4.9-1.5.7-1.5.6-.7,1.5-.4.8-.5.6-2,.9V269l-.3,1.3-.6,1.1-.8.9-.3.4-.6.2-1,.3h-2.2l-.7.8-.8.6-.8.3-.9.3-1,.1-.9-.1-1.9-.2-.6-.5-.6.2-.5.4-.6.3-1,.3-1,.1-.9.1-.9-.1-1-.2-.9-.4-.8-.4-.7-.5-.7.8-.8.7-.9.6-.9.5-1,.3-1,.2h-1l-1-.3-.6-.1-.6.8-.8.5-.9.4-.9.3-1,.2h-1l-1.9-.1-1.2-.4-.9-.6-.8-.8-.7-.8-.4.2-.6.8-1,1-.8.5-.8.4-.9.3-.9.2h-.9l-1-.1-.9-.3-.3-.5-.5-.4-.6-.8-1.2.6-.6.3-.5.3.1,1.4V282l-.1.7-.2.7-.3.6-.4.5-.3-.6-.3-.5-.5-.5-.6-.4-1.1-.8-.8-.3,1,1.2.6,1.2.3.6.3.7.1,1.3-.2,1.4-.4,1.5-.4,1.4-.9,2.3-.4.7-1.2-1-1-1.1-.3,2.8-.4,2.7-.3,1.3-.5,1.3-.5,1.2-.7,1.1h-.7l-.6-.3V301l-.1-.7-.3-.6-.4-.4-1.2,2.1-.8,1.1-.8.8.1.5.1.6.6,1,1.5,2,4.5,2.3,2.3,1.1,1.2.3,1.3.2,1,.4.9.6.7.8.8.9,1,.5,1,.8.8.9.6,1a167.3,167.3,0,0,1,16.6,7.5,10.12,10.12,0,0,1,3-.2c28.6,4.5,65.9,24.9,90.1,41.3l-23.3,2,2.4,19.3c-3.9-2.7-11.1-7.6-19.6-12.9a132.67,132.67,0,0,1-112.5,201h-1.1a132.55,132.55,0,0,1-113.5-201.1Zm45.5-20.7c-9.3.2-26.3,9.1-41.1,18a130.3,130.3,0,0,0,106.8,201.5c-7.6-6.4-14.9-13.3-21.8-20.4a112.71,112.71,0,0,1-43.9-199.1Zm2.8-2s40.6,9.8,65.3,11.5c24.8-1.7,65.4-11.5,65.4-11.5,14.1-2.5,51.8,22,65,30.9l-2.1-16.5,19.1-1.6c-23-14.9-57.2-33-83.6-37.2-2.1-.3-19.9,4.6-22.3,5.2-13.4,3.3-27.6,6.2-41.5,6.9-19.3-1-37.7-6-56.3-10.7-4-1-6.5-1.5-7.2-1.4-26.4,4.2-60.6,22.4-83.6,37.2l19,1.6-2.1,16.5c13.1-9,50.9-33.5,64.9-30.9Zm89,116c4.3,5.2,8.3,15.3,8.9,21.6a31.9,31.9,0,0,1-1.8,10.6c2.9-.7,7.4-7.1,8.8-9.9l1.1-2.2c4.5-8.9,2.7-15.9-1.8-24.3a23.15,23.15,0,0,0-4.7-6.1Zm-33,33h2c5.9-.6,11.2-2.4,15.3-6.9,1.4-1.5,2.8-3.8,2.5-6a18.05,18.05,0,0,0-2-5Zm-10.2,8.1,6.4-6.5a5.73,5.73,0,0,1,1.1-1.1l20-19.9,13.7-13.7a1.21,1.21,0,0,1,.7-.7l52.2-52.2v-.6a118.65,118.65,0,0,0-2.1-22.3l-.8.3-2.3.7-3,.9-3.8,1-4.4,1.2-4.9,1.3c-2.1.5-4.2,1.1-6.3,1.5L333.5,497a193.89,193.89,0,0,0,17.2,26.5l14.4-14.3Zm-51.1-119.1,1,.3,2.3.7,3.1.9,3.7,1,4.3,1.2,4.8,1.2c16.4,4.1,35.1,8.1,52,8.1s35.6-4,52.1-8.1l4.8-1.2,4.3-1.2,3.8-1,3-.9,2.3-.7,1-.3,2.1-.6.5,2.2c5.4,25.6.8,57.5-7.9,81.7-13,36.2-36.6,66-65.9,90.5-42.6-35.8-72.8-83.2-75.7-139.7-.6-10.7-.3-21.9,1.9-32.5l.5-2.2ZM382.3,446c-1.9-6.1.4-12.6,4.7-16.9a22.09,22.09,0,0,1,4.7-3.3,6.36,6.36,0,0,1,1.8-.6l-.8-.4a13.17,13.17,0,0,0-3.4-.4c-4.8,0-8.9-.1-13.7,1-11.5,2.8-18.3,16.6-18.3,27.7a58.75,58.75,0,0,0,1.7,16.2Zm19.1-19.1c-12.2-2.9-18.6,6.3-17.7,17.7Zm-34,.5c9.2-6.7,24.7-5.5,35.2-1.8l26.7-26.7c-14.2,3.3-29.2,6-43.4,6-17.3,0-35.9-4-52.6-8.2l-4.9-1.3-4.3-1.2-3.8-1-3.1-.9-2.3-.7-.8-.2c-5.1,25.2-.5,56.7,8,80.5a183.72,183.72,0,0,0,10.4,23.6L343,485c-8.3-17.3-.1-42.3,15-53.2,2.2-1.3,6.8-4.9,9.4-4.4Zm-17.3,50.7c-2.8-1.3-5.5-4.7-7-7a21.48,21.48,0,0,1-1.4-2.6v1.9a17.22,17.22,0,0,0,.4,3.9c.4,2.9,1,6.9,2.3,9.7Zm7.6-7.6c-4.5-12.3-2.2-32,7.5-41.2-13.1,5.3-29.9,29.5-19.6,42.7,1.1,1.5,3.8,4.2,5.5,4.9Zm9.9,38.4c2.4.7,6.2,2.2,7.2,2.5a27.68,27.68,0,0,0,11.4,1c2.5-.6,5.1-1.1,7.1-3.1,3.8-4.1,4-12,3.4-17.3-5.7,7.7-13.3,10.3-22.3,10.1Zm59.9-60a18.77,18.77,0,0,1,1.2,3c2.6,6.3,4,15,2.9,21.8-.3,1.5-1.5,3.8-1.5,4.6-.4,3.8-.6,6-2.4,9.5l-1.1,2.2a29,29,0,0,1-8.4,10.3c-1,.8-2.3,1.3-3.3,2.2a17.13,17.13,0,0,0-2.2,2.5,25.88,25.88,0,0,1-6.3,4.7,43.92,43.92,0,0,1-14.2,4.2c-1.4.1-2.9-.3-4.1-.3s-2.2.6-3.3.7c-4.9.4-13.4-1.8-18.4-4.2l-14.8,14.8a240,240,0,0,0,34.3,35.5c43.2-36.4,73.7-86.4,73.9-143.9Zm-6.9,6.9c.6.7,1.4,1.6,1.7,2,3.8,4.8,6.9,10.1,7.6,16.4a14.2,14.2,0,0,0,.3-4.1c.5-5.4-1.1-15-3.8-20Zm-25.4,25.5a48.83,48.83,0,0,1,2.3,6.4c1.9,6.9,1.8,21.2-5.8,24.7,2.9.2,10.1-2.3,12.6-3.5,7.1-3.1,10.7-7.9,11.6-15.5a19.92,19.92,0,0,0,.4-4.2,41.26,41.26,0,0,0-1.9-7.7,32,32,0,0,0-1.8-5.2,62.5,62.5,0,0,0-4.9-7.7Z" transform="translate(-183.9 -186.11)" style="fill:#101111"/><path d="M576.5,204.39l-1.4,1.9-1.5,1.4-1.7,1.2-1.7,1.1-1.8.9-2,.8-2,.7-1.9.5-2,.4-2.1.4-4.2.6-4.2.3-4.2.2-5.8-.6-2.7-.5-2.8-.6-.7-.4-.9-.1,2.3-1.6,2.1-1.6,1-.9,1-1.1.9-1.1.9-1.2,4.2-.1,4.3.1,8.6.3,4.5-.1,4.7.1,4.6-.1,2.2-.1Zm-200.1-2-1,.1h-.9l-.8-.1-.8-.2-1.6-.6-1.5-.7-3-1.7-1.5-.8-1.6-.5h-.8l-.7-.1-1.4-.2-1.2.1-1.1.8-.1,1,.2.9.4.9.6.8.5.7.3.9,1.3.4.1-.7-.2-.7-.5-1.2-.8-1-.7-1.1.9-.3,1.4.9.5,1.5.7,1.1.8.4.9.4.8.3,1,.1h1l.9-.2,1.7-.4,1.6.5,1.6.4.8.1.9-.1.9-.1Zm-6.5,68.1-.2-.7h-.9l-1.1.8-1,.9-.8,1.1-.6,1.1-.5,1.2-.3,1.3-.1,1.4V279l1,.3.7-.6.7-1,.8-.6,2.1-1.1,1.1-.3,1.6-.5-.6-1h-1.2l-1.8.6-1.4.5-1.3.4.6-1.6.8-1.5.4-.7,1.4-1Zm17,1.2-.7-1-.8-1-.9-1-.9-.9-1.2-.4-1.2.5.6.8.7.4.7.4,1,1.4.3.7.3.8-1.5-.6-1.6-.4-1.5-.2-1.6-.1-.3,1.3,1.5.2,1.5.3,1.4.5.7.5,1.3,1.2.9,1.4.8.3.9-.7.3-1.2-.1-.7-.3-1.2Zm26.8-.9-.3-.7-.1-.8-.8-1.1-1,.3.6,3.5-.8-.2-.8-1-1-.6-.9-.9-1-.4-1.2.2.3.9.8.6.9.5.8.7.8,1,.4,1.2.3,1.1.6,1.1.9-.1.7-.6.5-1,.3-1.2.1-1.3Zm-15.8-4.2-.4-.1-.4.1-.4.1-1.1.6-.9,1-.7,1-.4,1.1-.3,1.3-.1,1.2v2.6l1.3.2.4-.9.5-.7.6-.8.7-.6.9-.5.8-.4.9-.3.8-.2.6-1.3-.7-.1h-.8l-.7.2-2,1-1.4.8.1-.9.3-.9.5-.9,1.3-1,1.1-.7v-.7ZM375.1,254v-1l-.9.1-.7.3-1,.9-.8.9-.6.9-.6,1.1-.4,1.1-.2,1.1-.4,2.3.5.7.9.2.9-1.3,1.1-1.2,1.2-1,.7-.3.8-.2.8-.3.7-.1.7-.1.8-.3-.4-1.1-1.6.1-1.6.3-1.5.6-1.6.7.3-.7,1-1.6Zm31.9,2.7-1-.6-.7.3.1.8.6,1,.1.7-.4,1.7-.6-.7-.7-.8-.8-.6-.7-.6-1-.3-.8-.3-1-.2h-1l.2,1.1.8.2.8.3.7.4,1.8,1.9,1,1.3.4,1.1.5,1,1-.2.6-.9.4-1.6.2-1.8.1-.8-.1-.9-.2-.8Zm-13.3-6.2.1-1.1-.1-.8-.1-.9-.4-.8-1.1-1.5h-.7l-.1.7.2.7.4.8.3.8.1,1.5-.2.7-.2.4-.4-.6-.7-.9-1.3-1.1-1.4-1-1.3-1h-1l-.4.8.9,1,1,.7,1.1.7,1,.8.6.9.5,1,.5,1.1.8.9.7.1.8-.4.1-1.8Zm12.5,0v-.7l-.2-1.2-.5-1.7-.4-.8-.7-.5-.9.3.1.9.5.9.3.9-.1.9-1.4-1.2-1.5-1.2-.9-.5-.6-.6-1-.2-1-.1V247l1,.4,1,.5.9.7,1.1.7.8.9.7.9.6,1,1,1.3,1-.6.4-1.7Zm-29.3-11.4-1.1.2-1,.6-.7.8-.5,1-.5,1.3-.3,1.1-.3,1.2.4,1.2H374l.9-.6,1-.9.9-.8,1-.4,1-.2,1.1-.3,1-.3-.3-1.1h-1.2l-1.1.2-1,.4-1.4.5-.7.6-1,.2.3-.9.3-.8.5-.7.7-.7.7-.6Zm-10.1,1.1-.7-.6-1.1.6-1.5,2.2-1.3,2.3-.5,1.2-.3,1.2-.4,1.2-.1,1.4.9.4h.9l.8-.3.8-.4.8-.6.7-.5,1.4-.4.9-.3.1-.8-1-.2h-1l-.9.2-.8.4-.7.4-.8.2.3-1.3.5-1.3,1.4-2.5,1.4-1.7Zm33.7-6-.7-.8-.9-.4-.5,1.1.6.7.4.8.3.7.1.9-1.2-.9-1.3-.7-1.4-.6-.8-.1-.9.1v.7l.9.7,1,.4,1,.4,1,.8.8.7.6.8.7.7,1,.3.3-.8.2-.8v-.8l-.1-.9-.5-1.6-.5-1.5Zm-1-9.2-.6-1.2-.7-1-.7-.4-.6-.6-.7-.2-.8.5.4.7.9.6.9,1.2.3,1-.7-.2-2-.9-1.5-.2-1.5.1-.7.5.5.9.9.2.8-.1.8.1.9.4.9.6.8.8.6.8h1l.9-.4.2-.8-.1-.9Zm-30.9,9.2.4-1,2.8-1.2,1.4-.8,1.3-1-.4,1.2-1,1-.6,1,.7.6,1.8.1.6-.1,1-.2,1.4-.4,1.5-.7,1.2-.9,1.1-1,.7-1,.8-1.4.6.9.1.7-.2.8-.4,1.1.4.8,1,.2,1.4-.8.8-.7.6-.9.6-.9.4-1,.3-1,.1-1-.1-1-.8-.6-.8.5-.2.7-.1,1.3-.4,1-.5,1-.4-1.1-.5-1.2-.7-1.1-1-1-1.3-.2-.5.9-.1,1.1-.3,1.1-.4,1-1,1-1.2.9-1.1.6-1.2.3.3-1.4.2-1.5v-.7l-.2-.7-.3-.7-1-.7-.7.3-.6,1-1.4,1.6-1.1.7-1.1.7-1.2.5-1.3.5-1.3.2-1.3.1H364l.8-.7.7-.8.8-.8.6-1,.5-.8.4-1,.4-1,.2-1.1-.2-1.7-.3-.7-.7-.5-.9.5-.9.3-1,.1-1-.3.7-1.4.4-1.6.1-.8v-.6l-.2-1-.3-.8-1.2-.5-.7.6-.8.4-1.6.5-.3-.7-.1-.8-.1-.8-.4-.7-.4-1.1-.4-.9-.6-.8-.7-.7-.7-.6-.9-.5-1.8-.8-1.9-.9-1.7-.8-.9-.6-.8-.6-.7-.9-.6-.9,1,.3.9.3,1,.6,1.2.4.7.1,1.3-.4,1.1-.7.7-1.1.3-1.8-.2-1.3-.5-1.2-.9-1.1-1.1-.9-1.5-.7-.7-.3-2.8-.4-2.1.2-1,.1-1,.3-1,.4-.9.5v-1.3l.7-1.1.9-.9,1-.8,1.1-.7,1.3-.4,2.5-.8,1.8.2,2,.3,1.8.6.8.3.8.5.4.9v1.1l.1.9,1.2.2.4-1-.1-1.1v-.3l.8-.6,1-.3,1.1-.1,1-.1h1l2,.2,1.9.6,1.9.8,1.9.8,1.9.8,1.7.8,2.5,1,2.8.9,1.1.3,1.4.3,1.4.1h1.3l-1.1.7-1.4.3-.2,1.2,1,.7,1.9-.2,2,.1,1.9.3,1.8.5-.9.6-.9.9-1.5,1.8.1.7,2,.3H391l1.5.3,1.5.5-.8.6-.6.8-.3.9.2,1,.8.7.8.4.9.3.9.4,2-.1,1.9.5,1.1.5,1.1.4,2.2,1.3,2.1,2.3.8.8-1.2.2-1.2.3-1,.5-.8.6.1,1,.4.8,1,.5,1,.5,1,.7,1,.9.9.8.7,1,.6.9.5,1-1.3.1-1.3.1-1.3.2-1.2.6-.1.7.4,1.2,1.6.8,1,.6,1.6,1.3,1.9,2,1.5,1.9-1.2.2-1.1.2-2.3.5-.9.2-.6,1,.6.8.7.3,3,2.4,1.2,1.1,1,1.2h-2.1l-1,.1-.9.3.3,1.1.7.8.8.7,1,.8.7.7.8.9,1.5,1.7,2.5,3.5-1,.2-1.1-.4-1.2-.2-1.2.4v.7l.6.9,1,2.2.5,1.7.3,1.8.3,1.7-1.1-.2-1.1-.3-1.1-.1-1,.5.1.8.8.2,1.1.3,1.3.3,1.2.4,1.3.2,1,.5.8.6,1.4,1.3,1.1,1.5.9,1.6.6,1.9.5,1.9.4,1.9.2,1.9-2.3-.7-1.2-.3-1.2.1-.3.7.1.7.8,1.2.6.8.5.9.4,1.1.1,1v1.1l-.1,1.1-.3,1-.4,1-.7-.6-.8-.6-.7-.5-.9-.1h-.9l-.9.1-1,.6-1,.7-.8.9-.7.9-.6-.9-.7-.7-.8-.6-1-.3-1-.3-1-.2h-2.1l-.7.3-.8.3-.7.6-.6.7-1,1.6-.8,1.6-.9-.6-1-.8-1.2-.4-1.1.3-.1.8-.3,1-.5-.7-.2-2.8v-2.9l.1-1.2.3-1.3.5-1.2.7-1.1.1-.9-.9-.2-.9.2-.8,1.3-.6,1.4-.5,1.5-.3,1.6-.1,1.6.1,1.6.1,1.6.2,1.6.4,1.1.5.9.8,1,.8.8.9-.3.4-1,.7-2.5.8.7.9.8.9.6,1.1.2.3-.9.3-.9.4,2.5.2,2,.1.6v1.3l-.1,1.2-.2,1.3-.4,1.1-1.8,1.4-2,1.3-1.8,1.2-.9.8-1,.9-1.2.3-1.1.4-1.2-1.2-1.4-.8-1.1.6-.9,1-.8,1-.9.9-.8-1-.8-1-.9-.9-.9-.6-1,.6-1,.9-.9.7-1.3-.4-.4-.7-1.2-1-.7-.3-1.4-.6-1.6-.4-1.3-.6-1-.9-.5-1.2v-.8l.2-.9.4-1.9.4-1.9.4-1.8.1-1-.1-.9,1,.5.7.1h.7l.9-2,.4-1,.2-1.1.8,1,.8,1,1.3,2.1.1,1.8.4.8,1.2.8.8-.3,1.2-1.1.9-.5,1.1-1.2.6-1.4.5-1.6.1-1.7-.1-1.6-.1-1.7-.4-1.5-.3-1.6-1.1-1.9-.9-.8-1-.4-1,.4.1.8,1.3,1.6.6,1.3.4,1.4.3,1.5.1,1.4-.1,1.6-.1,1.5-.3,1.3-1,1.4-1.3.8-.3-1-.2-1.1-.2-1.6-.7-.8-1.2-1.8-.7-.8-.8-.5-.9-.3-1.1-.1-.6.8-.2,1.1-.1,1.1-.3,1.1-1.1-1.5-1.3-1.5-.8-.7-.7-.6-1-.4-.9-.3h-.6l-.8.3-1.3.7-.9,1-.9,1.1-.8-.7-.4-.7-.4-.9-.3-.8-.3-1.7-.2-1.9-.9-.4-1,.2-1,.5-.9.6v-2.3l.5-2.2.6-2,.8-2-.4-1-1,.1-.9.3-1.5,1,.4-1.5.6-1.5.9-1.5,1-1.4,1-1.3,1.3-1,1.4-.9,1.6-.5.8-.6.9-.3,1.9-.5v-.7l-1.8-.6-.7.2-.6-.7-.1-1,.1-1,.2-.9.5-1.7.6-1.7.4-.7.6-.7.4-.7-.4-.8-1.1.1-1.1.3-1,.5-.9.4.7-1.3.9-1.2,1.2-1.1,1.2-1-.1-.9-1.3.1-.9.3-.8.6-.8.8-.7.8-.6.9-1,1.7-.3,1.2-.4,1.1-.2,1.1.7,1,1-.1.7-.6.7-.7.8-.4-.3.8-.3,1-.3,1.7-.3,1.9-.2,1.2-.1.7-.9.3-.7.4-1.5,1.1-1.4,1.3-1.2,1.4-.7.4-.9.3-.8.3-1,.2h-1.8l-.8-.1-.9-.2-1.2-.9-.7-.1-.7.1-.6.9-.7.8-.9.8-1,.6-1.1.3-1.2-.1-1.1-.4-.9-.5-.9-.9-.5-1.1-.7-.9-1.1-.1-.8,1.3-.5,1.9-1,1.2-1.3.8-.8.3-.9.3-.8.3-.9-.2-.9-.6-.4-.8,1-.8,1-.9.8-1,.7-1.2-.3-1-1,.4-2.1,2.1-1.7,1-.9.6-1,.4-.9.4-1,.1-1-.3-1-.6.9-.8,1-.8.8-1,.1-1.2-1-.5-1.2.9-.8.8-.9.8-.9.6-1,.5-1,.4-1.2.2h-1.4l-1.7-.8,1-.8,1-1,.9-1.1.6-1.2-.2-.8-.8-.6-.7.4-.6,1-1.2,1.5-.8.7-.8.5-.8.4-1,.4-.9.1h-1l-.8-.2-.7-.6.9-.8.8-.9.6-1,.5-1.1-.2-.7-1-.2-1.1,1.3-.6,1-.9.9-.9.5-1,.2h-1.1l-1-.3-.8-.6-.9-.7-.6-.8-.4-.8.3-1.2v-.8l-2.3-.3-1-.2-.8-.3-1.5-1.5,3.1.3,3.1-.2,2.9-.3,2.8-.7,2.8-.9,2.7-1.1,2.7-1.2,2.6-1.3,1.2.3,1.4.1,2.7.1.5.9.7.9.8.7.7.6.9.6,1,.3,2.1.5.1.8.7,1.2,1.4,1.2,1.4,1,1.2.5,1.3.3,1.3.1,1.4-.1,1.4-.3,1.3-.3,1.2-.6,1-.7.9-.7.9-.3,1.3.8.5.2.7.3,1.2.3,1.4.2,1.3.1,1.3-.1,1.3-.2,1.3-.3.5-.3.9-.5,1.1-1.2,1-.2,1.2.3h.8l1.3-.3.8-.8v-.7l-1.3-.1h-1.3l-1.1-.2-1-.4-1,.3-.7.8-.8.8-.9.6-1.2.4-1.3.2-1.3.1-1.2-.2-1.2-.3-1.2-.4-1.1-.9-.9-.8h-.7l-.9.8-2.1,1.4-1.8.8-1,.3-.5.1-.5.1h-1l-.5-.1-.5-.1-1.3-.3-1.3-.7-.9-.8-.7-1.1,1.9-.3,1.7-.6,1.7-.7,1.7-.8.3-.7-.2-.7-1.2-.3-1.1.4-1.1.6-1.1.4-1.3.3-1.2.2-1.4-.1-1.3-.2-1.2-.3-1.1-.5-1-.8-.9-.9,3.7-.8,1.8-.5,1.7-.6.4-.9-1.2-.7h-1l-1.1.5-1,.3-3,.3-1.5.3-1.6.2-1.5.1-1.5-.2-1.3-.4-1.4-.9-.8-.3,3.8-.6,3.7-.6,3.5-.9,1.7-.6,1.7-.7.4-.8-.2-.6-.8-.5-1.3.5-.8.3-4.6,1.2-2.3.5-2.5.4-2.4.3-2.4-.1-2.4-.3-1.1-.4-1.2-.4-1.8-.9-.8-.5-.7-.7,2.4-.2,2.4-.1,2.5-.3,1.1-.2,1.1-.3,2.7-.7,2.8-1,2.6-1,2.7-1,1.2.5,1.3.3,1.4.3,1.4.1.4,1.1.6,1.1.8.8,1,.8,1,.6,1.1.5,2.3.8,2.5.1.4.7.4.8.6.7.7.6,1.4,1,1.6.7,2.3.1,2.1-.2,1-.2,1-.3,1-.4.9-.5.9-.3.5.7.8.8,1.2.6,1.1.4h.7l.7-.1.8-.5.2-.7-.8-.6-1.4-.1-1.3-.3-1.1-1.4-.8-1.5-.7.2-.7.4-1.2.6-.8.5-1,.4-.9.2-1,.2h-2.1l-1.9-.3-.8-.5-.8-.5-1.1-1.4,1.6-.6,1.7-.6,1.1-.5.5-.2.8-.5.6-1.2-1.2-.4-.8.2-1.4.7-1.4.6-1.5.9-1.2.3h-1.1l-1.1-.1-1.1-.3-1-.4-1-.4-2-1-1-1.5,2.5-.1,2.3-.6,2.2-.6,2.1-.8.4-.8-.2-.9h-1.3l-1.3.5-1.4.4-1.5.4-1.4.2-1.5.3h-1.6l-1.6-.1-1.4-.2-1.4-.4-1.4-.9-1.1-1-.8-1.3,2.6-.1,2.5-.1,2.6-.4,1.1-.3,1.2-.4,1.4-.3.7-.2.5-1-.6-.8-2.1.6-2.2.5-2.4.3-2.3.3h-2.4l-2.2-.4-2.1-.7-1.1-.4-.8-.6,2.7-.3,2.8-.6,1.4-.4,1.3-.4,1.2-.6.6-.3.7-.4.7-.3.5-1.3-1.5-.1-1,.4-2,.9-2.1.8-1,.3-1.1.1-2.1.3-1.1.1-1-.1-1-.1-1-.3-.9-.5-.6-.8,1.7-.8,2-.6,1.9-.7.9-.5.9-.6.8-.3.8-.6,1.4-1.1v-.8l-2.8.4-2.3,1.2-2,1-2.1.7-2.3.5-2.3.4-2.1-.4-1-.4-.8-.5,2.6-1.3,2.6-1.3,2.6-1.5,1.1-.9,1.1-1v-.7l-.9-.4-.9.3-1.2,1-1.7,1-1.8,1-1.8.8-1.9.7-2,.4-2,.2-1-.1-1-.2-1-.2-1-.4-1.1-.9-.9-.9,3.1-1.2,3-1.2,3-1.5,1.6-.8,1.3-1,.8-.9-.3-.9-.9-.1-1.7,1-1.3.8-2.7,1.4-2.7,1.1-2.8,1.1-2.9.5-1.5.3-1.5.1h-1.4l-1.4-.2-1.5-.4-1.4-.5-.9-.6,3.4-1,3.3-1.2,3-1.4,2.3-1.2.8-.4.2-.7-.6-.8-1.1.2-.7.3-.7.4-2,1-.5.2-2.6,1.1-2.7,1-3.1.9-1.4.2-1.4.1h-1.4l-1.4-.2-1.3-.3-1.5-.4-1.4-.7-1.2-1-.9-.6-.7-.8-.5-.9-.3-1,3.2-.9,3.2-.5.4-.8-.3-.9h-.9l-1,.1-1.5.6-1.7.5-.8.2-1,.1-2.3.6-2.3.5-4.7.8-4.9.4-5,.4-2.3-.1-2.3-.4-2.3-.5-2.1-.7-2-1-1.9-1.3-.8-.7-.8-.8-.8-1-.6-1-.5-.8-.5-.9-.5-.7-.4-.8,6.8-.1,7-.1,6.8-.1,7-.3,12.5-.1,12.7.3,12.6.6,12.6,1,4.9.7,4.9,1,2.2.5,2.1.8,2.2,1,2,1.1,2,1.4,1.8,1.4,1.7,1.6,1.5,1.5,1.3,1.3.8,1.3.8,1.4.9,1.3-.1.8.9,1.1.7.4,1.6.3,1.6.5,1.4.8,1.4.8,1.2,1.1,1.2,1.1,1,1.4.8,1.5.7,1,1.6,2.3L352,238l1.4,1.5.9.6.9.5.9.5.9.3,1,.3,1,.1h1l1.1-.2,1.2-.5,1.2-.6,1.1-.8,1-.8,1-1,.8-1.1.7-1.1.4-1.3Zm-4.4-33.7.7.7.9.3h.9l1.2-.3v.8l-1.4.4h-.7l-.8-.2-.7-.5-1-1.4-.1-.8.7.1Zm48.5,126.8.2,1.3-.3,1.3-.4.8-.7.9.1-1.2.1-1-.2-.9-.5-.7.8-.4.9-.1Zm-3.7-25.2-1,.2-1-.1h-1l-.9.2.9-.7,1.1-.3h1.1l.9.3-.1.4Zm-40.1.6-1.6.2-.9.1-.9-.3.7-.7.9-.1Zm40.6,1,1.1,1.9,1.4,2,.8.9.8.7,1,.5,1.1.4,1,.9.7,1.1-.1,1.1.2.8.8.3.8-.5.3-.9-.1-.9.7.6v.8l.4.9.7.4.7-.4.4-1.5,1.4.8.7.5.4.7.2.7-.3,1-1.1.1-3.4-.9-3.5-.5-.4.7.2.8.6.7.2.8-.7.8.1.9,1,.4.9-.9.7.4-.7.9-.4.7.8.7.7-.1.9-.5.2,1.4-.3.7-1.5-.4-.9-.9-2.1-2.2-1-.9-.9-.7-.8-.8-.7-.4-.9.8.1.9.4.8-1.3.7-.7.7.5.8,1.7-.1-.4.7-.7.5-.3.9,1.6.4.2.7-.3.7-1,1-.7-.2-.8-.8-.7-1.7-.3-1.1-.3-.9-.2-.8-.2-1.7-.2-1-.3-.7-.3-.8-.5-.7-1.6-.4-.8-.3-.8-.4-.7-.5-1-1.4-.2-.8-1-.4-.9.3-1,.4-.8.3-.9.1-.8-.2v-.8l.4-1.2.7-.5.5,1,.8.2.3-1.4-.3-1,1,.9.8.4.7-1.1-.1-.8.6-1.1,1-.8,1-.9.8-1.1,1-.5,1.2-.3,1.3-.1,1.4-.3Zm-14.6,8.2-.1.9-1,.9-1.2.7.2-.9.6-.8.9-.6Zm-13.3,3.9-1.2-.9-.8-.4-.7-.3v-.9l.4-.9,1.2.6.7,1.1.3.7Zm47.3,3.1-1.4-1.2-1.4-1,.6-.8.8.4.8.9.5,1Zm-83.5-.6-.9.6-.8.8-1,1.5-.1-1.4.4-.7.4-.7.9-1.1.8-.6.4.8Zm16.5,5.6-.6.8-.8.5-.7.2-.7-.6.3-.8,1-.5.4-.7-1-.3-.4-1,.7-.2.9.1h.7l.3-1-2.1-.4.5-1.2.4-.7-.9-.9h-.7l-.9,1.3-.8,1.5-.8,1.4-1,1.5-1.1,1-.8.2-.7-.1-.9-1,.2-1.2,1.1.4,1,.7.4-1-1.5-1.4.8-.4,1,.6.3-.8-.6-.8.1-1,1.1-.8,1.1-.8.9-.8-.3-.7-.8-.3-.7.1-1.6,1.1-1,.9-1.3.4-1.3.4-1.4.3-.7.1-.7-.1-.7-.2-.7-.7.1-1,.6-.7,1.4-.6.9-.3.9.4.6.8.9.3.4-1.3-.3-.7.8.2.4.7.9.6.4-1.1-.1-.8,1-.8,1.2-.4,1.3-.4.7-.3,1.2-.7,1.4-1.6.9-1.3,1-1,.7-1,.6-1,.7-.8,1.3-.1,1,.2,1,.5.2.8.9,1.8.9,1,1.3.8.3,1-.1,1.1.2.8,1.2-.1.4-.9.1-.9.4.8v1.4l.4.8,1.2-.4.4-1.4.6.8v1.2l-.6,1-1.1.5-1.2.1-1.1-.3-.9-.2-1,.1-1,.8-1,.3h-1.2l-1.2-.2h-1.1l-.8.3-.7.8-.2.7-.1.8-.7,2.4-.8,2.3-.4.9Zm61.5,2.9-.2-.8-.5-.8-.9-1.2.9-1,.8,1.5.2,1.1Zm-71.2-1-.9,1-.8,1.1-.3.8-.4.9-.1-.9-.1-.8.1-1.6.5-1.2.8-.5Zm8.6.8-.1.9-.3,1-.2.9.1,1-.7-.6-.5-1.1-.2-1.1.4-.9Zm3-27.5-.2-1-.2-2.2-1.1-.4-1,1-1,.9-.1-.8-.2-.7-.1-1.3v-1.4l-.1-1.4.9,1,.9,1.1,1,.7H364l.9-1.4.5-.7.5-.7.1,1v1.1l-.4,2.1-.5,2.1-.3,1-.3,1.1-.7-.9Zm2.9,0,.1-.8.8-.3,1.2.5.6.2-.1.4-.2.6L369,301l-1.2-.2-1.5-.3.2-1.3.2-.1Zm38.7,0,.6-.5,1-.5h.9l.7.7v.4l.1.8-.8.3H407l-.8-.1-.9.3-.2-1Zm5,0-.4-1.8-.3-2-.6-1.9.2-.7-.5-1.1-.1-.7.9.5.7.9.4,1,.4.9.7.6,1-.3,1-.9.8-1.2.9-1.1,1-.8.3.9v3.1l-.4,1.9-.5,2-.6-.9-.8-.5-.9-.3-.8-.2-.4,1,.2,1-.4.7-.3.8-.4.8-.7.5-.4-2Zm-2.8-4.7-.9.1h-.8l-.7.3-.7-.2-.5-1.8.1-1.1,1-.8,1.2-.7.6.9.4,1.1Zm-37.1-.8-.2,1.5-1.2-.1-1.3-.2V293l.2-.8.4-.8,1.2,1Zm37.7,2.7-.8.3-.8.2-1.4.2.5-.7.8-.6h.9Zm-38.6.8h-1l-1.4-.2.7-.8h.7l1.1.3Zm106.9-39.4,2.3.9,2,.7,2,.5,2.2.3-.9.7-.8.5-2,.8-2,.6-2.2.2h-2l-2.2-.2-2.1-.5-2-.6-1.5-.8-1.5-1.1-2.9-2.2-.5-.9-.5-.9.7-.4.8-.3,1.6-.5,1.6-.6.8-.5.8-.5,2,1.2,1.9,1.2,2,1.2Zm-167.2-2.5,1,1.1,1.2,1-1.2.9-1.4.7-2.8,1.1-2.4.6-2.4.8-1.2.3-1.2.3-1.2.1h-1.4l-3.9-.3-1.8-.3-.9-.3-.8-.3-.7-.2,2.1-.4,2.1-.3,2.1-.5,2-.6,4-1.5,3.9-1.4h.7l1.7-.7,1.2-.3Zm-54.3-4.7-2.1-.8-2.4-1.1-2.2-1.3-2.2-1.4-2.2-1.6-2-1.6-1.9-1.8,6.7,1.9,3.3.8,1.7.2,1.8.2,3.1.1h3.1l6.2-.3,12.3-.8,1.6-.3.8-.1.8-.1,1.3-.3,1.2-.4H285l.6,1.2,1.5,1.6,1.4,1.4,1.6,1.3,1,.5,1,.4-2.1.7-2.2.6-3.8.9-.5.1-2.2.5-2.2.3-4.4.4-4.4.3-4.4.4-2.1-.1-2-.4-4-.7-2.4-.7Zm36.8,0,1.1-.3,1.3-.1,1-.7h1.1l1.2.3h1.3l.4.7.5.7,1.4,1.1,1.5.8,1.5.8-1.7.9-1.7.7-1.8.7-1.8.7-3.4,1-3.5.7-3.4.4-1.8.1h-1.9l-1.7-.2-1.8-.2-1.8-.3-1.6-.4-1.7-.5-1.5-.6-1.6-.8-1.4-.9-1.6-.9,2-.3,2.1-.3,4.2-.3,4-.4,2.1-.3,1.9-.5,2.4-.5,2.5-.6,2.4-.6Zm154.3,0-1-1-1-1.3,1.2-.3,1.1-.3,1.1-.5,1-.6.9-.8.9-.8.8-1,.6-1.1,1.5,1.9,1.5,1.5,1.9,1.4,2,1.1,2.2.8,2.2.6,1.8.4.6.1,2.3.2-1.4.9-1.5.7-1.5.7-1.5.5-1.6.4-1.7.3h-1.8l-1.8-.2-1.6-.2-1.6-.4-1.5-.5-1.4-.7-1.3-.7-1.3-1Zm25.3,0,.4-.3,3.2-1.1,1,.5,1.1.4,1.7.5.5.1,2.3.7,2.3.7,2.6.5,2.7.4,2.6.3,2.7.2,2.7.1,2.7-.1,2.7-.3,2.7-.3-.9.9-1.1.9-1.5.9-1.6.8-3.5,1.4-2.2.4-2.2.3-2.2.1h-2.2l-2.3-.3-2.2-.4-2.4-.6-2.5-.9-2.5-.9-2.1-1-2-1.2-1.8-1.5.7-.9Zm13.3,0-2.1-.6-1.9-.7-.9-.2-.9-.4-.8-.4-.9-.3,1.2-1.1,1.4-1,1.4-1.1.6-.7.5-.8.8-.6.9-.4,1.3-.5,1.3-.6,1.3.3,1.3.3,1.4.2,1.3.3,2.2.2,2.4.2,2.2.2,2.2.5,4.2.1,4.2-.2,4-.2,4.1-.4,4-.7,4-.8,3.8-1.1,3.8-1.4-2,2.1-2.2,1.7-2.3,1.5-2.5,1.5-2.5,1.2-2.5,1.1-2.7,1-2.6.8-3.9.9-1.6.3-2.3.3-4.3.5-4.3.3h-4.4l-4.2-.5-2.1-.3Zm-5.1-7.1-1.7,1.6-1.9,1.3-2,1-2.1.8-2.1.5-2.3.2-2.3-.2-2.3-.5-1.7-.4-1.6-.8-3.1-1.8-.7-.8-.8-.8-.7-.8-.6-.7-1-1.7,1.3-.6,1.3-.8,1.1-.9.4-.7.5-.7,2.4,1.7,2.5,1.5,2.7,1.2,2.6,1,2.9.8,2.9.5,3.1.2ZM319,240.89l.1.7,1.1,1.8-1.2.8-1.3.6-2.6.9-5.4,1.6-2.7.4-2.7.3-2.8.2-1.5-.1-1.3-.2-1.1-.3-1.2-.1-.7-.2-.7-.1-.7-.2-.7-.3L292,246l-1.7-.9-.8-.6-.8-.7-.5-.7-.6-.8,1.9.2,1.9.1h3.7l3.8-.3,3.7-.6,3-.3,2.8-.6,2.7-.8,2.8-1,1.3.4,1.2.3Zm-87.4-23-1.1.2-3.5.3-3.6.1-3.6-.2-3.6-.2-1.4-.1-2.1-.2-3.4-.5-2.6-.7-2.7-.7-2.5-1-2.5-1.1-2.4-1.3-2.1-1.6-1-.9-1-1-.8-1-.9-1.3,2-.2h2l1.9-.1,1.9-.3h5l5-.1h7.3l2.5.2,7.2-.4,1-.1.7.4.8,1.6.9,1.6,1.1,1.5,1.2,1.6,1.3,1.4,1.5,1.3,1.5,1.1,1.6.9-3.4.7Zm9.9,0,2.6.2,3.1.1,3-.1,2.9-.1h.4l2.6-.3,2.9-.4,5.7-1.1.6.9.5,1,.5.8.6.7,1.5,1.3,1.6,1,1.7,1-2.6.6-2.8.4-2.5.1-2.9.3-3.4.2-3.5-.3-3.4-.5-1.7-.4-1.6-.5-1.7-1-1.6-1.1-1.4-1.3-1.4-1.4.3-.1Zm260,0-1.3.9-.9.4-.9.3-.8.3-.8.3-1.7.3h-1.7l-1.7-.3-1.6-.4-1.5-.6-3.1-1.2-1.4-.6-1.2-.8-1.2-.9-1.3-.9h-.9l-.6.9.5.9,2,1.2.8.5,2.5,1.3,1.2.8,1.4.6,1.4.5,1.4.5-.8.8-1.1.6-.9.3-1,.3-1.9.3-1.9-.1-1.9-.4-1.7-.5-1.7-.7-3.4-1.5-1-.6-1-.8-1-.5-1.1.4.1,1.1,1,.4,3,1.9,1.5,1,.8.2.9.3-.6.7-1.4.7-.8.1-1.6.2-1.6.3-1.7-.2-1.5-.3-1.5-.3-1.5-.4-1.5-.5-1.4-.6-2.7-1.6-1-.1-.5,1.2,2.2,1.5,2.4,1.1,2.5.9,2.5.8-1.3.6-1.5.4-1.5.2-1.6.3h-1.6l-1.6-.2-1.5-.3-1.4-.3-2.1-.9-2-1-.8.1-.4.9.6.8,2.2,1,2.1,1,1.1.2,1.2.4,1.3.1h1.3l-1.2,1-1.2.8-1.5.5-1.2.3-1.8.1h-1.5l-.8-.1-.7-.1-1.5-.3-1-.4-1-.6-1-.3-1.1.2-.1.7.9.9,2.5,1.3,2.5.6,1.2.2,1.3.1,1.4-.1,1.2-.2-1.2,1.1-1.4,1-1.1.6-1.3.4-1.4.3-1.4.2h-1.5l-1.4-.1-1.4-.2-1.2-.4-.9.3.2,1,.9.6,1.9.4,2.1.2,2,.1,1.1-.2,1-.1-.8,1.4-1,1.3-1.3.9-.8.4-.8.2-1.4.5-1.4.2h-1.4l-1.4-.2-1.3-.3-1.4-.5-2.3-.9-1.2.6.4.9.8.5,1.1.3.9.5,1,.4,1.1.4,1.2.3,1.2.2-.1.7-.7,1.2-.9.5-1.1.6-1.3.4-.9.1-.9-.1-.8-.3-.8-.3-.8-.4-1.9-1.6h-.7l-.4,1.1.2.5.4,1,.2.9-.4,1.1-.5.7-.8.5-1.7.5-.8-.1-1.2-.7-.7-1-1-.4-.4,1,.7,1.4.8.8.8.7,1.2.1,1.3.1.7-.1,1.1-.2.9-.8.9-1.3.7-2.1,1.8.4,2,.3,1,.1,1-.2,1-.3.9-.4,1.6-1,1-1.1h.6l1.3,1.2,1.6,1.3,1.6,1,1.8.8,1.9.8,2,.4,2.1.2,2.2-.1-1.3.9-1.5.8-1.6.5-1.5.3h-1.6l-1.6-.1-1.7-.4-1.6-.5-1.1-.5-1-.8-1-.9-1.2-.3-.4.8-.1.8,1.9,1.5,1,.6,1.1.6,1,.4,1.1.4,1.2.2,1.2.3-1.1.3-1.1.5-1.1.3-1.3.2h-1.8l-1.8-.5-.8-.3-.8-.4-.8-.5-.7-.7-.8-.3-.8.3-.3.7,1.4,1.7,1.6.9,1.5.6,1.6.4-1,1.2-1.2.8-1.5.5-.8.1-.8.1-.7-.1-1.1-.3-1.6-.7-1.5-1-1.4-1.3h-.7l-.5,1-.8,1.5-.7.9-1,.7-.9.1-.9-.3-.7-.4-.7-.5-.8.1-.2.4-.3.6.4.9,2.4,1,1,.2,1.1-.2,1-.5.8-.7,1-1.3.4-.5.6.5,1.2.8,1,.5,1.1.3,1.2.2,1.1.1h1.2l1.3-.1,1.4-.8,1.5-.9,1.2-1.1.3-.7.3-.8,2.4-.3,1.2-.3,1.1-.4,1-.5,1.1-.6.9-.7,1-.8,1-.2,1.1-.3,1.8-.9,1.9-1,1.9-.9.7,1,.8.9.8.7.9.8,1.9,1.2,2.4,1.2,2.3.9,2.3.5,2.6.6h2.5l2.3-.3-1,.8-.7.1-.8-.1-1.2.2-.3.9-.1.4.9.8.6.7-.9,1.8-.8.5-.9.3-.9.1-.9-.3-1.4-.9-1.2-1.2-.6-.8-.4-.8-.1-.7-.1-1-.7-.6h-1L467,266l.1.5.1.7.4,1,.7,1.1.7.9.9,1,1,.8-1.3.7-.7.2-.7.2h-.7l-.7-.2-1.1-.5-.9-.8-.9-1-.7-1-.4-1-.3-1.1-.1-1-1-.6-.4.6-.3.5.2,1.2.4,1.2.4,1.2.8,1.2.7,1.2-1,.6-1.3.4-1.1-.1-1.2-.3-.8-.4-.7-.6-1.1-1.4-.4-.8-.3-.8-.4-1.7-1.3-.6-.7.3.7,2.6.4,1.2.6,1.2-.5.9-.7.8-.8.6-.9.3-1.2.2-1.1-.2-1-.3-1-.4-.9-1-.6-1.2-.5-1.1-1.1-.6-.6.9.2.9.3.9.5.9.7.9.6.9-.6.9-1.3.3h-1.3l-1.3-.1-1.5-1-.6-.7-.4-.8-.1-1.4-.3-.9-.8-.3-.8.6-.6,1.7-.3.9-1,1.1-1.2.8-.7.3-1.4.3-.8.1-1-.3-.7-.9-.7-.7-1.1.2-1,.5-.9.2-1.1-3.1-.8-1.6-.9-1.4-1-1.4-1.1-1.2-1.4-.9-1-.5-.6-.3-.4-2.2-.4-1.9-.5-1.8-.7-1.7,1,.4,1.2.6,1.3.2,1-.9-.4-1.3-.5-1.2-.5-1.1-.7-1.1-1.5-2.1-1.3-1.8-.3-.4-1.8-1.8.9.3,1,.4,1,.2.9-.5-.1-.8-.2-.7-.8-1.2-2.5-3-1.4-1.4-1.5-1.2,1.1-.4,1.4.1,1.4.1.7-.1,3-.6,2.3-.6,1.1-.5.9-.5.9-.8.6-1,.6-1.9.1-.4.9-2.3.5-1,.6-.9.6-1,.9-.9.8-.8.8-.8,1-.7.9-.7,2.1-1,2.2-1,.3-.9,1.6-2.5.9-1.3.6-.8,1.7-1.9,2.1-1.7,2-1.4,2.2-1.2,2.3-1,2.4-.7,2.5-1,2.5-.6,2.6-.7,2.5-.8,2.1-.4,2.1-.4,2.1-.1,2.2-.2,4.5-.1,4.5-.3,12.7.2h25.5l12.8-.1,2-.2,1.9.1,3.9.1-.3.7-1.5,1.6-1.1.8-.9.9-1.4.8-1.5.8-3.1,1.2-3.2.9-3.3.7-3.4.4-3.5.1-3.4-.2-3.4-.5-2.9-.4-2.8-.4-2.8-.8-1.3-.4-1.3-.6-.9.1-.4.7.2.8,2.1.9,1.5.5,1.7.4,3.1.8-1.4,1.6-1.5,1.4Zm21.5,0-1.1.8-3.2,1.5-3.3,1.4-1.9.6-2,.6-2,.2-2.2.3h-4.2l-2.2-.3-2-.2-1.1-.4-1-.3,3.4-1.1,1.7-.8.7-.4.8-.6,1-1.1,1.2-1,.9-1,.7-1.3,1.6.4,1.6.2,3.4.2h6.8l1.7-.3,1.8-.4,1.8-.3,1.7-.5-1.3,1.4-1.4,1.1-1.5,1Zm35,0-1.6,1.5-2.3,1.6-2.5,1.2-2.6,1-2.6,1-2.8.6-2.8.5-2.8.4-2.8.3-2.9.2-3-.1-2.9-.1-2.9-.3-2.8-.5-2.7-.6-1.1-.5-1.1-.3,6-2.8,2.5-1.5,2.3-1.5,2.3-2,2.2-2,1.1.2,1.1.4,5.3.9,2.7.4,2.7.4,2.7.2,2.9.1,2.7-.1,2.6-.5,5.3-.5-1,1.1-1,1Zm-328.2,16.3-.8-.4-3.1-2.2-1.5-1.2-1.2-1.2,4,.5,4,.3,4,.2,4-.1,4-.3,4-.3,3.9-.5,3.9-.8,1.8.6,1.8.9,1.8.8,1.8.8,2.7.7,2.6.9,2.6.8,1.4.2,1.4.1,1,.2,1.5.1,1,.6.5,1.2,1,1.1.9,1.1,1,1,1.2.8-1.7.5-1.7.4-1.7.3-1.8.1-3.8.1-1.8.2-1.9.2-5.8.1H258l-2.8-.1-2.8-.2-2.7-.4-2.8-.6-2.5-.8-4-1.2-3.9-1.5-3.7-1.6Zm58.4,0,2.2-.4,2.9-.6,2.9-.7,5.6-1.6.6.7,1.4,1,.8.3.7.2,1.7.2h1.7l.7,1,1.1,1.1,1.1.9,1.1.5-.5,1.1-1.2.5-2,.6-2,.5-4,.7-8.3,1.1-3.2-.4-3.2-.3-1.5-.3-1.3-.5-1.6-.5-1.3-.7-.7-.2-.7-.4-1-1-.9-1.2-1-1.2,3.2.3,3-.2,3-.3Zm171.6,0,.9-.8.8-.8.7-1,1.8-.2,1.6-.4,1.6-.5,1.6-.7,1.4,1.1,1.5.9,1.5.8,1.7.6,3.2,1.1,3.4,1.3.9.2,1,.3,2,.3,4.2.2-1,.9-.9.8-1,.7-1.1.6-1.2.5-1.2.4-2.6.7-2.5.3-2.7.1-2.6-.3-2.6-.5-1.4-.4-1.6-.4-2.8-1.3-2.7-1.5-2.5-1.8Zm25,0-.6-.1-1.3-.3-1.2-.5-1.1-.6-1.3-.2-1.1-.4-1.1-.4-1.1-.3-2.8-1.1-1.3-.8-1.1-1h1.1l1.2-.2,1.1-.3,1.2-.2,1-.5,1-.5,1-.5.9-.7,1.6.4,1.7.2h1.7l1.8-.1,1.7-.5,1.6-.6,1.5-.8,1.3-1.1,4,.9,4.2.8,2,.2,2.2.1h2.3l2.2-.2.8-.2.9-.1,1-.1.8-.3-1,1.3-1.1,1.1-1.1,1-1.1,1-1.3.8-1.3.9-2.6,1.3-2.9,1.1-2.9.7-2.3.4-.8.1-3.3.1h-2.8l-2.7-.1Zm18.6,0,.5-.2,1.7-.8,2-1.2,2-1.3,1.9-1.6.9-.8.7-.9,1-1.1.8-.6,3.5,1,3.4.7,3.5.5,3.6.3h3.6l3.6-.2,3.5-.5,3.5-.5,3.3-.8,3.3-1-1.4,1.9-1.6,1.6-1.8,1.5-1.8,1.2-2,1.1-2,1-1.2.5-2.8,1.4-4,1.5-4.1,1.3-4.3,1.2-4.3.8-4.5.5-4.5.3h-4.6l-4.7-.1-1-.3-1.1-.2-2.3-.2-2.3-.3-1.1-.1-1-.3-1.8-.2.8-.5.7-.6,1.4-1.2.8-.6.8-.4,1-.2.9.1,3.4-.6,1.5-.4,1.6-.7.9-.2Zm-264.1-15.4,1,1.1,1,1.2,1.2,1,1.2.9,1.3.8,1.4.7,1.3.5,1.5.2.9.5,1,.2,1,.3,1,.2-1,.6-1.2.2-1.3.2-1.2.2-3.2.4-3.3.1-3.3.2-3.3.1-3.3-.2-3-.2-3.1-.5-3.1-.5-3.6-1.3-1.8-.7-1.8-.9-1.7-.8-1.6-1.1-1.4-1.4-1.3-1.5,7.3.6,3.7.3,3.7.1,3.6-.1,3.7-.3,3.6-.4,3.5-.7Zm51.6,7.3.5.8.7.6,1.5,1.2,1.6.9,1.7.5-2.3.8-2.4.6-2.3.5-2.4.4-2.4.3-2.6.1h-2.6l-2.5-.1-2.5-.2-2.5-.5-2.4-.5-2.3-.6-4.4-1.6-4.4-1.6-.8-.7-1-.4,6-.3,3-.4,3-.5,2.4-.2,2.4-.5,4.7-1.1,1.2,1.1,1.4.8,1.6.6,1.5.3,1.7.3h1.7l1.6-.2Z" transform="translate(-183.9 -186.11)" style="fill:#ffd432"/></svg>