<?xml version="1.0" encoding="UTF-8"?><svg id="uuid-1c0066f4-a625-463f-9ef9-986221588442" xmlns="http://www.w3.org/2000/svg" xmlns:xlink="http://www.w3.org/1999/xlink" viewBox="0 0 40.17 59.75">
<title>Auckland City FC logo - Brandlogos.net</title><defs><clipPath id="uuid-45aded76-2849-466b-b1d2-2219f0e7c4b3"><path d="M19.81,30.51v-.43c0-.15.12-.27.27-.27s.27.12.27.27v.43c0,.15-.12.27-.27.27s-.27-.12-.27-.27M19.81,28.8v-.43c0-.15.12-.27.27-.27s.27.12.27.27v.43c0,.15-.12.27-.27.27s-.27-.12-.27-.27M19.81,27.07v-.42c0-.15.12-.27.27-.27s.27.12.27.27v.42c0,.15-.12.27-.27.27s-.27-.12-.27-.27M19.81,25.36v-.43c0-.15.12-.27.27-.27s.27.12.27.27v.43c0,.15-.12.27-.27.27s-.27-.12-.27-.27M19.81,23.63v-.43c0-.15.12-.27.27-.27s.27.12.27.27v.43c0,.15-.12.27-.27.27s-.27-.12-.27-.27M19.81,21.91v-.43c0-.15.12-.27.27-.27s.27.12.27.27v.43c0,.15-.12.27-.27.27s-.27-.12-.27-.27M19.81,20.19v-.43c0-.15.12-.27.27-.27s.27.12.27.27v.43c0,.15-.12.27-.27.27s-.27-.12-.27-.27M19.34,6.25c-.04.24-.32,2.16-.35,2.35-.02.15-.07.44.21.52,0,.02,0,.25,0,1.36h-.2c-.22,0-.4.15-.45.35-.36.14-.75.2-.85.25-.35.15-.12.89-.12.9.06.2.43.38.48.4.02,0,.04.01.06.02v.06c0,.17.09.31.22.4,0,.02,0,.03,0,.03,0,.11,0,.66,0,2.97,0,.56.69,2.52.67,3.14-.02.88-.52,25.64-.59,27.64-.08,2.39-.99,3.6-2.7,3.6-1.3,0-3.04-.69-5.04-1.99-2.18-1.43-3.59-2.54-4.56-3.63-1.17-1.3-1.74-2.61-1.74-4,0-.04.02-.1.07-.1.69,0,3.55,0,3.56,0,.03,0,.04-.04.01-.06-.29-.14-.49-.24-.75-.41-2.81-1.76-4.18-5.37-4.75-7.36l-.49-1.51s-.06-.02-.06,0v10c0,1.74,1.04,4.72,6,9,5.35,4.62,11.9,7.38,12.1,7.49.1-.06,6.7-2.82,12.1-7.49,4.96-4.28,6-7.26,6-9v-10s-.04-.04-.05,0c-.2.63-.49,1.52-.49,1.51-.57,1.99-1.94,5.6-4.75,7.36-.26.16-.47.27-.75.41-.03.01-.02.06.01.06h3.56s.07.06.07.1c0,1.39-.57,2.7-1.74,4-.97,1.08-2.38,2.2-4.57,3.63-1.98,1.29-3.72,1.97-5.03,1.97-1.73,0-2.63-1.21-2.71-3.58-.04-1.34-.58-27.2-.59-27.64-.02-.63.68-2.56.68-3.14v-2.47c0-.2,0-.4,0-.54.13-.08.21-.23.21-.38v-.05s.06-.03.09-.04c.41-.22.45-.36.46-.4.03-.12.19-.76-.12-.89-.04-.01-.09-.03-.21-.06-.17-.04-.44-.11-.66-.19-.05-.2-.23-.34-.45-.34h-.19c0-1.11,0-1.33,0-1.36.28-.08.24-.38.21-.52-.03-.18-.31-2.12-.35-2.35-.06-.33-.36-.56-.75-.56s-.69.23-.74.56" style="fill:none;"/></clipPath><linearGradient id="uuid-e191cbcd-6b49-4789-ba42-8ff11a1fa16b" x1="-224.54" y1="189.82" x2="-223.54" y2="189.82" gradientTransform="translate(8131.7 6904.27) scale(36.21 -36.21)" gradientUnits="userSpaceOnUse"><stop offset="0" stop-color="#d0d2d3"/><stop offset=".34" stop-color="#595a5c"/><stop offset=".38" stop-color="#696a6c"/><stop offset=".49" stop-color="#86888a"/><stop offset=".59" stop-color="#9d9fa1"/><stop offset=".71" stop-color="#aeb0b2"/><stop offset=".84" stop-color="#b7b9bb"/><stop offset="1" stop-color="#bbbdbf"/></linearGradient><clipPath id="uuid-ac75a23b-2c23-43e0-a7d9-f759c2750356"><path d="M12.28,15.95c-1.75.25-3.22.56-4.19.78v19.46c1.23-.16,3.03-.4,4.19-.61l.83-.16c.11-.03.17-.05.19-.06.37-.25.95-.59,1.43-.75.21-.07.38-.1.53-.1.19,0,.34.05.43.09.03-.02.06-.04.1-.08.02-.02.07-.06.09-.07.13-.12.28-.22.45-.33.29-.18.63-.34,1.01-.48.06-.02.12-.04.19-.04l.08-.06.1-4.94.06-3.22s.06-6.32-.07-6.87c-.05-.22-.12-.49-.19-.77-.55-2.12-.28-1.1-.4-2.26-1.61.06-3.28.23-4.84.45" style="fill:none;"/></clipPath><clipPath id="uuid-f8042eed-6aff-4ba0-8246-ff7e833c8d5a"><path d="M22.97,16.51c-.08.34-.2.81-.32,1.24-.07.28-.14.55-.19.77-.13.55-.07,6.87-.07,6.87l.07,3.22.12,5.52v.15s.25-.15.25-.15c.15-.08.34-.15.58-.15h0c.25,0,.46.06.66.15.22.1.41.24.59.36.22.16.42.3.66.39.16.06.22.07.64.12.24.03.57.07,1.06.15.29.04.4.04.67.04.06,0,.12,0,.19,0,.23,0,.54,0,1.01.03,1.2.06,2.18.19,2.9.38.09.02.18.05.27.07v-18.96c-.97-.22-2.44-.53-4.19-.78-1.46-.21-3.12-.39-4.84-.45,0,0,.05.46-.08,1.02" style="fill:none;"/></clipPath><clipPath id="uuid-2d50b9f8-5909-4fd1-aaea-c8ebe59270d8"><path d="M12.28,15.95c-1.75.25-3.22.56-4.19.78v19.46c1.23-.16,3.03-.4,4.19-.61l.83-.16c.11-.03.17-.05.19-.06.37-.25.95-.59,1.43-.75.21-.07.38-.1.53-.1.19,0,.34.05.43.09.03-.02.06-.04.1-.08.02-.02.07-.06.09-.07.13-.12.28-.22.45-.33.29-.18.63-.34,1.01-.48.06-.02.12-.04.19-.04l.08-.06.1-4.94.06-3.22s.06-6.32-.07-6.87c-.05-.22-.12-.49-.19-.77-.55-2.12-.28-1.1-.4-2.26-1.61.06-3.28.23-4.84.45" style="fill:none;"/></clipPath><clipPath id="uuid-1b46a0e7-bb12-451f-bc29-91ff86896fa7"><path d="M22.97,16.51c-.08.34-.2.81-.32,1.24-.07.28-.14.55-.19.77-.13.55-.07,6.87-.07,6.87l.07,3.22.12,5.52v.15s.25-.15.25-.15c.15-.08.34-.15.58-.15h0c.25,0,.46.06.66.15.22.1.41.24.59.36.22.16.42.3.66.39.16.06.22.07.64.12.24.03.57.07,1.06.15.29.04.4.04.67.04.06,0,.12,0,.19,0,.23,0,.54,0,1.01.03,1.2.06,2.18.19,2.9.38.09.02.18.05.27.07v-18.96c-.97-.22-2.44-.53-4.19-.78-1.46-.21-3.12-.39-4.84-.45,0,0,.05.46-.08,1.02" style="fill:none;"/></clipPath></defs><path d="M40.17,8.94c0-.48-.29-.9-.73-1.08-5.38-2.19-11.38-3.34-17.33-3.57-.23-.2-.51-.34-.76-.44-.02-.59-.07-2.33-.17-2.93-.09-.53-.54-.92-1.08-.93h-.02c-.55,0-1.02.4-1.11.95-.09.57-.15,2.32-.16,2.9-.25.1-.53.24-.76.44-5.88.19-11.93,1.3-17.34,3.57-.43.18-.71.6-.71,1.07v32.27c0,3.99,3.67,7.89,6.69,10.5,3.33,2.88,7.77,5.63,12.51,7.76l.29.13c.07.03.28.16.6.16.17,0,.33-.03.48-.1.02,0,.44-.2.41-.19,4.74-2.13,9.18-4.88,12.51-7.76,3.02-2.61,6.69-6.51,6.69-10.5V8.94Z" style="fill:#fff;"/><path d="M39.16,8.57c-2.76-1.12-5.77-2.01-9.04-2.62-2.71-.51-5.51-.81-8.34-.9-.3-.43-1.18-.62-1.18-.62,0,0,0-1.88-.08-2.67-.02-.23-.05-.47-.09-.7-.03-.16-.17-.3-.35-.3s-.33.13-.36.31c-.07.41-.11.98-.13,1.39-.03.45-.03,1.94-.03,1.94,0,0-.92.22-1.17.63-2.93.08-5.81.38-8.58.91-3.04.58-6,1.43-8.8,2.61-.15.06-.25.21-.25.37v32.26c0,3.72,3.61,7.49,6.42,9.93,3.27,2.83,7.65,5.54,12.32,7.64.02,0,.44.2.41.19.11.05.23.05.34,0,.02-.01.44-.2.41-.19,4.67-2.1,9.05-4.81,12.32-7.64,2.81-2.43,6.42-6.2,6.42-9.93V8.94c0-.16-.1-.31-.25-.37M31.15,39.6l-2.21,1.05c-.51.24-1.07.37-1.63.37h-4.52c-.06-1.9-.13-4.02-.19-5.95.39-.11.52-.37.81-.38.65,0,1.09.87,2.22.99.01,0,.94.12,1.3.18.62.09.61.02,1.94.08.85.04,1.93.14,2.75.36.32.09.65.17.99.26.46.08,1.05.26,1.38.36.14.05.2.21.12.34-.37.57-1.21,1.27-1.21,1.27-.54.41-1.11.76-1.76,1.06ZM34.37,41.74h.03c-.21.68-.62,1.35-1.26,2.06-.9,1-2.23,2.06-4.32,3.42-1.73,1.13-3.32,1.78-4.36,1.78-.58,0-.82-.19-.96-.36-.22-.26-.49-.83-.53-2.04-.02-.65-.08-2.54-.15-4.86h11.55ZM12.63,41.02c-.6,0-1.19-.15-1.72-.42-.64-.34-1.92-1.01-2.57-1.35h0c-.3-.17-.59-.35-.86-.55-.04-.03-.52-.46-.61-.56-.22-.21-.46-.46-.65-.69-.11-.13-.03-.32.14-.34.26-.03.61-.07.91-.08,1.36-.18,4.91-.63,6.03-.92.1-.03.3-.08.39-.14.35-.24.89-.55,1.29-.68.36-.12.43-.04.57.01.08.03.13.04.18.04.19,0,.38-.14.53-.26.03-.02.1-.08.1-.08.35-.3.81-.53,1.25-.68-.07,2.17-.14,4.59-.21,6.71h-4.76ZM17.36,41.74c-.07,2.29-.13,4.16-.16,4.85-.04,1.22-.31,1.79-.53,2.06-.14.17-.37.36-.94.36-1.03,0-2.62-.65-4.37-1.79-2.09-1.36-3.42-2.42-4.32-3.42-.64-.71-1.05-1.38-1.26-2.06h11.58ZM38.7,41.2c0,3.46-3.55,7.12-6.18,9.39-5.49,4.74-12.24,7.56-12.44,7.66l-.29-.13c-4.61-2.07-8.92-4.75-12.15-7.53-2.63-2.27-6.18-5.93-6.18-9.39v-11.81c0-.11.06-.21.16-.24.14-.06.29.02.33.16l1.05,3.25c.57,2.01,1.31,3.49,2.06,4.58.92,1.34,1.84,2.09,2.47,2.48,0,0,.74.46,1.99,1.04.06.03.11.09.12.15.01.12-.08.21-.19.21h-4.55c.11,1.25.75,2.3,1.59,3.24,1.19,1.32,2.97,2.56,4.46,3.54,1.68,1.1,4.94,2.84,6.24,1.29.53-.63.67-1.66.7-2.49.08-2.48.57-27.07.59-27.64,0-.25-.21-1.04-.35-1.57-.2-.76-.33-1.24-.33-1.55,0-3.84,0-2.82,0-3.01-.39-.14-.79-.43-.89-.92-.13-.64.2-1.16.56-1.32.08-.03.76-.2,1.19-.39v-.99c-.15-.2-.28-.21-.21-.7.09-.62.34-2.32.37-2.45.31-1.24,2.27-1.17,2.48.1.02.15.33,2.2.35,2.36.07.49-.06.5-.21.7v.99c.44.19,1.11.36,1.19.39.35.15.69.68.56,1.32-.1.49-.5.79-.89.92,0,.43,0-1.31,0,3.01,0,.32-.12.8-.33,1.55-.14.53-.35,1.32-.35,1.57,0,.02.59,27.81.61,28.07.06.69.22,1.51.67,2.04.35.41.84.61,1.5.61,1.19,0,2.88-.67,4.75-1.89,1.49-.97,3.28-2.22,4.46-3.54.84-.94,1.48-1.99,1.59-3.24h-4.55c-.22,0-.27-.28-.09-.37,1.37-.64,2.11-1.11,2-1.05.66-.41,1.64-1.21,2.6-2.68.7-1.07,1.39-2.5,1.93-4.39l1.05-3.25c.04-.12.17-.2.3-.17.11.03.18.12.19.24,0,1.93,0,9.68,0,11.83" style="fill:#011e41;"/><path d="M5.78,41.74c.21.68.62,1.35,1.26,2.06.9,1,2.23,2.06,4.32,3.42,1.74,1.14,3.34,1.79,4.37,1.79.57,0,.8-.19.94-.36.22-.26.49-.84.53-2.06.02-.7.08-2.56.16-4.85H5.78Z" style="fill:#0468b0;"/><path d="M22.97,46.6c.04,1.21.31,1.78.53,2.04.14.17.38.36.96.36,1.04,0,2.63-.65,4.36-1.77,2.09-1.37,3.42-2.42,4.32-3.42.64-.71,1.05-1.38,1.26-2.06h-11.58c.07,2.32.13,4.21.15,4.86" style="fill:#0468b0;"/><path d="M34,36.93c-.33-.1-.92-.28-1.38-.36-.34-.09-.67-.18-.99-.26-.82-.22-1.9-.32-2.75-.36-1.33-.07-1.33,0-1.94-.08-1.36-.2-1.48-.17-1.85-.3-.73-.27-1.14-.86-1.66-.86-.29,0-.42.26-.81.38.06,1.94.13,4.05.19,5.95h4.52c.57,0,1.12-.13,1.63-.37l2.21-1.05h0c.65-.3,1.22-.66,1.76-1.07,0,0,.83-.69,1.21-1.27.08-.13.02-.3-.12-.34" style="fill:#49863e;"/><path d="M22.23,6.16c.02.1.03.23.06.39,2.62.11,5.22.4,7.73.88,2.74.51,5.37,1.24,7.82,2.15v-.36c-2.46-.93-5.11-1.66-7.87-2.18-2.51-.47-5.11-.76-7.73-.87" style="fill:#fff;"/><path d="M23.21,14.06v.39c2.35.14,4.68.42,6.94.84,2.69.5,5.27,1.21,7.68,2.09v-.37c-2.42-.9-5.03-1.61-7.74-2.12-2.24-.42-4.55-.7-6.88-.84" style="fill:#fff;"/><path d="M2.33,9.55c2.35-.9,4.9-1.62,7.58-2.13,2.57-.49,5.25-.79,7.97-.89.02-.15.04-.28.06-.39-2.72.1-5.4.39-7.97.88-2.7.51-5.27,1.24-7.64,2.16v.36Z" style="fill:#fff;"/><path d="M11.1,14.67c-.42.07-.85.14-1.26.22-2.65.5-5.17,1.21-7.51,2.1v.36c2.32-.87,4.83-1.57,7.45-2.07,2.32-.44,4.73-.73,7.18-.86v-.38c-1.98.1-3.95.32-5.85.63" style="fill:#fff;"/><path d="M7.5,9.56s-.02-.01-.04-.01c0,0-.01,0-.02,0-.75.18-2.36.62-3.76,1.05-.02,0-.05.03-.07.05-.28.38-.42.56-.7.94-.02.02-.03.05-.03.08v3.38s.02.06.05.06c.02,0,.05-.01.13-.04.1-.03.28-.09.6-.19.05-.02.1-.07.1-.13v-1.02c0-.1.07-.2.17-.22,1.17-.35,2.34-.67,3.23-.9.06-.02.11,0,.13.02.02.02.06.05.06.12v1.02s0,.04.02.05c.02.01.04.01.06.01.29-.07.43-.1.71-.17.05-.01.1-.07.1-.12v-3.38s0-.04-.02-.05c-.29-.23-.43-.34-.71-.56M7.35,11.57c0,.1-.08.19-.17.22-1.04.26-2,.54-2.93.81l-.48.14v-.95s.02-.1.05-.14l.14-.18s.08-.07.12-.09c1.1-.32,2.18-.62,2.96-.82h.04s.06,0,.09.02l.19.15v.08s0,.77,0,.77Z" style="fill:#fff;"/><path d="M29.46,8.94s-.04-.04-.07-.04c-1.19-.2-2.56-.39-3.76-.53h0s-.04,0-.05.02c-.29.26-.43.38-.72.64-.02.01-.03-.03-.03-.01v3.48c0,.05.04.1.09.1.36.03.54.05.64.07.06,0,.08,0,.09,0,.04,0,.08-.03.08-.08v-1.12s.02-.09.05-.12c.03-.03.08-.04.13-.04,1.56.18,2.64.36,3.15.44.18.03.33.05.35.05.04,0,.07-.03.07-.07v-.64c0-.05-.04-.1-.1-.11-1.1-.18-2.37-.36-3.49-.5-.1-.01-.18-.1-.18-.2v-.7s.02-.09.06-.12l.14-.12s.08-.04.13-.04c.94.11,2.01.26,2.94.41.05,0,.09.03.12.07l.22.25s.04.04.07.04c.37.06.55.1.64.11.07.01.08.02.1.02.04,0,.07-.03.07-.07v-.3s-.01-.05-.03-.07c-.29-.34-.43-.51-.72-.85" style="fill:#fff;"/><path d="M35.96,11.36s.09.04.12.09l.21.28s.04.04.07.05c.28.09.42.13.7.22.02,0,.04,0,.06,0,.01,0,.02-.03.02-.05v-.3s-.01-.05-.03-.08c-.28-.38-.42-.56-.7-.94-.02-.02-.04-.04-.07-.05-1.17-.35-2.36-.68-3.55-.97,0,0-.01,0-.02,0-.01,0-.03,0-.04.01-.29.22-.43.33-.71.55-.01.01-.02.03-.02.05v2.66s.01.05.03.07c.29.35.43.53.71.89.02.02.04.04.07.04,1.18.29,2.38.62,3.55.97.01,0,.04,0,.06,0,.28-.2.42-.3.7-.5.02-.01.02-.04.02-.05h0c0-.06,0-.16,0-.3,0-.05-.04-.11-.1-.13-.28-.09-.42-.13-.7-.22-.01,0-.04,0-.06,0l-.27.18h-.03s-.03,0-.27-.07c-.37-.11-1.23-.36-2.52-.69-.05-.01-.09-.04-.12-.08l-.14-.17s-.05-.09-.05-.14v-1.91l.06-.06.13-.1s.1-.03.13-.02c.92.23,1.84.49,2.74.75" style="fill:#fff;"/><path d="M14.62,8.3s-.03-.02-.05-.02c-1.21.14-2.43.32-3.63.53-.02,0-.05.02-.07.04-.29.34-.43.51-.72.85-.02.02-.03.05-.03.07v2.66s0,.04.02.05c.29.23.43.35.72.59.01,0,.03.01.05.01,1.21-.21,2.43-.38,3.63-.53.03,0,.05-.01.07-.03.29-.32.43-.48.72-.8.02-.02.03-.04.03-.07h0c0-.06,0-.16,0-.3,0-.04-.03-.08-.08-.08-.09,0-.34.03-.73.08-.03,0-.05.01-.07.04l-.22.24s-.08.06-.13.07c-1.46.19-2.18.31-2.53.37-.3.05-.34.06-.4,0l-.14-.11s-.06-.07-.06-.12v-1.84s.02-.1.05-.13l.14-.16s.08-.06.12-.07c1.06-.18,2.71-.41,2.82-.41.04,0,.08.01.11.04l.22.19s.04.02.06.02c.29-.03.43-.05.73-.08.05,0,.09-.05.09-.1v-.3s0-.04-.03-.06c-.29-.26-.43-.39-.72-.64" style="fill:#fff;"/><g style="clip-path:url(#uuid-45aded76-2849-466b-b1d2-2219f0e7c4b3);"><rect x="1.98" y="5.69" width="36.21" height="52" style="fill:url(#uuid-e191cbcd-6b49-4789-ba42-8ff11a1fa16b);"/></g><path d="M16.35,34.99s-.08.06-.1.08c-.15.12-.34.26-.53.26-.05,0-.1-.01-.18-.04-.14-.06-.2-.14-.57-.01-.4.13-.94.44-1.29.68-.08.06-.28.11-.38.14-1.12.29-4.67.74-6.03.92-.3.01-.65.05-.91.08-.17.02-.24.22-.14.34.19.23.43.48.65.69.09.1.58.53.61.56.28.2.56.38.86.55h0c5.12,2.69-.13-.06,2.56,1.35.53.28,1.12.43,1.72.43h4.76c.07-2.13.14-4.54.21-6.71-.44.15-.9.38-1.25.68" style="fill:#49863e;"/><path d="M2.67,26.65c-.12,0-.19-.07-.19-.19v-.48c0-.4.2-.61.63-.73l.35-.1c.22-.06.33-.13.33-.39v-.1c0-.25-.13-.38-.42-.38s-.42.15-.42.37v.11c0,.06-.04.1-.1.1h-.26c-.06,0-.1-.04-.1-.11v-.12c0-.42.27-.71.88-.71s.89.28.89.74v.12c0,.42-.17.62-.63.74l-.35.1c-.25.07-.32.14-.32.35v.24h1.09c.12,0,.2.08.2.19v.03c0,.12-.08.2-.2.2h-1.37Z" style="fill:#fff;"/><path d="M4.86,25.75v-.9c0-.6.37-.93,1-.93s1,.33,1,.93v.9c0,.6-.37.93-1,.93s-1-.33-1-.93M6.37,25.79v-.96c0-.36-.16-.54-.51-.54s-.51.19-.51.54v.96c0,.36.16.54.51.54s.51-.18.51-.54" style="fill:#fff;"/><path d="M33.17,25.75v-.9c0-.6.37-.93,1-.93s1,.33,1,.93v.9c0,.6-.37.93-1,.93s-1-.33-1-.93M34.69,25.79v-.96c0-.36-.16-.54-.51-.54s-.51.19-.51.54v.96c0,.36.16.54.51.54s.51-.18.51-.54" style="fill:#fff;"/><path d="M37.3,26.65h-.22c-.08,0-.13-.04-.13-.11v-.51h-1.04c-.14,0-.22-.06-.22-.21v-.12c0-.07.02-.13.06-.2l.9-1.38c.07-.11.14-.17.24-.17h.34c.11,0,.18.07.18.18v1.5h.23c.12,0,.19.08.19.19v.03c0,.1-.08.18-.19.18h-.23v.51c0,.07-.05.11-.13.11M36.1,25.64h.84v-1.32l-.84,1.32Z" style="fill:#fff;"/><g style="clip-path:url(#uuid-ac75a23b-2c23-43e0-a7d9-f759c2750356);"><rect x="8.09" y="14.33" width="4.85" height="4.85" style="fill:#fed401;"/><rect x="8.09" y="24.03" width="4.85" height="4.85" style="fill:#fed401;"/><rect x="8.09" y="33.74" width="4.85" height="4.85" style="fill:#fed401;"/><rect x="12.94" y="19.18" width="4.85" height="4.85" style="fill:#fed401;"/><rect x="12.94" y="28.88" width="4.85" height="4.85" style="fill:#fed401;"/><rect x="8.09" y="19.18" width="4.85" height="4.85" style="fill:#fff;"/><rect x="8.09" y="28.88" width="4.85" height="4.85" style="fill:#fff;"/><rect x="12.94" y="14.33" width="4.85" height="4.85" style="fill:#fff;"/><rect x="12.94" y="24.03" width="4.85" height="4.85" style="fill:#fff;"/><rect x="12.94" y="33.74" width="4.85" height="4.85" style="fill:#fff;"/></g><g style="clip-path:url(#uuid-f8042eed-6aff-4ba0-8246-ff7e833c8d5a);"><rect x="27.23" y="14.33" width="4.85" height="4.85" style="fill:#fed401;"/><rect x="27.23" y="24.03" width="4.85" height="4.85" style="fill:#fed401;"/><rect x="27.23" y="33.74" width="4.85" height="4.85" style="fill:#fed401;"/><rect x="22.38" y="19.18" width="4.85" height="4.85" style="fill:#fed401;"/><rect x="22.38" y="28.88" width="4.85" height="4.85" style="fill:#fed401;"/><rect x="27.23" y="19.18" width="4.85" height="4.85" style="fill:#fff;"/><rect x="27.23" y="28.88" width="4.85" height="4.85" style="fill:#fff;"/><rect x="22.38" y="14.33" width="4.85" height="4.85" style="fill:#fff;"/><rect x="22.38" y="24.03" width="4.85" height="4.85" style="fill:#fff;"/><rect x="22.38" y="33.74" width="4.85" height="4.85" style="fill:#fff;"/></g><g style="clip-path:url(#uuid-2d50b9f8-5909-4fd1-aaea-c8ebe59270d8);"><polygon points="12.94 19.18 12.94 19.32 17.65 24.03 17.79 24.03 17.79 23.89 13.08 19.18 12.94 19.18" style="fill:#a7a9ac;"/><polygon points="13.62 19.18 17.79 23.36 17.79 23.08 13.9 19.18 13.62 19.18" style="fill:#a7a9ac;"/><polygon points="14.43 19.18 17.79 22.55 17.79 22.27 14.71 19.18 14.43 19.18" style="fill:#a7a9ac;"/><polygon points="15.24 19.18 17.79 21.73 17.79 21.45 15.52 19.18 15.24 19.18" style="fill:#a7a9ac;"/><polygon points="16.06 19.18 17.79 20.92 17.79 20.64 16.34 19.18 16.06 19.18" style="fill:#a7a9ac;"/><polygon points="12.94 22.58 14.4 24.03 14.68 24.03 12.94 22.3 12.94 22.58" style="fill:#a7a9ac;"/><polygon points="12.94 21.76 15.21 24.03 15.49 24.03 12.94 21.48 12.94 21.76" style="fill:#a7a9ac;"/><polygon points="12.94 20.95 16.03 24.03 16.31 24.03 12.94 20.67 12.94 20.95" style="fill:#a7a9ac;"/><polygon points="12.94 20.14 16.84 24.03 17.12 24.03 12.94 19.85 12.94 20.14" style="fill:#a7a9ac;"/><polygon points="17.79 19.82 17.15 19.18 16.87 19.18 17.79 20.11 17.79 19.82" style="fill:#a7a9ac;"/><polygon points="12.94 23.39 13.59 24.03 13.87 24.03 12.94 23.11 12.94 23.39" style="fill:#a7a9ac;"/><polygon points="8.09 14.33 8.09 14.47 12.8 19.18 12.94 19.18 12.94 19.04 8.23 14.33 8.09 14.33" style="fill:#a7a9ac;"/><polygon points="8.77 14.33 12.94 18.51 12.94 18.23 9.05 14.33 8.77 14.33" style="fill:#a7a9ac;"/><polygon points="9.58 14.33 12.94 17.69 12.94 17.41 9.86 14.33 9.58 14.33" style="fill:#a7a9ac;"/><polygon points="10.39 14.33 12.94 16.88 12.94 16.6 10.67 14.33 10.39 14.33" style="fill:#a7a9ac;"/><polygon points="11.21 14.33 12.94 16.07 12.94 15.79 11.49 14.33 11.21 14.33" style="fill:#a7a9ac;"/><polygon points="8.09 17.73 9.55 19.18 9.83 19.18 8.09 17.44 8.09 17.73" style="fill:#a7a9ac;"/><polygon points="8.09 16.91 10.36 19.18 10.64 19.18 8.09 16.63 8.09 16.91" style="fill:#a7a9ac;"/><polygon points="8.09 16.1 11.18 19.18 11.46 19.18 8.09 15.82 8.09 16.1" style="fill:#a7a9ac;"/><polygon points="8.09 15.28 11.99 19.18 12.27 19.18 8.09 15 8.09 15.28" style="fill:#a7a9ac;"/><polygon points="12.94 14.97 12.3 14.33 12.02 14.33 12.94 15.25 12.94 14.97" style="fill:#a7a9ac;"/><polygon points="8.09 18.54 8.73 19.18 9.01 19.18 8.09 18.26 8.09 18.54" style="fill:#a7a9ac;"/><polygon points="12.94 28.88 12.94 29.02 17.65 33.74 17.79 33.74 17.79 33.6 13.08 28.88 12.94 28.88" style="fill:#a7a9ac;"/><polygon points="13.62 28.88 17.79 33.06 17.79 32.78 13.9 28.88 13.62 28.88" style="fill:#a7a9ac;"/><polygon points="14.43 28.88 17.79 32.25 17.79 31.97 14.71 28.88 14.43 28.88" style="fill:#a7a9ac;"/><polygon points="15.24 28.88 17.79 31.44 17.79 31.15 15.52 28.88 15.24 28.88" style="fill:#a7a9ac;"/><polygon points="16.06 28.88 17.79 30.62 17.79 30.34 16.34 28.88 16.06 28.88" style="fill:#a7a9ac;"/><polygon points="12.94 32.28 14.4 33.74 14.68 33.74 12.94 32 12.94 32.28" style="fill:#a7a9ac;"/><polygon points="12.94 31.47 15.21 33.74 15.49 33.74 12.94 31.18 12.94 31.47" style="fill:#a7a9ac;"/><polygon points="12.94 30.65 16.03 33.74 16.31 33.74 12.94 30.37 12.94 30.65" style="fill:#a7a9ac;"/><polygon points="12.94 29.84 16.84 33.74 17.12 33.74 12.94 29.56 12.94 29.84" style="fill:#a7a9ac;"/><polygon points="17.79 29.53 17.15 28.88 16.87 28.88 17.79 29.81 17.79 29.53" style="fill:#a7a9ac;"/><polygon points="12.94 33.09 13.59 33.74 13.87 33.74 12.94 32.81 12.94 33.09" style="fill:#a7a9ac;"/><polygon points="8.09 24.03 8.09 24.17 12.8 28.88 12.94 28.88 12.94 28.74 8.23 24.03 8.09 24.03" style="fill:#a7a9ac;"/><polygon points="8.77 24.03 12.94 28.21 12.94 27.93 9.05 24.03 8.77 24.03" style="fill:#a7a9ac;"/><polygon points="9.58 24.03 12.94 27.4 12.94 27.12 9.86 24.03 9.58 24.03" style="fill:#a7a9ac;"/><polygon points="10.39 24.03 12.94 26.58 12.94 26.3 10.67 24.03 10.39 24.03" style="fill:#a7a9ac;"/><polygon points="11.21 24.03 12.94 25.77 12.94 25.49 11.49 24.03 11.21 24.03" style="fill:#a7a9ac;"/><polygon points="8.09 27.43 9.55 28.88 9.83 28.88 8.09 27.15 8.09 27.43" style="fill:#a7a9ac;"/><polygon points="8.09 26.61 10.36 28.88 10.64 28.88 8.09 26.33 8.09 26.61" style="fill:#a7a9ac;"/><polygon points="8.09 25.8 11.18 28.88 11.46 28.88 8.09 25.52 8.09 25.8" style="fill:#a7a9ac;"/><polygon points="8.09 24.99 11.99 28.88 12.27 28.88 8.09 24.71 8.09 24.99" style="fill:#a7a9ac;"/><polygon points="12.94 24.68 12.3 24.03 12.02 24.03 12.94 24.96 12.94 24.68" style="fill:#a7a9ac;"/><polygon points="8.09 28.24 8.73 28.88 9.01 28.88 8.09 27.96 8.09 28.24" style="fill:#a7a9ac;"/><polygon points="8.09 33.74 8.09 33.88 12.8 38.59 12.94 38.59 12.94 38.45 8.23 33.74 8.09 33.74" style="fill:#a7a9ac;"/><polygon points="8.77 33.74 12.94 37.91 12.94 37.63 9.05 33.74 8.77 33.74" style="fill:#a7a9ac;"/><polygon points="9.58 33.74 12.94 37.1 12.94 36.82 9.86 33.74 9.58 33.74" style="fill:#a7a9ac;"/><polygon points="10.39 33.74 12.94 36.29 12.94 36.01 10.67 33.74 10.39 33.74" style="fill:#a7a9ac;"/><polygon points="11.21 33.74 12.94 35.47 12.94 35.19 11.49 33.74 11.21 33.74" style="fill:#a7a9ac;"/><polygon points="8.09 37.13 9.55 38.59 9.83 38.59 8.09 36.85 8.09 37.13" style="fill:#a7a9ac;"/><polygon points="8.09 36.32 10.36 38.59 10.64 38.59 8.09 36.04 8.09 36.32" style="fill:#a7a9ac;"/><polygon points="8.09 35.5 11.18 38.59 11.46 38.59 8.09 35.22 8.09 35.5" style="fill:#a7a9ac;"/><polygon points="8.09 34.69 11.99 38.59 12.27 38.59 8.09 34.41 8.09 34.69" style="fill:#a7a9ac;"/><polygon points="12.94 34.38 12.3 33.74 12.02 33.74 12.94 34.66 12.94 34.38" style="fill:#a7a9ac;"/><polygon points="8.09 37.94 8.73 38.59 9.01 38.59 8.09 37.66 8.09 37.94" style="fill:#a7a9ac;"/></g><g style="clip-path:url(#uuid-1b46a0e7-bb12-451f-bc29-91ff86896fa7);"><polygon points="22.38 19.18 22.38 19.32 27.09 24.03 27.23 24.03 27.23 23.89 22.52 19.18 22.38 19.18" style="fill:#a7a9ac;"/><polygon points="23.05 19.18 27.23 23.36 27.23 23.08 23.33 19.18 23.05 19.18" style="fill:#a7a9ac;"/><polygon points="23.86 19.18 27.23 22.55 27.23 22.27 24.15 19.18 23.86 19.18" style="fill:#a7a9ac;"/><polygon points="24.68 19.18 27.23 21.73 27.23 21.45 24.96 19.18 24.68 19.18" style="fill:#a7a9ac;"/><polygon points="25.49 19.18 27.23 20.92 27.23 20.64 25.77 19.18 25.49 19.18" style="fill:#a7a9ac;"/><polygon points="22.38 22.58 23.83 24.03 24.11 24.03 22.38 22.3 22.38 22.58" style="fill:#a7a9ac;"/><polygon points="22.38 21.76 24.65 24.03 24.93 24.03 22.38 21.48 22.38 21.76" style="fill:#a7a9ac;"/><polygon points="22.38 20.95 25.46 24.03 25.74 24.03 22.38 20.67 22.38 20.95" style="fill:#a7a9ac;"/><polygon points="22.38 20.14 26.27 24.03 26.56 24.03 22.38 19.85 22.38 20.14" style="fill:#a7a9ac;"/><polygon points="27.23 19.82 26.59 19.18 26.31 19.18 27.23 20.11 27.23 19.82" style="fill:#a7a9ac;"/><polygon points="22.38 23.39 23.02 24.03 23.3 24.03 22.38 23.11 22.38 23.39" style="fill:#a7a9ac;"/><polygon points="27.24 14.33 27.24 14.47 31.95 19.18 32.09 19.18 32.09 19.04 27.38 14.33 27.24 14.33" style="fill:#a7a9ac;"/><polygon points="27.91 14.33 32.09 18.51 32.09 18.23 28.19 14.33 27.91 14.33" style="fill:#a7a9ac;"/><polygon points="28.72 14.33 32.09 17.69 32.09 17.41 29 14.33 28.72 14.33" style="fill:#a7a9ac;"/><polygon points="29.54 14.33 32.09 16.88 32.09 16.6 29.82 14.33 29.54 14.33" style="fill:#a7a9ac;"/><polygon points="30.35 14.33 32.09 16.07 32.09 15.79 30.63 14.33 30.35 14.33" style="fill:#a7a9ac;"/><polygon points="27.24 17.73 28.69 19.18 28.97 19.18 27.24 17.44 27.24 17.73" style="fill:#a7a9ac;"/><polygon points="27.24 16.91 29.51 19.18 29.79 19.18 27.24 16.63 27.24 16.91" style="fill:#a7a9ac;"/><polygon points="27.24 16.1 30.32 19.18 30.6 19.18 27.24 15.82 27.24 16.1" style="fill:#a7a9ac;"/><polygon points="27.24 15.28 31.13 19.18 31.41 19.18 27.24 15 27.24 15.28" style="fill:#a7a9ac;"/><polygon points="32.09 14.97 31.44 14.33 31.16 14.33 32.09 15.25 32.09 14.97" style="fill:#a7a9ac;"/><polygon points="27.24 18.54 27.88 19.18 28.16 19.18 27.24 18.26 27.24 18.54" style="fill:#a7a9ac;"/><polygon points="22.38 28.88 22.38 29.02 27.09 33.74 27.23 33.74 27.23 33.6 22.52 28.88 22.38 28.88" style="fill:#a7a9ac;"/><polygon points="23.05 28.88 27.23 33.06 27.23 32.78 23.33 28.88 23.05 28.88" style="fill:#a7a9ac;"/><polygon points="23.86 28.88 27.23 32.25 27.23 31.97 24.15 28.88 23.86 28.88" style="fill:#a7a9ac;"/><polygon points="24.68 28.88 27.23 31.44 27.23 31.15 24.96 28.88 24.68 28.88" style="fill:#a7a9ac;"/><polygon points="25.49 28.88 27.23 30.62 27.23 30.34 25.77 28.88 25.49 28.88" style="fill:#a7a9ac;"/><polygon points="22.38 32.28 23.83 33.74 24.11 33.74 22.38 32 22.38 32.28" style="fill:#a7a9ac;"/><polygon points="22.38 31.47 24.65 33.74 24.93 33.74 22.38 31.18 22.38 31.47" style="fill:#a7a9ac;"/><polygon points="22.38 30.65 25.46 33.74 25.74 33.74 22.38 30.37 22.38 30.65" style="fill:#a7a9ac;"/><polygon points="22.38 29.84 26.27 33.74 26.56 33.74 22.38 29.56 22.38 29.84" style="fill:#a7a9ac;"/><polygon points="27.23 29.53 26.59 28.88 26.31 28.88 27.23 29.81 27.23 29.53" style="fill:#a7a9ac;"/><polygon points="22.38 33.09 23.02 33.74 23.3 33.74 22.38 32.81 22.38 33.09" style="fill:#a7a9ac;"/><polygon points="27.24 24.03 27.24 24.17 31.95 28.88 32.09 28.88 32.09 28.74 27.38 24.03 27.24 24.03" style="fill:#a7a9ac;"/><polygon points="27.91 24.03 32.09 28.21 32.09 27.93 28.19 24.03 27.91 24.03" style="fill:#a7a9ac;"/><polygon points="28.72 24.03 32.09 27.4 32.09 27.12 29 24.03 28.72 24.03" style="fill:#a7a9ac;"/><polygon points="29.54 24.03 32.09 26.58 32.09 26.3 29.82 24.03 29.54 24.03" style="fill:#a7a9ac;"/><polygon points="30.35 24.03 32.09 25.77 32.09 25.49 30.63 24.03 30.35 24.03" style="fill:#a7a9ac;"/><polygon points="27.24 27.43 28.69 28.88 28.97 28.88 27.24 27.15 27.24 27.43" style="fill:#a7a9ac;"/><polygon points="27.24 26.61 29.51 28.88 29.79 28.88 27.24 26.33 27.24 26.61" style="fill:#a7a9ac;"/><polygon points="27.24 25.8 30.32 28.88 30.6 28.88 27.24 25.52 27.24 25.8" style="fill:#a7a9ac;"/><polygon points="27.24 24.99 31.13 28.88 31.41 28.88 27.24 24.71 27.24 24.99" style="fill:#a7a9ac;"/><polygon points="32.09 24.68 31.44 24.03 31.16 24.03 32.09 24.96 32.09 24.68" style="fill:#a7a9ac;"/><polygon points="27.24 28.24 27.88 28.88 28.16 28.88 27.24 27.96 27.24 28.24" style="fill:#a7a9ac;"/><polygon points="27.24 33.74 27.24 33.88 31.95 38.59 32.09 38.59 32.09 38.45 27.38 33.74 27.24 33.74" style="fill:#a7a9ac;"/><polygon points="27.91 33.74 32.09 37.91 32.09 37.63 28.19 33.74 27.91 33.74" style="fill:#a7a9ac;"/><polygon points="28.72 33.74 32.09 37.1 32.09 36.82 29 33.74 28.72 33.74" style="fill:#a7a9ac;"/><polygon points="29.54 33.74 32.09 36.29 32.09 36.01 29.82 33.74 29.54 33.74" style="fill:#a7a9ac;"/><polygon points="30.35 33.74 32.09 35.47 32.09 35.19 30.63 33.74 30.35 33.74" style="fill:#a7a9ac;"/><polygon points="27.24 37.13 28.69 38.59 28.97 38.59 27.24 36.85 27.24 37.13" style="fill:#a7a9ac;"/><polygon points="27.24 36.32 29.51 38.59 29.79 38.59 27.24 36.04 27.24 36.32" style="fill:#a7a9ac;"/><polygon points="27.24 35.5 30.32 38.59 30.6 38.59 27.24 35.22 27.24 35.5" style="fill:#a7a9ac;"/><polygon points="27.24 34.69 31.13 38.59 31.41 38.59 27.24 34.41 27.24 34.69" style="fill:#a7a9ac;"/><polygon points="32.09 34.38 31.44 33.74 31.16 33.74 32.09 34.66 32.09 34.38" style="fill:#a7a9ac;"/><polygon points="27.24 37.94 27.88 38.59 28.16 38.59 27.24 37.66 27.24 37.94" style="fill:#a7a9ac;"/></g></svg>