<svg xmlns="http://www.w3.org/2000/svg" viewBox="0 0 175.9 299.29"><title>Al Ahly SC logo - Brandlogos.net</title><polygon points="47.82 0 44.39 10.52 32 10.71 41.54 18.14 37.85 30.28 47.94 22.51 57.64 30.24 54.08 18.38 63.67 10.76 51.49 10.81 47.82 0" style="fill:#daa528"/><polygon points="87.93 0 84.51 10.52 72.12 10.71 81.66 18.14 77.97 30.28 88.05 22.51 97.75 30.24 94.19 18.38 103.78 10.76 91.61 10.81 87.93 0" style="fill:#daa528"/><polygon points="128.04 0 124.63 10.52 112.23 10.71 121.77 18.14 118.09 30.28 128.16 22.51 137.87 30.24 134.31 18.38 143.9 10.76 131.72 10.81 128.04 0" style="fill:#daa528"/><polygon points="94.01 278.96 100.57 273.61 107.52 278.82 104.9 270.57 111.35 265.42 102.89 265.39 100.47 258.24 98.05 265.65 89.74 265.71 96.34 270.84 94.01 278.96" style="fill:#daa528"/><polygon points="69.42 279.26 75.97 273.9 82.92 279.12 80.3 270.87 86.75 265.72 78.29 265.69 75.87 258.53 73.45 265.95 65.14 266.01 71.75 271.14 69.42 279.26" style="fill:#daa528"/><polygon points="47.75 275.39 54.31 270.04 61.25 275.26 58.64 267 65.09 261.86 56.63 261.82 54.2 254.67 51.79 262.08 43.47 262.15 50.08 267.27 47.75 275.39" style="fill:#daa528"/><polygon points="26.02 266.44 32.59 261.08 39.53 266.31 36.91 258.05 43.36 252.9 34.9 252.87 32.48 245.72 30.06 253.13 21.75 253.19 28.36 258.32 26.02 266.44" style="fill:#daa528"/><polygon points="8.31 242.33 0 242.4 6.61 247.52 4.28 255.64 10.84 250.29 17.78 255.51 15.16 247.25 21.61 242.1 13.15 242.07 10.73 234.92 8.31 242.33" style="fill:#daa528"/><polygon points="115.58 274.57 122.14 269.22 129.09 274.44 126.47 266.18 132.92 261.04 124.46 261 122.03 253.85 119.61 261.26 111.3 261.33 117.91 266.45 115.58 274.57" style="fill:#daa528"/><polygon points="137.08 265.1 143.64 259.74 150.59 264.96 147.97 256.71 154.42 251.56 145.96 251.53 143.54 244.38 141.12 251.78 132.81 251.85 139.41 256.98 137.08 265.1" style="fill:#daa528"/><polygon points="158.56 253.78 165.12 248.43 172.07 253.65 169.45 245.39 175.9 240.24 167.44 240.21 165.02 233.06 162.6 240.47 154.28 240.53 160.9 245.66 158.56 253.78" style="fill:#daa528"/><path d="M384,277.23c-29.93,0-58.12,1.56-73.57,4.64V424.31c0,48.22,68.21,60.15,73.58,60.15s73.58-11.93,73.58-60.15V281.87c-15.45-3.08-43.66-4.61-73.6-4.64" transform="translate(-296.05 -234.28)" style="fill:#fff"/><path d="M313.54,281.2s67.26-15.59,140.89,0v27s-52.26,45.08-140.89,65" transform="translate(-296.05 -234.28)" style="fill:#ea2227"/><path d="M463.77,283.16V421.87c0,51.5-68.89,62.69-79.77,62.94-10.88-.25-79.76-11.44-79.76-62.94V283.16c-3.87.84-6.06,1.39-6.06,1.39v136c0,52.32,74.12,65.71,85.82,66,11.71-.26,85.83-13.65,85.83-66v-136s-2.18-.55-6.06-1.39" transform="translate(-296.05 -234.28)" style="fill:#daa528"/><path d="M457.58,281.87V424.31c0,48.22-68.21,60.15-73.58,60.15s-73.58-11.94-73.58-60.15V281.87c-2.37.47-4.45.91-6.19,1.29V421.87c0,51.49,68.89,62.68,79.76,62.94,10.88-.25,79.77-11.44,79.77-62.94V283.16c-1.73-.38-3.81-.81-6.18-1.29" transform="translate(-296.05 -234.28)"/><path d="M393.67,292s3.87-.24,5.08-3.13c1-2.39-1.1-2.11-1.1-2.11s-1.45.34-1.32-.13.45-.74,1.61-1.08c.81-.25.52-1.29.52-1.29s0-.45-.55-.32a3.37,3.37,0,0,0-2.79,2.84c-.42,2.55,2.24,1.71,2.24,1.71.29-.1.74-.05.37.42a16.76,16.76,0,0,1-4.05,3.08" transform="translate(-296.05 -234.28)" style="fill:#fff"/><path d="M398.6,308.67s-.58-.39-1.4-3.14c-.93-3.17,1-8.61,1-8.61,2.08,5.11.39,11.75.39,11.75m10.66-11.35c-.22-3.08-2.13-10-7.11-16.21-.3-.37-.81-.05-.81.4s.53,15.4,1.93,17.77c.86,1.55.68-.24.68-.24l-.68-10.73a29.87,29.87,0,0,1,4.64,14.54c.15,8.35-4.84,11.44-6.63,9.69,0,0-.95-.77-1-1.07,0,0,1.52-6.12,1-10.17s-1.52-4.78-2.61-8.91c0,0-.15-.83-.62-.42s-.5.74-.75,2.65-1.08,5.42-1.4,7-1,6,1.07,9.66c0,0-2.39,2.85-5.09,2.56-2.29-.24-5.49-1.76-5.22-8.89,0,0,.06-.58-.1-.61s-1,6.75,1.79,10.5c2.63,3.55,7.58,4.32,10.34-.05,0,0,4.92,5.74,7.8,1s3.4-8.67,2.71-18.43" transform="translate(-296.05 -234.28)" style="fill:#fff"/><path d="M419.28,297.37a37.62,37.62,0,0,0-7.6-16.41c-.3-.37-.8,0-.8.4s.64,15.57,2,17.95c.87,1.55,1.33,0,1.35-.31.17-2.73-1.45-10.83-1.45-10.83s5.18,6.76,5.33,14.7c.15,8.35-5.37,11-7.22,9.72a5.71,5.71,0,0,1-1.37-1.34s-.29-.46-.41-.21-.16,5.28,2.33,6,3.58.23,4.89-1.43c3.39-4.25,4-10.54,2.92-18.23" transform="translate(-296.05 -234.28)" style="fill:#fff"/><path d="M380.62,287.69s-3.32,1.44-2.11,7.24c1,4.9,2,3.53,2,3.53s.23-.39-.11-1.55-1.94-4.85,1.24-5.74c0,0,2.74-.24,4.32,1.13s3.45,3.32,2.5,5.16-1.26,1.47-1.26,1.47-.23-3.24-2.16-3.53-2.57,2.53-2.64,3.37c-.13,1.6.05,3.31.69,3.95,0,0-4.83,5.71-12.18,4.13-6.63-1.42-6.32-11.84-6.32-11.84s0-7.5-1.42-7.18c-.5.11-1.85,2.69-1.4,3.56a12.14,12.14,0,0,1,.61,6.46,7,7,0,0,1-1.82,3s-2.58,2.47-2.9,4.85.08,3.16.42,3.61a3.65,3.65,0,0,0,2.55,1.26c1.76.24,1.79,1.29,1.79,1.4a2.89,2.89,0,0,1-1,2.26c-.85.92-2.88,2.66-7,1.61-3.83-1-5.11-5.37-4.5-8.71s4-9.11,4.44-9.93a15.28,15.28,0,0,0,1.77-7.26s-.6-.58-.79,1.24a13,13,0,0,1-1.08,4.13c-.49,1.09-5.38,9.84-5.89,13.45-.35,2.4-.61,8.29,4.45,10.37s9.37-.13,11-5.37c1.42-4.62-.42-6-1.18-6.45s-4.24-1.08-3.24-2.1a22.6,22.6,0,0,0,3.61-5.42s.51,10.48,9.82,11.16c8.34.6,12.47-6.95,12.63-7.13.63.08,4.71-.74,5-6.71C390.74,290.16,383.88,286,380.62,287.69Zm4.3,13.49c-.5,0-.9-.71-.9-1.58s.4-1.58.9-1.58.9.71.9,1.58S385.42,301.18,384.92,301.18Z" transform="translate(-296.05 -234.28)" style="fill:#fff"/><path d="M383.71,277.93" transform="translate(-296.05 -234.28)" style="fill:#ea2227"/><path d="M383.71,277.93" transform="translate(-296.05 -234.28)" style="fill:#ea2227"/><path d="M423.57,396.59,351.67,428a341.44,341.44,0,0,1-36.17,10.44c11.27,36.29,67.87,44.75,68.5,44.75s70.45-10.46,70.45-57.83V377.45A269.87,269.87,0,0,1,423.57,396.59Z" transform="translate(-296.05 -234.28)" style="fill:#ea2227"/><path d="M383.71,277.93" transform="translate(-296.05 -234.28)" style="fill:#ea2227"/><text transform="translate(58.43 227.13)" style="font-size:12.406578063964844px;fill:#fff;font-family:Arial-Black, Arial">AL AH<tspan x="42.05" y="0" style="letter-spacing:-0.07713901811327949em">L</tspan><tspan x="49.37" y="0">Y</tspan><tspan x="12.96" y="11.37">1907</tspan></text><path d="M305.36,506.42c.76.84,1.14,1.26,1.92,2.09a4.1,4.1,0,0,1-1.64,1,3.7,3.7,0,0,1-1.82,0,6.23,6.23,0,0,1-2.11-1,7.34,7.34,0,0,1-2-1.91,4.09,4.09,0,0,1-.65-2.28,4.44,4.44,0,0,1,1-2.65,4.39,4.39,0,0,1,3.05-2,5.45,5.45,0,0,1,3.69,1.12,5.54,5.54,0,0,1,2,2.16,4.11,4.11,0,0,1,.22,2.61c-1-.39-1.54-.59-2.57-1a2,2,0,0,0,.08-.66,1.74,1.74,0,0,0-.26-.75,2,2,0,0,0-.6-.6,1.91,1.91,0,0,0-1.74-.28,2.94,2.94,0,0,0-1.34,1.2,3,3,0,0,0-.73,2,2.24,2.24,0,0,0,2.28,1.67A2.56,2.56,0,0,0,305.36,506.42Z" transform="translate(-296.05 -234.28)" style="fill:#daa528"/><path d="M311.69,504.22c1,.63,1.54.93,2.57,1.54l-3.37,5.78c1.69,1,2.54,1.46,4.26,2.39l-1,1.92c-2.85-1.54-4.27-2.35-7.05-4.06Z" transform="translate(-296.05 -234.28)" style="fill:#daa528"/><path d="M324.79,511.32c1.07.51,1.6.75,2.68,1.23l-2.16,4.83a4,4,0,0,1-.86,1.24,3.12,3.12,0,0,1-1.3.75,3.5,3.5,0,0,1-1.45.14,6.87,6.87,0,0,1-2.12-.68,14.39,14.39,0,0,1-1.42-.8,4.62,4.62,0,0,1-1.15-1,3.54,3.54,0,0,1-.61-1.18,2.7,2.7,0,0,1-.11-1.22,4.7,4.7,0,0,1,.45-1.46l2.48-4.68c1,.56,1.58.83,2.63,1.36l-2.43,4.84a1.44,1.44,0,0,0-.1,1.22,2.14,2.14,0,0,0,2.26,1.11,1.44,1.44,0,0,0,.9-.84Z" transform="translate(-296.05 -234.28)" style="fill:#daa528"/><path d="M329.26,513.34c2,.87,3,1.29,5.1,2.08a3.21,3.21,0,0,1,1.75,1.34,2,2,0,0,1,.16,1.73,1.88,1.88,0,0,1-1,1.09,2.4,2.4,0,0,1-1.19.19A2.88,2.88,0,0,1,335.3,521a2,2,0,0,1,0,1.49,2.2,2.2,0,0,1-.76,1,2.5,2.5,0,0,1-1.23.48,3.54,3.54,0,0,1-1.21-.14,14,14,0,0,1-1.35-.39c-2-.78-3-1.19-5-2Zm1.43,4.37,1.22.49a1.59,1.59,0,0,0,1,.15.77.77,0,0,0,.49-.5.73.73,0,0,0,0-.66,1.57,1.57,0,0,0-.81-.55l-1.22-.49Zm-1.31,3.23,1.46.58a1.87,1.87,0,0,0,1.14.17.81.81,0,0,0,.55-.51.75.75,0,0,0-.07-.71,2,2,0,0,0-1-.63l-1.44-.57Z" transform="translate(-296.05 -234.28)" style="fill:#daa528"/><path d="M341.39,522.58a4.46,4.46,0,0,1,2.25-2.85,5.24,5.24,0,0,1,3.79-.16,5.32,5.32,0,0,1,3.22,2.07,4.38,4.38,0,0,1,.47,3.55,5,5,0,0,1-1.16,2.35,3.87,3.87,0,0,1-2,1.1,6,6,0,0,1-2.83-.18,6.82,6.82,0,0,1-2.57-1.23,3.93,3.93,0,0,1-1.28-2A4.57,4.57,0,0,1,341.39,522.58Zm2.88.88a2.75,2.75,0,0,0,0,2,2.24,2.24,0,0,0,2.92.82,3,3,0,0,0,1-1.86,2.61,2.61,0,0,0-.07-1.91,2,2,0,0,0-1.28-.94,1.89,1.89,0,0,0-1.54.18A2.83,2.83,0,0,0,344.27,523.46Z" transform="translate(-296.05 -234.28)" style="fill:#daa528"/><path d="M353.68,521.28c2.8.63,4.21.91,7,1.4l-.32,1.88c-1.7-.29-2.55-.45-4.24-.8l-.31,1.52c1.46.3,2.2.44,3.66.7l-.31,1.77c-1.49-.26-2.23-.4-3.71-.7l-.72,3.56c-1.22-.25-1.82-.38-3-.65Z" transform="translate(-296.05 -234.28)" style="fill:#daa528"/><path d="M365.93,523.47c3.49.46,5.24.64,8.75.88l-.15,2.19c-1.2-.08-1.79-.13-3-.24l-.6,6.66c-1.23-.11-1.84-.17-3.06-.31l.74-6.65c-1.19-.13-1.79-.21-3-.36Z" transform="translate(-296.05 -234.28)" style="fill:#daa528"/><path d="M376,524.44c1.15.07,1.73.1,2.89.14l-.12,3.11c1.29.05,1.94.07,3.23.09l.05-3.11c1.16,0,1.74,0,2.9,0,0,3.55,0,5.33,0,8.88-1.24,0-1.85,0-3.09,0L382,530c-1.31,0-2,0-3.28-.09l-.14,3.59c-1.23,0-1.84-.08-3.07-.15Z" transform="translate(-296.05 -234.28)" style="fill:#daa528"/><path d="M386.87,524.67c3.1-.06,4.65-.13,7.74-.36l.14,1.89c-2,.15-2.94.2-4.91.28l.06,1.41c1.84-.07,2.76-.12,4.6-.25l.13,1.81c-1.86.13-2.79.18-4.66.26l.07,1.75c2.09-.08,3.14-.14,5.23-.3l.15,2c-3.35.25-5,.33-8.38.39C387,530,386.93,528.22,386.87,524.67Z" transform="translate(-296.05 -234.28)" style="fill:#daa528"/><path d="M407.68,528c1.09.12,1.63.17,2.73.27a4.16,4.16,0,0,1-.53,1.81,3.58,3.58,0,0,1-1.25,1.25,5.81,5.81,0,0,1-2.13.69,6.79,6.79,0,0,1-2.69,0,3.94,3.94,0,0,1-1.94-1.25,4.6,4.6,0,0,1-1-2.61,4.5,4.5,0,0,1,.85-3.51A5.05,5.05,0,0,1,405,523a5.16,5.16,0,0,1,2.86.23,4.1,4.1,0,0,1,1.86,1.79c-1,.4-1.49.59-2.48,1a2,2,0,0,0-.38-.54,1.68,1.68,0,0,0-.67-.38,1.86,1.86,0,0,0-.81,0,1.8,1.8,0,0,0-1.41,1,4.19,4.19,0,0,0,.6,3.72,2.09,2.09,0,0,0,2.69-.3A2.59,2.59,0,0,0,407.68,528Z" transform="translate(-296.05 -234.28)" style="fill:#daa528"/><path d="M410.71,522.17c3.06-.59,4.58-.93,7.6-1.69l.46,1.84c-1.92.48-2.88.71-4.82,1.12l.3,1.38c1.81-.39,2.71-.6,4.51-1l.44,1.76c-1.82.45-2.74.67-4.57,1.06l.37,1.71c2.06-.44,3.09-.68,5.13-1.2l.49,1.95c-3.28.83-4.93,1.2-8.24,1.83Z" transform="translate(-296.05 -234.28)" style="fill:#daa528"/><path d="M420,520c1.05-.28,1.58-.42,2.62-.72,1.91,1.5,2.88,2.23,4.88,3.66L426,518.3c1.05-.33,1.58-.5,2.62-.85l2.83,8.42c-1.11.37-1.67.56-2.79.91-2-1.41-3-2.13-4.95-3.6l1.34,4.69c-1.12.32-1.68.48-2.81.78Z" transform="translate(-296.05 -234.28)" style="fill:#daa528"/><path d="M429.85,517c3.36-1.17,5-1.8,8.33-3.19l.85,2c-1.12.47-1.69.7-2.82,1.15l2.46,6.22c-1.16.46-1.75.68-2.92,1.12l-2.33-6.27c-1.14.42-1.71.63-2.86,1Z" transform="translate(-296.05 -234.28)" style="fill:#daa528"/><path d="M445.06,510.72c1.06-.52,1.59-.78,2.65-1.32l2.41,4.71a4,4,0,0,1,.43,1.45,3.13,3.13,0,0,1-.23,1.49,3.52,3.52,0,0,1-.8,1.22,6.88,6.88,0,0,1-1.86,1.23,14.33,14.33,0,0,1-1.51.6,4.57,4.57,0,0,1-1.48.28,3.51,3.51,0,0,1-1.29-.27,2.7,2.7,0,0,1-1-.67,4.73,4.73,0,0,1-.86-1.26l-2.1-4.86c1.08-.47,1.62-.71,2.69-1.2l2.25,4.93a1.44,1.44,0,0,0,.88.84,2.13,2.13,0,0,0,2.28-1.07,1.44,1.44,0,0,0-.09-1.22Z" transform="translate(-296.05 -234.28)" style="fill:#daa528"/><path d="M453.65,516.32l-4.16-7.84c1.75-.93,2.62-1.41,4.35-2.41a8.35,8.35,0,0,1,1.94-.89,2.27,2.27,0,0,1,2.57,1.07,2.25,2.25,0,0,1,.37,1.27,2.59,2.59,0,0,1-.38,1.25,3.94,3.94,0,0,1-.75.86,3.39,3.39,0,0,1,.86-.13,3,3,0,0,1,.67.14,3.65,3.65,0,0,1,.66.25c1.05.56,1.58.84,2.65,1.39-1.23.76-1.84,1.14-3.08,1.87-1.14-.59-1.7-.89-2.82-1.5a2.13,2.13,0,0,0-.83-.31,1.42,1.42,0,0,0-.76.19l-.24.13,1.76,3.15C455.34,515.42,454.78,515.72,453.65,516.32Zm.22-6.13,1.12-.63a5.51,5.51,0,0,0,.64-.51.84.84,0,0,0,.29-.49.77.77,0,0,0-.09-.54.78.78,0,0,0-.59-.42,2,2,0,0,0-1.09.37l-1.16.65Z" transform="translate(-296.05 -234.28)" style="fill:#daa528"/><path d="M457.22,504c1.13-.7,1.7-1.06,2.82-1.79,1.31.58,2,.86,3.31,1.41,0-1.44,0-2.16,0-3.6,1.1-.76,1.65-1.15,2.73-1.94,0,2.57-.06,3.86-.2,6.46l2.1,3.07c-1.06.73-1.6,1.09-2.67,1.79l-2-3.11C460.79,505.47,459.59,505,457.22,504Z" transform="translate(-296.05 -234.28)" style="fill:#daa528"/><path d="M454.57,324.87a2.13,2.13,0,0,0,.62-2,2.07,2.07,0,0,0-1.45-1.53,9.75,9.75,0,0,0-2.44-.26c-3.5,0-10.22,1.35-18.24,9.15.9-1.24,1.89-2.52,3-3.82a2.13,2.13,0,0,0,.22-2.36,2,2,0,0,0-2.06-1,23.67,23.67,0,0,0-10,4.74,27.37,27.37,0,0,0-3.58,3.3l.06-.12a2.16,2.16,0,0,0-.19-2.31,2,2,0,0,0-2.15-.7,18.51,18.51,0,0,0-7.16,4.73,22.17,22.17,0,0,0-4.23,6.17,4,4,0,0,1,.19-.76,2.13,2.13,0,0,0-.59-2.32,2,2,0,0,0-2.32-.22c-.23.11-5.49,3.39-7.33,11.17a2,2,0,0,0-1.06-.86,2,2,0,0,0-2.35.85A34.07,34.07,0,0,0,389,360.8l0-.09a2,2,0,0,0-3.66.38A37.56,37.56,0,0,0,383.72,372a34.65,34.65,0,0,0,.84,7.7c-10.21-6-27.93-17.48-36.69-54.8a2.06,2.06,0,0,0-1.26-1.47,2,2,0,0,0-1.89.27c-.28.19-4.77,3.77-4.76,11.65,0,.51,0,1,.06,1.56a99.93,99.93,0,0,1-7.71-15.26,2,2,0,0,0-3.51-.44,33.12,33.12,0,0,0-1.94,3.2,15.08,15.08,0,0,0-2,6.46c0,.08,0,.23,0,.45a22.56,22.56,0,0,0,1.38,6.75c-1.16-1.56-2.29-3.22-3.33-5a2,2,0,0,0-3.47.06,14.76,14.76,0,0,0-1.54,6.76,17.07,17.07,0,0,0,2.63,9,30.51,30.51,0,0,0,4.35,5.34,45.68,45.68,0,0,1-6-4.72,2,2,0,0,0-2-.44,2.07,2.07,0,0,0-1.34,1.61,7.75,7.75,0,0,0-.1,1.41c-.09,2.38.78,7.34,5.56,12l-1.17-.62a2,2,0,0,0-2.18.2,2.12,2.12,0,0,0-.73,2.13,17.94,17.94,0,0,0,3.17,6.29,18.49,18.49,0,0,0,3.64,3.62,2,2,0,0,0-1.51.72,2.14,2.14,0,0,0-.31,2.24c.07.29,2.59,5.42,9.7,8.08a2.08,2.08,0,0,0-.68.89,2.15,2.15,0,0,0,.46,2.31c.22.24,11.63,11.42,36.35,13a41.41,41.41,0,0,1-10.78,2.88,2.06,2.06,0,0,0-1.61-1.69s-.46-.09-1.26-.3c-2.43-.62-7.7-2.55-9.9-5.38a2,2,0,0,0-1.49-.75,2,2,0,0,0-1.53.65,6.39,6.39,0,0,0-1.66,4,4.9,4.9,0,0,0,1.93,3.82l-.45,0a2,2,0,0,0-2.16,1.86c0,.05-.09.89-.09,2.11a18.48,18.48,0,0,0,.86,5.94,2,2,0,0,0,1.9,1.38h.09a2,2,0,0,0-.4.71,2.14,2.14,0,0,0,.34,2c.15.13,5.52,7.21,13.8,8.86H356c.24,0,6.78-1.1,15.62-7.36a25.12,25.12,0,0,0-1,6.53,12.82,12.82,0,0,0,1.27,5.87,10,10,0,0,0,2.78,2.9,4.4,4.4,0,0,0-1.06,2.9,5.18,5.18,0,0,0,.11,1,2.05,2.05,0,0,0,1.37,1.54,2,2,0,0,0,2-.45h0a2.85,2.85,0,0,1,1.68-.64,1.92,1.92,0,0,1,.52.07,1.46,1.46,0,0,1,.79.42,2.46,2.46,0,0,0-.57,2,2.2,2.2,0,0,0,2.14,1.4h0a7.74,7.74,0,0,0,2.29-.41,5,5,0,0,0,1.92-1.17,4,4,0,0,0,1.13-2.79.21.21,0,0,0,0-.07v-.07c-.19-2.41-1.72-3.7-3-4.77a16.39,16.39,0,0,0-2.28-1.51,6.05,6.05,0,0,1,.27-1.68,17.56,17.56,0,0,1,1-2.48,4.52,4.52,0,0,0,4.42,2.76,1.86,1.86,0,0,0,1.88-1,.94.94,0,0,0,.08-.47c.13.06.09.09.22.18a2.64,2.64,0,0,0,.25.76,2,2,0,0,0,2.19,1.11,5.61,5.61,0,0,0,1.66-.47,3.63,3.63,0,0,0,2.23-3.31,4.19,4.19,0,0,0-.19-1.22,6.16,6.16,0,0,0-3.35-3.38,14.59,14.59,0,0,0-1.8-.74,3.64,3.64,0,0,1-1.26-2.47v-.11a2.08,2.08,0,0,0-.2-1.13A67.7,67.7,0,0,1,404,406.92c3.81-2.41,7-4.18,9.21-5.35,1.11-.58,2-1,2.62-1.3l.72-.33.18-.08h0a2.07,2.07,0,0,0,1,1.22,2,2,0,0,0,2.12-.12,10.22,10.22,0,0,0,1.35-1.17,5.14,5.14,0,0,0,1.62-3.29,1.44,1.44,0,0,0,0-.25h0v-.05a4.47,4.47,0,0,0-3.3-4.13,10.51,10.51,0,0,0-3.42-2,43.08,43.08,0,0,0-7.28-1.75,97.71,97.71,0,0,0,8.39-12.34c4.82-8.31,11.81-20.63,32.35-34.46a2.11,2.11,0,0,0-.13-3.57,9.2,9.2,0,0,0-4.38-.93,14.24,14.24,0,0,0-3.23.38c3-3.13,7.09-7.25,12.72-12.47" transform="translate(-296.05 -234.28)" style="fill:#daa528"/><path d="M448.49,339.73c-20.82,14-28.16,26.78-33,35.14a88.75,88.75,0,0,1-9.27,13.36H395.57A53.1,53.1,0,0,0,406,390a42.75,42.75,0,0,1,9.5,2,8.36,8.36,0,0,1,3.15,2,2.39,2.39,0,0,1,2.22,2.28c.06,1.39-2.11,2.95-2.11,2.95,0-.43,0-1.09-.36-1.36a3,3,0,0,0-2.15,0c-.44.12-5.45,2.35-13.29,7.31-15.27,10.48-21.85,23.65-22.87,27a6.77,6.77,0,0,0-.21,3.73c1,.39,5,2.63,5.09,4.94s-3.35,2.36-3.35,2.36a2.6,2.6,0,0,0,.68-.63,3.08,3.08,0,0,0-2.54-3.14,4.62,4.62,0,0,0-4.07,1.06,2.56,2.56,0,0,1,1.86-3l0-1.17a9.64,9.64,0,0,1-3.84-3.22C371,428,374.3,420,374.3,420c.38-.94.86-1.58.46-2.08-.61-.75-2.17.51-2.17.51C363,425.89,355.66,427,355.66,427c-7.31-1.4-12.59-8.13-12.59-8.13a43.08,43.08,0,0,0,12.31-4.74,110.57,110.57,0,0,1-13.91,1.26,19.46,19.46,0,0,1-.66-7.12c25.37,2,33.82-7.2,33.82-7.2-28.91.28-41.86-12.63-41.86-12.63,7.77.19,10.73-1.22,10.73-1.22l-.5-1c-15.14.85-19.28-8.4-19.28-8.4a52.8,52.8,0,0,0,16.59,2.3l-.5-1.55-6-1c-12.5-1.64-15-12.2-15-12.2,11.09,6.05,19.5,6.71,19.5,6.71l-.09-1.65c-23.1-5.67-20.77-19.32-20.77-19.32,8.1,7.64,20.32,12.24,20.32,12.24l.09-1.74s-11.18-6.43-15.68-13.79a14,14,0,0,1-1-13.61,80.81,80.81,0,0,0,17.41,19.7l0-1.93a86.44,86.44,0,0,1-7.5-9,21.73,21.73,0,0,1-4.27-11.87c-.18-3.28,3.59-8.68,3.59-8.68A109.76,109.76,0,0,0,343,345.09c1.14-.33.47-1.7.47-1.7-4.4-12.84,2.46-18,2.46-18,9.82,42.37,31.83,52.59,40.84,58,6.74,4.51,4.31,10.56,4.31,10.56,5-7.18-4.06-13-4.06-13a35.68,35.68,0,0,1,.2-19.26c1,1.84,3.91,3.57,3.91,3.57-1.13-9.19,4.06-17.57,4.06-17.57-.2,4.44,3.42,8.68,3.42,8.68-2.08-13.95,6.63-19.16,6.63-19.16-1.29,3.58.1,13.74.39,15.18s.69,1.28.69,1.28c-.84-19.77,12.58-23.86,12.58-23.86-6.34,11.8-5.64,19.72-5.75,20.79s.55,1.17.55,1.17c3.47-24.17,20.79-26.83,20.79-26.83-11.59,14.15-13.27,24.88-13.27,24.88,17-30.76,32-26.59,32-26.59C437.41,338,433.35,344,433.35,344c9.49-7.51,15.15-4.31,15.15-4.31" transform="translate(-296.05 -234.28)"/><path d="M389.65,426.42s3.56,1,4.16,2.86-2,2.3-2,2.3c1-.79-.72-2.25-1.93-2.71a2.46,2.46,0,0,0-2.85.61c-.47.66.37,1.56.37,1.56a2.51,2.51,0,0,1-2.57-1.56c-.34-1.35,1.23-2.4,1.23-2.4a10.31,10.31,0,0,1,1.24-5.34,5.7,5.7,0,0,0,2.33,4.68" transform="translate(-296.05 -234.28)"/><path d="M342.61,399.84c3.78,4.69,12.33,6.4,12.33,6.4-2.47.29-8.84.65-12-1.39s-.38-5-.38-5" transform="translate(-296.05 -234.28)"/><path d="M358.23,374.82a30.57,30.57,0,0,1-13.48-6.59c.25,8.74,13.48,6.59,13.48,6.59" transform="translate(-296.05 -234.28)" style="fill:#daa528"/><path d="M413.63,394.92l2.08-1.12a11.69,11.69,0,0,0-4.38-1,6.35,6.35,0,0,1,2.3,2.1" transform="translate(-296.05 -234.28)" style="fill:#daa528"/><path d="M357.68,370.74a43.3,43.3,0,0,1-13.06-11.59c-2.43,9.61,13.06,11.59,13.06,11.59" transform="translate(-296.05 -234.28)" style="fill:#daa528"/><path d="M396.8,398.65l1.41,1.31-.46,2.14c2.69-2.79,3.78-3.3,3.78-3.3a26.62,26.62,0,0,1-4.73-.15" transform="translate(-296.05 -234.28)" style="fill:#daa528"/><path d="M357.47,365.51c-9.4-9.53-11-16.81-11-16.81-5.57,9.92,11,16.81,11,16.81" transform="translate(-296.05 -234.28)" style="fill:#daa528"/><path d="M401.16,391.8a14.21,14.21,0,0,1-4.56-2.09l1,1.91s-1.05,1.45-1.22,1.81a17.8,17.8,0,0,1,4.78-1.64" transform="translate(-296.05 -234.28)" style="fill:#daa528"/><path d="M396.38,397.78a21.18,21.18,0,0,1,4.48-2.3,12.3,12.3,0,0,1-4.58-1.28l1.12,1.71-1,1.87" transform="translate(-296.05 -234.28)" style="fill:#daa528"/></svg>