<?xml version="1.0" encoding="UTF-8"?><svg id="Layer_1" xmlns="http://www.w3.org/2000/svg" viewBox="0 0 549.17 705"><defs><style>.cls-1{fill:#006a3f;}.cls-2{fill:#7e4f3a;}.cls-3{fill:#282a6f;}.cls-4{fill:#fff;}.cls-5{fill:#e8151e;}</style></defs><path class="cls-4" d="M549,0H0l.17,450.31c-.02,14.34,3.25,28.5,9.57,41.37,6.32,12.87,15.51,24.12,26.87,32.88l.81.64,237.31,179.8,237.23-180.07c11.53-8.78,20.88-20.1,27.34-33.08,6.45-12.98,9.83-27.27,9.87-41.77l-.17-450.08Z"/><path class="cls-5" d="M411.42,139.49l-61.08,62.55v426.48l61.08-46.36V139.49Z"/><path class="cls-5" d="M472.61,535.68l29.39-22.3c19.22-14.58,31.67-36.21,31.66-60.28l-.16-438.67-60.89,62.35v458.9Z"/><path class="cls-5" d="M167.76,604.89v-215.87l-61.08,62.55v107.04l61.08,46.28Z"/><path class="cls-5" d="M289.78,674.49v-410.43l-61.08,62.56v324.44l46.01,34.87,15.07-11.44Z"/><path class="cls-3" d="M549,0H0l.17,450.31c-.02,14.11,3.16,28.03,9.28,40.74,6.13,12.71,15.05,23.86,26.1,32.63.35.28.69.57,1.05.84l.81.64,237.31,179.8,237.24-180.03c11.53-8.78,20.88-20.1,27.34-33.08,6.45-12.98,9.83-27.27,9.87-41.77l-.17-450.08ZM355.53,79.54L79.72,362.1l-.11-282.42,275.92-.14ZM502,511.8l-227.29,172.51-226.51-171.63L532.52,16.68l.16,433.39c-.03,11.95-2.82,23.74-8.14,34.45-5.32,10.7-13.03,20.04-22.54,27.28Z"/><path class="cls-4" d="M33.62,32.8l6.19-19.05,6.2,19.05h20.03s-16.2,11.77-16.2,11.77l6.2,19.06-16.22-11.77-16.2,11.78,6.18-19.06-16.21-11.77h20.03Z"/><path class="cls-4" d="M233.18,32.73l6.18-19.06,6.2,19.05h20.04l-16.21,11.78,6.2,19.05-16.21-11.77-16.2,11.78,6.18-19.05-16.21-11.77h20.03Z"/><path class="cls-4" d="M33.77,434.77l6.19-19.06,6.2,19.05h20.03l-16.2,11.78,6.2,19.05-16.22-11.77-16.2,11.78,6.18-19.05-16.21-11.77h20.03Z"/><path class="cls-4" d="M33.7,234.34l6.18-19.06,6.2,19.05h20.04s-16.21,11.78-16.21,11.78l6.2,19.05-16.21-11.77-16.21,11.78,6.19-19.06-16.21-11.77h20.03Z"/><path class="cls-4" d="M173.37,306.85l6.19-19.06,6.2,19.05h20.03l-16.2,11.78,6.2,19.05-16.22-11.77-16.2,11.78,6.18-19.05-16.21-11.77h20.03Z"/><path class="cls-4" d="M307.59,172.44l6.18-19.05,6.2,19.05h20.03s-16.2,11.77-16.2,11.77l6.2,19.06-16.21-11.77-16.21,11.78,6.18-19.06-16.21-11.77h20.04Z"/><path class="cls-4" d="M432.73,32.65l6.19-19.05,6.2,19.05h20.03s-16.2,11.77-16.2,11.77l6.2,19.06-16.22-11.77-16.2,11.78,6.18-19.06-16.21-11.77h20.03Z"/><path d="M189.24,220.57c-.2-1.41-.58-2.79-1.13-4.11-4.25-9.75-8.78-7.91-11.47-21.21-.44-2.48-1.03-4.92-1.75-7.33-.49-1.4-1.45-4.23-1.21-6.48.49-4.69,2-10,2.69-14.76v-.17c.76-.2,1.46-.6,2-1.17.55-.57.93-1.27,1.11-2.04.2-1.5-.21-2.08-3.75-3l-.12-.14c-2.11-3.84-5.59-5.17-9.49-5.93-1.31-.2-2.65-.14-3.93.18-1.15.15-2.32-.06-3.35-.61-2-1.11-6.33-5.38-7.58-3.49-.79,1.23-1.28,2.62-1.41,4.07-.14,1.45.08,2.92.63,4.26,2,4.74,5.15,6,1.83,11.54-2,3.31-6,8.22-6.94,12.58-2.7-1.73-5.03-3.98-6.85-6.62-.67-1.74-1.6-3.37-2.77-4.83v14.21c1.77,2.27,3.81,4.8,5.66,7-1.81-1.19-3.89-2.64-5.66-3.88v11.56c1.42,1,3.53,2.24,5,3,1.35.8,2.78,1.44,4.27,1.92.66,8.08,4.18,15.65,9.92,21.37-.94,3.81-1.87,8.45-1.33,10.51,1.83,6.95,8,12.44,8.54,16.54.25,1.83-1.76,2.71-3.25,3.92l-.67.44,22,.43.33-.44c.34-.63.43-1.38.23-2.07-1.74-10.91-1.91-12.49,4.12-19.06,1.9-2.15,3.23-4.74,3.88-7.54.38-.01.74-.1,1.08-.26.34-.16.64-.39.89-.67.25-.28.44-.61.56-.96.12-.36.16-.73.13-1.11-.38-2.01-1.13-3.93-2.22-5.66ZM171.76,253.47c-.25,1.39-1.06,2.13-2.17,3.29.44-2.11.42-4.28-.06-6.38-.37-1.77-1.74-6.52-1.63-7.5.14-1.2,4.19,8.72,3.86,10.59Z"/><path class="cls-2" d="M143.2,257.16c-.94,0-1.87-.17-2.74-.52-.87-.35-1.66-.88-2.32-1.54-.67-.66-1.19-1.45-1.55-2.32-.36-.87-.54-1.79-.54-2.73v-91.9c0-1.39.32-2.76.94-4l1.32-2c-5.32.54-10.68.52-16-.06l1.19,2c.65,1.26.99,2.66,1,4.08v91.84c0,.94-.18,1.86-.53,2.73-.36.87-.88,1.65-1.54,2.31-.66.66-1.45,1.19-2.31,1.54-.86.36-1.79.54-2.73.54l-19.9.79c-.29,0-.57.12-.78.32s-.32.49-.32.78.12.57.32.78.49.32.78.32l81.92-.22,2-2-38.21-.74Z"/><path class="cls-1" d="M130.38,152.84c23.71,0,42.93-14.62,42.93-32.65s-19.22-32.65-42.93-32.65-42.93,14.62-42.93,32.65,19.22,32.65,42.93,32.65Z"/><path class="cls-5" d="M117.29,132.1c-.38-.15-.79-.22-1.19-.22-.41,0-.81.1-1.19.26-.77.35-1.37.98-1.67,1.76-.31.78-.29,1.65.03,2.43.17.38.4.71.7,1,.3.28.65.51,1.03.65.36.13.74.2,1.13.2.47,0,.93-.1,1.35-.29.57-.26,1.04-.67,1.37-1.2.33-.53.49-1.14.47-1.76-.02-.62-.22-1.22-.59-1.73-.36-.51-.86-.89-1.45-1.11Z"/><path class="cls-5" d="M135.48,128.78c.4.15.82.22,1.25.21.43-.02.85-.12,1.23-.3.39-.16.74-.4,1.03-.7.29-.3.52-.66.67-1.05.15-.39.23-.81.22-1.23,0-.42-.1-.83-.28-1.21-.17-.37-.41-.71-.71-.99s-.65-.5-1.03-.64c-.8-.3-1.69-.28-2.47.07-.77.34-1.38.97-1.68,1.76-.31.79-.29,1.66.04,2.43.16.38.4.72.7,1,.3.28.65.5,1.03.65Z"/><path class="cls-5" d="M156.06,119.61c.4.15.82.22,1.25.21.43-.02.85-.12,1.23-.3.76-.34,1.35-.97,1.64-1.75.29-.78.27-1.64-.07-2.4-.36-.79-1.01-1.4-1.82-1.7-.37-.16-.77-.24-1.18-.24s-.8.08-1.18.24c-.77.36-1.37,1.01-1.67,1.8-.3.79-.28,1.68.06,2.46.16.38.4.72.7,1.01.3.29.65.51,1.03.67Z"/><path class="cls-5" d="M104.43,119.26c-.38-.15-.79-.22-1.19-.22-.41,0-.81.1-1.19.26-.77.35-1.37.98-1.67,1.76-.31.78-.29,1.65.03,2.43.17.38.4.71.7,1,.3.28.65.5,1.03.65.36.13.74.2,1.13.2.47,0,.93-.1,1.35-.29.57-.26,1.04-.67,1.37-1.2.33-.53.49-1.14.47-1.76-.02-.62-.22-1.22-.59-1.73-.36-.51-.86-.89-1.45-1.11Z"/><path class="cls-5" d="M126.75,111.68c-.17-.37-.41-.71-.71-.99-.3-.28-.65-.5-1.04-.64-.8-.3-1.69-.28-2.47.07-.77.34-1.38.97-1.69,1.76-.31.79-.29,1.66.05,2.43.16.38.4.72.7,1,.3.28.65.51,1.03.65.4.15.82.22,1.25.21.43-.02.85-.12,1.23-.3.39-.16.74-.4,1.03-.7.29-.3.52-.66.67-1.05.15-.39.23-.81.22-1.23-.01-.42-.1-.83-.28-1.21Z"/><path class="cls-5" d="M148.34,141.62c.36.14.74.21,1.12.21.47,0,.93-.1,1.35-.3.39-.16.73-.4,1.03-.7.29-.3.52-.66.67-1.05.15-.39.23-.81.22-1.23,0-.42-.1-.83-.28-1.21-.17-.37-.41-.71-.71-.99-.3-.28-.65-.49-1.03-.63-.59-.23-1.23-.28-1.85-.14-.62.14-1.18.45-1.62.9-.44.45-.73,1.03-.85,1.65-.12.62-.04,1.26.2,1.84.16.38.4.72.7,1,.3.28.65.5,1.04.65Z"/></svg>