<?xml version="1.0" encoding="UTF-8"?><svg id="uuid-da2006ef-6c38-4d2d-8a2e-7e057da6f5f9" xmlns="http://www.w3.org/2000/svg" viewBox="0 0 265.63 300">
<title>Botafogo de Futebol e Regatas logo - Brandlogos.net</title><path d="M130.08,0c-21.53.18-41.88,9.18-61.06,18.3C47.99,29.05,24.77,36.34.96,35.82.14,50.05-.22,64.31.14,78.57c1.14,48.23,10.61,97.71,36.86,138.82,22.75,36.36,57.86,63.31,95.71,82.57.03.02.09.05.09.05,0,0,.06-.03.1-.05,37.86-19.26,72.96-46.21,95.71-82.57,26.25-41.11,35.73-90.59,36.86-138.82.37-14.25,0-28.52-.81-42.75-23.81.53-47.04-6.77-68.06-17.52C177.43,9.18,157.08.18,135.55,0h-5.48Z"/><path d="M130.96,13.3c-27.67.48-51.68,16.06-76.71,25.93-12.99,5.06-26.67,8.31-40.58,9.46-2.16,51.51,3.65,104.92,28.18,150.96,20.4,37.1,53.55,65.82,90.9,85.18l.06.03.06-.03c37.35-19.36,70.5-48.08,90.9-85.18,24.53-46.04,30.34-99.45,28.18-150.96-13.91-1.14-27.58-4.4-40.58-9.46-25.02-9.88-49.04-25.45-76.71-25.93h-3.7Z" style="fill:#fff;"/><path d="M131.21,30.23c-27.9,1.28-51.36,18.37-77.12,27.1-7.82,2.58-15.75,4.79-23.86,6.19-.62,46.04,6.38,93.62,29.92,133.78,17.41,28.96,43.38,51.69,72.65,68.31h.02s.02,0,.02,0c29.27-16.61,55.24-39.35,72.65-68.31,23.54-40.16,30.53-87.74,29.92-133.78-8.11-1.4-16.04-3.61-23.86-6.19-25.76-8.73-49.23-25.83-77.12-27.1h-3.2Z"/><path d="M132.82,54.31l-17.89,55.26h-58.23l47.14,34.16-18.04,55.42,47.01-34.32,47.01,34.32-18.04-55.42,47.14-34.16h-58.23l-17.89-55.26Z" style="fill:#fff;"/></svg>