<svg id="Layer_1" data-name="Layer 1" xmlns="http://www.w3.org/2000/svg" viewBox="0 0 132.03 259.63"><title>Al Hilal SFC logo - Brandlogos.net</title><path d="M373.12,254.59c5.08-.27,10.17-.52,15.26-.35,3,.24,5.94.17,8.89.52,0,13.4,0,26.8,0,40.2-.09.64.65.51,1.06.51a61.57,61.57,0,0,1,25.25,4.05q0-20.5,0-41a182.36,182.36,0,0,1,25.27,7.56,6.77,6.77,0,0,1,1.14.62v60.76a127.85,127.85,0,0,1-2.93,21.63,108.51,108.51,0,0,1-22.73,45.42l-.78-.47q0-31.2,0-62.4a9.84,9.84,0,0,0-.14-2.54,9.14,9.14,0,0,0-1.51-1.82,49.66,49.66,0,0,0-19.22-12.48,57.35,57.35,0,0,0-29.5-2.24,65.09,65.09,0,0,0-15.55,5c-.13-.39-.46-.84-.07-1.19a46.67,46.67,0,0,1,12.79-12.19c.76-.35.56-1.27.6-2q0-22.46,0-44.92a15.59,15.59,0,0,1,.07-2.37A6,6,0,0,1,373.12,254.59Z" transform="translate(-317.98 -254.19)" style="fill:#001ff9"/><path d="M342.66,259a8,8,0,0,1,1.81-.33c.24.33.11.77.15,1.15q0,26.7,0,53.41c0,9.91.06,19.82,0,29.73a75.71,75.71,0,0,1,7.62-4.17,51.59,51.59,0,0,1,30.46-4c10.35,1.72,20.34,6.86,27,15.12.44.44-.34,1.13-.8.73a62.81,62.81,0,0,0-9.68-2.62,5.64,5.64,0,0,0-1.89-.2c.07,23,0,46,0,69,0,.51,0,1.18-.49,1.46A111.86,111.86,0,0,1,385,424.39c-.43.17-.92.48-1.39.22-4.3-1.83-8.37-4.16-12.47-6.4a1.1,1.1,0,0,1-.36-1c.09-7.82.06-15.64.06-23.46.06-13.81,0-27.62,0-41.44,0-.43,0-.86,0-1.29a28.53,28.53,0,0,0-4.24,2,42.09,42.09,0,0,0-16.37,16.09,40.73,40.73,0,0,0-5,25.42c.13.42-.38,1-.79.78a109.43,109.43,0,0,1-26.12-66.68c-.29-20.48,0-41-.12-61.44a.77.77,0,0,1,.58-.92A181.91,181.91,0,0,1,342.66,259Z" transform="translate(-317.98 -254.19)" style="fill:#001ff9"/><path d="M333.41,437c0-.37,0-1,.54-.93,2.25,0,4.51,0,6.75,0,.53-.05.51.56.52.92,0,13.07-.07,26.14,0,39.22,0,.41.12,1.16-.51,1.14-4.57,0-9.14,0-13.71-.08a9,9,0,0,1-6.79-3,9.5,9.5,0,0,1-2.19-5.68V449.32a26.71,26.71,0,0,1,4.24-.1,19.29,19.29,0,0,1,3.44.08,10,10,0,0,1,.13,2.64c0,4.83,0,9.66,0,14.49a2.92,2.92,0,0,0,2.66,3c2.67.17,5.34,0,8,.06-1.07-.53-2.33-1-2.77-2.26a17.3,17.3,0,0,1-.28-4.55Q333.41,449.82,333.41,437Z" transform="translate(-317.98 -254.19)" style="fill:#001ff9"/><path d="M429.31,437.23c0-.41-.13-1.15.49-1.15h7c.37,0,.52.32.47.63,0,11.49,0,23,0,34.47,0,.28,0,.8-.41.76-6.41.06-12.83,0-19.24,0-.78,0-1.25.7-1.8,1.14-3.18,2.78-7.53,3.85-11.68,3.8a17.22,17.22,0,0,1-14.67-8.16c-.34,1-.21,2.26-.82,3.13-3.19,0-6.39,0-9.58,0-2.09-.13-3.52-1.86-4.46-3.56a9.56,9.56,0,0,1-7.4,3.54c-6.82.09-13.65,0-20.47,0-.35,0-.91,0-1-.45-.45-2.44-1.07-4.86-1.43-7.32q7.28-.1,14.56,0l0-.19a13.13,13.13,0,0,1-1.91-1,5.79,5.79,0,0,1-2-3.44c-1.21-5.43-2.51-10.84-3.83-16.25l-.07-.79c2.45,0,4.9,0,7.35,0,.4-.09.44.42.55.68,1.56,6.78,3.16,13.55,4.7,20.33.07.25.12.71.5.67,1.26,0,2.72.23,3.78-.62a3.17,3.17,0,0,0,.88-2.55c-.06-7.9,0-15.81-.08-23.72a2,2,0,0,1,.16-1,2.93,2.93,0,0,1,1.24-.12c1.91,0,3.83,0,5.75,0,.39-.06.8.17.71.62,0,6.74,0,13.49,0,20.23a24.75,24.75,0,0,0,.27,4.75,2.91,2.91,0,0,0,1.21,2,4.39,4.39,0,0,0,2.29.38c2.4,0,4.81.06,7.21,0l.18-.16c-.35-3.47.08-7.25,2.25-10.09.41-.62,1.24-1.06,1.2-1.88,0-1.75,0-3.5,0-5.25a1.36,1.36,0,0,1,.48-1.15,18.1,18.1,0,0,1,10.42-4.11,17.69,17.69,0,0,1,11.33,2.45,18.28,18.28,0,0,1,7.22,8.66,19.64,19.64,0,0,1,.45,11.5,29.2,29.2,0,0,0,3.2.07c2.69,0,5.37,0,8.06-.05-.6-.51-1.46-.63-2-1.25-1.14-1.15-1-2.88-1.05-4.37C429.3,451.37,429.35,444.3,429.31,437.23Zm-29.88,12.34a11.88,11.88,0,0,1,6.31,1.95,11.32,11.32,0,0,1,4.7,8.14,13.21,13.21,0,0,1-2.58,9.49,8,8,0,0,0,4.9-3.25,11.74,11.74,0,0,0,.84-11.27,10,10,0,0,0-6.41-5.51A13,13,0,0,0,399.44,449.57Zm-1.21,7.54a4.25,4.25,0,0,0-2,1.19,5,5,0,0,0-.77,5.07,3.47,3.47,0,0,0,2.82,2.15,3.82,3.82,0,0,0,5-4.32,4.57,4.57,0,0,0-.95-2.93A4.24,4.24,0,0,0,398.22,457.11Z" transform="translate(-317.98 -254.19)" style="fill:#001ff9"/><path d="M442.09,436.95c0-.33,0-.9.46-.88,1.65-.07,3.31,0,5,0a5.14,5.14,0,0,1,2.49.26v35.23c-.51.58-1.32.36-2,.39-1.83-.11-3.67.06-5.5,0-.52,0-.39-.63-.43-1Q442.1,453.94,442.09,436.95Z" transform="translate(-317.98 -254.19)" style="fill:#001ff9"/><path d="M330.43,486.62c.09-.43.16-1.18.79-1.08,2.6.09,5.19,0,7.79.06a11.37,11.37,0,0,1,.61,2.5c1.52,7.82,3.07,15.64,4.62,23.46a11.55,11.55,0,0,1,.32,2c-.33.21-.75.1-1.12.14-1.42,0-2.84,0-4.26.05a.6.6,0,0,1-.67-.44c-.37-1.7-.47-3.45-.95-5.12a6.55,6.55,0,0,0-4-.46c-.51.13-1.28.08-1.52.66-.36,1.71-.51,3.46-.92,5.15-.4.29-1,.11-1.42.15-1.52-.11-3,.08-4.56-.05C326.8,504.64,328.7,495.64,330.43,486.62Zm4.41,4.73c-.58,3.62-1.21,7.24-1.73,10.87a9.84,9.84,0,0,1,3.51,0C336.08,498.58,335.57,494.94,334.84,491.35Z" transform="translate(-317.98 -254.19)" style="fill:#001ff9"/><path d="M346.49,485.9c-.06-.51.65-.29.94-.34,1.73.06,3.46-.06,5.19.06,0,6.33,0,12.66,0,19a2.94,2.94,0,0,1-.59,2.09c-.43.58-1.23.69-1.68,1.24,3.48.07,7,0,10.46.07-.15,1.5-.6,3-.81,4.46-.11.49-.08,1.37-.83,1.23-4,0-8-.07-12,0-.37,0-.79-.16-.7-.58Q346.47,499.51,346.49,485.9Z" transform="translate(-317.98 -254.19)" style="fill:#001ff9"/><path d="M363,486c0-.53.57-.42.91-.44,1.74.07,3.49,0,5.24,0,0,2.94,0,5.88-.05,8.82,0,1.38-1.36,2-2.36,2.62,2.23,0,4.48.11,6.7-.07,0-3.52,0-7,0-10.55,0-.28,0-.9.42-.82,1.9,0,3.81,0,5.72,0q0,14,0,28c-2,.1-4,0-6,.06-.25-3.52,0-7.06-.09-10.59,0-.47-.55-.36-.85-.37-1.05,0-2.11,0-3.16,0-.39.07-.33.6-.34.89.08,3,0,6,0,9,0,.4.09,1.09-.51,1.07h-5.24c-.54-.07-.4-.69-.43-1.06C363,503.74,363,494.85,363,486Z" transform="translate(-317.98 -254.19)" style="fill:#001ff9"/><path d="M382.67,485.68c1.56-.17,3.14.07,4.7-.06.47,0,1.46-.23,1.38.55,0,8.9,0,17.8,0,26.69.05.4-.1,1-.61.94-1.59-.08-3.19-.05-4.79,0a.65.65,0,0,1-.8-.71q0-12.85,0-25.71A7.43,7.43,0,0,1,382.67,485.68Z" transform="translate(-317.98 -254.19)" style="fill:#001ff9"/><path d="M391.82,486.12c-.08-.49.43-.58.79-.53,1.76,0,3.53,0,5.3,0,.15,2,0,4,0,6,0,4.57.06,9.14,0,13.7,0,1.37-1.3,2.08-2.4,2.55,3.51.22,7,0,10.54.16-.21,1.62-.62,3.21-.87,4.84-.08.35-.1,1-.62.91-4.09,0-8.17,0-12.26,0-.42.06-.61-.34-.53-.7C391.81,504.11,391.79,495.11,391.82,486.12Z" transform="translate(-317.98 -254.19)" style="fill:#001ff9"/><path d="M412.48,486.16c.05-.29.2-.69.59-.59,2.5,0,5,0,7.5,0,.46-.09.6.43.66.77,1.75,9.1,3.6,18.19,5.33,27.29a16.52,16.52,0,0,1-3,.06c-.89,0-1.77.09-2.66,0-.61-.15-.49-.92-.62-1.38a34.19,34.19,0,0,0-.77-4.18,7,7,0,0,0-4.23-.37c-.44.12-1.17.1-1.26.69-.33,1.7-.47,3.45-.91,5.13-1.92.13-3.87,0-5.8,0-.28-.4,0-.9.05-1.34C409.08,503.61,410.77,494.88,412.48,486.16Zm2.58,16.09a10.8,10.8,0,0,1,3.55,0c-.57-3.64-1.13-7.29-1.74-10.92C416.19,495,415.69,498.62,415.06,502.25Z" transform="translate(-317.98 -254.19)" style="fill:#001ff9"/><path d="M428.48,485.65c1.36-.09,2.71.06,4.07,0a8.17,8.17,0,0,1,1.94.05,3.91,3.91,0,0,1,.1,1.19c0,6.16,0,12.32,0,18.48,0,1.39-1.31,2.07-2.4,2.58,3.53.11,7.08-.12,10.61.11-.28,1.59-.63,3.17-.92,4.76-.09.34-.09,1-.6.91-4.27,0-8.54.08-12.8-.06C428.47,504.33,428.43,495,428.48,485.65Z" transform="translate(-317.98 -254.19)" style="fill:#001ff9"/></svg>