<?xml version="1.0" encoding="UTF-8"?><svg id="Layer_1" xmlns="http://www.w3.org/2000/svg" xmlns:xlink="http://www.w3.org/1999/xlink" viewBox="0 0 551.65 755.9"><defs><style>.cls-1{fill:none;}.cls-2{fill:#010101;}.cls-3{clip-path:url(#clippath-1);}.cls-4{fill:#c39f6c;}.cls-5{clip-path:url(#clippath);}</style><clipPath id="clippath"><rect class="cls-1" width="551.65" height="755.9"/></clipPath><clipPath id="clippath-1"><rect class="cls-1" width="551.65" height="755.9"/></clipPath></defs><g class="cls-5"><g id="LAFC-Logo"><g class="cls-3"><path class="cls-4" d="M397.96,654.17c-5.25.94-10.31,1.71-15.27,2.48-36.3,5.84-73.79,11.83-106.87,41.61-33.07-29.76-70.54-35.78-106.85-41.57-4.91-.77-10-1.57-15.25-2.49-111.11-18.89-111-51.68-111.07-119.45l.06-491.8h466.17l.15,491.85c-.36,67.69,0,100.51-111.07,119.37M21.42,21.51l-.06,513.5c0,36.85.08,65.9,18.1,90.55s51.17,39.63,110.7,49.71c5.37.94,10.53,1.79,15.47,2.55,34.77,5.57,67.61,10.83,96,36.44l14.19,12.78,14.18-12.78c28.4-25.63,61.24-30.87,96-36.44l1.7-.26c4.51-.71,9.08-1.44,13.76-2.26,59.36-10.08,92.36-24.85,110.42-49.46s18.22-53.36,18.41-89.88l-.16-514.46H21.42Z"/><polygon class="cls-4" points="136.93 135.44 122.01 135.44 122.01 108.08 112.63 108.08 112.63 143.39 136.93 143.39 136.93 135.44"/><path class="cls-4" d="M156.91,115.87c5.89,0,9.24,4.31,9.24,9.86s-3.35,9.91-9.24,9.91-9.22-4.36-9.22-9.91,3.35-9.86,9.22-9.86M156.91,143.87c10.11,0,18.83-7.46,18.83-18.12s-8.72-18.06-18.83-18.06-18.81,7.42-18.81,18.06,8.71,18.12,18.81,18.12"/><path class="cls-4" d="M190.52,136.06c-3.49,0-5.59-1.71-7.31-3.84l-6.8,5.15c2.17,2.9,6.61,6.54,14.54,6.54,9.28,0,13.29-4.72,13.29-11.16,0-5-2.36-8.36-9.37-10.7l-4.63-1.56c-1.72-.58-2.5-1.25-2.5-2.6s1.15-2.43,3.42-2.43c2.21-.07,4.33.86,5.77,2.54l5.37-5.67c-2.07-2.43-5.47-4.66-11.66-4.66s-11.95,3.59-11.95,10.53c0,5.81,3.61,8.93,8.71,10.65l4.11,1.39c2.33.8,3.45,1.52,3.45,3,0,2-1.64,2.83-4.43,2.83"/><path class="cls-4" d="M229.93,125.11l3.59,8.19h-7.1l3.51-8.19ZM223.41,140.38h13.23l1.33,3h9.7l-17-35.9c-.15-.35-.46-.35-.61,0l-17.09,35.9h9.19l1.25-3Z"/><path class="cls-4" d="M259.76,125.78l22,18.23c.56.47.7.31.7-.1v-35.84h-8.81v17.71l-22-18.27c-.56-.47-.71-.21-.71.11v35.76h8.82v-17.6Z"/><path class="cls-4" d="M305.71,143.85c7.8,0,12-2.18,15.27-4.89v-14.74h-15.3v7.27h7v3c-2.13,1.04-4.49,1.54-6.86,1.46-6.2,0-9.37-4.64-9.37-10.19s3.14-9.87,8.88-9.87c3.03-.07,5.9,1.34,7.7,3.78l6.62-5.67c-3.06-4-7.89-6.28-14.08-6.28-10.11,0-18.66,7.41-18.66,18.06s8.55,18.12,18.89,18.12"/><polygon class="cls-4" points="350.97 135.44 335.07 135.44 335.07 131.75 347.75 131.75 347.75 124.23 335.07 124.23 335.07 116.03 350.26 116.03 350.26 108.08 325.67 108.08 325.67 143.39 350.97 143.39 350.97 135.44"/><polygon class="cls-4" points="379.82 135.44 364.92 135.44 364.92 108.08 355.52 108.08 355.52 143.39 379.82 143.39 379.82 135.44"/><polygon class="cls-4" points="409.46 135.44 393.53 135.44 393.53 131.75 406.22 131.75 406.22 124.23 393.53 124.23 393.53 116.03 408.74 116.03 408.74 108.08 384.14 108.08 384.14 143.39 409.46 143.39 409.46 135.44"/><path class="cls-4" d="M429.62,122.04l-4.65-1.56c-1.68-.58-2.48-1.26-2.48-2.6s1.15-2.44,3.42-2.44c2.21-.07,4.34.86,5.78,2.54l5.35-5.67c-2.06-2.44-5.45-4.66-11.64-4.66s-12,3.59-12,10.54c0,5.8,3.63,8.92,8.73,10.64l4.12,1.38c2.31.82,3.47,1.52,3.47,3,0,2-1.66,2.83-4.45,2.83-2.92.02-5.66-1.42-7.31-3.84l-6.79,5.14c2.14,2.9,6.61,6.54,14.54,6.54,9.27,0,13.28-4.72,13.28-11.17,0-5-2.37-8.36-9.37-10.7"/><polygon class="cls-4" points="112.66 580.14 120.39 580.14 120.39 570.88 130.89 570.88 130.89 564.36 120.39 564.36 120.39 557.61 132.3 557.61 132.3 551.05 112.66 551.05 112.66 580.14"/><path class="cls-4" d="M149.82,573.76c-4.82,0-7.56-3.57-7.56-8.17s2.77-8.13,7.56-8.13,7.56,3.58,7.56,8.13-2.76,8.17-7.56,8.17M149.82,550.76c-8.33,0-15.5,6.11-15.5,14.86s7.17,14.92,15.5,14.92,15.49-6.16,15.49-14.92-7.17-14.86-15.48-14.86"/><path class="cls-4" d="M182.98,573.76c-4.85,0-7.56-3.57-7.56-8.17s2.76-8.13,7.56-8.13,7.63,3.58,7.63,8.13-2.79,8.17-7.63,8.17M182.98,550.76c-8.33,0-15.49,6.11-15.49,14.86s7.16,14.92,15.49,14.92,15.49-6.17,15.49-14.92-7.16-14.86-15.49-14.86"/><polygon class="cls-4" points="199.06 557.61 206.71 557.61 206.71 580.14 214.42 580.14 214.42 557.61 222.08 557.61 222.08 551.05 199.06 551.05 199.06 557.61"/><path class="cls-4" d="M237.69,574h-4.67v-6.55h4.68c3,0,3.92,1.22,3.92,3.22s-.94,3.32-3.92,3.32M233.02,557.22h3.85c1.15-.15,2.21.65,2.37,1.8.03.18.03.35,0,.53,0,1.38-.77,2.23-2.49,2.23h-3.78l.05-4.56ZM243.53,563.79c1.89-.9,3.31-2.39,3.31-5.67,0-4.45-3.78-7.12-9.45-7.12h-11.81v29.15h12.24c7.16,0,11.46-3.16,11.46-8.73.17-3.61-2.29-6.82-5.82-7.6"/><path class="cls-4" d="M260.59,571.83l2.89-6.75,3,6.75h-5.89ZM263.59,550.55l-14,29.6h7.56l1.07-2.48h10.85l1.12,2.48h8l-14-29.59c-.13-.31-.38-.31-.52,0"/><polygon class="cls-4" points="288.12 551.05 280.41 551.05 280.41 580.14 300.4 580.14 300.4 573.59 288.12 573.59 288.12 551.05"/><polygon class="cls-4" points="310.57 551.05 302.85 551.05 302.85 580.14 322.84 580.14 322.84 573.59 310.57 573.59 310.57 551.05"/><path class="cls-4" d="M350.12,573.76c-4.42,0-7.1-3.57-7.1-8.17s2.6-8.13,6.85-8.13c2.66-.16,5.18,1.18,6.54,3.47l5.83-4c-2.42-3.59-6.25-6.24-12.48-6.24-8.06,0-14.6,6.53-14.61,14.59h0v.28c-.12,8.16,6.4,14.88,14.56,15,.02,0,.04,0,.05,0h.42c5.86,0,9.85-2.11,12.71-7l-6-3.82c-1.23,2.61-3.93,4.19-6.8,4"/><polygon class="cls-4" points="372.74 551.05 365.03 551.05 365.03 580.14 385.01 580.14 385.01 573.59 372.74 573.59 372.74 551.05"/><path class="cls-4" d="M403.82,568.81c0,3.3-1.53,5.21-4.78,5.21s-4.8-1.89-4.8-5.21v-17.76h-7.75v17.84c0,7.81,5.3,11.65,12.54,11.65s12.52-3.84,12.52-11.65v-17.84h-7.73v17.76Z"/><path class="cls-4" d="M427.34,574h-4.66v-6.55h4.66c2.92,0,3.91,1.22,3.91,3.22s-.95,3.32-3.91,3.32M422.68,557.22h3.78c1.15-.15,2.21.65,2.37,1.8.03.18.03.35,0,.53,0,1.38-.76,2.23-2.46,2.23h-3.78l.09-4.56ZM433.16,563.79c1.89-.9,3.31-2.39,3.31-5.67,0-4.45-3.78-7.12-9.45-7.12h-11.82v29.15h12.29c7.17,0,11.48-3.16,11.48-8.73.17-3.61-2.29-6.82-5.82-7.6"/><path class="cls-4" d="M256.17,456.61h-92.65v-237l-50.89-40.31v328.49h156.94c-6.22-16.55-10.71-33.7-13.4-51.18"/><path class="cls-4" d="M269.57,395.36c-1.63,37.28,4,79,17.78,112.44h50.65s-21.49-46.85-19.33-86.78c-3.07-1.6-35.15-18.4-49.14-25.65"/><path class="cls-4" d="M301.34,270.05l36,40.28c11.56-23.14,28.52-42.1,50.8-55.49v132.21l-186.32-207.78v49c43.3,38.94,115.28,109.17,159.41,149v2.68l-144.88-128.61v31.18h0c44.09,33.6,100.16,79,144.87,113.05v2.62l-130.33-98.24v29.29c43.27,26.2,88.61,56.81,130.33,81.92v2.73l-115.74-69.64v23.62c50.4,25.6,93,49.06,142.67,74.2v65.74h50.82V179.29c-61,4.14-113,46.54-137.63,90.76"/><path class="cls-4" d="M522.96,634.15c-20.48,27.74-56.14,44.14-119.2,54.8-4.43.77-8.82,1.47-13.13,2.17l-2.43.38c-34.12,5.44-63.6,10.14-89,33.07l-23.38,21.13-23.39-21.08c-25.42-22.94-54.87-27.64-89-33.08-4.94-.77-10.16-1.6-15.61-2.55-63.3-10.76-99-27.27-119.45-55.17-20.7-28.34-20.79-61-20.79-98.78l.05-527.48h536.3l.15,528.51c-.2,37.51-.4,69.92-21.12,98M551.47,0H.08L.01,535c0,39.13.09,72.94,22.27,103.29,21.68,29.64,58.85,47,124.26,58.16,5.48.94,10.74,1.78,15.71,2.57,32.93,5.26,61.36,9.79,85.13,31.22l28.44,25.71,28.45-25.63c23.74-21.42,52.19-26,85.13-31.18l2.41-.37c4.37-.67,8.78-1.39,13.23-2.18,65.19-11.06,102.24-28.34,124-57.81,22.18-30.14,22.38-63.7,22.6-102.73L551.47,0Z"/><path class="cls-2" d="M511.88,625.84c-18.11,24.6-51.12,39.35-110.39,49.46-4.72.83-9.25,1.55-13.74,2.26l-1.72.26c-34.79,5.57-67.65,10.81-96,36.44l-14.21,12.79-14.18-12.79c-28.42-25.61-61.25-30.87-96-36.44-4.94-.76-10.1-1.61-15.47-2.55-59.52-10.08-92.59-24.94-110.7-49.71s-18-53.73-18.1-90.55l.06-513.5h508.7l.16,514.44c-.2,36.52-.36,65.38-18.41,89.88M7.62,7.56l-.05,527.39c0,37.79.08,70.44,20.78,98.78,20.47,27.94,56.13,44.44,119.47,55.22,5.45.94,10.67,1.77,15.62,2.54,34.13,5.44,63.58,10.15,89,33.07l23.38,21.13,23.39-21.08c25.41-22.93,54.89-27.63,89-33.08l2.42-.37c4.32-.69,8.7-1.4,13.14-2.18,63.08-10.7,98.72-27.1,119.2-54.8,20.71-28.14,20.91-60.54,21.12-98.05l-.17-528.57H7.62Z"/><path class="cls-2" d="M182.98,557.48c-4.85,0-7.56,3.57-7.56,8.13s2.76,8.17,7.56,8.17,7.63-3.57,7.63-8.17-2.79-8.13-7.63-8.13"/><path class="cls-2" d="M149.82,557.48c-4.82,0-7.56,3.57-7.56,8.13s2.77,8.17,7.56,8.17,7.56-3.57,7.56-8.17-2.76-8.13-7.56-8.13"/><polygon class="cls-2" points="260.59 571.83 266.46 571.83 263.49 565.08 260.59 571.83"/><path class="cls-2" d="M239.24,559.56c.13-1.16-.7-2.2-1.86-2.33-.17-.01-.34-.01-.51,0h-3.85v4.55h3.8c1.71,0,2.49-.84,2.49-2.22"/><path class="cls-2" d="M428.89,559.56c.13-1.15-.69-2.19-1.84-2.33,0,0,0,0,0,0-.18-.02-.35-.02-.53,0h-3.78v4.55h3.74c1.71,0,2.45-.84,2.45-2.22"/><polygon class="cls-2" points="229.93 125.11 226.42 133.31 233.52 133.31 229.93 125.11"/><path class="cls-2" d="M237.69,567.46h-4.67v6.55h4.68c3,0,3.92-1.31,3.92-3.32s-.94-3.22-3.92-3.22"/><path class="cls-2" d="M427.34,567.46h-4.66v6.55h4.66c3,0,3.91-1.31,3.91-3.32s-.95-3.22-3.91-3.22"/><path class="cls-2" d="M425.7,143.95c-7.9,0-12.4-3.64-14.54-6.55l6.8-5.14c1.69,2.13,3.78,3.84,7.32,3.84,2.83,0,4.44-.84,4.44-2.83,0-1.5-1.16-2.2-3.47-3l-4.12-1.38c-5.09-1.72-8.73-4.84-8.73-10.64,0-7,5.74-10.54,12-10.54s9.57,2.23,11.63,4.66l-5.36,5.58c-1.44-1.68-3.57-2.61-5.78-2.54-2.28,0-3.42,1-3.42,2.44s.8,2,2.48,2.6l4.65,1.56c7,2.34,9.38,5.67,9.38,10.7,0,6.48-4,11.17-13.29,11.17M438.98,507.76h-50.81v-65.71c-49.66-25.14-92.3-48.59-142.68-74.2v-23.62l115.75,69.63v-2.65c-41.72-25.12-87.06-55.75-130.33-81.92v-29.29l130.33,98.26v-2.61c-44.68-34.12-100.78-79.5-144.87-113.13h0v-31.18l144.87,128.61v-2.67c-44.15-39.88-116.11-110.1-159.41-149v-49l186.34,207.77v-132.22c-22.28,13.39-39.25,32.35-50.81,55.5l-36-40.28c24.61-44.22,76.62-86.62,137.61-90.76v328.47ZM427.5,580.15h-12.29v-29.1h11.79c5.73,0,9.45,2.66,9.45,7.11,0,3.25-1.46,4.72-3.31,5.67,3.53.78,5.99,3.99,5.82,7.6,0,5.57-4.31,8.74-11.48,8.74M411.48,568.92c0,7.81-5.31,11.66-12.52,11.66s-12.54-3.84-12.54-11.66v-17.87h7.74v17.76c0,3.3,1.51,5.21,4.8,5.21s4.78-1.89,4.78-5.21v-17.76h7.73v17.87ZM385.02,580.17h-20v-29.12h7.71v22.54h12.29v6.58ZM350.17,580.57c-8.15.11-14.86-6.4-15-14.55v-.39c-.14-8.06,6.27-14.71,14.33-14.86h.28c6.24,0,10.06,2.63,12.48,6.22l-5.83,4c-1.35-2.3-3.88-3.65-6.54-3.49-4.25,0-6.85,3.59-6.85,8.14s2.69,8.16,7.1,8.16c2.88.21,5.59-1.38,6.8-4l5.95,3.84c-2.84,4.84-6.85,7-12.71,7M322.82,580.15h-20v-29.1h7.72v22.54h12.28v6.56ZM300.37,580.15h-20v-29.1h7.7v22.54h12.28l.02,6.56ZM270.08,580.15l-1.12-2.48h-10.83l-1.07,2.48h-7.56l14-29.6c.13-.31.38-.31.51,0l14,29.6h-7.93ZM237.86,580.15h-12.26v-29.1h11.77c5.74,0,9.45,2.66,9.45,7.11,0,3.25-1.46,4.72-3.31,5.67,3.53.78,5.99,3.99,5.82,7.6,0,5.57-4.3,8.74-11.46,8.74M222.07,557.64h-7.66v22.51h-7.72v-22.54h-7.65v-6.56h23l.03,6.59ZM182.97,580.55c-8.33,0-15.49-6.16-15.49-14.92s7.16-14.86,15.49-14.86,15.49,6.11,15.49,14.86-7.16,14.92-15.49,14.92M149.77,580.55c-8.33,0-15.5-6.16-15.5-14.92s7.17-14.86,15.5-14.86,15.5,6.06,15.5,14.82-7.17,14.92-15.48,14.92M132.31,557.6h-11.92v6.76h10.5v6.51h-10.5v9.28h-7.73v-29.1h19.64v6.55ZM338.01,507.79h-50.66c-13.79-33.48-19.41-75.16-17.79-112.44,14,7.25,46,24,49.13,25.64-2.15,39.92,19.34,86.79,19.34,86.79M112.64,179.27l50.89,40.31v237h92.59c2.7,17.47,7.19,34.63,13.4,51.18H112.64V179.27ZM112.64,108.07h9.38v27.4h14.91v7.93h-24.29v-35.33ZM156.91,107.66c10.11,0,18.83,7.42,18.83,18.07s-8.72,18.11-18.83,18.11-18.81-7.46-18.81-18.11,8.71-18.07,18.81-18.07M191.5,130.23l-4.11-1.38c-5.11-1.72-8.71-4.84-8.71-10.65,0-6.94,5.67-10.53,11.95-10.53s9.59,2.23,11.66,4.66l-5.37,5.67c-1.44-1.68-3.56-2.61-5.77-2.54-2.27,0-3.42,1-3.42,2.44s.78,2,2.5,2.6l4.63,1.56c7,2.34,9.37,5.67,9.37,10.7,0,6.48-4,11.17-13.29,11.17-7.89,0-12.37-3.64-14.54-6.55l6.8-5.14c1.72,2.13,3.78,3.84,7.31,3.84,2.84,0,4.43-.84,4.43-2.83,0-1.5-1.13-2.21-3.45-3M230.03,107.47c.15-.35.45-.35.61,0l17,35.91h-9.69l-1.33-3h-13.22l-1.27,3h-9.19l17.09-35.91ZM250.91,107.64c0-.31.15-.57.71-.1l22,18.27v-17.74h8.81v35.88c0,.41-.13.56-.7.1l-22-18.23v17.6h-8.82v-35.78ZM305.5,107.64c6.19,0,11,2.34,14.08,6.28l-6.61,5.67c-1.8-2.44-4.67-3.85-7.7-3.78-5.75,0-8.88,4.31-8.88,9.87s3.17,10.18,9.37,10.18c2.36.09,4.7-.39,6.83-1.4v-3h-6.91v-7.31h15.31v14.74c-3.24,2.7-7.47,4.88-15.28,4.88-10.3,0-18.9-7.45-18.9-18.11s8.51-18.07,18.66-18.07M325.62,108h24.57v8h-15.12v8.21h12.67v7.56h-12.67v3.68h15.91v7.94h-25.31l-.05-35.39ZM355.48,108h9.34v27.4h15v7.94h-24.3l-.04-35.34ZM384.09,108h24.57v8h-15.22v8.21h12.78v7.56h-12.7v3.68h15.94v7.94h-25.32l-.05-35.39ZM42.65,42.8l-.07,491.8c.07,67.76,0,100.58,111.07,119.45,5.28.95,10.4,1.73,15.25,2.49,36.36,5.95,73.85,12,106.92,41.72,33.08-29.78,70.59-35.78,106.89-41.57,5-.78,10-1.57,15.28-2.49,111.1-18.89,110.71-51.69,111.07-119.37l-.15-491.88-466.26-.15Z"/><path class="cls-2" d="M156.91,135.65c5.89,0,9.24-4.36,9.24-9.91s-3.35-9.86-9.24-9.86-9.22,4.31-9.22,9.86,3.35,9.91,9.22,9.91"/></g></g></g></svg>