<svg id="Layer_1" data-name="Layer 1" xmlns="http://www.w3.org/2000/svg" viewBox="0 0 374.22 374.22"><title>SE Palmeiras logo - Brandlogos.net</title><path d="M403.88,241.19C507.22,241.19,591,325,591,428.3S507.22,615.41,403.88,615.41,216.78,531.64,216.78,428.3s83.77-187.11,187.11-187.11" transform="translate(-216.78 -241.19)" style="fill:#fff;fill-rule:evenodd"/><path d="M403.88,251.2a177.1,177.1,0,1,1-177.1,177.1,177.1,177.1,0,0,1,177.1-177.1m0-4.68A181.78,181.78,0,1,1,222.1,428.3,181.78,181.78,0,0,1,403.88,246.52" transform="translate(-216.78 -241.19)" style="fill:#006437;fill-rule:evenodd"/><path d="M493.06,299.59l2.1,4.88-3.58,3.91,5.26-.5,2.59,4.64,1.15-5.19,5.18-1-4.55-2.7.62-5.28-4,3.52Zm15.47,17.33,1.46,6.39-5.22,3.92,6.49.58,2.1,6.21,2.56-6,6.52-.08-4.91-4.31,1.93-6.26-5.59,3.37Zm13.23,22.19.09,8.45-7.65,3.5,8,2.52.95,8.4,4.86-6.89,8.23,1.69-5-6.78,4.14-7.36-8,2.7Zm9.48,28.4L528.68,378l-10.58,1.89,9.13,5.69-1.48,10.7,8.2-7,9.66,4.72-4.06-10,7.45-7.78-10.71.8Zm-254.74,0L279.06,378l10.58,1.89-9.13,5.69,1.48,10.7-8.2-7L264.13,394l4.06-10-7.45-7.78,10.71.8Zm9.48-28.4-.09,8.45,7.65,3.5-8,2.52-.95,8.4-4.86-6.89-8.23,1.69,5-6.78-4.14-7.36,8,2.7Zm13.23-22.19-1.46,6.39,5.22,3.92-6.49.58-2.1,6.21-2.56-6-6.52-.08,4.91-4.31-1.93-6.26,5.59,3.37Zm15.47-17.33-2.1,4.88,3.58,3.91-5.26-.5-2.59,4.64-1.15-5.19-5.18-1,4.55-2.7-.62-5.28,4,3.52Zm199.55,120c1.4-3,2.64-6.19,3.84-9.47l-8.49-1.5c-6.2-1-10.28,1-12.3,3.77a36.57,36.57,0,0,0-4.74,9c-1.46,3.71-1.37,10.5,9.08,15.17,9.11,4.2,15.94,8.4,30.4-3.93,8.47-6.82,11.7-4.52,14.8-3.87,4.43,1.49,4.9,3.28,4,7.94-1.16,5.75-7.66,2.7-10.79,1.47a95.59,95.59,0,0,1-4.47,13c1.89.79,4.24,1.87,6.37,2.76,9.63,3.86,20.5,1.76,23-9.89A49.55,49.55,0,0,0,566,431c-.14-7.24-5.47-13.69-14.69-15.35-9-1.81-15-2.3-27.6,7.17-6.46,4.79-7.53,6.6-13.39,4.27-3.12-1.18-6.11-2.23-4.36-5.89,1.34-2.8,2.72-3.28,8.23-1.65M496.4,454.89l28.28,11.6a83.71,83.71,0,0,1-6.3,11.17Zm-15.17-18.12c-2.4,2.52-4.87,5.14-7.72,7.61l61.44,77.12a174.2,174.2,0,0,0,10.64-16.75L528.78,488a104.86,104.86,0,0,0,8.14-16.08L556,480.25a105.52,105.52,0,0,0,5-16Zm-6.08,63.83c6.76-4.38,10.84-7.84,2.51-17.6l-9.3-11.74c-5.68-7.75-9-3.56-13.24-1.6Zm14.28,64.1L440.35,464.38a99.73,99.73,0,0,0,17-8.09c6.76-4.35,12.39.06,18.06,5.3l14.34,13.34c13.59,12.64,11.13,22.08,8.12,25.11l35.67,23.44a130.55,130.55,0,0,1-12,14.47l-34.82-28.12-4.06,2.75,26,38a152.89,152.89,0,0,1-19.23,14.13m-62-96.41c3.57-.84,5.91-1.48,9.28-2.6L482.5,568.88a171.54,171.54,0,0,1-21.51,10Zm-3.47.71a102.85,102.85,0,0,1-20.67,1.88l-2.43,118.27a158.48,158.48,0,0,0,53.09-7.82l-5.29-20a116.89,116.89,0,0,1-25.08,5.5l-4.69-40.39a84,84,0,0,0,19.32-3.94l-4.06-15A101.9,101.9,0,0,1,417,510.68l-3.3-28.55A62.35,62.35,0,0,0,427,480.18ZM312.52,560.48l52.8-97a102,102,0,0,0,9.77,3.35l-5.79,50c1.58-3.62,19.6-46.82,19.6-47,2.76.44,8,.92,10.29,1l-7.1,118a126,126,0,0,1-22-3.13l10.08-59.54-25.34,40.66-.64-49.44c-2.1,6.27-23,54.22-23,54.4a153.61,153.61,0,0,1-18.65-11.22m-33.62-31.4,68.16-75.22c-.26-.06,6.16,3.89,9.24,5.46l-52.64,69.8A107.34,107.34,0,0,0,318,541.36l-9.54,16.21c-10-7.2-23.14-20-29.53-28.49m36.15-72.82L284.6,469a76.67,76.67,0,0,0,7.54,12Zm13.26-18c2.46,2.57,5.51,5.47,8.52,8l-60.11,80.17a175.16,175.16,0,0,1-11.08-16.47l16.84-18.17c-3.71-5.59-7-10.34-10-17.47L253,482.87a115.2,115.2,0,0,1-4.9-16.26ZM301,418.6l-21.59,5.87a31.33,31.33,0,0,0,1.17,5.2c1.56,5.17,4,5.09,10.06,2.88l7.9-3c3.16-1.41,6.32-2.83,4.65-6.44-1.08-2-2.2-4.66-2.2-4.56m6.82-12.1a115.07,115.07,0,0,0,7.11,14c4.11,6.29,1.39,13.44-6.27,17.36l-15.68,8c-7.48,3.73-21.65,2.07-24.33-8a79.06,79.06,0,0,1-2.56-9.79l-22.41,6.25c-.53-8.11-.6-9.52-.12-16.43Zm96.05-134.2a94.09,94.09,0,1,1-94.09,94.09,94.09,94.09,0,0,1,94.09-94.09m0-16a172,172,0,1,1-172,172,172,172,0,0,1,172-172" transform="translate(-216.78 -241.19)" style="fill:#006437;fill-rule:evenodd"/><path d="M473.53,316.45c-40.82-9.57-65.74-31.68-69.64-35.61-3.8,3.89-29.54,26.32-69.52,35.61-.79,87.39,63.83,132.3,69.52,136.13,5.67-3.79,70.21-47.12,69.64-136.13m-68.61-37c22.34,20.06,47.88,30.41,69.14,35.43a87.07,87.07,0,0,0-69.14-35.43m-71.25,35.46a164.46,164.46,0,0,0,69.14-35.46,87.07,87.07,0,0,0-69.14,35.46m68.72,138.91c-44.22-30.79-71.06-85.29-69.84-137.35a87.2,87.2,0,0,0,69.84,137.35m72.87-137.27c1.27,52.37-24.6,106-69.85,137.27a87.2,87.2,0,0,0,69.85-137.27m-71.38-39.4A89.28,89.28,0,1,1,314.6,366.4a89.28,89.28,0,0,1,89.28-89.28" transform="translate(-216.78 -241.19)" style="fill:#006437;fill-rule:evenodd"/><path d="M378.57,350V326.16c0-4.65-5.37-5.9-9.73-5.64,4.29-6.84,10.66-9.12,16.76-3.95,4.09-5.74,14.12-13.67,23.53-13.39,42.21.66,44,61.23,14.18,72.07-28.9,10.5-33.37-26.6-15.31-25.32,11.77,1,8.07,20.67-2.52,14.49,4.13,12.05,30.57-.28,17.09-24,8.94-9.12,1.18-27.29-12-27.48-11.15-.15-15.82,10.3-15.86,17.39v67.09c-.14,11.88,1.55,21.14,11.35,26.31-9.9,4.64-20.2-2.1-22-12.26-4.26,1.79-8.74.55-12.33-5.21,3.67-.48,6.87-2.9,6.84-8.57V359.45l-4.93-4.64Zm-6.43-31c3.35-.12,8.16,2.3,8.16,7.19v24.5l-4.24,4.17,4.24,3.92V398.3c0,2.77-.63,7.12-5.54,9,3.58,4.33,6.94,3.54,10.82,1.4.82,11.92,10.33,15.86,16.61,14.51-8.23-6-9.11-15.61-9.17-23.93V330.2c0-6.81,4.7-18.87,17.63-18.84,14.45,0,22.45,19,14,29.08,14.76,27.31-20.48,41-21.55,20.42,11.48,9.82,14.16-8.52,4.68-9.3C392.27,350.29,397,384,423.37,373.42c27.33-11.18,26.06-67.6-14.24-68.65-9.28-.24-17.77,7.11-23.32,14.3-4.3-4.26-8.78-5.34-13.68-.12m38.47,120H397.2a78.25,78.25,0,0,0,6.73,5c.85-.59,3.27-2.26,6.68-5m6.63-5.76H390.63c2.08,1.94,4,3.62,5.71,5.05h15.13c1.72-1.43,3.66-3.11,5.76-5.05M423,427.5H384.88c1.73,1.79,3.4,3.44,5,4.95H418c1.6-1.5,3.29-3.15,5-4.95m0-64.1h2q-.21.36-.43.71h-2.2c.2-.23.4-.47.59-.71m-9.34,0H423c-.19.25-.39.48-.59.71H413a6.37,6.37,0,0,0,.62-.71m-.74,0h.74a6.37,6.37,0,0,1-.62.71h-1.34a3.44,3.44,0,0,0,1.23-.71m12.93-5.87h1.26c0,.24-.09.48-.14.71h-1.32q.1-.35.2-.71m-10.57,0h10.57q-.09.36-.2.71H415.29c0-.24,0-.48,0-.71m-1,0h1c0,.24,0,.48,0,.71h-.86q0-.36-.11-.71m-16.63,0h.77c-.07.23-.13.47-.17.71h-.75q.07-.36.16-.71m-3,0h3q-.09.35-.16.71h-2.8Zm-1.17,0h1.17v.71h-1.17Zm32.76-5.68h1c0,.24,0,.48,0,.71h-1c0-.24,0-.47,0-.71m-13.62,0h13.62c0,.24,0,.48,0,.71h-13a7,7,0,0,0-.69-.71m-2.7,0h2.7a7,7,0,0,1,.69.71H411.2a7.46,7.46,0,0,0-1.2-.71m-8.83,0h2.58a9.16,9.16,0,0,0-1.5.71h-1.87a8.76,8.76,0,0,1,.79-.71m-6.43,0h6.43a8.76,8.76,0,0,0-.79.71h-5.65Zm-1.16,0h1.16v.71h-1.16Zm31.55-5.79h1.05l.21.71h-1c-.07-.23-.15-.47-.23-.71m-30.39,0h30.39c.08.24.16.48.23.71H394.74Zm-1.15,0h1.15v.71h-1.15Zm29.13-5.76h1.45l-.2.22.23.49h-1.32l-.31-.57.14-.15m-28,0h28l-.14.15.31.57H394.74Zm-1.14,0h1.14V341H393.6Zm32.33-5.79h1.14c-.05.24-.11.48-.18.71h-1.17c.08-.24.15-.47.21-.71m-31.19,0h31.19c-.06.24-.13.48-.21.71h-31Zm-1.13,0h1.13v.71h-1.13Zm32.71-5.76h1q0,.36.07.71h-1c0-.24,0-.48-.07-.71m-31.49,0h31.49c0,.24,0,.48.07.71H394.77q0-.35.06-.71m-1.17,0h1.17q0,.36-.06.71h-1.15c0-.24,0-.47,0-.71m31-5.79h1.09c.1.24.2.47.29.71H425c-.1-.24-.2-.48-.31-.71m-28.42,0h28.42c.11.24.21.47.31.71H396c.09-.24.18-.48.28-.71m-1.21,0h1.21c-.1.24-.19.47-.28.71h-1.22c.09-.24.18-.48.29-.71m25.54-5.76h1.64q.3.35.58.71h-1.52c-.23-.24-.46-.48-.71-.71m-20.6,0h20.6c.24.23.48.47.71.71h-22q.32-.37.66-.71m-1.17,0H400q-.34.35-.66.71h-1.16q.31-.36.65-.71M405.06,375h4.46a18.21,18.21,0,0,0,4,.71h-7.05a15.25,15.25,0,0,1-1.39-.71m-10.33,0h10.33a15.25,15.25,0,0,0,1.39.71H394.73Zm-1.2,0h1.2v.71h-1.2Zm5.86-5.79h1.75q.27.36.57.71h-1.9c-.15-.23-.29-.47-.42-.71m-4.67,0h4.67c.13.24.28.48.42.71h-5.09Zm-1.19,0h1.19v.71h-1.19Zm3.9-5.76h1c.06.24.12.48.19.71h-1c0-.24-.09-.47-.12-.71m-2.71,0h2.71c0,.24.07.48.12.71h-2.83Zm-1.18,0h1.18v.71h-1.18Zm30.22-57.05h-1.16c-.67-.26-1.35-.5-2-.71h1.54q.85.34,1.67.71m8.49,5.76h-.34c-.26-.24-.53-.48-.8-.71h.36c.26.24.53.47.78.71m4.8,5.79h-.22c-.16-.24-.31-.48-.48-.71h.21l.49.71m3.08,5.76h-.23c-.1-.24-.21-.48-.32-.71h.23l.32.71m2,5.79h-.28c-.06-.24-.13-.48-.19-.71h.27c.07.24.13.47.2.71m1.1,5.76h-.34c0-.24-.06-.48-.09-.71h.33c0,.24.07.47.1.71m.35,5.79h-.4c0-.24,0-.48,0-.71h.39c0,.24,0,.48,0,.71m-.36,5.76h-.45c0-.24.07-.47.1-.71h.44c0,.24-.05.48-.08.71m-1.1,5.79h-.51c.06-.24.13-.47.19-.71h.5c-.06.24-.11.48-.18.71m-1.92,5.68h-.59c.1-.24.21-.47.31-.71h.56c-.1.24-.19.48-.29.71m-3.14,5.87h-.7l.48-.71h.69c-.15.24-.31.48-.47.71m-4.89,5.76H431.1c.28-.23.56-.47.83-.71h1l-.76.71m-10,5.79h-5.78a24.73,24.73,0,0,0,4.38-.71h3.36l-.78.31-1.19.41m-27.4,5.76h-1.21v-.71h1.21Zm0,5.79h-1.22v-.71h1.22Zm0,5.76h-1.23v-.71h1.23Zm0,5.65H393.5v-.71h1.23c0,.24,0,.48,0,.71m.21,5.76H393.5v-.71h1.39q0,.36.05.71m.88,5.79h-1.25l-.18-.71h1.27q.08.36.16.71m2.15,5.76h-1.22c-.12-.24-.24-.47-.35-.71h1.2q.18.36.37.71m5,5.79H401q-.38-.35-.73-.71H402c.28.24.57.48.87.71M389.16,421h1.55c.25.24.52.48.79.71H390q-.42-.34-.81-.71m-4-5.79h1.56q.16.35.33.71h-1.57q-.17-.35-.32-.71m-10.93-5.76h1.57c.36.25.74.49,1.13.71H375q-.4-.33-.8-.71m2.55-5.79h2.08c0,.19-.07.37-.11.54l-.12.17H376.1a6.54,6.54,0,0,0,.68-.71m1.79-5.76H379v.71h-.46q0-.35,0-.71m0-5.65H379V393h-.45Zm0-5.76H379v.71h-.46Zm0-5.79H379v.71h-.47Zm0-5.76H379v.71h-.47Zm0-5.79h.49v.71h-.48Zm0-5.76h.49v.71h-.49Zm-2-5.87h1l.63.71h-.92Zm2-11.47H379v.71h-.48Zm0-5.76h.49V341h-.49Zm0-5.79h.51v.71h-.5Zm0-5.76h.52v.71h-.52Zm-1.18-5.79h1.53a4.23,4.23,0,0,1,.15.71h-1.15a4.6,4.6,0,0,0-.53-.71m-5.94-5.76h1.18q-.32.34-.63.71h-1.21q.33-.37.66-.71m18.92-5.79h2.05l-.76.71h-2.07l.78-.71m8.57-5.76h1.95c-.51.22-1,.46-1.51.71h-1.84q.69-.37,1.4-.71m19.45-5.08H389c-2.55,1.64-5.38,3.35-8.48,5.08h18.38q-.71.34-1.4.71H379.26c-3.12,1.7-6.49,3.4-10.1,5.05h21.21l-.78.71h-22c-4.06,1.8-8.4,3.52-13,5.08h16.86q-.34.34-.66.71H352.43c-3.49,1.13-7.12,2.16-10.88,3.06q0,1,0,2h35.83a4.6,4.6,0,0,1,.53.71H341.56q0,2.57.16,5.08h36.84v.71H341.76q.13,2.55.35,5.05h36.46v.71h-36.4q.23,2.57.54,5.08h35.86V341H342.8q.33,2.56.74,5.05h35v.71H343.65q.43,2.57.94,5.08h34.47l-.73.71h-33.6q.53,2.52,1.13,5h30.65l.76.71H346.05q.66,2.62,1.39,5.16h31.12v.71H347.65q.76,2.57,1.59,5.05h29.33v.71H349.48q.88,2.58,1.83,5.08h27.26v.71h-27q1,2.57,2.06,5h24.93v.71H353.95q1.13,2.59,2.33,5.08h22.29v.71H356.62q1.26,2.58,2.58,5.05h19.37V393h-19q1.37,2.53,2.79,4.94h16.2q0,.37,0,.71H362.79q1.55,2.6,3.15,5.05h10.84a6.54,6.54,0,0,1-.68.71h-9.7q1.72,2.63,3.48,5.08h4.35q.39.38.8.71H370.4q1.9,2.63,3.8,5h11q.15.36.32.71H374.76q2.12,2.66,4.2,5.08h10.19q.39.37.81.71H379.59c1.56,1.79,3.11,3.47,4.61,5h39.53c1.51-1.58,3.07-3.26,4.64-5H402.91c-.3-.23-.59-.47-.87-.71h27q2.1-2.41,4.23-5.08H398q-.19-.35-.37-.71H433.8q1.91-2.42,3.82-5H395.81q-.08-.35-.16-.71h42.49q1.76-2.45,3.49-5.08h-46.7q0-.35-.05-.71h47.22q1.59-2.45,3.15-5.05H394.72c0-.24,0-.47,0-.71h50.94q1.42-2.4,2.79-4.94H394.73v-.71h54.1q1.31-2.47,2.57-5.05H394.73v-.71h57q1.19-2.49,2.31-5.08H394.73v-.71h59.64q1.06-2.47,2-5H422.13l1.19-.41.78-.31h32.6q.94-2.49,1.81-5.08H432.16l.76-.71h25.82q.82-2.48,1.57-5.05H437.05c.16-.24.32-.47.47-.71h23q.72-2.54,1.37-5.16H440.19c.1-.24.19-.48.29-.71h21.58q.59-2.45,1.11-5h-21c.06-.24.12-.48.18-.71h21q.5-2.51.92-5.08h-21c0-.24.06-.48.08-.71h21q.4-2.49.72-5.05H443.57c0-.24,0-.48,0-.71h21.58q.3-2.51.52-5.08H443.22c0-.24-.07-.48-.1-.71h22.61q.2-2.5.33-5.05H442.12c-.06-.24-.13-.48-.2-.71H466.1q.11-2.51.15-5.08H440.14l-.32-.71h26.43q0-1,0-2c-3.86-.91-7.57-1.94-11.11-3.06H437.06l-.49-.71H453c-4.7-1.56-9.1-3.28-13.18-5.08h-7.51c-.25-.24-.52-.48-.78-.71h6.69c-3.64-1.65-7-3.35-10.12-5.05h-4.28q-.82-.38-1.67-.71h4.66c-3.08-1.73-5.88-3.44-8.38-5.08m-8.11-5.76H397.33c-2,1.51-4.41,3.23-7.2,5.05h27.18c-2.74-1.83-5.08-3.54-7-5.05m-12-.71h11.1a61.2,61.2,0,0,1-5.48-4.79,56.22,56.22,0,0,1-5.62,4.79m69.67,25.61c1.57,48.19-23.18,98.38-64,126.67-39.89-27.84-65.54-78.8-64-126.67,18.53-4.31,43-13.83,64-32.75,20.17,19,44.92,28.25,64,32.75" transform="translate(-216.78 -241.19)" style="fill:#006437"/></svg>