<?xml version="1.0" encoding="UTF-8"?><svg id="uuid-65fbae26-bbe7-4b2f-818c-5eb450265d5a" xmlns="http://www.w3.org/2000/svg" xmlns:xlink="http://www.w3.org/1999/xlink" viewBox="0 0 187.02 187.02">
<title>Paris Saint-Germain gradients logo - Brandlogos.net</title><defs><radialGradient id="uuid-ccc3ad34-7085-4216-af00-1ccd64a37425" cx="-414.42" cy="523.11" fx="-414.42" fy="523.11" r="25.73" gradientTransform="translate(-170.01 3691.05) rotate(44.78) scale(5.81 -5.24)" gradientUnits="userSpaceOnUse"><stop offset="0" stop-color="#1f78b8"/><stop offset=".1" stop-color="#4188c5"/><stop offset=".22" stop-color="#1774b5"/><stop offset=".54" stop-color="#104883"/><stop offset=".78" stop-color="#144174"/><stop offset="1" stop-color="#1d2c48"/></radialGradient><linearGradient id="uuid-7414098c-8f03-451b-b17b-f0dfeb82185d" x1="-336.65" y1="395.54" x2="-319.22" y2="369.95" gradientTransform="translate(1019.12 1188.01) scale(2.83 -2.83)" gradientUnits="userSpaceOnUse"><stop offset="0" stop-color="#de4944"/><stop offset=".2" stop-color="#df5348"/><stop offset=".35" stop-color="#de3e39"/><stop offset=".49" stop-color="#cd2c2d"/><stop offset=".75" stop-color="#af2825"/><stop offset="1" stop-color="#8e241f"/></linearGradient></defs><g id="uuid-7f340476-06db-4e62-9112-960c2d6eb8be"><g id="uuid-15a80a89-2a9a-4c04-9d08-4f9dfff8b573"><path d="M93.51,0C41.95,0,0,41.95,0,93.51s41.95,93.52,93.51,93.52,93.51-41.95,93.51-93.52S145.08,0,93.51,0Z" style="fill:url(#uuid-ccc3ad34-7085-4216-af00-1ccd64a37425); fill-rule:evenodd;"/><path d="M125.13,22.57c-1.36-.61-2.72-1.17-4.12-1.7l-8.25,19.83c1.39.52,2.77,1.09,4.11,1.72l8.25-19.85h0Z" style="fill:#fff; fill-rule:evenodd;"/><path d="M93.1,19.79h7.99c1.95,0,3.54,1.59,3.54,3.55s-1.59,3.54-3.54,3.54h-7.99v-7.09ZM93.1,30.67h5.44l4.69,7.42c1.86.33,3.69.76,5.48,1.28l-5.63-8.97c3.23-.86,5.89-3.7,5.89-7.07,0-4.05-3.84-7.35-7.88-7.35h-12.33v21.37c1.43-.11,2.87-.18,4.34-.18h0v-6.5h0Z" style="fill:#fff; fill-rule:evenodd;"/><path d="M41.35,40.83l5.85-6.42c1.32-1.45,3.57-1.55,5.01-.23,1.45,1.31,1.55,3.56.23,5l-5.85,6.43-5.24-4.78h0ZM54.26,52.6h0l-4.87-4.43,6.03-6.64c2.73-2.99,2.73-7.8-.27-10.53-2.99-2.73-7.86-2.35-10.59.64l-8.94,9.85,15.59,14.21c.97-1.08,2-2.1,3.06-3.09Z" style="fill:#fff; fill-rule:evenodd;"/><path d="M135.68,34.59c3.21-.76,9.12,5.11,10.26,9.09.94-.71,3.03-2.25,3.03-2.25-2.5-7.11-12.45-14.22-17.17-9.77-2.81,2.65-1.22,6.72,1.23,9.3l2.38,2.5c2.42,2.55,4.54,5.08,2.59,6.69-2.07,1.72-7.88-2.58-11.36-9.96l-3.12,2.36c.74,1.94,2.43,4.75,4.68,7.13,2.56,2.69,5.35,4.45,7.85,4.94,1.97.39,3.92.09,5.21-1.11,3.22-2.99,2.05-7.34-3.01-12.67l-2.09-2.2c-2.33-2.46-1.38-3.85-.48-4.07Z" style="fill:#fff; fill-rule:evenodd;"/><path d="M68.75,24.28l6.04,6.93c-2.19.64-4.33,1.39-6.41,2.25l.37-9.18ZM69.67,19.55h0c-1.53.48-3.04,1.02-4.52,1.6l-1.61,24.35c1.45-.88,2.93-1.7,4.45-2.46l.23-5.67c2.93-1.3,6-2.37,9.15-3.2l3.74,4.29c1.65-.36,3.32-.64,5.01-.85l-16.46-18.07h0Z" style="fill:#fff; fill-rule:evenodd;"/><path d="M43.33,145.06l.94.88,2.77-1.35,2.79,2.43-.89,3,1.05.81,2.52-8.86-1-.87-8.18,3.96ZM48.22,144.04h0l2.83-1.37-.86,3.08-1.96-1.71Z" style="fill:#fff; fill-rule:evenodd;"/><polygon points="52.51 152.67 53.49 153.34 58.08 146.2 57.1 145.54 52.51 152.67" style="fill:#fff; fill-rule:evenodd;"/><polygon points="56.81 155.46 57.82 156.06 60.77 150.33 60.79 150.34 62.22 158.4 63.25 158.88 67.06 151.44 66.01 150.88 63.12 156.53 63.1 156.52 61.68 148.55 60.64 147.99 56.81 155.46" style="fill:#fff; fill-rule:evenodd;"/><polygon points="68.92 153.57 71.63 154.54 69.3 161.39 70.42 161.79 72.75 154.93 75.46 155.9 75.85 154.76 69.31 152.42 68.92 153.57" style="fill:#fff; fill-rule:evenodd;"/><path d="M89.47,161.31c-.05,2.85,2.21,4.42,4.4,4.46,2.05.03,3.69-.95,3.71-2.46l.04-2.23-3.76-.06-.02,1.21,2.58.04-.02.94c0,.72-1.04,1.37-2.46,1.35-2.07-.04-3.32-1.53-3.29-3.18.03-1.76,1.31-3.19,3.48-3.15,1.49.03,2.11.81,2.5,1.22l.83-.85c-.47-.48-1.48-1.55-3.44-1.58-.03,0-.06,0-.09,0-2.58,0-4.43,1.92-4.47,4.29h0Z" style="fill:#fff; fill-rule:evenodd;"/><polygon points="99.98 156.93 101.15 165.24 107.99 164.23 107.83 163.04 102.15 163.87 101.79 161.33 104.55 160.93 104.38 159.73 101.62 160.14 101.32 157.95 106.79 157.15 106.62 155.95 99.98 156.93" style="fill:#fff; fill-rule:evenodd;"/><path d="M114.07,153.84l-4.62,1.42,2.36,8.04,1.13-.33-.99-3.37,2.92-.9,2.55,2.86,1.24-.46-2.56-2.83c.64-.26,1.62-1.16,1.11-2.9-.36-1.22-1.23-1.69-2.16-1.69-.32,0-.65.05-.97.15ZM110.91,156.07h0l3.49-1.08c.65-.2,1.4-.19,1.66.73.23.78-.12,1.38-.97,1.64l-3.49,1.08-.7-2.37Z" style="fill:#fff; fill-rule:evenodd;"/><path d="M130.72,145.12l1.73,9.03,1.05-.69-.58-3.04,2.98-2.17,2.54,1.59,1.03-.84-7.68-4.66-1.07.78ZM132.09,145.96h0l2.7,1.62-2.1,1.53-.6-3.15h0Z" style="fill:#fff; fill-rule:evenodd;"/><polygon points="136.06 140.99 141.63 147.13 142.51 146.33 136.92 140.16 136.06 140.99" style="fill:#fff; fill-rule:evenodd;"/><polygon points="143.44 133.14 148.07 137.41 148.06 137.43 140.17 136.87 139.38 137.77 145.49 143.41 146.32 142.54 141.63 138.22 141.64 138.2 149.61 138.76 150.32 137.86 144.23 132.24 143.44 133.14" style="fill:#fff; fill-rule:evenodd;"/><polygon points="125.24 148.71 125.06 154.66 120.25 151.31 119.2 151.86 122.78 159.42 123.85 158.92 121.37 153.56 121.39 153.54 126.15 156.85 126.33 150.96 126.36 150.95 129.14 156.17 130.17 155.58 126.29 148.16 125.24 148.71" style="fill:#fff; fill-rule:evenodd;"/><path d="M40.64,132.63c-.39.29-.62.69-.68,1.16-.11.75.19,1.7.79,2.52l.87,1.2c.68.92,1.33,1.89,1.19,2.66-.05.31-.22.56-.5.74-.15.1-.33.15-.53.15-1.19,0-3.19-2.16-4.18-5.27l-.02-.06-.86.83-.02.02v.02c.2.78.71,2.03,1.58,3.22.91,1.25,1.95,2.11,2.92,2.43.31.1.62.16.92.16.43,0,.81-.11,1.09-.33.47-.35.76-.81.83-1.34.15-.99-.37-2.3-1.53-3.88l-.77-1.06c-.62-.84-.59-1.39-.46-1.7.11-.27.36-.46.64-.5.04,0,.09,0,.13,0,1.41,0,3.4,2.39,3.92,4.24v.05s.05-.03.05-.03c.29-.17.63-.37.84-.49l.03-.02v-.03c-.68-2.56-3.21-5.08-5.13-5.08-.43,0-.81.13-1.14.38h0Z" style="fill:#fff; fill-rule:evenodd;"/><polygon points="79.99 160.72 82.91 161.38 83.17 160.19 80.26 159.52 79.99 160.72" style="fill:#fff; fill-rule:evenodd;"/><path d="M93.51,6.69c-23.03,0-45.11,9.15-61.4,25.43C15.83,48.4,6.69,70.48,6.69,93.51s9.15,45.11,25.43,61.4c16.28,16.28,38.37,25.43,61.4,25.43s45.11-9.15,61.4-25.43c16.28-16.28,25.43-38.37,25.43-61.4s-9.15-45.11-25.43-61.4c-16.28-16.28-38.37-25.43-61.4-25.43h0ZM93.51,10.12h0c22.12,0,43.33,8.79,58.97,24.42,15.64,15.64,24.42,36.85,24.42,58.97s-8.79,43.33-24.42,58.97c-15.64,15.64-36.85,24.42-58.97,24.42s-43.33-8.79-58.97-24.42c-15.64-15.64-24.42-36.85-24.42-58.97s8.79-43.33,24.42-58.97c15.64-15.64,36.85-24.42,58.97-24.42h0Z" style="fill:#fff; fill-rule:evenodd;"/><path d="M95.33,133.63l-1.7-1.97-1.7,1.97-.07.19c.33.68.91,1.51,1.61,2.07l.16.08.16-.08c.71-.56,1.28-1.4,1.62-2.07l-.07-.19h0Z" style="fill:#c3a34e; fill-rule:evenodd;"/><path d="M96.96,122.91c0-1.95-2.55-8.04-3.33-8.04l-.19.08c-.93.76-3.13,6.14-3.13,7.96,0,1.45,2.94,5.29,2.94,7.38l.39.39.39-.39h0c.01-2.1,2.94-5.92,2.94-7.38h0Z" style="fill:#c3a34e; fill-rule:evenodd;"/><path d="M91.98,130.1c-1.38-3.64-3.76-5.63-6.24-5.63-1.86,0-3.38,1.51-3.38,3.38s1.82,3.07,3.38,3.38c.51.1,1.09-.21,1.43-.59.28-.31.56-.85.34-1.21-.08-.12-.3-.01-.43-.08-.47-.25-1.14-.6-1.14-1.14,0-.53.6-1.1,1.14-1.13,1.77-.09,3.07,1.07,4.13,3.35h0s0,.03,0,.03l.38.22.42-.42-.04-.17h0Z" style="fill:#c3a34e; fill-rule:evenodd;"/><path d="M101.42,124.48c-2.47,0-4.85,1.99-6.24,5.63l-.04.17.42.43.37-.23h0s0-.02,0-.02c1.05-2.29,2.36-3.45,4.13-3.35.53.03,1.13.6,1.13,1.13,0,.53-.66.89-1.13,1.14-.13.07-.36-.04-.44.08-.22.36.07.9.35,1.22.34.38.92.69,1.43.59,1.56-.31,3.38-1.51,3.38-3.38s-1.51-3.38-3.38-3.38h0Z" style="fill:#c3a34e; fill-rule:evenodd;"/><path d="M93.51,42.31c-13.58,0-26.6,5.4-36.21,15-9.6,9.6-15,22.63-15,36.21s5.39,26.6,15,36.21c9.6,9.6,22.63,15,36.21,15,13.58,0,26.6-5.39,36.21-15,9.6-9.6,15-22.63,15-36.21s-5.4-26.6-15-36.21c-9.6-9.6-22.63-15-36.21-15h0ZM86.74,46.23h0c-2.19,30.44-14.93,52.97-35.83,68.68-3.36-6.63-5.13-13.96-5.16-21.4,0-11.5,4.15-22.6,11.68-31.29,7.53-8.69,17.94-14.36,29.32-15.99h0ZM100.28,46.23h0c11.38,1.63,21.79,7.31,29.32,15.99,7.53,8.69,11.68,19.79,11.68,31.29-.03,7.44-1.8,14.76-5.17,21.4-20.91-15.71-33.64-38.24-35.83-68.68h0ZM93.51,108.74h0c11.16,0,20.21,8.69,20.21,19.4,0,3-.71,6.58-1.98,9.43-5.77,2.42-11.96,3.68-18.22,3.71-6.26-.03-12.45-1.29-18.23-3.71-1.26-2.85-1.98-6.43-1.98-9.43,0-10.71,9.05-19.4,20.2-19.4h0Z" style="fill:#fff; fill-rule:evenodd;"/><path d="M93.51,45.74c-1.46.03-2.92.12-4.38.29-.36,17.99-4.78,33.53-12.21,46.58h33.19c-7.43-13.04-11.85-28.59-12.21-46.57-1.46-.16-2.92-.26-4.39-.29ZM75.84,94.47h0c-5.79,9.6-13.5,18.06-22.21,25.15,3.8,5.82,8.83,10.74,14.73,14.41-.21-1.23-.33-2.49-.33-3.79,0-13.16,11.41-23.83,25.49-23.83s25.49,10.67,25.49,23.83c0,1.29-.12,2.54-.33,3.77,5.9-3.68,10.92-8.59,14.72-14.41-8.71-7.09-16.41-15.54-22.2-25.14h-35.36Z" style="fill:url(#uuid-7414098c-8f03-451b-b17b-f0dfeb82185d); fill-rule:evenodd;"/></g></g></svg>