<svg id="Layer_1" data-name="Layer 1" xmlns="http://www.w3.org/2000/svg" width="220.93" height="226.71" viewBox="0 0 220.93 226.71"><title>FC Red Bull Salzburg logo - Brandlogos.net</title><g id="g10"><g id="g12"><path id="path14" d="M305.42,319.46V438.67c0,9.42,1.21,13,4.11,18.08l.16.28.18.27a89.57,89.57,0,0,0,149.27,0l.18-.27.16-.28c2.9-5,4.11-8.66,4.11-18.08V319.46H305.42" transform="translate(-273.53 -270.64)" style="fill:#fff"/><path id="path16" d="M454.06,418.25v20.43c0,8.13-.94,10-2.84,13.34a80,80,0,0,1-133.44,0c-1.89-3.3-2.84-5.21-2.84-13.34V329H454.06v89.26Zm4.28-27V324.71H310.66v114c0,8.64,1,11.35,3.41,15.47l.07.13.08.12a84.32,84.32,0,0,0,140.55,0l.08-.12.07-.13c2.37-4.12,3.41-6.83,3.41-15.47V391.24" transform="translate(-273.53 -270.64)" style="fill:#0e1e3d"/><path id="path18" d="M459.35,425.64v13c0,8.89-1.08,11.69-3.54,16l-.09.16-.1.15a85.34,85.34,0,0,1-142.24,0l-.1-.15-.09-.16c-2.46-4.29-3.54-7.09-3.54-16v-115H459.35V425.64ZM461.73,392V321.32H307.27V438.67c0,9.41,1.24,12.59,3.86,17.16l.13.23.15.22a87.71,87.71,0,0,0,146.18,0l.15-.22.13-.23c2.62-4.56,3.86-7.74,3.86-17.16V392" transform="translate(-273.53 -270.64)" style="fill:#0e1e3d"/><path id="path20" d="M371,359.76a4.76,4.76,0,1,1,4.39-4.74A4.58,4.58,0,0,1,371,359.76ZM375.33,333l0,14.66a8.56,8.56,0,0,0-6-2.49c-4.93,0-8.93,4.32-8.93,9.65s4,9.65,8.93,9.65a8.54,8.54,0,0,0,6-2.56v2.38h5.94V333Zm24.75,26h-5.52V339.28h3.85a3.23,3.23,0,0,1,0,6.45h-2v5.47h3.67a3.92,3.92,0,0,1,0,7.81Zm4.83-11.27a8.27,8.27,0,0,0,2.54-5.91,8.18,8.18,0,0,0-2.08-5.46c-1.38-1.6-3.81-2.3-7.1-2.3h-9.85v30.26h12.73a8.87,8.87,0,0,0,8.81-8.75C409.95,352.1,408.79,349.63,404.91,347.73Zm29.37,16.6H440V333.26h-5.76Zm-9.69-7.69a3.38,3.38,0,0,1-6.76,0V345.73H412v12.08c0,4.09,4.13,7.4,9.23,7.4s9.23-3.31,9.23-7.4V345.73h-5.83ZM339,342.94a8.82,8.82,0,0,0-8.69-8.95H319.21v30.28h6.13V339.23l3.66,0a3.93,3.93,0,0,1,4,4,4,4,0,0,1-4.1,4l-1.42,0v7.21l6.13,9.92h7.23l-8.47-12.65a8.9,8.9,0,0,0,6.62-8.69Zm6.73,9.69a3.61,3.61,0,1,1,7.23,0Zm3.56-7.93a10.13,10.13,0,1,0,9,15.35l-4.8-2.27a4,4,0,0,1-3.71,2.3,3.9,3.9,0,0,1-4-3.77c0-.13-.05-.08,0-.21h13.07a12.37,12.37,0,0,0,.06-1.27C358.89,348.3,354.65,344.71,349.25,344.71ZM444,333.26v31.08h5.77V333.26H444" transform="translate(-273.53 -270.64)" style="fill:#d81144"/><path id="path22" d="M425.6,403.83a41.32,41.32,0,1,1-41.32-41.32,41.32,41.32,0,0,1,41.32,41.32" transform="translate(-273.53 -270.64)" style="fill:#fbc715"/><path id="path24" d="M420.15,416.33l-.18-.27-.24-.36a7.37,7.37,0,0,1-.79-1.37c.7.07,1.45.14,2.22.17Zm73.74,11.6v0l-.15-.33c0-.22-.07-.47-.11-.74v0a7.09,7.09,0,0,0-.44-2,3.46,3.46,0,0,0-2.49-2,2.46,2.46,0,0,0-.39-.94,8.79,8.79,0,0,0-2.46-2.17c-.21-.14-.45-.3-.54-.37l-.21-.16a2.77,2.77,0,0,0-1.75-.61,4,4,0,0,0-2.88,1.53c-.12-.31-.31-1-.43-1.44s-.3-1.09-.45-1.51l0-.06-.07-.18a3.91,3.91,0,0,0-2.91-2.85,13,13,0,0,0-1.54-.13,3.3,3.3,0,0,1-1.45-.27,4.32,4.32,0,0,1,.16-.43,9,9,0,0,0,.4-1.2,11.71,11.71,0,0,0,.36-5.09,10.51,10.51,0,0,0,1.49.11,12.37,12.37,0,0,0,4.79-1l.08,0c2.9-1.41,5.76-4.63,5.61-8.67v-.11c-.33-3.49-2.28-6.79-5.92-10a9,9,0,0,0,2.88-1.21c2.63-1.77,3.77-4.94,3.12-8.7l-.06-.25a2.26,2.26,0,0,0-3.81-1.46l-.27.26a4.18,4.18,0,0,1-.67.56,7.92,7.92,0,0,1-2.26.69,17.31,17.31,0,0,0-2.12.54c-3.27,1.13-5.33,2.89-6.14,5.24a6,6,0,0,0,.59,4.73l.07.11a23,23,0,0,0,3.65,4.12c1.76,1.69,3.43,3.28,3.77,5.2.06.35.17,1-1,1.87a3.78,3.78,0,0,1-1.81.4,6.92,6.92,0,0,1-3.12-.78l0,0A41.25,41.25,0,0,1,471,396a30.37,30.37,0,0,0-7.35-4,18.37,18.37,0,0,0-3.78-1.06,9.36,9.36,0,0,1-3.91-1.38l-.14-.1c-.43-.28-.88-.61-1.32-.92a14.26,14.26,0,0,0-4.6-2.5,10.62,10.62,0,0,0-1.88-.4,3.19,3.19,0,0,1-1.37-.36l-.88-.64,0,0a27.75,27.75,0,0,0-3.85-2.5,29.62,29.62,0,0,0-7.16-2.26c-.13,0-.48-.46-.71-.74a7.66,7.66,0,0,0-1.51-1.5c-1.91-1.51-4.08-2.89-7-2.89-.26,0-.53,0-.76,0a7.57,7.57,0,0,0-4.23,2.1c-2.15,1.88-4.48,3.57-6.74,5.21a65.15,65.15,0,0,0-10.27,8.6c-3.31,3.43-4.51,7.69-5.57,11.45-.15.54-.31,1.08-.47,1.65-.29,1-.55,2.09-.81,3.12-1.3,5.22-2.53,10.14-7.4,13.31a2.43,2.43,0,0,0-1.11,2.3,2.51,2.51,0,0,0,1.59,2,5.7,5.7,0,0,0,1.87.3,2.4,2.4,0,0,0,.58,1.45,2.83,2.83,0,0,0,2.12.93h.08c3.36,0,5.75-1.93,7.81-3.93a6.33,6.33,0,0,0,2.88,1.58l.33.06.37,0a18.27,18.27,0,0,1,3.36-.25c1,.31,2,.69,3,1.07.77.29,1.56.59,2.37.86l.4.12h.35c2.2-.08,3.43-2,3.89-2.75l.09-.14.07-.15a3.92,3.92,0,0,0,.18-.52v0l.13.46a7.39,7.39,0,0,0,1.25,2.86,3.12,3.12,0,0,0,2.44,1.11h0a5.88,5.88,0,0,0,.93-.09l.11,0,.1.11a4.28,4.28,0,0,0,1.91,1.33c.89.3,1.79.53,2.68.77a29.4,29.4,0,0,1,3.19,1l.11,0a7.94,7.94,0,0,0,2.57.49,4.55,4.55,0,0,0,3-1.15,5.54,5.54,0,0,0,2-3.08,3.72,3.72,0,0,0,.66-.17c1.5-.5,3-3.24,3-3.27a6,6,0,0,1,.33-.54,3.07,3.07,0,0,0,.54-1.75,2.62,2.62,0,0,0-2.59-2.61h-.23c-.12,0-2.93,0-3.74,0h-.07a3.78,3.78,0,0,0-1,.18l-.05-.07c-.22-.26-.45-.87-.75-1l.11-.06.79.08c.5,0,1,.08,1.53.08a27.41,27.41,0,0,0,5-.58,23.34,23.34,0,0,1,4.18-.11h.51c.6,0,1.2.05,1.86.11s1.4.13,2.16.13l.79,0a7.9,7.9,0,0,0,2.06-.36c.06.35.14.78.24,1.31l.1.44a8.36,8.36,0,0,0,3.73,5.78l.42.28a8.45,8.45,0,0,0,4.06,1.67,6.39,6.39,0,0,0,2-.09A9.43,9.43,0,0,1,473,428l.19.12a5.54,5.54,0,0,1,.67.52,6.68,6.68,0,0,0,2,1.28,4.9,4.9,0,0,0,1.78.34h0a4.32,4.32,0,0,0,2.35-.64h0l.24.33a10,10,0,0,0,1.4,1.66,5.12,5.12,0,0,0,3.69,1.27c.48,0,.93,0,1.33-.06l.45,0,.71,0a4.54,4.54,0,0,0,.6-.1,2.29,2.29,0,0,0,1.32.43,2.21,2.21,0,0,0,.63-.09l2.34-.77a2.37,2.37,0,0,0,1.47-1.3,3.48,3.48,0,0,0-.36-3" transform="translate(-273.53 -270.64)" style="fill:#fff"/><path id="path26" d="M351.1,413.9l-.29.27a10.94,10.94,0,0,0-1.78,1.94c-.39-.66-.65-1.14-.86-1.58a9.9,9.9,0,0,0,2.5-.72l.46,0Zm28.64,5.51-1.23-.61A8.5,8.5,0,0,1,376,415.7c-.35-.59-.72-1.21-1.12-1.77a8.41,8.41,0,0,0-1.35-1.43l-.26-.23a46.42,46.42,0,0,1-3.06-12.44,12.43,12.43,0,0,0-1.49-4.37l0,0a94.88,94.88,0,0,0-7.25-9.38l-.56-.56-.13-.12-8.67-7.21L352,378a13.47,13.47,0,0,0-3.91-2.09,11.14,11.14,0,0,0-7.57.26l-.15.07c-.75.4-1.45.84-2.13,1.28a14.39,14.39,0,0,1-3,1.62l-.18.07a24.93,24.93,0,0,1-2.76,1,15.56,15.56,0,0,0-6.29,3.11l-1.18,1.1a14.49,14.49,0,0,1-1.09,1h-.37a11.81,11.81,0,0,0-8.07,2.81l-.08.07a14.22,14.22,0,0,1-4.43,3.1,10.5,10.5,0,0,1-2.29.39h-.09a16.33,16.33,0,0,0-3.18.5c-2.47.57-4.86,2.43-6.77,3.92-.85.66-1.4,1.07-1.63,1.23l-.54.34c-2.11,1.23-3.93,2.3-6.13,2.3H290a3.24,3.24,0,0,1-2.71-2,4,4,0,0,1,1.2-3.92c.73-.73,1.6-1.47,2.43-2.18a24.85,24.85,0,0,0,3.94-3.87,6.29,6.29,0,0,0-.37-7.68c-1.42-1.56-3.88-2.32-5.87-2.8l-.17,0-.36-.07-.12,0-.66-.12c-.38-.07-.74-.13-1.09-.22a7.83,7.83,0,0,1-2.11-1.18,17.86,17.86,0,0,0-1.68-1.07l-1.61-.87-1,1.53a6.2,6.2,0,0,0-1,4v.11a9.32,9.32,0,0,0,5.15,6.78l.06,0,.28.11a5.79,5.79,0,0,0,1.77.41,30.08,30.08,0,0,0-4.09,4c-2.43,2.67-2.57,7-1.46,9.92,1.42,3.81,5.25,5.93,8.44,6.35a10.87,10.87,0,0,0,1.69.13,14.72,14.72,0,0,0,2.86-.31v0a25.53,25.53,0,0,0,.22,2.9,18.9,18.9,0,0,0,1.13,3.4l0,.09a9.88,9.88,0,0,1-2.16,1c-.56.07-1.17.1-1.62.12l-.69,0a3,3,0,0,0-1.76.83,8.11,8.11,0,0,0-1.5,2.85c-.2.52-.41,1.06-.62,1.5a3.07,3.07,0,0,1-.67.7,4.87,4.87,0,0,0-1.27-1.37h0l-.06,0a2.81,2.81,0,0,0-3.27-.06l-.44.3-.12.08a21.91,21.91,0,0,0-2.09,1.52,3.22,3.22,0,0,0-1,1.73,2.34,2.34,0,0,0-.52.14,4.42,4.42,0,0,0-2.62,3.26,16.2,16.2,0,0,1-.18,1.69l-.12.14a2.61,2.61,0,0,0,0,3.52,9.67,9.67,0,0,0,3.9,1.41h.13l.33,0,.15,0a2.5,2.5,0,0,0,.46-.19l.62.06a10.13,10.13,0,0,1,1.15.21,11.05,11.05,0,0,0,2.36.32,5.22,5.22,0,0,0,2.5-.6,6,6,0,0,0,2.51-2.65c.14-.24.28-.49.43-.69l.22.06a6.56,6.56,0,0,0,1.33.25,7.82,7.82,0,0,0,5-1.86c.37-.29.72-.62,1-.92a10.41,10.41,0,0,1,1-.9,3.67,3.67,0,0,1,1.34-.2,16.59,16.59,0,0,1,2.9.36,7.6,7.6,0,0,0,5.49-.62c.83-.47,1.66-.91,2.34-1.26l.11-.06,1-.51A9.82,9.82,0,0,0,314,419.4c.35-.7.88-2,1-2.36h.44a19.66,19.66,0,0,0,3-.32c.65-.1,1.26-.2,1.73-.22h.08l.56,0c.94,0,2.31.11,3.34.23.86.09,1.44.18,2.58.23l.49,0c.36,0,.77.06,1.21.06a6.38,6.38,0,0,0,2.87-.65c.22.21.58.72.82.93h-.11a2.57,2.57,0,0,0-1.88.8,5.78,5.78,0,0,0-2.67-.23,24.88,24.88,0,0,0-3.33.51,2.39,2.39,0,0,0-1.83,1.38,2.78,2.78,0,0,0,.14,2.53c.59,1.06,1.16,2,1.77,3l.27.45a2.64,2.64,0,0,0,2.41,1.25l.59,0h.06l.11.2a7.79,7.79,0,0,0,1.94,2.52,5.72,5.72,0,0,0,3.69,1.31,5.88,5.88,0,0,0,1.77-.27,47.81,47.81,0,0,0,7.67-2.94h.53l.49,0a5.21,5.21,0,0,0,3.67-1.4l.11-.11.09-.13c.45-.66.87-1.32,1.26-2,0,.08,0,.16.07.24l0,.05a4,4,0,0,0,3.86,2.5H353a14.82,14.82,0,0,0,4.47-1.08l.09,0,.55-.2.13-.05a7.77,7.77,0,0,1,4.16-.21l.22,0h.23a7.71,7.71,0,0,0,4.4-1.95,11,11,0,0,0,8.33,3.5h.37l.54,0,.15,0a2.4,2.4,0,0,0,1.91-2.15,2.37,2.37,0,0,0,0-.62,5.36,5.36,0,0,0,.59-.1,2.47,2.47,0,0,0,1.95-2,2.33,2.33,0,0,0-1.27-2.52" transform="translate(-273.53 -270.64)" style="fill:#fff"/><path id="path28" d="M337.2,421.81a3.88,3.88,0,0,1-.19-.36,6.07,6.07,0,0,1-.42-1.15c-.21-.72-.38-1.33-1.15-1.22a23,23,0,0,1-3.36.23s-.39,0-.5.26.17.58.49.87a3.33,3.33,0,0,1,.5.53,8.66,8.66,0,0,1,.64,1.24c.32.71.6,1.33.93,1.43a1.57,1.57,0,0,0,.46.06,4.61,4.61,0,0,0,2.52-1c.42-.36.28-.59.1-.91" transform="translate(-273.53 -270.64)" style="fill:#d81144"/><path id="path30" d="M283.44,420.69l-.06,0a.83.83,0,0,0-.92,0l-.58.38a20.5,20.5,0,0,0-1.92,1.39,1.39,1.39,0,0,0-.4.89.75.75,0,0,0,.12.54c.06.06.54.61.65.69a1.2,1.2,0,0,0,.78.31,1.48,1.48,0,0,0,.66-.17,8.28,8.28,0,0,0,2.46-2.93c.13-.35-.28-.68-.79-1.09" transform="translate(-273.53 -270.64)" style="fill:#d81144"/><path id="path32" d="M278.11,430.72Zm1.42-4.81c-.24-.35-1.06-1.3-1.51-1.3l-.11,0a2.57,2.57,0,0,0-1.4,1.57c-.16,2.13-.22,2.36-.8,3-.16.18-.27.6-.09.79a13.14,13.14,0,0,0,2.49.83h0c.19-.05.34-.54.77-2,.23-.79.49-1.69.78-2.5,0-.05,0-.13-.17-.4" transform="translate(-273.53 -270.64)" style="fill:#d81144"/><path id="path34" d="M366.39,409.5a2.58,2.58,0,0,1-.28.91.62.62,0,0,1-.58.41c-.43,0-.4-.51-.4-.57a7.53,7.53,0,0,0-.32-2c-.29-.64-1.71-2.46-2.52-2.38a2.29,2.29,0,0,0-1.13.85c-.48.62-.48.7-.63.79s-.34,0-.4-.32a2.72,2.72,0,0,1,0-1.37,6.74,6.74,0,0,1,.55-1.36s.43-1,.59-1.22a1.21,1.21,0,0,1,1-.62,1.38,1.38,0,0,1,1.2.62,4.4,4.4,0,0,1,.67,1,6.84,6.84,0,0,0,.88,1.13,6.36,6.36,0,0,1,1.25,2.35A4.6,4.6,0,0,1,366.39,409.5Zm-3.91,9a1.75,1.75,0,0,1-.37.92,3.93,3.93,0,0,1-2,.41c-.57,0-.77-.1-.89-.28s.08-.58.08-.58a3.65,3.65,0,0,1,2.09-1.9,1.18,1.18,0,0,1,.85,0C362.68,417.3,362.49,418.34,362.48,418.48ZM348.1,395.71c0,.17-.15.28-.26.28s-.17,0-.21-.24a17.32,17.32,0,0,0-1.24-4.46,6,6,0,0,0-.56-.87c-.38-.52-.72-1-.34-1.59a.81.81,0,0,1,.68-.3,1,1,0,0,1,.4.08,3.4,3.4,0,0,1,1.31,1.63C349,392.49,348.11,395.68,348.1,395.71Zm30.75,25.47-1.29-.64a9.86,9.86,0,0,1-3.27-3.81c-.34-.56-.68-1.14-1.06-1.67a6.7,6.7,0,0,0-1-1.07,3.22,3.22,0,0,1-.68-.71,49,49,0,0,1-3.29-13.3,10.59,10.59,0,0,0-1.22-3.52,93.52,93.52,0,0,0-7-9.06l-.5-.5-.13-.13-8.55-7.11a11.64,11.64,0,0,0-3.45-1.85,8,8,0,0,0-2.69-.44,8.83,8.83,0,0,0-3.41.66c-.68.36-1.35.78-2,1.19a16,16,0,0,1-3.45,1.83,26.33,26.33,0,0,1-3,1.06,13.8,13.8,0,0,0-5.54,2.68l-1.16,1.08c-1.47,1.39-1.62,1.53-2.82,1.53a9.83,9.83,0,0,0-6.81,2.36,15.72,15.72,0,0,1-5.12,3.51,12.12,12.12,0,0,1-2.76.5,14.79,14.79,0,0,0-3,.46c-2,.47-4.18,2.13-6,3.55-.6.46-1.39,1.08-1.77,1.32l-.62.39c-2.26,1.32-4.4,2.57-7.13,2.57h-.2a5.23,5.23,0,0,1-4.52-3.42,6,6,0,0,1,1.7-5.91c.79-.79,1.68-1.55,2.55-2.29a23.46,23.46,0,0,0,3.64-3.55,4.34,4.34,0,0,0-.25-5.16c-1.2-1.31-3.87-2-4.87-2.21l-.17,0-.37-.07c-.64-.12-1.25-.21-1.87-.37-1.59-.43-2.82-1.66-4.23-2.42a4.27,4.27,0,0,0-.65,2.75,7.29,7.29,0,0,0,4,5.22l.25.1a4.7,4.7,0,0,0,1.89.3h.79a5,5,0,0,1,1.24.1,1.16,1.16,0,0,1,.83,1c0,.28-.1.5-.45.78l-1,.83a33.51,33.51,0,0,0-4.85,4.59c-1.9,2.05-2,5.62-1.1,7.93a8.51,8.51,0,0,0,6.86,5.08,8.93,8.93,0,0,0,1.41.11,18,18,0,0,0,4.4-.72l.13,0c.07,0,.19,0,.21.32,0,.63.07,1.34.11,2,.05,1.12.1,2.18.18,2.63a17.28,17.28,0,0,0,1,3c.14.34.25.61.29.74a1.24,1.24,0,0,1-.3,1.23,10.1,10.1,0,0,1-3.64,1.81c-.64.08-1.33.12-1.83.14l-.56,0a1,1,0,0,0-.6.28,8,8,0,0,0-1,2.15c-.23.6-.47,1.22-.72,1.73a7.56,7.56,0,0,1-2.93,2.44l-.82.48,0,0a8.76,8.76,0,0,1-1.5,1.93,2.69,2.69,0,0,1-1.6.59h0l0,0a7.67,7.67,0,0,0-1.41,3.58l-.13.59,0,.18H280a11.8,11.8,0,0,1,1.39.24,9.25,9.25,0,0,0,1.94.28,3.2,3.2,0,0,0,1.6-.39,4.08,4.08,0,0,0,1.69-1.87,6.15,6.15,0,0,1,1-1.37,1.12,1.12,0,0,1,.88-.37,4.12,4.12,0,0,1,1,.19,4.86,4.86,0,0,0,.94.18,5.89,5.89,0,0,0,3.67-1.43c.31-.24.62-.53.91-.81a10.13,10.13,0,0,1,1.44-1.2,5.27,5.27,0,0,1,2.29-.44,18.55,18.55,0,0,1,3.33.41,6.25,6.25,0,0,0,1.58.21,5.06,5.06,0,0,0,2.5-.61c.85-.48,1.7-.93,2.39-1.29l1-.55a8.41,8.41,0,0,0,2.64-3.29c.36-.71,1-2.26,1-2.28l0-.07-1.42-1.09-.06.1a23.9,23.9,0,0,1-1.55,2.26c-2.5,3.41-6.59,3.85-9.86,3.85h-.68a12.4,12.4,0,0,0-9.72,4,.26.26,0,0,1-.39,0,.35.35,0,0,1,0-.29,2,2,0,0,1,.27-.67c2.54-3.61,6.88-4.14,10.37-4.2a15.19,15.19,0,0,0,6.1-1.45,9.57,9.57,0,0,0,4.26-5.29,23.58,23.58,0,0,0,.78-3.8,27.53,27.53,0,0,1,.56-3,.31.31,0,0,1,.29-.2l.1,0c.13,0,.38.12.39.31-.35,2-.83,4.7.07,7,.42.9,1.32,1.33,2.75,1.33a18.11,18.11,0,0,0,2.72-.29,19.61,19.61,0,0,1,2-.24c.24,0,.49,0,.74,0a16.62,16.62,0,0,1,3.3.43,19.33,19.33,0,0,0,2.87.43l.56,0c.34,0,.69.06,1.05.06a2.81,2.81,0,0,0,1.85-.51c.3-.25.2-.61.06-1.08l0-.08-.08-.26c-.19-.61-.48-1.54,0-2a.45.45,0,0,1,.26-.09.21.21,0,0,1,.22.15l.16.53a6.65,6.65,0,0,0,.91,2.17,13.72,13.72,0,0,0,4.46,3.48,5.91,5.91,0,0,1,2.84,4.28c0,.91-.88,1.54-1.53,1.93a9.18,9.18,0,0,1-3.62,1.09,2.39,2.39,0,0,1-1.24-.48c-1-.92-.89-1.24-1.54-2.33a12.24,12.24,0,0,0-1.16-1.71,2.76,2.76,0,0,0-2.47-.87,23.27,23.27,0,0,0-3.08.51.69.69,0,0,0-.5.39.82.82,0,0,0,.06.74c.58,1,1.14,2,1.74,3l.27.45a.76.76,0,0,0,.7.27l.44,0,.51,0a1.25,1.25,0,0,1,1.06.39c.18.27.34.57.5.85a5.93,5.93,0,0,0,1.47,1.95,3.7,3.7,0,0,0,2.43.85,3.9,3.9,0,0,0,1.18-.18,44.09,44.09,0,0,0,7.77-3h.81l.55,0A3.38,3.38,0,0,0,346,425a27.27,27.27,0,0,0,2.07-3.54,3,3,0,0,0,0-3,21.37,21.37,0,0,1-2.51-4.92l0,0h0c-.19-.06-.37-.13-.55-.2a3.36,3.36,0,0,0-1.26-.31h-.06a1.13,1.13,0,0,0-1.06.49l0,0,2.87,5.66a2.57,2.57,0,0,1,.29,1.55,10,10,0,0,1-1.94,3.16.5.5,0,0,1-.25.1s-.18,0-.09-.36a14.92,14.92,0,0,0,.51-3.77c-.1-.8-2.51-4.78-2.61-5l0-.07a3.52,3.52,0,0,1-.72-2,.78.78,0,0,1,.54-.66,8.65,8.65,0,0,1,1.24-.31c1-.22,2.08-.46,2.45-1a15.36,15.36,0,0,0,2.29-6.09c0-.11.1-.32.26-.32s.19,0,.22.25a9.17,9.17,0,0,1-1.57,6.88.77.77,0,0,0-.1.55.69.69,0,0,0,.26.37c.55.37,2.56.16,4-.61a15.22,15.22,0,0,0,3.18-.37l1-.17a.43.43,0,0,1,.2.22,7,7,0,0,0-1.65,3.41c-.24.24-.5.48-.76.72-.94.86-1.94,1.81-2,3a.45.45,0,0,0,.45.47,1.17,1.17,0,0,0,.48-.13,1.13,1.13,0,0,1,.49-.12.32.32,0,0,1,.27.3l-1.07,1.56a2.51,2.51,0,0,0-.07,2c.12.37.07.66.17,1a2.06,2.06,0,0,0,2,1.15,13,13,0,0,0,3.88-1l.66-.24a9.57,9.57,0,0,1,5.27-.35c1.71-.11,3-1.24,4.25-2.34a2.47,2.47,0,0,1,1.65.94,9,9,0,0,0,7,3h.32l.29,0c.29-.07.37-.22.39-.4s-.15-.44-.47-.59l-1.58-.84c-1.26-.8-2.64-1.77-3-3a16.82,16.82,0,0,0-1.74-3.67c-.11-.18-.24-.36-.37-.55a6.8,6.8,0,0,1-.62-1h0c1.72.62,2.69,1.89,3.85,4a6.72,6.72,0,0,0,5.24,3.28,3.8,3.8,0,0,0,.81-.09.48.48,0,0,0,.41-.39.37.37,0,0,0-.19-.44" transform="translate(-273.53 -270.64)" style="fill:#d81144"/><path id="path36" d="M435.28,419.89a.7.7,0,0,0-.52-.18h-.18a9.77,9.77,0,0,1-1.26.08l-.64,0h-.49a3.56,3.56,0,0,0-.68.06h0l0,0a5.13,5.13,0,0,0-.73,2.37c.12,1,1.1,1.16,1.85,1.31a4.58,4.58,0,0,0,.89.11,1.07,1.07,0,0,0,1.07-.53,13.55,13.55,0,0,0,.83-3,.32.32,0,0,0-.06-.28" transform="translate(-273.53 -270.64)" style="fill:#d81144"/><path id="path38" d="M488.67,423.08a7.15,7.15,0,0,0-1.92-1.64,8.51,8.51,0,0,1-.74-.53l-.13-.1a.8.8,0,0,0-.53-.19,2,2,0,0,0-1.54,1.18c0,.44.6,1.22,1.43,2.2l.18.21a2,2,0,0,0,1.33.79h0a1.73,1.73,0,0,0,1.26-.53c.3-.28,1-1,.66-1.39" transform="translate(-273.53 -270.64)" style="fill:#d81144"/><path id="path40" d="M492.09,428.77a4.35,4.35,0,0,1-.28-.69c-.07-.33-.11-.67-.16-1a5.72,5.72,0,0,0-.3-1.44,1.47,1.47,0,0,0-1.29-.83,1.19,1.19,0,0,0-.53.13c-.8.4-1.28.83-1.15,1.73a33,33,0,0,1,.95,3.56c0,.2.17.85.48.85h.07l2.3-.76a.37.37,0,0,0,.25-.21c.13-.31-.11-.83-.34-1.33" transform="translate(-273.53 -270.64)" style="fill:#d81144"/><path id="path42" d="M425.12,387.26l-1,.95a19.18,19.18,0,0,0-3.32,3.58,10.41,10.41,0,0,0-1,1.75c0,.06-.1.2-.24.2a.26.26,0,0,1-.18-.09,5,5,0,0,1,.26-2.7,12.34,12.34,0,0,1,4.22-5.24,1.42,1.42,0,0,1,.74-.21.79.79,0,0,1,.79.47A1,1,0,0,1,425.12,387.26Zm-14.44,20.29a.65.65,0,0,1-.78.29,1.6,1.6,0,0,1-.67-.72c-.19-.34-.34-.63-.79-.59h-.07a1.87,1.87,0,0,0-1,.47c-.16.12-.79.6-1,.73a4.89,4.89,0,0,0-1.93,2.49c-.09.37-.09.37-.12.54a1.24,1.24,0,0,1-.43.91h0l-.13,0a.58.58,0,0,1-.37-.14.43.43,0,0,1-.18-.34,5.23,5.23,0,0,1,1.66-4.43,13.73,13.73,0,0,0,2-2.26c.3-.39.61-.79.93-1.16s.64,0,1.31.68a14.36,14.36,0,0,1,1.53,2.73,1,1,0,0,1,0,.75Zm-.75,12.1a1,1,0,0,1-.88.38,1.84,1.84,0,0,1-1-.28,2.39,2.39,0,0,1-.92-1.9.55.55,0,0,1,.61-.68,2.68,2.68,0,0,1,1.81.88S410.29,419,409.93,419.64Zm78.09,11a14.09,14.09,0,0,0-1.16-4.09l0-.07h-.07c-1.33.08-2.16-1-3-2-.26-.35-.51-.67-.78-1a12.22,12.22,0,0,0-1.28-1.24,4.46,4.46,0,0,1-1-1.09,13.48,13.48,0,0,1-.59-1.87c-.14-.52-.28-1-.4-1.35l-.08-.21c-.24-.64-.54-1.44-1.37-1.58A11.1,11.1,0,0,0,477,416a3.8,3.8,0,0,1-3-1.13,2.16,2.16,0,0,1,0-2.32,6.77,6.77,0,0,0,.33-1,9.29,9.29,0,0,0,.25-4.53c-.05-.2-.12-.41-.19-.6a3.22,3.22,0,0,1-.25-1.57.48.48,0,0,1,.51-.29,2.71,2.71,0,0,1,.68.13l.44.11a10.46,10.46,0,0,0,2.31.31,10.33,10.33,0,0,0,4-.82c2.32-1.13,4.61-3.67,4.49-6.81-.3-3.18-2.27-6.26-6-9.4l-.28-.24c-.49-.4-1.07-.91-1.09-1.36s1.15-.73,1.89-.89l.45-.11.19,0a8.33,8.33,0,0,0,2.69-1c2.67-1.8,2.57-5,2.27-6.71,0,0,0-.1,0-.17,0-.23-.11-.51-.32-.51a.3.3,0,0,0-.2.1l-.24.23a5.62,5.62,0,0,1-1,.84,9.4,9.4,0,0,1-2.86.92,15.64,15.64,0,0,0-1.88.48c-2.66.92-4.31,2.26-4.9,4a4,4,0,0,0,.45,3.14,21.16,21.16,0,0,0,3.34,3.74c1.92,1.84,3.9,3.73,4.36,6.31a3.81,3.81,0,0,1-1.86,3.86,5.61,5.61,0,0,1-2.91.73,8.86,8.86,0,0,1-4.06-1,42.59,42.59,0,0,1-4.51-2.76,28.5,28.5,0,0,0-7-3.77,16.14,16.14,0,0,0-3.46-1,10.91,10.91,0,0,1-4.75-1.76c-.47-.31-.94-.65-1.39-1a12.38,12.38,0,0,0-4-2.21,8.48,8.48,0,0,0-1.6-.34,4.77,4.77,0,0,1-2.24-.72l-.94-.69a26.24,26.24,0,0,0-3.57-2.33,28.16,28.16,0,0,0-6.73-2.1,3.46,3.46,0,0,1-1.79-1.41,5.7,5.7,0,0,0-1.16-1.17c-1.9-1.5-3.61-2.5-5.83-2.5l-.62,0a5.8,5.8,0,0,0-3.05,1.62c-2.21,1.94-4.59,3.66-6.89,5.32A63.62,63.62,0,0,0,405,392c-3,3.07-4.06,6.91-5.11,10.62-.16.55-.31,1.09-.47,1.64-.28,1-.54,2.06-.79,3.07-1.36,5.48-2.78,10.95-8.25,14.5a.46.46,0,0,0,.11.82,4.52,4.52,0,0,0,4.72-1.47c1.43-1.68,2.15-3.29,3.81-5.07.06-.05.25-.24.4-.19s.17.1.11.31a6.47,6.47,0,0,1-1.07,1.94,7.22,7.22,0,0,0-1.09,2c-.52,1.57-2,2.84-3.29,4a1.64,1.64,0,0,0-.33.28c-.12.15-.11.21-.11.21,0,.35.24.56.79.58h0c3.07,0,5.25-2.18,7.36-4.29a.47.47,0,0,1,.35-.13.61.61,0,0,1,.34.06,6.21,6.21,0,0,1,.71.61,5.25,5.25,0,0,0,2.33,1.44h0a22.89,22.89,0,0,1,3.16-.28c.3,0,.58,0,.83,0,1.12.34,2.24.76,3.32,1.17.76.29,1.55.58,2.34.85h0c1,0,1.75-1,2.29-1.83a2.87,2.87,0,0,0,0-1.75,4.19,4.19,0,0,1-.12-1,1.24,1.24,0,0,1,.72,0,3,3,0,0,0,.72,0,.62.62,0,0,0,.47-.75,6.58,6.58,0,0,0-1.23-2.44,7.74,7.74,0,0,1-1.09-2,7.79,7.79,0,0,0-1.74-2.46,6.24,6.24,0,0,1-1.78-2.74s-.07-.22,0-.3.29,0,.29,0c.37.27.73.57,1.09.86a8.38,8.38,0,0,0,3.82,2.14,23.92,23.92,0,0,0,4.31.18.57.57,0,0,0,.48-.73,22.21,22.21,0,0,1-1.54-4c-.31-1.08-1-3.94-.29-6.09a.36.36,0,0,1,.34-.28H422a.68.68,0,0,1,.43.56l0,.28c.2,2.93.4,5.7,2.19,8.06a4.9,4.9,0,0,0,1.83,1.56,4.45,4.45,0,0,1,1.31.93,1.82,1.82,0,0,1,.18,1.79l-2.2,3.24a7.12,7.12,0,0,0-1.21,2.35,8.24,8.24,0,0,0,0,2.38l0,.19a.41.41,0,0,1-.16-.18c-.89-1.61-1.07-3-.62-4,.29-.68,2.08-3.21,2.6-4,.17-.26.3-.53.16-.72a5,5,0,0,0-1.87-.8h-.07a1.43,1.43,0,0,0-.7.63l-.12.17-2.71,4.92-.06.18a2.54,2.54,0,0,0-.16,1.49c.15.74.38,1.53.55,2.11l.14.48a6.1,6.1,0,0,0,.85,2.1,1.15,1.15,0,0,0,.94.41,4,4,0,0,0,.62-.06,2.66,2.66,0,0,1,1,0,2.11,2.11,0,0,1,1,.73,2.44,2.44,0,0,0,1.06.79c.84.28,1.72.51,2.57.73a31.38,31.38,0,0,1,3.42,1,6.5,6.5,0,0,0,2,.39,2.56,2.56,0,0,0,1.8-.71,3.75,3.75,0,0,0,1.39-2.44c.18-.94.49-1,1.16-1a1.87,1.87,0,0,0,.7-.11,6.85,6.85,0,0,0,1.83-2.3,7.4,7.4,0,0,1,.43-.72,1.09,1.09,0,0,0,.21-.62.65.65,0,0,0-.67-.65h-.17s-2.9,0-3.69,0c-1.19.07-1.71,1.21-2.12,2.22a7.37,7.37,0,0,1-.51,1.08,1.79,1.79,0,0,1-1.68.89,7,7,0,0,1-1-.19c-1.56-.39-3.18-.78-3.84-2.33a1.4,1.4,0,0,1,.23-1.28,23.21,23.21,0,0,1,3.07-3.07,6.44,6.44,0,0,0,4-3,3,3,0,0,0,.37-.83,1.87,1.87,0,0,1,.68-1.12c.25-.13.46-.08.51.14a4.37,4.37,0,0,1-.46,2.36l-.2.51,0,.12h.13c.43,0,.88.07,1.33.07a25.91,25.91,0,0,0,4.63-.55,25.75,25.75,0,0,1,4.57-.54h.51c.7,0,1.38.06,2,.12s1.31.12,2,.12l.68,0c2-.09,3.48-1,3.91-2.45.42-1.23.37-3.36-.13-6.33,0-.14,0-.23,0-.25s0,0,0-.06a.29.29,0,0,1,.15-.3c.19-.1.39,0,.48.24a33,33,0,0,1,1.44,6.29,13,13,0,0,0,2.11,5.09,7.68,7.68,0,0,0,6.5,3.38,14.23,14.23,0,0,0,1.88-.2,5,5,0,0,1,.89,0,10.72,10.72,0,0,1,8.63,4.29.21.21,0,0,1,0,.14.24.24,0,0,1-.33.17l-.29-.23c-1.93-1.5-3.93-3-6.44-3.35a7.81,7.81,0,0,0-1.41-.12,18.65,18.65,0,0,0-2.12.16,17.35,17.35,0,0,1-2,.15,5.88,5.88,0,0,1-2.27-.41c-2.89-.95-5.24-4.27-6-6.33a.34.34,0,0,0-.3-.19.46.46,0,0,0-.24.08c-.33.21-.39.32-.44.53a18.45,18.45,0,0,0,.36,2.28c.38,1.57.64,3.42,3,4.94a7.48,7.48,0,0,0,3.69,1.65,4.55,4.55,0,0,0,1.28-.06,10.42,10.42,0,0,1,2.23-.24,11.7,11.7,0,0,1,6.82,2.29,6.38,6.38,0,0,1,1,.72,4.89,4.89,0,0,0,1.42.94,2.93,2.93,0,0,0,1.08.21,3.14,3.14,0,0,0,1.81-.6,1.83,1.83,0,0,1,.77-.19c.74,0,1.15.58,1.67,1.3a8.26,8.26,0,0,0,1.14,1.37,3.23,3.23,0,0,0,2.33.73c.4,0,.8,0,1.2-.06s.83,0,1.07-.06a3.25,3.25,0,0,0,.37-.06v-.09" transform="translate(-273.53 -270.64)" style="fill:#d81144"/><path id="path44" d="M363.46,379.05a20.7,20.7,0,1,1,20.7,20.7,20.7,20.7,0,0,1-20.7-20.7" transform="translate(-273.53 -270.64)" style="fill:#fff"/><path id="path46" d="M368.61,390.22A20.39,20.39,0,0,0,400.73,372a21.77,21.77,0,0,0-.63-3.52,19.15,19.15,0,0,1-31.49,21.78" transform="translate(-273.53 -270.64)" style="fill:#d2d3d1"/><path id="path48" d="M378.52,383.84c-4.47-1.08-7.53-2.16-7.53-2.16a47.14,47.14,0,0,1-.07-8.65c1.94-1,7.19-3.36,7.19-3.36A60.26,60.26,0,0,1,383,376.3C381.83,378.54,378.52,383.84,378.52,383.84ZM371.14,365a52.06,52.06,0,0,0-2.95,5.58c-1.12,1.4-2.09,2.82-2.51,3.45A19.15,19.15,0,0,1,371.14,365Zm20.09,11.14a50.12,50.12,0,0,1,3.69-6.34,36.37,36.37,0,0,1,5.7,3.32s.67,2.09.22,8.2a23.53,23.53,0,0,1-5.67,2.16S392.91,379.66,391.23,376.16Zm-8.69,14.35,8.28-.22,1.6,4.51a30.28,30.28,0,0,1-6.9,2.83,17.18,17.18,0,0,1-6.23-2.57Zm1.62-30.6a19.07,19.07,0,0,1,7.14,1.38,9,9,0,0,1-1.12,2.65,44.14,44.14,0,0,0-8.43-.11l-3.69-2.92A19.13,19.13,0,0,1,384.16,359.9Zm-12.27,33.85a19.14,19.14,0,0,1-6.41-10.48l3,3.1a70,70,0,0,0,4.17,6.75,4.71,4.71,0,0,1-.77.64" transform="translate(-273.53 -270.64)" style="fill:#0e1e3d"/><path id="path50" d="M350.75,474l7.85,3.78,3.78-7.84-2.62-1.26-2.52,5.23-2.62-1.26,10.91-22.62-2.62-1.26Zm19.86-12.61,2.86.51,1-5.72,2.78.5-9.58,20.85-.51,2.86,8.58,1.54,1.54-8.58-2.86-.51-1,5.72-2.78-.5,9.58-20.85.52-2.86-8.58-1.54Zm-18-15.73,2.28,1.8-6,7.59-2.28-1.79Zm-17.82,17.95,2.28,1.8,7.77-9.87,2.28,1.8-7.77,9.87,2.28,1.8,14.79-18.79a4.36,4.36,0,0,0-6.85-5.39Zm54.67,18.7,5.77-.69a2.89,2.89,0,0,0,2.54-3.23l-1-8.46c-.21-1.72-.86-2.23-1.59-2.42a2.23,2.23,0,0,0,1-2.37l-1-8.81a2.9,2.9,0,0,0-3.23-2.54l-5.77.69ZM389.37,457l2.89-.35,1.14,9.59-2.88.34Zm1.49,12.47,2.89-.34,1.14,9.59-2.89.34Zm15.88-20.59L404,450l9.33,23.33-2.69,1.08-9.33-23.32-2.7,1.08,8.88,22.19a4.36,4.36,0,0,0,8.09-3.23Zm20,20.36,2.35-1.7-7.35-10.19,2.36-1.7,6.13,8.5a4.79,4.79,0,0,0,1.73,1.32l2.42-1.75a4.12,4.12,0,0,1-1.79-1.27l-5.47-7.58c-1-1.4-1.83-1.53-2.57-1.34a2.23,2.23,0,0,0-.26-2.57l-5.19-7.2a2.9,2.9,0,0,0-4.06-.66l-4.71,3.4ZM414.43,447.2l2.36-1.7,5.65,7.83-2.36,1.7Zm24,5.56a4.36,4.36,0,1,0,5.39-6.85l-8.92-7-2.57,3.27,2.28,1.8.78-1,7.59,6-1.8,2.28-17.47-13.74,1.8-2.28,3.45,2.72,1.8-2.28-2.5-2a4.36,4.36,0,1,0-5.39,6.85ZM347.7,435.42a4.66,4.66,0,0,1-.83,5l-3.06,2.46L342,440.57c1.08-1,2.35-1.85,3.5-2.82l-1.74-2.31-7.7,5.92c.92,1.67,2.94,3,2.16,5.17l-.16.73-8.23,6.35a4.49,4.49,0,0,1-3.7.18,4.54,4.54,0,0,1-2.68-3.35,4.67,4.67,0,0,1,1.59-4.33c.86-.68,1.75-1.32,2.61-2a28.68,28.68,0,0,1,1.78,2.38c-1.12.93-2.31,1.78-3.46,2.71l1.71,2.34c2.57-1.89,5.14-4,7.74-6-1.06-1.74-3.37-3.47-1.93-5.72l.64-.75,7.48-5.7a4.41,4.41,0,0,1,4.21,0,5,5,0,0,1,1.86,2" transform="translate(-273.53 -270.64)" style="fill:#0e1e3d"/><path id="path52" d="M406.67,286.9H389.91l-5.41-16.25-5.41,16.25H362.32l13.74,9.65L371,312.6l13.54-9.88L398,312.6l-5.12-16.06,13.74-9.65" transform="translate(-273.53 -270.64)" style="fill:#fff"/><path id="path54" d="M384.5,300.45l10.1,7.37-3.83-12,10.1-7.09H388.59l-4.09-12.29-4.09,12.29H368.12l10.1,7.09-3.82,12,10.1-7.37" transform="translate(-273.53 -270.64)" style="fill:#fbc715"/><path id="path56" d="M384.5,300.45l10.1,7.37-3.83-12,10.1-7.09H388.59l-4.09-12.29-4.09,12.29H368.12l10.1,7.09-3.82,12,10.1-7.37" transform="translate(-273.53 -270.64)" style="fill:#fbc715"/></g></g></svg>