<svg xmlns="http://www.w3.org/2000/svg" viewBox="0 0 135.3 167.69"><defs><style>.a{fill:#fff;}.b{fill:#e2231a;}.c{fill:#231f20;}</style></defs><title>Club Atletico River Plate logo</title><path class="a" d="M509.73,593a71,71,0,0,1-23.85-16.85c-16.43-17.27-25.91-42.53-27.39-73.06-1.19-24.47-7.45-39.58-10.09-44.95l-1.93-3.92,24.46-24,3.82,1.81c3.56,1.69,14.32,5.62,37.26,5.65s33.69-4,37.25-5.65l3.82-1.81,24.46,24-1.93,3.92c-2.63,5.36-8.89,20.48-10.09,44.95-1.49,30.53-11,55.79-27.39,73.05A71,71,0,0,1,514.27,593L512,594Z" transform="translate(-444.35 -428.16)"/><path class="b" d="M512,461.35a39.64,39.64,0,0,1,38.06,28.58l20.48-35.3-18.39-18.05-.45.22C547,439,536,442.7,514.08,442.94l-11.36,19.52a39.7,39.7,0,0,1,9.28-1.1" transform="translate(-444.35 -428.16)"/><path class="b" d="M512,540.63a39.65,39.65,0,0,1-38.09-28.68l-7.3,12.54c3.91,19.52,11.8,35.86,23.3,47.94a73,73,0,0,0,8.06,7.3l23.33-40.22a39.7,39.7,0,0,1-9.29,1.11" transform="translate(-444.35 -428.16)"/><path class="c" d="M536.05,475.26a35.51,35.51,0,0,0-5.84-4.42v60.32a35.51,35.51,0,0,0,5.84-4.42v-7s11.22-4.62,11.22-18.76a35.14,35.14,0,0,0-11.22-25.74m0,36.51V485.28A28.48,28.48,0,0,1,540.76,501c0,8.75-4.71,10.78-4.71,10.78" transform="translate(-444.35 -428.16)"/><path class="c" d="M501.25,474.33a28.51,28.51,0,0,1,5.84-1.65v-6.61a35,35,0,0,0-5.84,1.33,35.26,35.26,0,0,0,5.84,68.51V529.3a28.49,28.49,0,0,1-5.84-1.65,28.73,28.73,0,0,1,0-53.31" transform="translate(-444.35 -428.16)"/><path class="c" d="M501.25,478.34a25,25,0,0,0-3.72,43.1v-9.07a18.4,18.4,0,0,1-3.74-8.46h7.46v19.73a24.85,24.85,0,0,0,5.84,2V476.38a24.87,24.87,0,0,0-5.84,2m0,19.73H493.8A18.47,18.47,0,0,1,501.25,486Z" transform="translate(-444.35 -428.16)"/><path class="c" d="M521.56,516.71l.27-.16.62-.41.09-.06.6-.44a8.29,8.29,0,0,0,3.54-6.84V473.58c0-5.6-4.24-6.5-8.47-7.3a35.08,35.08,0,0,0-7.64-.53v70.47c.48,0,1,0,1.43,0a35.41,35.41,0,0,0,4.41-.28V518.86l6.77,15.58a35.05,35.05,0,0,0,5.46-2.36Zm-5.16-44.1a28.51,28.51,0,0,1,4.43,1v35a11.76,11.76,0,0,1-4.43,3.17Z" transform="translate(-444.35 -428.16)"/><path class="c" d="M509.07,594.66a72.83,72.83,0,0,1-24.46-17.26c-16.72-17.57-26.36-43.22-27.87-74.17-1.18-24.14-7.32-39-9.91-44.27l-2.48-5.05,26.23-25.75,4.92,2.33c3.45,1.64,13.93,5.45,36.51,5.48s33-3.85,36.5-5.48l4.92-2.33,26.23,25.75L577.17,459c-2.59,5.27-8.73,20.12-9.91,44.27-1.51,30.95-11.15,56.59-27.87,74.17a72.82,72.82,0,0,1-24.46,17.26L512,595.84Zm3.09-2.55,1.66-.67A69.35,69.35,0,0,0,537.11,575c16.16-17,25.47-41.88,26.94-72,1.21-24.77,7.57-40.14,10.25-45.59l1.41-2.86-22.8-22.39-2.78,1.32c-4.55,2.16-15.52,5.78-38,5.81s-33.41-3.66-38-5.81l-2.78-1.32-22.8,22.39,1.41,2.86c2.68,5.45,9,20.82,10.25,45.59,1.47,30.13,10.79,55,26.94,72a69.35,69.35,0,0,0,23.28,16.46Z" transform="translate(-444.35 -428.16)"/></svg>