<?xml version="1.0" encoding="UTF-8"?><svg id="uuid-1689cc18-1602-4f74-82ed-8c56773fc06c" xmlns="http://www.w3.org/2000/svg" viewBox="0 0 196.29 287.28">
<title>Seattle Sounders FC 2008-2023 logo - Brandlogos.net</title><path d="M196.29,71.62s-11.16,1.68-27.65,2.11c0,0,2.1-20.4,1.21-48.49L98.15,0,26.46,25.24c-.91,28.1,1.21,48.49,1.21,48.49-16.48-.43-27.67-2.11-27.67-2.11,0,0,7.85,13.49,11.86,26.35-5.66,2.27-10.2,4.66-10.2,4.66v68.7s5.34-3.19,11.94-6.18c-1.69,4.3-3.39,7.35-3.39,7.35,0,0,62.04,30.83,87.93,114.79,25.91-83.96,87.94-114.79,87.94-114.79,0,0-1.69-3.05-3.39-7.35,6.61,2.99,11.93,6.18,11.93,6.18v-68.7s-4.53-2.38-10.16-4.66c3.98-12.86,11.81-26.35,11.81-26.35M190.83,104.97v59.87s-5.06-2.79-14.11-6.37c2,8.05,4.26,12.43,4.26,12.43,0,0-57.09,29.89-82.82,104.66C72.44,200.79,15.35,170.9,15.35,170.9c0,0,2.26-4.38,4.24-12.43-9.04,3.57-14.11,6.37-14.11,6.37v-59.87s3.98-2.03,11.15-4.78c-4.45-13.96-9.8-23.94-9.8-23.94,0,0,10.18,1.18,25.01,1.41-1.47-15.1-2.08-31.6-1.64-49.68L98.15,4.03l67.96,23.94c.46,18.07-.17,34.58-1.63,49.68,14.83-.23,25.01-1.41,25.01-1.41,0,0-5.38,9.98-9.8,23.94,7.14,2.75,11.13,4.78,11.13,4.78" style="fill:#fff;"/><path d="M24.71,97.26c-1.32-4.12-2.73-7.95-4.12-11.41,4.03.19,8.11.33,12.17.39-.11-.89-.2-1.81-.31-2.7-6.26-.08-11.68-.33-15.98-.6,1.75,4.09,3.8,9.28,5.69,15.18.81-.28,1.66-.59,2.55-.87" style="fill:#fff;"/><path d="M167.19,155c.91,4.85,2.04,8.95,3.14,12.26-15.66,10.05-49.66,36.27-72.18,85.4-22.52-49.13-56.52-75.35-72.16-85.4,1.1-3.31,2.22-7.41,3.12-12.26-1.01.33-2,.68-2.94,1.01-1.07,5.27-2.36,9.44-3.42,12.39,13.39,8.3,52.1,36,75.41,90.8,23.32-54.8,62.01-82.5,75.4-90.8-1.07-2.96-2.33-7.13-3.4-12.39-.94-.33-1.93-.68-2.96-1.01" style="fill:#fff;"/><path d="M171.6,97.26c.88.28,1.73.58,2.56.87,1.89-5.9,3.93-11.1,5.67-15.18-4.28.27-9.7.52-15.95.6-.11.89-.2,1.81-.34,2.7,4.08-.06,8.14-.2,12.17-.39-1.39,3.46-2.79,7.29-4.12,11.41" style="fill:#fff;"/><path d="M45.16,91.36c-2.37-16.35-3.7-34.7-3.48-55.18l53.03-18.68-.99,13.09-.58.8c-1.83.69-3.71,1.75-5.45,3.23-1.22,1.13-2.31,2.89-2.6,4.72-6.35,1.25-11.92,3.53-14.78,6.86-4.44,1.83-9.55,4.8-9.55,9.37,0,3.97,4.02,6.75,7.73,8.58,0,5.09,7.33,7.59,11.25,8.68l1.77,12.81c.98-.08,1.93-.15,2.92-.22l-2.09-14.93c-5.93-1.41-10.92-3.72-10.92-6.34,0-.58.2-1.14.58-1.69-4.82-1.87-7.74-4.27-7.74-6.89s2.96-5.08,7.86-6.95c2.2-3.16,8.32-5.71,16.25-6.9-1.47-2.29,1.27-4.93,1.27-4.93,1.75-1.5,3.56-2.4,5.31-2.94l1.65-2.24,1.02-14.22c.52-2,1.1,0,1.1,0l1.02,14.22,1.26,1.73c4.6,1.33,6.41,3.59,6.41,3.59l-.94-.08c-4.21.53-5.35,2.75-5.18,4.25,11.11.49,20.15,3.53,22.94,7.52,4.9,1.87,7.86,4.3,7.86,6.95s-2.91,5.02-7.75,6.89c.4.55.61,1.11.61,1.69,0,2.62-4.99,4.93-10.93,6.34l-2.09,14.93c.99.07,1.96.14,2.92.22l1.78-12.81c3.93-1.09,11.25-3.59,11.25-8.68,3.71-1.83,7.72-4.61,7.72-8.58,0-4.58-5.1-7.55-9.54-9.37-2.85-3.33-8.45-5.61-14.78-6.86-.29-1.83-1.37-3.59-2.6-4.72-1.75-1.48-3.63-2.54-5.45-3.23l-.59-.8-.99-13.09,53.03,18.68c.22,20.48-1.1,38.82-3.47,55.18,1.27.32,2.54.63,3.76.95,2.54-17.4,3.93-36.94,3.6-58.9l-60.37-21.28-60.36,21.28c-.32,21.96,1.06,41.5,3.58,58.9,1.24-.32,2.5-.64,3.78-.95" style="fill:#fff;"/><path d="M84.57,144.04c-1.17,13.43-3.35,27.57-5.87,41.21-6.3-9.37-13.24-21.92-19.4-38.07-1.33.25-2.63.5-3.91.76,17.83,47.21,42.76,65.1,42.76,65.1,0,0,24.95-17.89,42.76-65.1-1.28-.26-2.59-.51-3.9-.76-6.14,16.15-13.1,28.7-19.4,38.07-2.54-13.64-4.7-27.77-5.87-41.21-1.06-.05-2.14-.13-3.22-.17,1.28,15.04,4.11,32.23,6.5,45.12-1.59,2.24-3.12,4.26-4.57,6.09-1.68-8.38-3.45-17.42-4.76-24.52-.3-1.66-.73-2.62-1.46-2.51-.58.08-.84.85-.92,2.71l-2.27,34.7c-1.82,1.72-2.88,2.55-2.88,2.55,0,0-1.04-.83-2.86-2.55l-2.27-34.7c-.07-1.86-.35-2.63-.93-2.71-.72-.1-1.15.85-1.45,2.51-1.33,7.1-3.08,16.14-4.76,24.52-1.45-1.83-3-3.85-4.58-6.09,2.38-12.89,5.21-30.08,6.5-45.12-1.08.04-2.17.12-3.23.17" style="fill:#fff;"/><path d="M119.46,62.23c.88-2.34-.25-4.91-2.29-6.87-.31-1.25.71-1.63.71-1.63,1.06.85,2.09,1.79,3.04,2.82,2.43-6.39-11.2-13.75-19.41-8.11,0,0,6.71-.55,13.62,3.42.3,1-.73,1.53-.73,1.53-2.84-1.47-6.26-1.81-8.77.11,0,0,8.9,2.54,13.84,8.73" style="fill:#fff;"/><path d="M108.41,85.24l1.05-12.74s.33-1.42-1.38-1.1l-3.3.53c-1.41.23-1.18,1.52-1.18,1.52v11.64c1.62.03,3.23.09,4.81.16" style="fill:#fff;"/><path d="M88.23,71.39c-1.72-.31-1.39,1.1-1.39,1.1l1.06,12.74c1.59-.07,3.18-.13,4.79-.16v-11.63s.24-1.29-1.17-1.52l-3.3-.53Z" style="fill:#fff;"/><path d="M11.37,108.67v46.83s37.05-17.77,86.78-17.77,86.79,17.77,86.79,17.77v-46.83s-37.06-17.78-86.79-17.78S11.37,108.67,11.37,108.67M50.72,109.13l2.25-.44c.01.85.33.87,1,.75l2.74-.53c.48-.09.98-.25.98-.88,0-.71-.28-.7-3.18-.15-3.39.66-3.77.29-3.77-1.72,0-1.47.12-2.65,2.96-3.19l3.14-.6c2.59-.51,2.83.42,2.83,1.86v.25l-2.26.45c0-.61-.05-.84-1.09-.64l-2.48.49c-.52.1-.86.35-.86.79,0,.72.28.7,2.68.21,3.51-.7,4.32-.61,4.32,1.75,0,2.2-.67,2.71-3.67,3.27l-2.72.54c-2.06.39-2.88.11-2.88-1.64v-.57ZM21.38,144.75c-2.16.8-4.75.85-6.41.29l1.23-4.72c1.51.62,3.51.67,5.31,0,1.55-.57,2.15-1.56,2.15-2.56,0-1.07-.5-1.6-3.4-1.77-3.35-.22-4.52-1.88-4.52-4.32,0-2.97,2.27-6.68,6.71-8.32,2.06-.75,4.2-.78,5.31-.37l-1.11,4.63c-1.09-.41-2.86-.62-4.2-.12-1.63.6-2.26,1.65-2.26,2.47,0,1.34.94,1.43,3.32,1.63,3.56.29,4.62,1.75,4.62,4.36,0,3.23-2.2,7.14-6.76,8.81M38.23,138.58c-5.52,1.42-9.03-2.08-9.03-7.9s3.68-11.23,9.19-12.65c5.48-1.43,9.02,2.07,9.02,7.92s-3.7,11.18-9.18,12.63M63.45,114.58v9.78c0,5.54-2.68,8.89-7.23,9.68-4.51.79-7.03-1.58-7.03-7.02v-11.35l3.91-.83v11.12c0,2.82,1,4.31,3.22,3.89,2.22-.39,3.23-2.28,3.23-5.1v-11.11l5.42-.85-1.52,1.79ZM66.68,100.73l8.01-.98v1.9l-5.77.71v1.3l5.47-.66-.77,1.78-4.7.57v1.32l5.9-.73v1.96l-8.14,1.01v-8.17ZM81.96,130.09l-12.23-9.66,1.85,2.71v7.51l-4.59.55v-19.29l10.41,8.64v-9.32l4.56-.37v19.23ZM83.26,107.24l-2.51.17,3.98-8.41,2.92-.22,4.04,7.87-2.51.17-.7-1.4-4.56.33-.65,1.48ZM98.61,122.5c0,5.04-3.9,6.78-5.94,6.74-3.76.11-6.69.16-6.69.16v-16.84l-1.65-1.86s4.74-.3,8.91-.36c2.6.14,5.38,1.1,5.38,5.99v6.16ZM114.09,114.91l-7.38-.45v3.64s6.19.56,6.19.56l-2.09,3.18-4.11-.37v3.96l7.39.59v3.81l-11.75-.69v-9.61l-2.15-2,2.15.21v-7.34l11.75.6v3.91ZM175.55,125.12c2.08.77,4.01,2.14,5.62,3.77l-1.27,3.36c-1.33-1.29-2.84-2.32-4.3-2.86-3.36-1.25-5.45.24-5.45,3.87s2.09,6.62,5.45,7.87c1.46.51,3.14.59,4.49.18l1.24,4.29c-1.56.54-3.72.46-5.79-.3-5.85-2.12-9.84-7.87-9.84-13.66s3.99-8.65,9.84-6.53M154.28,126.07v-8.32l11.58,3.1v4.19l-7.34-1.96v4.12l6.35,1.7-2.11,2.83-4.24-1.12v7.99l-4.24-1.15v-9.58l-2.13-2.36,2.13.57ZM135.76,102.05l8.01,1.55v1.89l-5.77-1.13v1.33l5.47,1.05-.93,1.5-4.54-.87v1.32l5.92,1.15v1.95l-8.15-1.57v-8.15ZM138.1,125.03c-3.24-1.98-4.4-4.12-4.45-6.43-.05-2.75,2.06-5,6.35-4.17,2,.39,4.05,1.52,5.13,2.46l-1.01,3.73c-1.04-.97-2.76-2.09-4.05-2.34-1.56-.31-2.16.31-2.15,1.11.02,1.23.95,1.81,3.27,3.28,3.46,2.18,4.5,4.08,4.56,6.52.05,3.03-2.02,5.47-6.43,4.62-2.05-.42-4.57-1.75-6.19-3.15l1.1-3.75c1.49,1.4,3.44,2.5,5.16,2.85,1.49.28,2.05-.33,2.05-1.26-.03-.97-.51-1.75-3.32-3.46M132.01,132.06l-4.8-.8-3.33-7.47-1.95-.31v7.11l-4.12-.46v-16.77l-2.02-2.2,9.7,1.05c3.78.56,5.72,3.65,5.72,6.86.01,2.53-1.42,4.05-3.12,4.56l3.92,8.43ZM123.38,100.14l2.26.34v6.04l5.04.71v2.09l-7.3-1.01v-8.18ZM108.89,98.91l8.6.62v2.02l-3.18-.22v6.12l-2.23-.16v-6.12l-3.19-.22v-2.04ZM104.51,100.78l-3.15-.07v6.15l-2.24-.04v-6.13l-3.17-.05v-2.04l8.56.15v2.04Z" style="fill:#fff;"/><path d="M38.3,122.16c-2.82.74-4.71,3.8-4.71,7.37s1.89,5.65,4.71,4.92c2.81-.73,4.71-3.81,4.71-7.36s-1.9-5.65-4.71-4.93" style="fill:#fff;"/><path d="M90.01,114.17v11.15l1.81-.07c2.44.07,3.02-1.41,3.02-2.81v-5.15c0-3.85-2.5-2.95-4.82-3.11" style="fill:#fff;"/><path d="M124.83,116.08l-2.92-.43v4.2l3.05.46c.2.04.37.04.53.04,1.05-.07,1.58-.69,1.61-1.77,0-1.24-.88-2.27-2.27-2.5" style="fill:#fff;"/><polygon points="84.77 103.95 87.64 103.73 86.19 100.77 84.77 103.95" style="fill:#fff;"/><path d="M45.16,91.36c10.56-2.53,22.84-4.71,36.33-5.72l-1.77-12.81c-3.91-1.09-11.25-3.59-11.25-8.68-3.71-1.83-7.73-4.61-7.73-8.58,0-4.58,5.11-7.55,9.55-9.37,2.86-3.33,8.44-5.61,14.78-6.86.29-1.83,1.38-3.59,2.6-4.72,1.75-1.48,3.62-2.54,5.45-3.23l.58-.8.99-13.09-53.03,18.68c-.22,20.48,1.11,38.82,3.48,55.18" style="fill:#648c3d;"/><path d="M154.63,36.19l-53.03-18.68.99,13.09.6.8c1.83.69,3.7,1.74,5.45,3.23,1.24,1.13,2.32,2.88,2.6,4.72,6.33,1.25,11.93,3.53,14.78,6.86,4.44,1.83,9.54,4.8,9.54,9.37,0,3.97-4,6.75-7.72,8.59,0,5.09-7.32,7.59-11.25,8.68l-1.78,12.81c13.5,1.01,25.77,3.18,36.34,5.72,2.38-16.36,3.69-34.7,3.47-55.18" style="fill:#648c3d;"/><path d="M78.7,185.25c2.52-13.64,4.7-27.78,5.87-41.21-9.01.58-17.49,1.71-25.27,3.14,6.16,16.15,13.1,28.7,19.4,38.07" style="fill:#648c3d;"/><path d="M117.6,185.25c6.3-9.37,13.26-21.92,19.4-38.07-7.79-1.43-16.25-2.56-25.27-3.14,1.17,13.43,3.33,27.57,5.87,41.21" style="fill:#648c3d;"/><path d="M163.54,86.24c-.33,2.76-.69,5.47-1.07,8.13,3.28.96,6.34,1.95,9.13,2.89,1.32-4.12,2.73-7.95,4.12-11.41-4.04.19-8.1.33-12.17.39" style="fill:#266092;"/><path d="M32.77,86.24c-4.07-.06-8.14-.2-12.17-.39,1.39,3.46,2.81,7.29,4.12,11.41,2.79-.94,5.85-1.93,9.14-2.89-.39-2.67-.76-5.38-1.09-8.13" style="fill:#266092;"/><path d="M148.66,149.67c-20.18,54.32-50.51,72.9-50.51,72.9,0,0-30.33-18.59-50.52-72.9-6.92,1.66-13.13,3.49-18.52,5.33-.91,4.85-2.02,8.95-3.12,12.26,15.64,10.05,49.64,36.27,72.16,85.4,22.52-49.13,56.52-75.35,72.17-85.4-1.1-3.31-2.23-7.41-3.14-12.26-5.4-1.83-11.61-3.67-18.52-5.33" style="fill:#266092;"/><path d="M190.83,104.97s-3.99-2.04-11.14-4.78c4.43-13.96,9.81-23.95,9.81-23.95,0,0-10.18,1.19-25.01,1.42,1.46-15.1,2.09-31.6,1.63-49.68L98.15,4.03,30.2,27.97c-.44,18.08.17,34.58,1.63,49.68-14.82-.23-25-1.42-25-1.42,0,0,5.34,9.99,9.8,23.95-7.16,2.74-11.15,4.78-11.15,4.78v59.87s5.07-2.79,14.11-6.37c-1.98,8.06-4.24,12.43-4.24,12.43,0,0,57.09,29.89,82.79,104.66,25.73-74.77,82.82-104.66,82.82-104.66,0,0-2.26-4.37-4.26-12.43,9.05,3.58,14.11,6.37,14.11,6.37v-59.87ZM163.54,86.24c.13-.89.22-1.81.34-2.71,6.25-.08,11.67-.33,15.95-.59-1.74,4.08-3.78,9.28-5.67,15.18-.83-.28-1.69-.6-2.56-.87-2.78-.94-5.84-1.93-9.13-2.89.38-2.67.75-5.38,1.07-8.13M37.8,33.42l60.35-21.28,60.37,21.28c.32,21.95-1.06,41.5-3.6,58.9-1.22-.32-2.48-.64-3.76-.95-10.57-2.53-22.84-4.71-36.34-5.72-.97-.08-1.93-.15-2.92-.22l2.09-14.93c5.93-1.41,10.92-3.72,10.92-6.34,0-.58-.2-1.14-.6-1.69,4.85-1.87,7.75-4.28,7.75-6.89s-2.96-5.08-7.86-6.96c-2.79-3.99-11.83-7.02-22.94-7.52-.16-1.5.97-3.72,5.18-4.25l.94.08s-1.81-2.26-6.41-3.59l-1.25-1.73-1.02-14.22s-.58-1.99-1.1,0l-1.02,14.22-1.65,2.24c-1.75.55-3.57,1.45-5.31,2.95,0,0-2.74,2.63-1.28,4.93-7.93,1.19-14.05,3.74-16.25,6.89-4.9,1.88-7.86,4.31-7.86,6.96s2.92,5.02,7.74,6.89c-.38.55-.58,1.1-.58,1.69,0,2.62,4.98,4.93,10.92,6.34l2.09,14.93c-1,.07-1.95.14-2.92.22-13.49,1.01-25.78,3.19-36.33,5.72-1.28.31-2.54.63-3.78.95-2.53-17.4-3.91-36.95-3.58-58.9M86.84,72.49s-.33-1.42,1.39-1.1l3.3.53c1.41.23,1.17,1.52,1.17,1.52v11.63c-1.61.02-3.21.09-4.79.16l-1.06-12.74ZM117.16,55.36c2.05,1.96,3.18,4.52,2.29,6.87-4.94-6.19-13.83-8.73-13.83-8.73,2.51-1.91,5.93-1.58,8.77-.11,0,0,1.04-.53.73-1.53-6.91-3.97-13.62-3.42-13.62-3.42,8.21-5.65,21.85,1.73,19.41,8.11-.95-1.03-1.97-1.97-3.04-2.82,0,0-1.01.38-.71,1.63M104.78,71.92l3.31-.53c1.7-.31,1.37,1.1,1.37,1.1l-1.04,12.74c-1.59-.07-3.19-.13-4.81-.16v-11.63s-.24-1.29,1.17-1.52M16.48,82.95c4.3.26,9.72.51,15.98.59.11.89.2,1.81.31,2.71.33,2.76.7,5.46,1.1,8.13-3.3.96-6.35,1.95-9.14,2.89-.88.27-1.74.58-2.55.87-1.9-5.9-3.94-11.1-5.69-15.18M173.55,168.4c-13.39,8.31-52.08,36-75.41,90.8-23.3-54.8-62.01-82.49-75.4-90.8,1.06-2.95,2.35-7.12,3.42-12.39.94-.33,1.92-.68,2.94-1.01,5.4-1.83,11.61-3.67,18.52-5.33,20.18,54.32,50.51,72.9,50.51,72.9,0,0,30.33-18.59,50.52-72.9,6.91,1.66,13.13,3.49,18.52,5.33,1.02.33,2.02.67,2.96,1.01,1.07,5.27,2.33,9.44,3.4,12.39M85.89,195.08c1.68-8.38,3.42-17.42,4.76-24.52.3-1.66.73-2.61,1.45-2.51.58.08.87.85.93,2.7l2.27,34.7c1.82,1.73,2.85,2.55,2.85,2.55,0,0,1.06-.83,2.88-2.55l2.27-34.7c.07-1.86.33-2.63.92-2.7.73-.1,1.16.85,1.46,2.51,1.32,7.1,3.09,16.14,4.76,24.52,1.46-1.83,2.98-3.85,4.57-6.09-2.38-12.89-5.22-30.08-6.5-45.12,1.09.04,2.17.12,3.23.17,9.02.58,17.48,1.71,25.27,3.14,1.31.25,2.62.5,3.9.76-17.81,47.21-42.76,65.1-42.76,65.1,0,0-24.92-17.89-42.75-65.1,1.28-.26,2.58-.51,3.91-.76,7.78-1.43,16.25-2.56,25.27-3.14,1.07-.05,2.15-.12,3.23-.17-1.29,15.04-4.12,32.23-6.5,45.12,1.59,2.24,3.13,4.26,4.58,6.09M184.94,155.5s-37.06-17.77-86.79-17.77-86.78,17.77-86.78,17.77v-46.83s37.05-17.78,86.78-17.78,86.79,17.78,86.79,17.78v46.83Z" style="fill:#1e252c;"/><polygon points="74.82 105.93 68.92 106.66 68.92 105.34 73.62 104.77 74.39 102.99 68.92 103.65 68.92 102.35 74.7 101.64 74.7 99.74 66.68 100.73 66.68 108.89 74.82 107.89 74.82 105.93" style="fill:#1e252c;"/><path d="M38.4,118.03c-5.51,1.42-9.19,6.81-9.19,12.65s3.51,9.32,9.02,7.9c5.49-1.45,9.18-6.79,9.18-12.63s-3.54-9.35-9.01-7.91M38.3,134.45c-2.82.74-4.71-1.37-4.71-4.91s1.89-6.63,4.71-7.37c2.81-.72,4.71,1.37,4.71,4.93s-1.9,6.63-4.71,7.36" style="fill:#1e252c;"/><path d="M59.55,124.74c0,2.82-1.01,4.71-3.23,5.1-2.22.43-3.22-1.07-3.22-3.89v-11.12l-3.91.83v11.35c0,5.44,2.52,7.81,7.03,7.02,4.54-.79,7.23-4.14,7.23-9.68v-9.78l1.52-1.79-5.42.85v11.11Z" style="fill:#1e252c;"/><path d="M23.51,131.58c-2.38-.2-3.32-.29-3.32-1.62,0-.83.64-1.88,2.26-2.47,1.34-.5,3.1-.28,4.2.12l1.11-4.62c-1.11-.41-3.24-.38-5.31.37-4.45,1.64-6.71,5.35-6.71,8.33,0,2.43,1.18,4.09,4.52,4.31,2.9.16,3.4.7,3.4,1.77,0,1-.6,1.99-2.15,2.56-1.8.67-3.8.61-5.31,0l-1.23,4.72c1.66.56,4.25.51,6.41-.29,4.56-1.68,6.76-5.58,6.76-8.82,0-2.6-1.06-4.06-4.62-4.36" style="fill:#1e252c;"/><polygon points="130.68 107.24 125.63 106.52 125.63 100.49 123.38 100.14 123.38 108.32 130.68 109.33 130.68 107.24" style="fill:#1e252c;"/><polygon points="143.92 109.82 138 108.67 138 107.35 142.54 108.23 143.47 106.72 138 105.68 138 104.35 143.78 105.48 143.78 103.59 135.76 102.05 135.76 110.2 143.92 111.77 143.92 109.82" style="fill:#1e252c;"/><path d="M53.6,111.34l2.72-.54c3-.56,3.67-1.06,3.67-3.27,0-2.36-.81-2.45-4.32-1.75-2.41.48-2.68.51-2.68-.21,0-.43.34-.69.86-.79l2.47-.49c1.05-.2,1.1.03,1.1.64l2.26-.45v-.25c0-1.43-.24-2.37-2.83-1.86l-3.14.6c-2.83.55-2.96,1.72-2.96,3.19,0,2.01.38,2.38,3.77,1.72,2.9-.56,3.18-.57,3.18.15,0,.62-.5.79-.98.88l-2.74.53c-.66.12-.98.11-.99-.75l-2.25.44v.57c0,1.74.82,2.03,2.88,1.64" style="fill:#1e252c;"/><polygon points="77.41 120.55 67 111.9 67 131.2 71.59 130.65 71.59 123.14 69.74 120.43 81.97 130.09 81.97 110.85 77.41 111.23 77.41 120.55" style="fill:#1e252c;"/><path d="M139.38,129.75c-1.73-.35-3.67-1.45-5.16-2.85l-1.1,3.75c1.62,1.41,4.14,2.73,6.19,3.16,4.4.85,6.48-1.6,6.43-4.62-.06-2.43-1.1-4.34-4.56-6.52-2.32-1.47-3.25-2.05-3.27-3.28,0-.79.6-1.42,2.15-1.1,1.3.26,3.01,1.38,4.05,2.34l1.01-3.73c-1.07-.94-3.13-2.07-5.13-2.47-4.29-.83-6.39,1.42-6.35,4.17.05,2.31,1.21,4.44,4.45,6.43,2.81,1.71,3.3,2.49,3.33,3.45,0,.93-.56,1.55-2.05,1.27" style="fill:#1e252c;"/><polygon points="112.08 107.3 114.32 107.47 114.32 101.34 117.49 101.56 117.49 99.54 108.89 98.91 108.89 100.95 112.08 101.18 112.08 107.3" style="fill:#1e252c;"/><polygon points="102.35 117.74 100.19 117.53 102.35 119.53 102.35 129.14 114.09 129.83 114.09 126.03 106.69 125.43 106.69 121.46 110.81 121.84 112.9 118.66 106.69 118.1 106.7 114.46 114.09 114.91 114.09 111 102.35 110.4 102.35 117.74" style="fill:#1e252c;"/><polygon points="95.95 100.64 99.11 100.69 99.11 106.82 101.36 106.86 101.36 100.72 104.52 100.78 104.52 98.74 95.95 98.6 95.95 100.64" style="fill:#1e252c;"/><path d="M175.55,145.31c2.06.76,4.23.84,5.79.3l-1.24-4.29c-1.36.41-3.03.33-4.49-.18-3.36-1.24-5.45-4.24-5.45-7.87s2.09-5.13,5.45-3.87c1.46.54,2.97,1.57,4.3,2.86l1.27-3.36c-1.61-1.63-3.54-3.01-5.62-3.77-5.85-2.13-9.84.71-9.84,6.53s3.99,11.54,9.84,13.66" style="fill:#1e252c;"/><path d="M131.21,119.07c0-3.21-1.93-6.3-5.72-6.85l-9.7-1.06,2.02,2.2v16.77l4.11.46v-7.11l1.96.3,3.33,7.47,4.8.8-3.91-8.42c1.69-.51,3.13-2.03,3.12-4.57M125.49,120.34c-.16,0-.33,0-.53-.04l-3.06-.46v-4.2l2.93.43c1.39.23,2.27,1.25,2.27,2.5-.03,1.07-.56,1.69-1.61,1.76" style="fill:#1e252c;"/><path d="M89.18,106.83l2.51-.17-4.04-7.87-2.92.22-3.98,8.41,2.51-.17.65-1.49,4.56-.32.7,1.4ZM84.77,103.95l1.42-3.17,1.45,2.95-2.87.22Z" style="fill:#1e252c;"/><polygon points="154.28 137.44 158.52 138.59 158.52 130.6 162.77 131.73 164.88 128.89 158.52 127.19 158.52 123.07 165.87 125.04 165.87 120.84 154.28 117.74 154.28 126.06 152.15 125.5 154.28 127.86 154.28 137.44" style="fill:#1e252c;"/><path d="M93.23,110.34c-4.17.06-8.91.36-8.91.36l1.65,1.86v16.84s2.93-.05,6.69-.16c2.05.04,5.94-1.7,5.94-6.74v-6.17c0-4.88-2.78-5.85-5.38-5.99M94.83,122.43c0,1.41-.58,2.89-3.02,2.81l-1.81.08v-11.15c2.33.16,4.82-.74,4.82,3.11v5.15Z" style="fill:#1e252c;"/><polygon points="119.41 245.95 121.41 245.95 121.41 251.97 122.14 251.97 122.14 245.95 124.24 245.95 124.24 245.23 119.41 245.23 119.41 245.95" style="fill:#fff;"/><polygon points="128.1 250.71 126.38 245.23 125.21 245.23 125.21 251.97 125.94 251.97 125.94 246.24 127.74 251.97 128.47 251.97 130.28 246.24 130.28 251.97 131 251.97 131 245.23 129.84 245.23 128.1 250.71" style="fill:#fff;"/></svg>