<?xml version="1.0" encoding="UTF-8"?><svg id="uuid-5cf5b4dc-a844-44bb-9d69-af3452889a26" xmlns="http://www.w3.org/2000/svg" viewBox="0 0 344.57 290.07">
<title>Mamelodi Sundowns FC logo - Brandlogos.net</title><g id="uuid-96c641ce-3aee-4ad8-a319-f15dad6725a3"><g id="uuid-1cd68732-a44c-4df2-b1c6-167c2fb010e6"><g id="uuid-1432adb3-2397-414f-a408-c4b5d108805b"><g id="uuid-12c5c318-2724-4c25-baf7-50b5f84047be"><polygon id="uuid-1b716ae6-a17b-4946-9610-a73b31ccb821" points="171.06 0 176 15.25 192.04 15.24 179.06 24.66 184.02 39.91 171.06 30.48 158.09 39.91 163.05 24.66 150.08 15.24 166.11 15.25 171.06 0" style="fill:#00a04a;"/><polygon id="uuid-46a11ada-d55d-48b2-b229-dea5cc40aa64" points="190.91 15.61 178.63 24.52 183.33 38.95 171.06 30.02 158.79 38.95 163.48 24.52 151.2 15.61 166.38 15.62 171.06 1.19 175.74 15.62 190.91 15.61" style="fill:#ceac38;"/><g id="uuid-85a3ac46-fdb3-4a76-a573-38239db912ee"><polygon id="uuid-7e40a2ed-7f0d-4a6c-a1f3-85163ce20911" points="166.38 15.62 171.06 1.19 171.09 22.1 166.38 15.62" style="fill:none;"/><polygon id="uuid-a238f2a2-08c9-469a-88c1-1c6dee038395" points="166.38 15.62 171.09 22.1 151.2 15.61 166.38 15.62" style="fill:none;"/><polygon id="uuid-1dfd282b-a26c-4d7a-ade7-9b339dca4596" points="151.2 15.61 171.09 22.1 163.48 24.52 151.2 15.61" style="fill:none;"/><polygon id="uuid-1c464bf4-6721-4b00-9334-211719b9f7fd" points="158.79 38.95 171.06 30.02 171.09 22.1 158.79 38.95" style="fill:none;"/><polygon id="uuid-d40fd157-1647-44c3-98d1-4082e959d1e8" points="171.06 30.02 183.33 38.95 171.09 22.1 171.06 30.02" style="fill:none;"/><polygon id="uuid-391a0a51-7e64-4847-b114-8fd2d37aaf81" points="183.33 38.95 178.63 24.52 171.09 22.1 183.33 38.95" style="fill:none;"/><polygon id="uuid-718e93dc-caae-4f27-bf6f-97e9abe8ff3b" points="178.63 24.52 190.91 15.61 171.09 22.1 178.63 24.52" style="fill:none;"/><polygon id="uuid-332b4327-24e3-4d94-96d5-3d052ea332b4" points="190.91 15.61 175.74 15.62 171.09 22.1 190.91 15.61" style="fill:none;"/><polygon id="uuid-dead38c6-a259-4fc8-8aec-bdb5653e16eb" points="175.74 15.62 171.06 1.19 171.09 22.1 175.74 15.62" style="fill:none;"/><polygon id="uuid-0882a790-a816-401c-b5d1-65ad197f36b4" points="158.79 38.95 171.09 22.1 163.48 24.52 158.79 38.95" style="fill:none;"/></g></g><path id="uuid-5b811183-62bb-4b16-8b88-9233c0917008" d="M172.49,43.37c-51.15,0-92.61,41.46-92.61,92.61s41.46,92.61,92.61,92.61,92.61-41.46,92.61-92.61-41.46-92.61-92.61-92.61Z" style="fill:#00a04a;"/><path id="uuid-a66fb9ac-867c-4779-902c-0d86a5648f42" d="M11.8,227.34l61.5-.19s-7.8-8.36,17.47-11.52,75.06-2.04,83.24-1.86,109.99-4.83,97.55,13.19l61.69.37-42.18,26.94,53.51,33.07s-66.61,3.62-88.72,2.51-44.22.37-47.19-11.52c-2.42-8.18,20.81-16.16,20.81-16.16,0,0-70.05-3.53-114.08-.19,0,0,21.08,8.36,21,14.86-.09,6.97-8.27,11.71-30.84,12.26-25.93.64-61.87,1.86-105.53-1.86l53.51-32.7-41.71-27.22h0Z" style="fill:#00a04a;"/><g id="uuid-8bf84936-cc7b-4d62-8d33-4e02be292c33"><path id="uuid-87bc2b3d-a7ee-4655-b5f9-d141247f9fe2" d="M172.49,220.7c-46.72,0-84.73-38.01-84.73-84.73s38.01-84.73,84.73-84.73,84.73,38.01,84.73,84.73-38.01,84.73-84.73,84.73Z" style="fill:#f6e600;"/><path id="uuid-3be1f05a-375b-4139-82cd-4b844bfb037f" d="M172.49,59.13c-42.37,0-76.84,34.47-76.84,76.84s34.47,76.84,76.84,76.84,76.84-34.47,76.84-76.84-34.47-76.84-76.84-76.84ZM172.49,210.85c-41.29,0-74.87-33.59-74.87-74.87s33.59-74.87,74.87-74.87,74.87,33.59,74.87,74.87-33.59,74.87-74.87,74.87Z" style="fill:#00a04a;"/><g id="uuid-b60a9d9f-a43b-4dcf-bccb-20c33d3fdac0"><g id="uuid-d9f704cd-1240-4e8f-bf68-f8bc48fed711"><polygon id="uuid-ea8bc3f5-4740-4143-a284-0bb88303f1b3" points="130.88 79.13 139.38 88.18 137.36 90.1 131.54 84.28 133.39 89.61 131.89 91.04 126.53 88.81 132.1 94.98 130.12 96.82 121.58 87.77 124.19 85.4 130.53 88.04 128.37 81.5 130.88 79.13" style="fill:#00a04a;"/><polygon id="uuid-de1a0c0b-7b22-48bc-8179-5cfb85cea2bc" points="161.67 65.82 164.82 77.84 162.13 78.56 159.79 70.67 158.87 76.24 156.88 76.78 153.22 72.26 155.18 80.34 152.56 81.02 149.37 68.99 152.8 68.15 157.11 73.5 158.33 66.71 161.67 65.82" style="fill:#00a04a;"/><path id="uuid-73ca1424-e14f-49d8-a641-f475be71eaa5" d="M148.23,83.13l2.89-1.46-9.89-8.92-2.89,1.71,2.4,12.92,2.61-1.53-.54-2.56,3.52-1.95,1.89,1.79h0ZM142.35,81.03l-.91-4.35,3.25,3.08-2.34,1.26h0Z" style="fill:#00a04a;"/><polygon id="uuid-8df5f606-02b4-42df-b151-b024d8572a5b" points="170.68 67.49 176.07 67.44 176.03 65.12 167.62 65.21 167.85 77.76 176.21 77.62 176.21 75.48 170.82 75.43 170.77 72.14 175.75 72 175.75 69.81 170.72 69.81 170.68 67.49" style="fill:#00a04a;"/><polygon id="uuid-e98b15f3-a6a1-4d0e-b044-4316332411a5" points="183.71 66.07 180.72 65.52 178.63 77.78 186.78 79.38 187.13 77.22 181.9 76.11 183.71 66.07" style="fill:#00a04a;"/><path id="uuid-a2174819-269b-4140-9cb0-2ab992552984" d="M197.86,69.65c-3.9-1.67-6.55,1.11-7.8,3.44-1.25,2.32-1.21,6.74,2.51,8.55s6.69.42,8.5-3.44c1.81-3.86-.04-7.19-3.21-8.55ZM198.32,76.76c-.88,1.9-2.28,4.04-4.6,2.88s-1.16-4.46-.6-5.48c.56-1.02,1.77-3.39,4.09-2.32,1.8.83,2,3.02,1.11,4.92h0Z" style="fill:#00a04a;"/><path id="uuid-dc21ebf7-253f-4e32-86c9-53c975a714ce" d="M212.81,78.48c-1.53-1.21-4.92-3.58-4.92-3.58l-7.15,10.17s3.02,2,4.69,3.16c1.67,1.16,5.34,1.72,7.94-1.77,2.6-3.48.98-6.78-.56-7.99h0ZM210.82,84.65c-1.63,2.51-4.09,1.95-4.78,1.44-.7-.51-1.53-1.11-1.53-1.11l4.55-6.55s.42.28,1.53,1.07c1.11.79,1.86,2.65.23,5.16h0Z" style="fill:#00a04a;"/><polygon id="uuid-ece7b8d3-5b36-460e-a618-16b1e92b1d76" points="213.54 92.68 212.26 91.34 210.82 92.88 215.32 97.57 216.9 96.17 215.56 94.78 221.66 88.98 222.94 90.32 224.43 88.88 219.78 84.14 218.43 85.58 219.65 86.86 213.54 92.68" style="fill:#00a04a;"/></g><g id="uuid-77870714-67f7-4661-bea1-9b4695f88d73"><path id="uuid-4fe801a8-37be-4f2e-a74a-448eb74f5486" d="M124.61,185.21c-3.58.38-6.11-3-7.7-6.29l2.38-2.25c.3,3.87,3.23,6.95,4.73,5.48,1.59-1.57-4.02-5.43-1.23-8.79,2.9-3.49,7.6-.38,9.55,4.4l-2.15,2.02c-.12-1-1.18-4.77-3.4-5.03-.24-.03-.66-.14-1.17.33-.95.87.94,2.64,1.99,5.48.71,1.92-.65,4.01-2.99,4.66h0Z" style="fill:#00a04a;"/><path id="uuid-a9b4304b-9daa-4839-8a2b-95f8396ccf18" d="M227.97,177.95c.48,3.56-2.83,6.19-6.08,7.87l-2.32-2.32c3.86-.41,6.86-3.42,5.35-4.88-1.61-1.55-5.32,4.17-8.75,1.48-3.57-2.8-.59-7.59,4.13-9.67l2.08,2.09c-1,.15-4.74,1.31-4.93,3.54-.02.25-.12.67.36,1.16.89.93,2.61-1.01,5.42-2.14,1.9-.76,4.03.54,4.74,2.86h0Z" style="fill:#00a04a;"/><path id="uuid-37c7193b-afec-4400-b7c5-62ad9d34e374" d="M140.21,184.61l-4.25,6.1c-.46.66-1.16,1.12-1.6,1.21-.44.09-1.02-.06-1.58-.44-.6-.41-.96-.96-1.07-1.41-.15-.53.26-1.58.74-2.28l4.64-6.87-2.48-1.78-5.04,7.25c-.91,1.31-1.2,2.61-.86,3.84.34,1.2,1.26,2.33,2.73,3.34.62.43,1.25.74,1.89.94.52.16,1.04.23,1.55.21.13,0,.26-.01.38-.03.63-.08,1.25-.32,1.84-.72.58-.39,1.12-.94,1.62-1.66l4.78-6.88-2.53-1.83-.77,1.01h0Z" style="fill:#00a04a;"/><polygon id="uuid-131cb104-de79-4cde-9196-ecc021316a9f" points="146.8 191.32 148.19 201.96 150.99 203.13 155.96 190.72 153.21 189.65 150.37 196.78 149.24 188 145.61 186.48 140.64 198.89 143.31 199.94 146.8 191.32" style="fill:#00a04a;"/><polygon id="uuid-808dd302-a602-405d-af3d-2546507d6b96" points="206.73 186.72 216.28 191.27 218.88 189.47 211.27 178.73 208.86 180.44 213.26 186.73 205.3 182.86 202.12 185.22 209.68 196.02 212.02 194.36 206.73 186.72" style="fill:#00a04a;"/><path id="uuid-a5df36f6-20a2-47d5-9b42-45d61cab8938" d="M157.85,191.68l-1.36,13.12c2.65.17,5.63.8,7.5.42,4.78-.96,6.28-7.42,3.47-10.9-2.04-2.53-7.04-2.49-9.61-2.64ZM159.95,202.75l.86-8.42c2.42.14,4.84.72,4.76,3.89-.09,3.53-1.51,5.3-5.62,4.53Z" style="fill:#00a04a;"/><path id="uuid-e1b6e9a6-70ed-4dbf-b229-e465e7933a52" d="M183.56,196.35c-.33-.83-.79-1.54-1.37-2.12-.58-.58-1.29-1.01-2.11-1.3-.82-.28-1.76-.38-2.8-.3-.98.07-1.86.3-2.61.67-.76.38-1.41.89-1.9,1.53-.5.64-.86,1.41-1.08,2.29-.22.87-.28,1.85-.2,2.92.08,1.01.28,1.93.6,2.75.33.83.78,1.55,1.36,2.12.58.58,1.29,1.02,2.11,1.3.64.22,1.35.33,2.13.33.22,0,.44,0,.67-.03.96-.07,1.84-.3,2.59-.67.76-.37,1.41-.89,1.91-1.53.5-.64.87-1.41,1.1-2.29.22-.87.29-1.86.21-2.93-.08-1.01-.28-1.93-.61-2.75h0ZM180.24,202.98c-.48.69-1.18,1.06-2.13,1.13-.52.04-.97-.03-1.35-.21-.38-.18-.7-.44-.96-.8-.27-.37-.49-.84-.66-1.38-.17-.56-.28-1.2-.32-1.89-.11-1.61.09-2.8.58-3.54.48-.72,1.16-1.09,2.1-1.16.1,0,.2-.01.3,0,.42,0,.78.08,1.09.23.38.18.71.46.98.82.28.38.5.84.64,1.38.16.56.26,1.19.31,1.86.11,1.66-.08,2.86-.57,3.57h0Z" style="fill:#00a04a;"/><polygon id="uuid-17060028-9571-4391-a0a4-e3d4260d2b18" points="199.57 196.96 198.71 187.76 201.78 186.76 202.66 200.35 199.29 201.49 194.69 194.36 195.18 202.86 191.74 203.97 184.57 192.45 187.66 191.41 192.28 199.37 191.72 190.13 194.67 189.09 199.57 196.96" style="fill:#00a04a;"/></g></g><g id="uuid-94179d83-6782-48ab-a2b6-437e33b920cd"><path id="uuid-476b80e6-34a5-4bd8-b3e7-ee678cdca6bd" d="M103.54,135.16l.26-1.15c1.77-.21,2.16-.7,2.54-1.5h1.27s-1.6,7.61-1.6,7.61h-1.65s1.06-4.95,1.06-4.95c-.64.01-1.35-.01-1.87-.01h0Z" style="fill:#00a04a;"/><path id="uuid-25fb9267-eb82-471d-846f-1a17dc180097" d="M108.49,138.23l1.5-.03c.02.31.17.51.31.64s.34.26.57.27c.3.01.63-.07.86-.27.42-.28.75-.72,1.19-1.95-.42.39-.66.71-1.65.75-.69.03-1.3-.31-1.73-.74s-.59-.94-.56-1.66c.03-.8.34-1.51.93-2.11s1.32-.85,2.27-.81c.83.03,1.49.36,1.92.91.42.55.58,1.29.55,2.21-.05,1.42-.38,2.64-1.12,3.59s-1.71,1.28-2.86,1.24c-.68-.02-1.21-.21-1.6-.57s-.54-.86-.57-1.47h0ZM113.1,134.97c.01-.42-.09-.78-.27-.98s-.49-.35-.77-.36c-.34-.01-.74.1-1.01.35-.27.25-.5.68-.48,1.32.03.75.71,1.05.97,1.09.69.1,1.24-.3,1.38-.62s.17-.46.18-.79h0Z" style="fill:#00a04a;"/><path id="uuid-77d63eb7-8159-4d9d-a634-cd28fd0609c3" d="M227.59,133.89l.31-1.4h5.42l-.25,1.33c-.35.26-.68.59-1.11,1.1-.48.56-2.09,2.78-2.67,5.17l-1.64.03c.66-3.02,3.02-5.5,3.68-6.22l-3.73-.02Z" style="fill:#00a04a;"/><path id="uuid-8d5241cd-54d9-4d95-97a1-984fecfc9181" d="M232.92,137.6c0-.78.11-1.65.41-2.45.37-.98.76-1.66,1.34-2.14s1.35-.7,2.06-.7,1.22.32,1.68.78.71,1.1.71,1.97c0,.8-.11,1.57-.44,2.45s-.79,1.57-1.36,2.04c-.57.47-1.21.71-1.93.71s-1.3-.23-1.77-.69-.7-1.12-.7-1.98ZM235.29,139.08c1.2.18,1.74-1.36,2.02-2.37.22-.8.56-2.81-.66-3.04-1.25-.24-1.76,1.45-2,2.38-.2.78-.48,2.87.64,3.03Z" style="fill:#00a04a;"/></g><g id="uuid-220228df-0f09-48be-8bc2-293e36e4bcfe"><path id="uuid-a5b57303-3ae9-4085-b931-d456bd60b2e3" d="M155.03,175.41l26.7.23v-5.06c0-1.52.38-2.22,1.9-2.87,1.52-.65,2.08-.85,2.76-1.74.69-.89,4.59-5.58,4.98-6.03s1.32-1.39,1.65-1.92,1.6-2.42,2.04-3.36c.44-.94,1.34-1.85,1.81-2.56s2.25-3.26,2.68-4.08c.44-.82.68-.52,1.01-3.55.33-3.03,1.59-8.12,2.33-10.03s1.93-4.85,3.79-7.41,2.83-3.83,1-5.11c-1.83-1.28-5.3-1.6-7.52-.16s-4.62,4.99-5.78,7.04-2.18,4.3-2.65,4.83-1.37,1.25-2.11,1.67c-.74.42-1.77,1.09-1.77,1.09,0,0-1.02-8.9-.88-12.76.14-3.87.28-5.26.31-6.38s-.24-10.03-.42-12.09-.59-6.55-.77-7.94c-.17-1.39-1.57-3.83-4.08-3.45-2.51.38-3.41,1.95-3.48,3.34-.07,1.39-.49,9.58-.59,11.5-.09,1.69-.7,11.95-.84,14.39,0,.09-.14.1-.16.01-.44-1.61-2.03-6.57-5.03-7.61-3.59-1.25-6.65-.45-7.04,4.08,0,0-2.37-3.14-6.27-1.22s-2.82,6.24-2.82,6.24c0,0-1.39-1.53-3.76-.59-2.37.94-3,5.33-3,6.65s-.85,7.23-.38,14.9c.46,7.66.65,8.96,1.3,11.29s4.32,11.52,5.06,12.82l.02,5.84h0Z"/><path id="uuid-dde5a6c5-288c-4e82-b4fa-6341d3ab6369" d="M155.52,174.92l-.02-5.48-.06-.11c-.7-1.22-4.38-10.42-5.02-12.71-.64-2.27-.82-3.49-1.28-11.18-.35-5.79.05-10.55.27-13.12.07-.82.12-1.41.12-1.75,0-1.31.66-5.39,2.69-6.2.45-.18.9-.27,1.32-.27,1.19,0,1.87.71,1.9.74l1.3,1.39-.46-1.84c-.04-.16-.93-3.96,2.56-5.67.77-.38,1.53-.57,2.26-.57,2.12,0,3.39,1.63,3.4,1.64l.77,1.01.11-1.27c.23-2.76,1.5-4.16,3.75-4.16.78,0,1.67.17,2.63.51,2.78.97,4.31,5.82,4.71,7.28.07.25.29.42.55.42.3,0,.55-.24.57-.54l.05-.88c.2-3.41.71-11.99.79-13.52.11-1.92.52-10.1.59-11.5.04-.73.41-2.48,3.07-2.88.15-.02.3-.03.45-.03,1.9,0,2.93,1.99,3.07,3.06.18,1.41.6,6,.76,7.92.18,2.07.45,11.01.42,12.03-.01.41-.04.86-.08,1.45-.06,1.05-.15,2.48-.24,4.92-.14,3.86.84,12.47.89,12.84l.09.8.67-.44s1.02-.67,1.74-1.07c.79-.44,1.73-1.19,2.24-1.78.29-.33.67-1.07,1.33-2.34.41-.8.88-1.71,1.37-2.57,1.34-2.36,3.62-5.57,5.62-6.87.87-.56,2.03-.87,3.28-.87,1.4,0,2.78.38,3.7,1.02.61.42.72.74.76.94.12.73-.68,1.83-1.78,3.35l-.09.12c-1.97,2.71-3.19,5.84-3.85,7.52-.77,1.96-2.03,7.13-2.36,10.15-.25,2.29-.43,2.56-.68,2.93-.08.13-.17.26-.27.45-.31.57-1.35,2.11-2.04,3.13-.27.39-.49.72-.62.91-.16.24-.38.51-.61.8-.44.55-.93,1.17-1.24,1.82-.34.74-1.26,2.14-1.75,2.9-.11.17-.2.31-.26.41-.2.32-.7.85-1.09,1.29-.21.22-.39.43-.52.58-.31.37-4.29,5.13-4.99,6.05-.56.74-1,.92-2.29,1.47l-.28.12c-1.65.7-2.2,1.54-2.2,3.32v4.57l-25.71-.22h0Z" style="fill:#00a04a;"/><g id="uuid-0a76aef1-8e5a-4531-8388-897dc2f06015"><path id="uuid-0e6eabf9-f144-4aad-b849-353c0f73cc32" d="M158.32,139.79c.51,0,.97-.21,1.33-.6.57-.62.75-1.53.72-1.86l-.02-.2-.2-.02s-.95-.09-2.19-.09c-.97,0-1.89.13-1.97,1.1-.03.34.1.68.36.97.42.46,1.11.71,1.95.71h0ZM156.49,138.15c.03-.34.16-.65,1.48-.65.85,0,1.56.04,1.91.07-.05.32-.22.88-.58,1.28-.27.29-.59.43-.97.44-.95,0-1.41-.35-1.59-.55-.17-.18-.25-.4-.24-.59h0Z"/><path id="uuid-10991c83-398f-4990-9fc9-345ded78d023" d="M166.03,141.89c1.44-.33,2.76-.91,3.04-2.7.65,1,1.96,1.6,3.15,1.6.16,0,.32-.01.48-.03,1.26-.18,3.39-.86,3.44-3.3.05-2.07-.26-10.24-.41-11.69v-.11c-.17-1.55-.65-6.25-1.48-8.49l-.46.17c.8,2.18,1.28,6.84,1.44,8.37v.11c.07.55.15,2.09.22,3.9-.58-1.03-1.4-1.83-1.44-1.87l-.34.36s1.59,1.54,1.83,3.02h.01c.09,2.52.16,5.17.14,6.23-.05,2.09-1.91,2.67-3.02,2.83-1.38.2-3.15-.63-3.44-2.04-.12-.58-.42-2.01-.77-3.66-.6-2.84-1.34-6.37-1.53-7.34-.3-1.52-1.59-7.29-1.6-7.35l-.48.11c.01.06,1.3,5.82,1.6,7.33.19.97.93,4.51,1.53,7.35.29,1.37.54,2.58.69,3.28h-.02c.2,2.31-.88,3.04-2.69,3.46-1.77.41-3.65-1.79-4.06-2.82-.14-.34-.35-.91-.6-1.6-.02-.09-.04-.19-.06-.29h-.04c-.2-.53-.41-1.14-.64-1.75-.46-1.27-.94-2.61-1.33-3.67-.88-2.36-2.85-6.19-2.87-6.23l-.44.23s1.98,3.85,2.84,6.17c.39,1.06.88,2.4,1.33,3.66.26.72.51,1.41.73,2.02.29,1.67-1.15,2.53-1.33,2.63-.23.13-2.25,1.11-4.92-2.32-.03-.22-.12-1.08.14-1.79l-.46-.16c-.15.42-.19.86-.2,1.24-2.76-3.96-4.14-8.73-4.16-8.78l-.47.14c.01.05,1.51,5.21,4.5,9.31,1.86,2.55,3.51,3.09,4.58,3.09.69,0,1.14-.22,1.24-.28.16-.09,1.19-.71,1.52-1.88.07.18.13.34.18.46.47,1.19,2.26,3.18,4.09,3.18.18,0,.36-.02.54-.06h0Z"/><path id="uuid-87844b14-eaf4-47f5-8901-984e7054d2a4" d="M163.73,140.6c.64.59,1.2.81,1.75.81.51,0,1.03-.19,1.62-.43,1.49-.62,1.01-1.97.51-3.4-.55-1.54-1.75-1.64-2.72-1.71h-.1c-1.75-.14-2.38.78-2.71,1.48-.47,1.03.63,2.34,1.64,3.26h0ZM162.54,137.55c.28-.61.73-1.22,1.91-1.22.1,0,.2,0,.31.01h.1c.95.08,1.85.15,2.29,1.39.54,1.53.78,2.35-.23,2.78-1.21.51-1.85.64-2.85-.28-1.23-1.13-1.79-2.11-1.52-2.69h0Z"/><path id="uuid-0fb560eb-5b76-4936-ba91-bc10db2266d3" d="M170.66,139.6c.43.29.93.44,1.49.44.26,0,.53-.03.82-.09,2.13-.46,2.11-2.25,2.08-3.97,0-.19,0-.39,0-.59,0-1.13-.51-2.48-2.94-2.48-1.08,0-1.56.17-2.28.56-.86.47-.63,2.68-.43,3.95.15.94.61,1.74,1.26,2.18h0ZM170.06,133.9c.62-.34,1.02-.5,2.04-.5,1.65,0,2.45.65,2.45,1.98,0,.2,0,.4,0,.59.03,1.67.05,3.11-1.69,3.49-.77.17-1.42.08-1.93-.27-.54-.37-.92-1.04-1.05-1.85-.3-1.8-.22-3.22.18-3.44h0Z"/><path id="uuid-d7a10c94-0d7e-46b9-9410-1682336efde8" d="M179.27,124.32l-.37.33c.07.07,1.46,1.6,4.09,1.6.34,0,.7-.03,1.08-.08l-.07-.49c-3.05.46-4.71-1.34-4.73-1.36h0Z"/><path id="uuid-6e786c2d-8f08-4797-a519-aa8bbffe85c8" d="M179.53,125.83l-.18.16-.18.16s.75.83,2.15.83c.06,0,.12,0,.18,0l-.02-.49c-1.27.06-1.91-.63-1.94-.66h0Z"/><path id="uuid-9082e386-73e4-4b50-8ee2-83cb5442b085" d="M204.92,125.65c-.78,2.01-.63,3.62-.42,4.25l.47-.16c-.18-.53-.32-2.04.41-3.92.63-1.62,1.85-1.78,2.96-1.72l.03-.49c-.71-.04-2.6-.13-3.45,2.04h0Z"/><path id="uuid-a6b56e49-f882-4563-b0d5-0e6416460a0b" d="M174.03,146.13c-1.61,1.38-3.07,2.74-4.2,4.6-.59.1-1.19.07-1.97-.1-.67-.15-.87-1.18-1.02-1.97-.17-.88-1.4-2.71-1.45-2.78l-.41.28c.34.51,1.25,1.96,1.39,2.64.17.89.41,2.1,1.39,2.32.53.12.98.18,1.41.18.12,0,.24,0,.36-.02-.42.78-.79,1.64-1.09,2.62-1.09,3.58-.28,6.17.12,7.41l.04.14.47-.15-.04-.14c-.38-1.2-1.17-3.69-.12-7.12,1.09-3.56,3.11-5.51,5.45-7.53,2.27-1.95,6.04-3.76,6.08-3.77l-.21-.44c-.16.07-3.87,1.85-6.19,3.84h0Z"/></g></g></g><g id="uuid-bab2fd68-91b2-449e-ac26-cac29fe68b49"><path id="uuid-62a67b5d-b9f7-46d7-b1b1-6039d75d5127" d="M117.05,273.05c-8.83-3.72-16.79-4.85-17.91-8.01-.05-.14-.09-.27-.13-.41l-.19.11-16.86-30.57-51.31-.51,39.58,20.9-49.89,28.24c5.85,1.3,42.92,2.04,79.89.56,36.97-1.49,25.64-6.6,16.81-10.31h0Z" style="fill:#f6e600;"/><path id="uuid-9b16342b-78c1-4c4a-8b96-ad23b920637d" d="M246.31,263.36l17.25-31.45c1.71-4.09,1.77-6.32-6.32-8.01-9.38-1.95-44.88-3.98-79.99-4.74-41.02-.88-82.54,3.07-91.6,4.92-5.65,1.16-5.52,4.79-4.62,7.36l17.83,32.34c-.16-2.79,3.78-4.35,21.53-5.79,16.62-1.35,58.99-2.42,73.67-1.58s46.54,1.05,51.19,5.39c.59.55.92,1.06,1.05,1.56h0Z" style="fill:#f6e600;"/><path id="uuid-5190a694-e71f-42b9-8b6e-2c8d411a778f" d="M274.89,254.37l39.48-20.72-51.42.37-16.71,30.47c-.07.18-.17.35-.29.52l-.32.58-.12-.06c-2.1,2.08-7.75,3.81-12.72,5.94-7.62,3.25-29.89,8.99,7.43,11.52,37.39,2.54,84.35-.09,84.35-.09l-49.7-28.52h0Z" style="fill:#f6e600;"/></g><g id="uuid-e56cb4a3-d12e-499d-9728-b06461a4a047"><polygon id="uuid-002f64d7-9e57-4074-a66c-b0ac58a7816d" points="164.14 231.64 164.14 233.21 161.8 233.21 161.8 231.71 161.91 231.53 164.04 231.53 164.14 231.64" style="fill:#00a04a;"/><path id="uuid-c08afe72-ca13-4048-b164-28508744565a" d="M220.06,237.11c.45-.37,1.13-.92,1.85-.99,1.21-.11,2,.44,2.53,1.51.68-.49,1.38-1.11,2.24-1.21,1.2-.13,2.39.62,2.44,1.85.09,2.07-.15,3.92-.29,6.09l-2.2-.19c0-.47.02-.91.03-1.2.04-1.35.12-2.68.12-4.11,0-.64-.81-.67-1.34-.62-.66.07-.91.42-.94,1.07-.07,1.42-.17,3.12-.3,4.74-.47.09-2.3-.04-2.3-.14.08-1.26.23-2.85.28-4.11.02-.52.12-1.3-.29-1.68-.51-.48-1.42-.22-1.89.17l-.41,5.35c-.1.15-1.93-.02-2.23-.09l.44-7.39.06-.09,2.21.09c0,.17-.04.74,0,.94h0Z" style="fill:#00a04a;"/><path id="uuid-e9109ea2-1064-4459-9ca4-4558d57ffa7d" d="M139.28,235.18c-1.33-.66-2.64-1.36-4.17-.84-1.14.39-1.24,1.48,0,1.9,1.86.62,4.62.5,4.76,3.13.17,3.34-3.7,3.87-6.24,3.45-.35-.06-1.56-.33-1.7-.64,0-.5.03-1.39,0-1.83v-.36c.69.43,1.4.88,2.21,1.07.91.21,3.27.35,3.24-1.04,0-.35-.22-.7-.54-.86-1.53-.73-4.11-.23-4.91-2.39-1.47-3.96,4.29-5.1,6.98-3.9.08.04.37.24.37.29v2.01h0Z" style="fill:#00a04a;"/><path id="uuid-ba71e3e0-de4e-4014-a248-49cc927d12be" d="M183.49,242.26c-.1-.06-.12-.14-.11-.25.06-1.95.06-3.31.08-4.74.02-1.85.05-3.71.14-5.55.47-.03.65-.04.99-.03.22,0,1.16-.06,1.25.07l-.03,3.86c1.52-1.81,4.53-1.47,4.74.99.11,1.31.11,3.81,0,5.11-.02.21-.04.27-.02.59h-2.3c.03-.96.05-1.24.05-1.48.02-1,.14-2.64,0-3.57-.2-1.36-2.37-1.05-2.46-.1-.1,1.2-.05,2.76-.1,3.91-.02.38.02.67.02,1.15l-2.25.05h0Z" style="fill:#00a04a;"/><path id="uuid-79890950-82c3-4347-8156-96c1a718929e" d="M113.02,237.07c-.04.45,1.21-.63,1.47-.74,1.39-.58,2.78-.06,3.24,1.42.32,1.03.23,2.26.27,3.35.02.73.04,1.96.06,2.65-.4.1-1.86.13-2.31.14-.02-.37-.01.31-.03-.44-.02-1.13,0-2.23-.07-3.29-.04-.5-.06-1.39-.34-1.78-.45-.64-2.15-.41-2.21.27-.06.67,0,1.52.02,2.19.03,1.06.08,2.1.11,3.16-.63.01-1.75.06-2.25,0l-.33-10.49h.19s1.99-.02,1.99-.02l.18,3.58h0Z" style="fill:#00a04a;"/><path id="uuid-122ee3a2-7acc-4bcb-abed-6fc839749463" d="M143.26,231.82l.1.12c.23,1.94-.05,3.92.16,5.86l2.12-2.86.26-.2h2.45l-2.4,3.31,2.84,4.28h-2.6l-2.05-3.06-.22-.08c-.29-.02-.4.41-.39.64,0,.7.05,1.29.07,2.33,0,.11-.02.07-.02.25h-2.29c-.01-.63,0-1.02-.03-1.5-.09-1.85-.05-3.69-.07-5.55-.01-1.06-.08-2.19-.08-3.28,0-.11,0-.19.11-.25h2.05,0Z" style="fill:#00a04a;"/><path id="uuid-e05da623-1c56-4e2b-9a29-5752f72be452" d="M199.47,239.09h-5.19c-.32,1.77,1.72,2.16,3.09,1.91.7-.13,1.34-.47,1.98-.76.06.33.03.84-.09,1.86-.51.23-1.21.39-1.44.44-3.35.73-6.41-.79-5.84-4.6.42-2.83,3.39-4.14,5.86-2.92,1.45.71,1.9,2.62,1.63,4.07h0ZM195.43,236.07c-.33.05-.77.3-.96.57-.14.19-.42.9-.19,1.06.12.08,1.78.02,2.09.03.35,0,.85.29.84-.32-.01-.93-.91-1.47-1.78-1.34Z" style="fill:#00a04a;"/><path id="uuid-65446e92-711c-412f-96f2-cff7d56b14d6" d="M126.72,239.74l-5.15.36c-.27.19.17,1,.34,1.2.78.92,2.51.73,3.52.31.45-.19.7-.31,1.19-.67,0,.43.01,1.67-.03,1.9-.04.2-1.71.58-2,.63-3.27.58-5.75-1.03-5.43-4.54.36-3.86,6.4-4.8,7.36-1.07.08.3.23,1.66.2,1.88h0ZM124.42,238.45c-.03-1.72-2.38-2.02-2.92-.47-.34.97.05.71.7.7.35,0,1.72-.03,2.22-.23Z" style="fill:#00a04a;"/><path id="uuid-42b4e734-21e3-463a-a3bb-76e55c6c8953" d="M156.61,234.52l-3.66,10.44h-2.41l1.01-3.01-2.84-7.35h2.16c.06,0,.25.16.27.24.52,1.37.9,2.81,1.46,4.16.03.06.15.48.27.35l1.34-4.54c.02-.07.21-.27.24-.27h2.16Z" style="fill:#00a04a;"/><path id="uuid-a4c1d501-4890-4092-9a64-92df92e7c218" d="M109.57,236.26c-.61.07-2.36.15-2.72.2-.11.02-.27,0-.24.1l.35,8.16h-.2s-1.9.16-1.9.16l-.3.04-.53-8.24c-.25-.01-1.11.02-1.28.02-.26,0-1.57.04-1.68.04-.06,0-.04-.13-.05-.22l-.03-1.64h.21s8.23-.41,8.23-.41l.13,1.78h0Z" style="fill:#00a04a;"/><path id="uuid-d5db3793-0ef9-4ddd-903a-075d654bc9c7" d="M171.75,236.64c-.46-.19-.86-.51-1.35-.66-.59-.18-1.96-.37-2.34.22-.65.99,1.63,1.15,2.23,1.35.76.25,1.46.62,1.7,1.44.45,1.47-.62,2.7-1.98,3.1-1.35.4-3.2.28-4.4-.45v-1.79c.48.1.9.47,1.37.64.67.24,1.67.36,2.35.11.46-.17.55-.84.15-1.08-1.35-.45-3.59-.49-3.85-2.29-.46-3.12,4.15-3.61,6.13-2.39v1.79h0Z" style="fill:#00a04a;"/><path id="uuid-bd21883f-cecc-4196-a1f1-3965b52d26ac" d="M211.67,243.12l-6.63-.22.35-10.02,2.16.04h.2s-.2,8.17-.2,8.17c.35.11,3.76.15,4.14.26.06.29-.01,1.27-.02,1.77h0Z" style="fill:#00a04a;"/><path id="uuid-161f01fa-532e-495d-a7ff-5861dbdbdd98" d="M182.21,236.13h-2.08s-.19.02-.18.07v3.83c0,.07,0,.38.33.55.56.29,1.4.18,1.94,0v1.5c-.67.31-1.78.33-2.52.25-2.27-.25-1.99-1.88-2.02-3.61,0-.21.07-2.04-.08-2.52l-.87-.07v-1.51s.9-.08.9-.08c.05-.05.06-.36.06-.42v-1.61c.05-.07.1-.09.18-.11.2-.04,1.81-.02,1.94.04.03.02.15.13.15.14v1.99s2.16.02,2.16.02l.11.11v1.42h0Z" style="fill:#00a04a;"/><path id="uuid-d289993c-2f15-4022-a80b-4ffc88407f1f" d="M240.12,239.09l-2.08-.08s-.19.01-.19.07l-.15,3.83c0,.07-.01.38.31.56.55.31,1.39.23,1.94.07l-.06,1.49c-.68.28-1.79.26-2.52.15-2.26-.34-1.92-1.95-1.88-3.68,0-.21.14-2.04.02-2.52l-.87-.1.05-1.42v-.08s.9-.04.9-.04c.05-.05.07-.35.07-.42l.06-1.6c.05-.07.1-.09.19-.1.2-.03,1.81.05,1.93.11.03.02.14.14.14.15l-.07,1.9v.09s2.15.1,2.15.1l.11.11-.05,1.42h0Z" style="fill:#00a04a;"/><path id="uuid-22281524-7005-4f87-9a8a-7231946b8f10" d="M161.8,234.63s.11-.13.15-.14c.13-.06,1.73-.07,1.94-.04.08.02.26.13.26.18v7.3l-.11.11h-2.12l-.11-.11v-7.3h0Z" style="fill:#00a04a;"/><path id="uuid-1d4d52df-d4e4-4cea-84e9-fad076e63f8a" d="M213.15,243.29c.07-1.41.37-6.76.45-7.58.36-.04,1.45.01,1.85.05.08,0,.31.03.33.12l-.39,7.46-2.25-.05Z" style="fill:#00a04a;"/><path id="uuid-4fcc5ec2-ced8-43e3-9e35-5e51d76d0b7d" d="M213.34,234.38c-.11-.07.02-1.16.04-1.67.15-.1.53-.08.72-.07.36.01.99.03,1.32.07.13.02.22.03.29.15l-.04,1.35c-.01.09-.02.3-.12.3-.64,0-1.74-.13-2.21-.13h0Z" style="fill:#00a04a;"/><path id="uuid-76fb13a0-d312-44eb-81ba-4cb876ca892a" d="M230.98,237.19s.12-.12.15-.14c.13-.05,1.74,0,1.93.05.08.02.25.14.25.19l-.32,7.29-.11.1-2.12-.09-.1-.11.32-7.29h0Z" style="fill:#00a04a;"/><polygon id="uuid-aae39b3a-463f-418c-9c5e-e776ac4740a1" points="233.65 234.14 233.58 235.71 231.24 235.61 231.31 234.11 231.43 233.94 233.54 234.03 233.65 234.14" style="fill:#00a04a;"/></g></g></g></g></svg>