<svg xmlns="http://www.w3.org/2000/svg" viewBox="0 0 294.09 294.09"><title>fc-bayern-munich-logo</title><path d="M366.59,512A145.41,145.41,0,1,1,512,657.41,145.41,145.41,0,0,1,366.59,512" transform="translate(-364.96 -364.96)" style="fill:#005da9"/><path d="M512,659c-81.08,0-147-66-147-147s66-147,147-147,147,66,147,147-66,147-147,147m0-290.82c-79.28,0-143.78,64.5-143.78,143.78S432.72,655.78,512,655.78,655.78,591.28,655.78,512,591.28,368.22,512,368.22" transform="translate(-364.96 -364.96)" style="fill:#005da9"/><path d="M372.93,511.84a139,139,0,1,1,139,139,139,139,0,0,1-139-139" transform="translate(-364.96 -364.96)" style="fill:#fff"/><path d="M512,652.18c-77.38,0-140.33-63-140.33-140.33s63-140.33,140.33-140.33,140.33,63,140.33,140.33S589.34,652.18,512,652.18m0-278.06c-75.94,0-137.72,61.78-137.72,137.72S436,649.56,512,649.56s137.72-61.78,137.72-137.72S587.9,374.12,512,374.12" transform="translate(-364.96 -364.96)" style="fill:#fff"/><path d="M378.54,511.83A133.41,133.41,0,1,1,512,645.24,133.41,133.41,0,0,1,378.54,511.83" transform="translate(-364.96 -364.96)" style="fill:#d0043c"/><polygon points="25.38 117.7 33.12 96.14 39.45 98.41 34.77 111.47 41.28 113.81 45.82 101.14 52.15 103.41 47.61 116.08 59.32 120.28 56.27 128.78 25.38 117.7" style="fill:#fff"/><path d="M437.5,439.1c4.76,5.08,5.55,10.37,1.61,16.61-4.46,7.06-12.5,11.35-23.22,4.58s-10-16.35-5.85-22.94c4.5-7.13,11-7.3,15.35-5.57l-3,7.84c-1.55-.65-4.72-1.67-6.89,1.76-1.31,2.06-2,6.16,5.26,10.74,4.56,2.88,9.68,4.8,12.43.43,2-3.12-.15-5.71-1.61-7.45Z" transform="translate(-364.96 -364.96)" style="fill:#fff"/><path d="M443.26,407.22l12.11-6.78c2.49-1.39,10.13-5.67,14.14,1.49,3,5.35-.33,8.38-1.58,9.54l.12.2c2.55-1,7-1.75,10,3.6,4.3,7.68-3.95,12.3-6.92,14l-11.83,6.62Zm17.93,4.65c2-1.1,2.67-2.6,1.59-4.53-1.24-2.21-2.52-2.23-4.7-1l-4.1,2.3,3.11,5.55Zm7.1,11.56c2-1.12,2.67-3.08,1.61-5-1.38-2.46-3.06-2.36-5.4-1.05l-4.27,2.39,3.47,6.19Z" transform="translate(-364.96 -364.96)" style="fill:#fff"/><path d="M518.71,419.1l-9.44,1.09-2.74-6.46-12.14,1.4L493,422.07l-9,1,8.19-34,11.32-1.31Zm-14.93-11.55-3.36-7.36a36.27,36.27,0,0,1-1.93-5l-.18,0a40.58,40.58,0,0,1-.82,5.34l-1.69,7.94Z" transform="translate(-364.96 -364.96)" style="fill:#fff"/><path d="M529.49,409.31,521,387l10.19,1.63,3.06,9.17a23.56,23.56,0,0,1,1,4.88l.22,0a38.69,38.69,0,0,1,2.75-4.6l5.4-7.49,9.83,1.57-15.06,18.5-1.93,12-8.92-1.43Z" transform="translate(-364.96 -364.96)" style="fill:#fff"/><polygon points="196.56 30.81 216.76 41.42 213.63 47.38 201.27 40.88 198.44 46.27 210.06 52.38 206.94 58.34 195.31 52.23 192.26 58.02 205.07 64.75 201.94 70.71 181.29 59.87 196.56 30.81" style="fill:#fff"/><path d="M595.88,416.45l10.18,11.06c1.69,1.83,7.4,8,.55,14.35-3,2.78-6.39,3.87-10.26,2.12l-5.75,15.2-6.75-7.32,5.57-12.53-2.31-2.51-9.26,8.53-6.11-6.64Zm-4,15.76L595,435.6c.78.85,2.69,2.92,5.43.39,1.39-1.27,1.89-3.05-.1-5.22l-3.16-3.43Z" transform="translate(-364.96 -364.96)" style="fill:#fff"/><path d="M624.1,453.61l3.47,10.75L614.83,477a44.25,44.25,0,0,1-5.83,4.89l.13.39a42.76,42.76,0,0,1,6.49-2.53l15.31-4.95,2.58,8-31.24,10.09L598.78,482l13.29-13.16a27.38,27.38,0,0,1,5.33-4.19l-.1-.3c-1.59.61-2.91,1.18-4.75,1.78l-17.12,5.53-2.57-8Z" transform="translate(-364.96 -364.96)" style="fill:#fff"/><path d="M512,428.39a83.44,83.44,0,1,0,83.44,83.44A83.44,83.44,0,0,0,512,428.39" transform="translate(-364.96 -364.96)" style="fill:#fff"/><circle cx="147" cy="146.88" r="83.44" style="fill:none;stroke:#fff;stroke-width:0px"/><path d="M511.94,434.14a77.68,77.68,0,1,0,77.68,77.68,77.69,77.69,0,0,0-77.68-77.68" transform="translate(-364.96 -364.96)" style="fill:#fff"/><circle cx="146.98" cy="146.87" r="77.68" style="fill:none;stroke:#fff;stroke-width:0px"/><path d="M511.94,434.92a76.91,76.91,0,1,0,76.91,76.91,76.91,76.91,0,0,0-76.91-76.91" transform="translate(-364.96 -364.96)" style="fill:#fff"/><circle cx="146.98" cy="146.87" r="76.91" style="fill:none;stroke:#fff;stroke-width:0px"/><polygon points="169.96 106.07 166.94 141.88 183.94 171.04 186.97 135.23 169.96 106.07" style="fill:#005da9"/><polygon points="149.89 112.68 146.86 148.49 163.86 177.66 166.89 141.84 149.89 112.68" style="fill:#005da9"/><polygon points="190.08 99.52 187.04 135.33 204.05 164.49 207.08 128.68 190.08 99.52" style="fill:#005da9"/><path d="M572.12,493.73l16,27.43a76.49,76.49,0,0,0-13.74-54.09Z" transform="translate(-364.96 -364.96)" style="fill:#005da9"/><path d="M569,529.54l-3,35.84-17-29.23-3,35.85L528.86,542.7l-3,35.85-17.12-29.36,3-35.85-17-29.22,3-35.87,17,29.23,3-35.85,17.08,29.29,2.68-31.65A76.94,76.94,0,0,0,443,477.38L454.43,497l3-35.84,17,29.24,3-35.76L494.65,484l-3,35.88-17.05-29.23-3,35.76-17-29.24-3,35.81,17,29.16,3-35.72,17,29.23,3-35.84,17.12,29.35-3,35.87-17-29.23L486.2,584.3a76.92,76.92,0,0,0,93.51-36.46Z" transform="translate(-364.96 -364.96)" style="fill:#005da9"/><path d="M541.17,440.66,555,464.38,556.29,449a76.44,76.44,0,0,0-15.12-8.38" transform="translate(-364.96 -364.96)" style="fill:#005da9"/><path d="M479.77,581.69,468.5,562.38l-1,12.24a77.11,77.11,0,0,0,12.3,7.08" transform="translate(-364.96 -364.96)" style="fill:#005da9"/><path d="M451.39,532.89l-16.23-27.82c-.19,2.2-.31,4.44-.31,6.69a76.57,76.57,0,0,0,14.52,45Z" transform="translate(-364.96 -364.96)" style="fill:#005da9"/><path d="M422.43,538.26l6.29,12.05-12.37,12a49.06,49.06,0,0,1-4.09,3.33l.15.29a45.4,45.4,0,0,1,5.59-1.46l16.57-2.93,6.12,11.73-29.1,15.18-4-7.68L424.32,572c2.17-1.13,5.42-2.67,6.65-3.1l-.26-.49c-1.25.39-5.24,1.33-7.66,1.76l-19.13,3.59-3.07-5.89,15.14-15c1.48-1.45,3.57-3.21,4.51-4l-.22-.41c-1.06.65-4.74,2.88-7.1,4.12l-16,8.33-3.88-7.43Z" transform="translate(-364.96 -364.96)" style="fill:#fff"/><path d="M473.06,597.07l10.78,3.37,2.92,17.67a43.4,43.4,0,0,1,.62,7.58l.4.12a43,43,0,0,1,1.68-6.77l4.8-15.35,8,2.5-9.8,31.32-10.82-3.38-3.07-18.44a27.12,27.12,0,0,1-.34-6.77l-.31-.1c-.42,1.66-.71,3.06-1.29,4.91l-5.36,17.16-8-2.5Z" transform="translate(-364.96 -364.96)" style="fill:#fff"/><path d="M537.42,624.63c-.16,7-3.31,11.29-10.49,13-8.13,1.91-16.87-.67-19.78-13s4.32-18.68,11.9-20.46c8.21-1.93,13,2.53,14.85,6.78l-7.66,3.46c-.65-1.55-2.19-4.51-6.14-3.57-2.38.56-5.74,3-3.77,11.35,1.23,5.25,3.53,10.2,8.56,9,3.59-.85,3.89-4.19,4.07-6.45Z" transform="translate(-364.96 -364.96)" style="fill:#fff"/><polygon points="171.59 237.85 179.56 233.58 185.34 244.39 194.9 239.28 189.11 228.47 197.07 224.21 212.57 253.14 204.6 257.41 198.07 245.21 188.52 250.32 195.05 262.51 187.09 266.78 171.59 237.85" style="fill:#fff"/><polygon points="202.82 221.15 219.57 205.66 224.14 210.59 213.89 220.08 218.01 224.54 227.66 215.62 232.23 220.56 222.59 229.49 227.04 234.29 237.66 224.46 242.23 229.4 225.11 245.24 202.82 221.15" style="fill:#fff"/><path d="M588.37,565.44l5.39-9.92,17.91.55a43.87,43.87,0,0,1,7.56.86l.2-.37a43.53,43.53,0,0,1-6.31-3L599,545.92l4-7.37,28.84,15.67-5.41,10-18.69-.56a27,27,0,0,1-6.71-1l-.16.29c1.55.73,2.87,1.29,4.57,2.21l15.8,8.58-4,7.37Z" transform="translate(-364.96 -364.96)" style="fill:#fff"/><path d="M444.42,577.09l7.13,5.55-12.67,16.31c-2.12,2.73-2.8,5.71.18,8,3.21,2.49,6,1,8-1.67L459.75,589l6.84,5.32-12.67,16.31c-5,6.47-11.88,7.17-19,1.65-6-4.64-9.16-11.2-3.19-18.89Z" transform="translate(-364.96 -364.96)" style="fill:#fff"/><polygon points="93.11 222.58 85.02 228.19 88.52 219 93.11 222.58" style="fill:#fff"/></svg>